{
    "accessors": [
        {
            "bufferView": 0,
            "componentType": 5126,
            "count": 120,
            "max": [
                0.04882611706852913,
                -0.07249061018228531,
                0.005172384902834892
            ],
            "min": [
                0.04517388343811035,
                -0.07628188282251358,
                0.003458616556599736
            ],
            "name": "mesh1424_coord_accessor",
            "type": "VEC3"
        },
        {
            "bufferView": 1,
            "componentType": 5126,
            "count": 120,
            "max": [
                0.9985334277153015,
                0.9839038848876953,
                0.1786985546350479
            ],
            "min": [
                -0.9985334277153015,
                -0.9839038848876953,
                -0.1786985546350479
            ],
            "name": "mesh1424_norm_accessor",
            "type": "VEC3"
        },
        {
            "bufferView": 2,
            "componentType": 5125,
            "count": 360,
            "max": [
                119
            ],
            "min": [
                0
            ],
            "name": "mesh1424_idx_accessor",
            "type": "SCALAR"
        },
        {
            "bufferView": 3,
            "componentType": 5126,
            "count": 120,
            "max": [
                0.05049486830830574,
                -0.07138240337371826,
                0.0073625766672194
            ],
            "min": [
                0.04350513219833374,
                -0.07826973497867584,
                0.004518777132034302
            ],
            "name": "mesh1425_coord_accessor",
            "type": "VEC3"
        },
        {
            "bufferView": 4,
            "componentType": 5126,
            "count": 120,
            "max": [
                0.7536027431488037,
                0.6253249049186707,
                0.7803645133972168
            ],
            "min": [
                -0.7536027431488037,
                -0.8597984910011292,
                0.5106335282325745
            ],
            "name": "mesh1425_norm_accessor",
            "type": "VEC3"
        },
        {
            "bufferView": 5,
            "componentType": 5125,
            "count": 360,
            "max": [
                119
            ],
            "min": [
                0
            ],
            "name": "mesh1425_idx_accessor",
            "type": "SCALAR"
        },
        {
            "bufferView": 6,
            "componentType": 5126,
            "count": 780,
            "max": [
                0.07854830473661423,
                0.009092506021261215,
                0.018929509446024895
            ],
            "min": [
                -0.07854830473661423,
                -0.07945884019136429,
                0.0028466403018683195
            ],
            "name": "mesh1426_coord_accessor",
            "type": "VEC3"
        },
        {
            "bufferView": 7,
            "componentType": 5126,
            "count": 780,
            "max": [
                6.123234262925839e-17,
                0.1786985546350479,
                -0.9839038848876953
            ],
            "min": [
                6.123234262925839e-17,
                0.1786985546350479,
                -0.9839038848876953
            ],
            "name": "mesh1426_norm_accessor",
            "type": "VEC3"
        },
        {
            "bufferView": 8,
            "componentType": 5125,
            "count": 2502,
            "max": [
                779
            ],
            "min": [
                0
            ],
            "name": "mesh1426_idx_accessor",
            "type": "SCALAR"
        },
        {
            "bufferView": 9,
            "componentType": 5126,
            "count": 8,
            "max": [
                0.07854830473661423,
                -0.029516631737351418,
                0.014868954196572304
            ],
            "min": [
                0.07628283649682999,
                -0.07999493926763535,
                0.0028466403018683195
            ],
            "name": "mesh1427_coord_accessor",
            "type": "VEC3"
        },
        {
            "bufferView": 10,
            "componentType": 5126,
            "count": 8,
            "max": [
                0.9990054965019226,
                0.04386962577700615,
                0.007967687211930752
            ],
            "min": [
                0.9990054965019226,
                0.04386962577700615,
                0.007967687211930752
            ],
            "name": "mesh1427_norm_accessor",
            "type": "VEC3"
        },
        {
            "bufferView": 11,
            "componentType": 5125,
            "count": 18,
            "max": [
                7
            ],
            "min": [
                0
            ],
            "name": "mesh1427_idx_accessor",
            "type": "SCALAR"
        },
        {
            "bufferView": 12,
            "componentType": 5126,
            "count": 26,
            "max": [
                0.07854830473661423,
                -0.07945884019136429,
                0.00579835195094347
            ],
            "min": [
                -0.07854830473661423,
                -0.07999493926763535,
                0.0028466403018683195
            ],
            "name": "mesh1428_coord_accessor",
            "type": "VEC3"
        },
        {
            "bufferView": 13,
            "componentType": 5126,
            "count": 26,
            "max": [
                1.1839563493285818e-17,
                -0.9839038848876953,
                -0.1786985546350479
            ],
            "min": [
                1.1839563493285818e-17,
                -0.9839038848876953,
                -0.1786985546350479
            ],
            "name": "mesh1428_norm_accessor",
            "type": "VEC3"
        },
        {
            "bufferView": 14,
            "componentType": 5125,
            "count": 72,
            "max": [
                25
            ],
            "min": [
                0
            ],
            "name": "mesh1428_idx_accessor",
            "type": "SCALAR"
        },
        {
            "bufferView": 15,
            "componentType": 5126,
            "count": 24,
            "max": [
                0.054499998688697815,
                0.009092506021261215,
                0.0218812208622694
            ],
            "min": [
                -0.054499998688697815,
                0.008556410670280457,
                0.018929509446024895
            ],
            "name": "mesh1429_coord_accessor",
            "type": "VEC3"
        },
        {
            "bufferView": 16,
            "componentType": 5126,
            "count": 24,
            "max": [
                -1.5366047195452924e-16,
                0.9839038848876953,
                0.1786985546350479
            ],
            "min": [
                -1.5366047195452924e-16,
                0.9839038848876953,
                0.1786985546350479
            ],
            "name": "mesh1429_norm_accessor",
            "type": "VEC3"
        },
        {
            "bufferView": 17,
            "componentType": 5125,
            "count": 66,
            "max": [
                23
            ],
            "min": [
                0
            ],
            "name": "mesh1429_idx_accessor",
            "type": "SCALAR"
        },
        {
            "bufferView": 18,
            "componentType": 5126,
            "count": 6,
            "max": [
                0.054499998688697815,
                0.009092506021261215,
                0.0218812208622694
            ],
            "min": [
                0.054499998688697815,
                -0.030052727088332176,
                0.011917241849005222
            ],
            "name": "mesh1430_coord_accessor",
            "type": "VEC3"
        },
        {
            "bufferView": 19,
            "componentType": 5126,
            "count": 6,
            "max": [
                1.0,
                -1.0942130431308662e-17,
                6.024673376834431e-17
            ],
            "min": [
                1.0,
                -1.0942130431308662e-17,
                6.024673376834431e-17
            ],
            "name": "mesh1430_norm_accessor",
            "type": "VEC3"
        },
        {
            "bufferView": 20,
            "componentType": 5125,
            "count": 12,
            "max": [
                5
            ],
            "min": [
                0
            ],
            "name": "mesh1430_idx_accessor",
            "type": "SCALAR"
        },
        {
            "bufferView": 21,
            "componentType": 5126,
            "count": 4,
            "max": [
                0.07628283649682999,
                -0.029516631737351418,
                0.014868954196572304
            ],
            "min": [
                0.054499998688697815,
                -0.030052727088332176,
                0.011917241849005222
            ],
            "name": "mesh1431_coord_accessor",
            "type": "VEC3"
        },
        {
            "bufferView": 22,
            "componentType": 5126,
            "count": 4,
            "max": [
                -1.5366047195452924e-16,
                0.9839038848876953,
                0.1786985546350479
            ],
            "min": [
                -1.5366047195452924e-16,
                0.9839038848876953,
                0.1786985546350479
            ],
            "name": "mesh1431_norm_accessor",
            "type": "VEC3"
        },
        {
            "bufferView": 23,
            "componentType": 5125,
            "count": 6,
            "max": [
                3
            ],
            "min": [
                0
            ],
            "name": "mesh1431_idx_accessor",
            "type": "SCALAR"
        },
        {
            "bufferView": 24,
            "componentType": 5126,
            "count": 8,
            "max": [
                -0.07628283649682999,
                -0.029516631737351418,
                0.014868954196572304
            ],
            "min": [
                -0.07854830473661423,
                -0.07999493926763535,
                0.0028466403018683195
            ],
            "name": "mesh1432_coord_accessor",
            "type": "VEC3"
        },
        {
            "bufferView": 25,
            "componentType": 5126,
            "count": 8,
            "max": [
                -0.9990054965019226,
                0.04386962577700615,
                0.007967687211930752
            ],
            "min": [
                -0.9990054965019226,
                0.04386962577700615,
                0.007967687211930752
            ],
            "name": "mesh1432_norm_accessor",
            "type": "VEC3"
        },
        {
            "bufferView": 26,
            "componentType": 5125,
            "count": 18,
            "max": [
                7
            ],
            "min": [
                0
            ],
            "name": "mesh1432_idx_accessor",
            "type": "SCALAR"
        },
        {
            "bufferView": 27,
            "componentType": 5126,
            "count": 6,
            "max": [
                -0.054499998688697815,
                0.009092506021261215,
                0.0218812208622694
            ],
            "min": [
                -0.054499998688697815,
                -0.030052727088332176,
                0.011917241849005222
            ],
            "name": "mesh1433_coord_accessor",
            "type": "VEC3"
        },
        {
            "bufferView": 28,
            "componentType": 5126,
            "count": 6,
            "max": [
                -1.0,
                -1.0942130431308662e-17,
                6.024673376834431e-17
            ],
            "min": [
                -1.0,
                -1.0942130431308662e-17,
                6.024673376834431e-17
            ],
            "name": "mesh1433_norm_accessor",
            "type": "VEC3"
        },
        {
            "bufferView": 29,
            "componentType": 5125,
            "count": 12,
            "max": [
                5
            ],
            "min": [
                0
            ],
            "name": "mesh1433_idx_accessor",
            "type": "SCALAR"
        },
        {
            "bufferView": 30,
            "componentType": 5126,
            "count": 6,
            "max": [
                -0.054499998688697815,
                -0.029516631737351418,
                0.014868954196572304
            ],
            "min": [
                -0.07628283649682999,
                -0.030052727088332176,
                0.011917241849005222
            ],
            "name": "mesh1434_coord_accessor",
            "type": "VEC3"
        },
        {
            "bufferView": 31,
            "componentType": 5126,
            "count": 6,
            "max": [
                -6.268426033299271e-16,
                0.9839038848876953,
                0.1786985546350479
            ],
            "min": [
                -6.268426033299271e-16,
                0.9839038848876953,
                0.1786985546350479
            ],
            "name": "mesh1434_norm_accessor",
            "type": "VEC3"
        },
        {
            "bufferView": 32,
            "componentType": 5125,
            "count": 12,
            "max": [
                5
            ],
            "min": [
                0
            ],
            "name": "mesh1434_idx_accessor",
            "type": "SCALAR"
        },
        {
            "bufferView": 33,
            "componentType": 5126,
            "count": 116,
            "max": [
                0.013826117850840092,
                -0.07249061018228531,
                0.005172384902834892
            ],
            "min": [
                0.010173882357776165,
                -0.07628188282251358,
                0.003458616556599736
            ],
            "name": "mesh1435_coord_accessor",
            "type": "VEC3"
        },
        {
            "bufferView": 34,
            "componentType": 5126,
            "count": 116,
            "max": [
                0.9985334277153015,
                0.9839038848876953,
                0.1786985546350479
            ],
            "min": [
                -0.9985334277153015,
                -0.9839038848876953,
                -0.1786985546350479
            ],
            "name": "mesh1435_norm_accessor",
            "type": "VEC3"
        },
        {
            "bufferView": 35,
            "componentType": 5125,
            "count": 348,
            "max": [
                115
            ],
            "min": [
                0
            ],
            "name": "mesh1435_idx_accessor",
            "type": "SCALAR"
        },
        {
            "bufferView": 36,
            "componentType": 5126,
            "count": 116,
            "max": [
                0.015494867227971554,
                -0.07138240337371826,
                0.0073625766672194
            ],
            "min": [
                0.008505132980644703,
                -0.07826973497867584,
                0.004518777132034302
            ],
            "name": "mesh1436_coord_accessor",
            "type": "VEC3"
        },
        {
            "bufferView": 37,
            "componentType": 5126,
            "count": 116,
            "max": [
                0.7536027431488037,
                0.6253249049186707,
                0.7803645133972168
            ],
            "min": [
                -0.7536027431488037,
                -0.8597984910011292,
                0.5106335282325745
            ],
            "name": "mesh1436_norm_accessor",
            "type": "VEC3"
        },
        {
            "bufferView": 38,
            "componentType": 5125,
            "count": 348,
            "max": [
                115
            ],
            "min": [
                0
            ],
            "name": "mesh1436_idx_accessor",
            "type": "SCALAR"
        },
        {
            "bufferView": 39,
            "componentType": 5126,
            "count": 118,
            "max": [
                0.0518261194229126,
                -0.012888198718428612,
                0.015997491776943207
            ],
            "min": [
                0.04817388206720352,
                -0.01667947508394718,
                0.014283723197877407
            ],
            "name": "mesh1437_coord_accessor",
            "type": "VEC3"
        },
        {
            "bufferView": 40,
            "componentType": 5126,
            "count": 118,
            "max": [
                0.9985334277153015,
                0.9839038848876953,
                0.1786985546350479
            ],
            "min": [
                -0.9985334277153015,
                -0.9839038848876953,
                -0.1786985546350479
            ],
            "name": "mesh1437_norm_accessor",
            "type": "VEC3"
        },
        {
            "bufferView": 41,
            "componentType": 5125,
            "count": 354,
            "max": [
                117
            ],
            "min": [
                0
            ],
            "name": "mesh1437_idx_accessor",
            "type": "SCALAR"
        },
        {
            "bufferView": 42,
            "componentType": 5126,
            "count": 118,
            "max": [
                0.05349486693739891,
                -0.011779994703829288,
                0.018187683075666428
            ],
            "min": [
                0.04650513455271721,
                -0.018667321652173996,
                0.015343884006142616
            ],
            "name": "mesh1438_coord_accessor",
            "type": "VEC3"
        },
        {
            "bufferView": 43,
            "componentType": 5126,
            "count": 118,
            "max": [
                0.7536027431488037,
                0.6253249049186707,
                0.7803645133972168
            ],
            "min": [
                -0.7536027431488037,
                -0.8597984910011292,
                0.5106335282325745
            ],
            "name": "mesh1438_norm_accessor",
            "type": "VEC3"
        },
        {
            "bufferView": 44,
            "componentType": 5125,
            "count": 354,
            "max": [
                117
            ],
            "min": [
                0
            ],
            "name": "mesh1438_idx_accessor",
            "type": "SCALAR"
        },
        {
            "bufferView": 45,
            "componentType": 5126,
            "count": 118,
            "max": [
                0.051326118409633636,
                0.006464302074164152,
                0.01951233111321926
            ],
            "min": [
                0.04767388105392456,
                0.002673027105629444,
                0.017798561602830887
            ],
            "name": "mesh1439_coord_accessor",
            "type": "VEC3"
        },
        {
            "bufferView": 46,
            "componentType": 5126,
            "count": 118,
            "max": [
                0.9985334277153015,
                0.9839038848876953,
                0.1786985546350479
            ],
            "min": [
                -0.9985334277153015,
                -0.9839038848876953,
                -0.1786985546350479
            ],
            "name": "mesh1439_norm_accessor",
            "type": "VEC3"
        },
        {
            "bufferView": 47,
            "componentType": 5125,
            "count": 354,
            "max": [
                117
            ],
            "min": [
                0
            ],
            "name": "mesh1439_idx_accessor",
            "type": "SCALAR"
        },
        {
            "bufferView": 48,
            "componentType": 5126,
            "count": 118,
            "max": [
                0.05299486592411995,
                0.00757250702008605,
                0.021702522411942482
            ],
            "min": [
                0.04600513353943825,
                0.0006851796642877162,
                0.01885872334241867
            ],
            "name": "mesh1440_coord_accessor",
            "type": "VEC3"
        },
        {
            "bufferView": 49,
            "componentType": 5126,
            "count": 118,
            "max": [
                0.7536027431488037,
                0.6253249049186707,
                0.7803645133972168
            ],
            "min": [
                -0.7536027431488037,
                -0.8597984910011292,
                0.5106335282325745
            ],
            "name": "mesh1440_norm_accessor",
            "type": "VEC3"
        },
        {
            "bufferView": 50,
            "componentType": 5125,
            "count": 354,
            "max": [
                117
            ],
            "min": [
                0
            ],
            "name": "mesh1440_idx_accessor",
            "type": "SCALAR"
        },
        {
            "bufferView": 51,
            "componentType": 5126,
            "count": 116,
            "max": [
                0.021626118570566177,
                0.006464302074164152,
                0.01951233111321926
            ],
            "min": [
                0.0179738812148571,
                0.002673027105629444,
                0.017798561602830887
            ],
            "name": "mesh1441_coord_accessor",
            "type": "VEC3"
        },
        {
            "bufferView": 52,
            "componentType": 5126,
            "count": 116,
            "max": [
                0.9985334277153015,
                0.9839038848876953,
                0.1786985546350479
            ],
            "min": [
                -0.9985334277153015,
                -0.9839038848876953,
                -0.1786985546350479
            ],
            "name": "mesh1441_norm_accessor",
            "type": "VEC3"
        },
        {
            "bufferView": 53,
            "componentType": 5125,
            "count": 348,
            "max": [
                115
            ],
            "min": [
                0
            ],
            "name": "mesh1441_idx_accessor",
            "type": "SCALAR"
        },
        {
            "bufferView": 54,
            "componentType": 5126,
            "count": 116,
            "max": [
                0.02329486608505249,
                0.00757250702008605,
                0.021702522411942482
            ],
            "min": [
                0.01630513370037079,
                0.0006851796642877162,
                0.01885872334241867
            ],
            "name": "mesh1442_coord_accessor",
            "type": "VEC3"
        },
        {
            "bufferView": 55,
            "componentType": 5126,
            "count": 116,
            "max": [
                0.7536027431488037,
                0.6253249049186707,
                0.7803645133972168
            ],
            "min": [
                -0.7536027431488037,
                -0.8597984910011292,
                0.5106335282325745
            ],
            "name": "mesh1442_norm_accessor",
            "type": "VEC3"
        },
        {
            "bufferView": 56,
            "componentType": 5125,
            "count": 348,
            "max": [
                115
            ],
            "min": [
                0
            ],
            "name": "mesh1442_idx_accessor",
            "type": "SCALAR"
        },
        {
            "bufferView": 57,
            "componentType": 5126,
            "count": 116,
            "max": [
                0.07442686706781387,
                -0.06387963891029358,
                0.00673632649704814
            ],
            "min": [
                0.0707746297121048,
                -0.06767091155052185,
                0.00502255791798234
            ],
            "name": "mesh1443_coord_accessor",
            "type": "VEC3"
        },
        {
            "bufferView": 58,
            "componentType": 5126,
            "count": 116,
            "max": [
                0.9985334277153015,
                0.9839038848876953,
                0.1786985546350479
            ],
            "min": [
                -0.9985334277153015,
                -0.9839038848876953,
                -0.1786985546350479
            ],
            "name": "mesh1443_norm_accessor",
            "type": "VEC3"
        },
        {
            "bufferView": 59,
            "componentType": 5125,
            "count": 348,
            "max": [
                115
            ],
            "min": [
                0
            ],
            "name": "mesh1443_idx_accessor",
            "type": "SCALAR"
        },
        {
            "bufferView": 60,
            "componentType": 5126,
            "count": 116,
            "max": [
                0.07609561830759048,
                -0.06277143210172653,
                0.008926518261432648
            ],
            "min": [
                0.06910588592290878,
                -0.06965876370668411,
                0.006082718726247549
            ],
            "name": "mesh1444_coord_accessor",
            "type": "VEC3"
        },
        {
            "bufferView": 61,
            "componentType": 5126,
            "count": 116,
            "max": [
                0.7536027431488037,
                0.6253249049186707,
                0.7803645133972168
            ],
            "min": [
                -0.7536027431488037,
                -0.8597984910011292,
                0.5106335282325745
            ],
            "name": "mesh1444_norm_accessor",
            "type": "VEC3"
        },
        {
            "bufferView": 62,
            "componentType": 5125,
            "count": 348,
            "max": [
                115
            ],
            "min": [
                0
            ],
            "name": "mesh1444_idx_accessor",
            "type": "SCALAR"
        },
        {
            "bufferView": 63,
            "componentType": 5126,
            "count": 118,
            "max": [
                -0.04517388343811035,
                -0.07249061018228531,
                0.005172384902834892
            ],
            "min": [
                -0.04882611706852913,
                -0.07628188282251358,
                0.003458616556599736
            ],
            "name": "mesh1445_coord_accessor",
            "type": "VEC3"
        },
        {
            "bufferView": 64,
            "componentType": 5126,
            "count": 118,
            "max": [
                0.9985334277153015,
                0.9839038848876953,
                0.1786985546350479
            ],
            "min": [
                -0.9985334277153015,
                -0.9839038848876953,
                -0.1786985546350479
            ],
            "name": "mesh1445_norm_accessor",
            "type": "VEC3"
        },
        {
            "bufferView": 65,
            "componentType": 5125,
            "count": 354,
            "max": [
                117
            ],
            "min": [
                0
            ],
            "name": "mesh1445_idx_accessor",
            "type": "SCALAR"
        },
        {
            "bufferView": 66,
            "componentType": 5126,
            "count": 118,
            "max": [
                -0.04350513219833374,
                -0.07138240337371826,
                0.0073625766672194
            ],
            "min": [
                -0.05049486830830574,
                -0.07826973497867584,
                0.004518777132034302
            ],
            "name": "mesh1446_coord_accessor",
            "type": "VEC3"
        },
        {
            "bufferView": 67,
            "componentType": 5126,
            "count": 118,
            "max": [
                0.7536027431488037,
                0.6253249049186707,
                0.7803645133972168
            ],
            "min": [
                -0.7536027431488037,
                -0.8597984910011292,
                0.5106335282325745
            ],
            "name": "mesh1446_norm_accessor",
            "type": "VEC3"
        },
        {
            "bufferView": 68,
            "componentType": 5125,
            "count": 354,
            "max": [
                117
            ],
            "min": [
                0
            ],
            "name": "mesh1446_idx_accessor",
            "type": "SCALAR"
        },
        {
            "bufferView": 69,
            "componentType": 5126,
            "count": 116,
            "max": [
                -0.010173882357776165,
                -0.07249061018228531,
                0.005172384902834892
            ],
            "min": [
                -0.013826117850840092,
                -0.07628188282251358,
                0.003458616556599736
            ],
            "name": "mesh1447_coord_accessor",
            "type": "VEC3"
        },
        {
            "bufferView": 70,
            "componentType": 5126,
            "count": 116,
            "max": [
                0.9985334277153015,
                0.9839038848876953,
                0.1786985546350479
            ],
            "min": [
                -0.9985334277153015,
                -0.9839038848876953,
                -0.1786985546350479
            ],
            "name": "mesh1447_norm_accessor",
            "type": "VEC3"
        },
        {
            "bufferView": 71,
            "componentType": 5125,
            "count": 348,
            "max": [
                115
            ],
            "min": [
                0
            ],
            "name": "mesh1447_idx_accessor",
            "type": "SCALAR"
        },
        {
            "bufferView": 72,
            "componentType": 5126,
            "count": 116,
            "max": [
                -0.008505132980644703,
                -0.07138240337371826,
                0.0073625766672194
            ],
            "min": [
                -0.015494867227971554,
                -0.07826973497867584,
                0.004518777132034302
            ],
            "name": "mesh1448_coord_accessor",
            "type": "VEC3"
        },
        {
            "bufferView": 73,
            "componentType": 5126,
            "count": 116,
            "max": [
                0.7536027431488037,
                0.6253249049186707,
                0.7803645133972168
            ],
            "min": [
                -0.7536027431488037,
                -0.8597984910011292,
                0.5106335282325745
            ],
            "name": "mesh1448_norm_accessor",
            "type": "VEC3"
        },
        {
            "bufferView": 74,
            "componentType": 5125,
            "count": 348,
            "max": [
                115
            ],
            "min": [
                0
            ],
            "name": "mesh1448_idx_accessor",
            "type": "SCALAR"
        },
        {
            "bufferView": 75,
            "componentType": 5126,
            "count": 120,
            "max": [
                -0.04817388206720352,
                -0.012888198718428612,
                0.015997491776943207
            ],
            "min": [
                -0.0518261194229126,
                -0.01667947508394718,
                0.014283723197877407
            ],
            "name": "mesh1449_coord_accessor",
            "type": "VEC3"
        },
        {
            "bufferView": 76,
            "componentType": 5126,
            "count": 120,
            "max": [
                0.9985334277153015,
                0.9839038848876953,
                0.1786985546350479
            ],
            "min": [
                -0.9985334277153015,
                -0.9839038848876953,
                -0.1786985546350479
            ],
            "name": "mesh1449_norm_accessor",
            "type": "VEC3"
        },
        {
            "bufferView": 77,
            "componentType": 5125,
            "count": 360,
            "max": [
                119
            ],
            "min": [
                0
            ],
            "name": "mesh1449_idx_accessor",
            "type": "SCALAR"
        },
        {
            "bufferView": 78,
            "componentType": 5126,
            "count": 120,
            "max": [
                -0.04650513455271721,
                -0.011779994703829288,
                0.018187683075666428
            ],
            "min": [
                -0.05349486693739891,
                -0.018667321652173996,
                0.015343884006142616
            ],
            "name": "mesh1450_coord_accessor",
            "type": "VEC3"
        },
        {
            "bufferView": 79,
            "componentType": 5126,
            "count": 120,
            "max": [
                0.7536027431488037,
                0.6253249049186707,
                0.7803645133972168
            ],
            "min": [
                -0.7536027431488037,
                -0.8597984910011292,
                0.5106335282325745
            ],
            "name": "mesh1450_norm_accessor",
            "type": "VEC3"
        },
        {
            "bufferView": 80,
            "componentType": 5125,
            "count": 360,
            "max": [
                119
            ],
            "min": [
                0
            ],
            "name": "mesh1450_idx_accessor",
            "type": "SCALAR"
        },
        {
            "bufferView": 81,
            "componentType": 5126,
            "count": 118,
            "max": [
                -0.04767388105392456,
                0.006464302074164152,
                0.01951233111321926
            ],
            "min": [
                -0.051326118409633636,
                0.002673027105629444,
                0.017798561602830887
            ],
            "name": "mesh1451_coord_accessor",
            "type": "VEC3"
        },
        {
            "bufferView": 82,
            "componentType": 5126,
            "count": 118,
            "max": [
                0.9985334277153015,
                0.9839038848876953,
                0.1786985546350479
            ],
            "min": [
                -0.9985334277153015,
                -0.9839038848876953,
                -0.1786985546350479
            ],
            "name": "mesh1451_norm_accessor",
            "type": "VEC3"
        },
        {
            "bufferView": 83,
            "componentType": 5125,
            "count": 354,
            "max": [
                117
            ],
            "min": [
                0
            ],
            "name": "mesh1451_idx_accessor",
            "type": "SCALAR"
        },
        {
            "bufferView": 84,
            "componentType": 5126,
            "count": 118,
            "max": [
                -0.04600513353943825,
                0.00757250702008605,
                0.021702522411942482
            ],
            "min": [
                -0.05299486592411995,
                0.0006851796642877162,
                0.01885872334241867
            ],
            "name": "mesh1452_coord_accessor",
            "type": "VEC3"
        },
        {
            "bufferView": 85,
            "componentType": 5126,
            "count": 118,
            "max": [
                0.7536027431488037,
                0.6253249049186707,
                0.7803645133972168
            ],
            "min": [
                -0.7536027431488037,
                -0.8597984910011292,
                0.5106335282325745
            ],
            "name": "mesh1452_norm_accessor",
            "type": "VEC3"
        },
        {
            "bufferView": 86,
            "componentType": 5125,
            "count": 354,
            "max": [
                117
            ],
            "min": [
                0
            ],
            "name": "mesh1452_idx_accessor",
            "type": "SCALAR"
        },
        {
            "bufferView": 87,
            "componentType": 5126,
            "count": 116,
            "max": [
                -0.0179738812148571,
                0.006464302074164152,
                0.01951233111321926
            ],
            "min": [
                -0.021626118570566177,
                0.002673027105629444,
                0.017798561602830887
            ],
            "name": "mesh1453_coord_accessor",
            "type": "VEC3"
        },
        {
            "bufferView": 88,
            "componentType": 5126,
            "count": 116,
            "max": [
                0.9985334277153015,
                0.9839038848876953,
                0.1786985546350479
            ],
            "min": [
                -0.9985334277153015,
                -0.9839038848876953,
                -0.1786985546350479
            ],
            "name": "mesh1453_norm_accessor",
            "type": "VEC3"
        },
        {
            "bufferView": 89,
            "componentType": 5125,
            "count": 348,
            "max": [
                115
            ],
            "min": [
                0
            ],
            "name": "mesh1453_idx_accessor",
            "type": "SCALAR"
        },
        {
            "bufferView": 90,
            "componentType": 5126,
            "count": 116,
            "max": [
                -0.01630513370037079,
                0.00757250702008605,
                0.021702522411942482
            ],
            "min": [
                -0.02329486608505249,
                0.0006851796642877162,
                0.01885872334241867
            ],
            "name": "mesh1454_coord_accessor",
            "type": "VEC3"
        },
        {
            "bufferView": 91,
            "componentType": 5126,
            "count": 116,
            "max": [
                0.7536027431488037,
                0.6253249049186707,
                0.7803645133972168
            ],
            "min": [
                -0.7536027431488037,
                -0.8597984910011292,
                0.5106335282325745
            ],
            "name": "mesh1454_norm_accessor",
            "type": "VEC3"
        },
        {
            "bufferView": 92,
            "componentType": 5125,
            "count": 348,
            "max": [
                115
            ],
            "min": [
                0
            ],
            "name": "mesh1454_idx_accessor",
            "type": "SCALAR"
        },
        {
            "bufferView": 93,
            "componentType": 5126,
            "count": 780,
            "max": [
                0.07854830473661423,
                0.008556410670280457,
                0.0218812208622694
            ],
            "min": [
                -0.07854830473661423,
                -0.07999493926763535,
                0.00579835195094347
            ],
            "name": "mesh1455_coord_accessor",
            "type": "VEC3"
        },
        {
            "bufferView": 94,
            "componentType": 5126,
            "count": 780,
            "max": [
                -6.123234262925839e-17,
                -0.1786985546350479,
                0.9839038848876953
            ],
            "min": [
                -6.123234262925839e-17,
                -0.1786985546350479,
                0.9839038848876953
            ],
            "name": "mesh1455_norm_accessor",
            "type": "VEC3"
        },
        {
            "bufferView": 95,
            "componentType": 5125,
            "count": 2502,
            "max": [
                779
            ],
            "min": [
                0
            ],
            "name": "mesh1455_idx_accessor",
            "type": "SCALAR"
        },
        {
            "bufferView": 96,
            "componentType": 5126,
            "count": 116,
            "max": [
                -0.0707746297121048,
                -0.06387963891029358,
                0.00673632649704814
            ],
            "min": [
                -0.07442686706781387,
                -0.06767091155052185,
                0.00502255791798234
            ],
            "name": "mesh1456_coord_accessor",
            "type": "VEC3"
        },
        {
            "bufferView": 97,
            "componentType": 5126,
            "count": 116,
            "max": [
                0.9985334277153015,
                0.9839038848876953,
                0.1786985546350479
            ],
            "min": [
                -0.9985334277153015,
                -0.9839038848876953,
                -0.1786985546350479
            ],
            "name": "mesh1456_norm_accessor",
            "type": "VEC3"
        },
        {
            "bufferView": 98,
            "componentType": 5125,
            "count": 348,
            "max": [
                115
            ],
            "min": [
                0
            ],
            "name": "mesh1456_idx_accessor",
            "type": "SCALAR"
        },
        {
            "bufferView": 99,
            "componentType": 5126,
            "count": 116,
            "max": [
                -0.06910588592290878,
                -0.06277143210172653,
                0.008926518261432648
            ],
            "min": [
                -0.07609561830759048,
                -0.06965876370668411,
                0.006082718726247549
            ],
            "name": "mesh1457_coord_accessor",
            "type": "VEC3"
        },
        {
            "bufferView": 100,
            "componentType": 5126,
            "count": 116,
            "max": [
                0.7536027431488037,
                0.6253249049186707,
                0.7803645133972168
            ],
            "min": [
                -0.7536027431488037,
                -0.8597984910011292,
                0.5106335282325745
            ],
            "name": "mesh1457_norm_accessor",
            "type": "VEC3"
        },
        {
            "bufferView": 101,
            "componentType": 5125,
            "count": 348,
            "max": [
                115
            ],
            "min": [
                0
            ],
            "name": "mesh1457_idx_accessor",
            "type": "SCALAR"
        }
    ],
    "asset": {
        "generator": "ONSHAPE BY PTC INC, 1.221",
        "version": "2.0"
    },
    "bufferViews": [
        {
            "buffer": 0,
            "byteLength": 1440,
            "name": "mesh1424_coord_bufferView",
            "target": 34962
        },
        {
            "buffer": 0,
            "byteLength": 1440,
            "byteOffset": 1440,
            "name": "mesh1424_norm_bufferView",
            "target": 34962
        },
        {
            "buffer": 0,
            "byteLength": 1440,
            "byteOffset": 2880,
            "name": "mesh1424_idx_bufferView",
            "target": 34963
        },
        {
            "buffer": 0,
            "byteLength": 1440,
            "byteOffset": 4320,
            "name": "mesh1425_coord_bufferView",
            "target": 34962
        },
        {
            "buffer": 0,
            "byteLength": 1440,
            "byteOffset": 5760,
            "name": "mesh1425_norm_bufferView",
            "target": 34962
        },
        {
            "buffer": 0,
            "byteLength": 1440,
            "byteOffset": 7200,
            "name": "mesh1425_idx_bufferView",
            "target": 34963
        },
        {
            "buffer": 0,
            "byteLength": 9360,
            "byteOffset": 8640,
            "name": "mesh1426_coord_bufferView",
            "target": 34962
        },
        {
            "buffer": 0,
            "byteLength": 9360,
            "byteOffset": 18000,
            "name": "mesh1426_norm_bufferView",
            "target": 34962
        },
        {
            "buffer": 0,
            "byteLength": 10008,
            "byteOffset": 27360,
            "name": "mesh1426_idx_bufferView",
            "target": 34963
        },
        {
            "buffer": 0,
            "byteLength": 96,
            "byteOffset": 37368,
            "name": "mesh1427_coord_bufferView",
            "target": 34962
        },
        {
            "buffer": 0,
            "byteLength": 96,
            "byteOffset": 37464,
            "name": "mesh1427_norm_bufferView",
            "target": 34962
        },
        {
            "buffer": 0,
            "byteLength": 72,
            "byteOffset": 37560,
            "name": "mesh1427_idx_bufferView",
            "target": 34963
        },
        {
            "buffer": 0,
            "byteLength": 312,
            "byteOffset": 37632,
            "name": "mesh1428_coord_bufferView",
            "target": 34962
        },
        {
            "buffer": 0,
            "byteLength": 312,
            "byteOffset": 37944,
            "name": "mesh1428_norm_bufferView",
            "target": 34962
        },
        {
            "buffer": 0,
            "byteLength": 288,
            "byteOffset": 38256,
            "name": "mesh1428_idx_bufferView",
            "target": 34963
        },
        {
            "buffer": 0,
            "byteLength": 288,
            "byteOffset": 38544,
            "name": "mesh1429_coord_bufferView",
            "target": 34962
        },
        {
            "buffer": 0,
            "byteLength": 288,
            "byteOffset": 38832,
            "name": "mesh1429_norm_bufferView",
            "target": 34962
        },
        {
            "buffer": 0,
            "byteLength": 264,
            "byteOffset": 39120,
            "name": "mesh1429_idx_bufferView",
            "target": 34963
        },
        {
            "buffer": 0,
            "byteLength": 72,
            "byteOffset": 39384,
            "name": "mesh1430_coord_bufferView",
            "target": 34962
        },
        {
            "buffer": 0,
            "byteLength": 72,
            "byteOffset": 39456,
            "name": "mesh1430_norm_bufferView",
            "target": 34962
        },
        {
            "buffer": 0,
            "byteLength": 48,
            "byteOffset": 39528,
            "name": "mesh1430_idx_bufferView",
            "target": 34963
        },
        {
            "buffer": 0,
            "byteLength": 48,
            "byteOffset": 39576,
            "name": "mesh1431_coord_bufferView",
            "target": 34962
        },
        {
            "buffer": 0,
            "byteLength": 48,
            "byteOffset": 39624,
            "name": "mesh1431_norm_bufferView",
            "target": 34962
        },
        {
            "buffer": 0,
            "byteLength": 24,
            "byteOffset": 39672,
            "name": "mesh1431_idx_bufferView",
            "target": 34963
        },
        {
            "buffer": 0,
            "byteLength": 96,
            "byteOffset": 39696,
            "name": "mesh1432_coord_bufferView",
            "target": 34962
        },
        {
            "buffer": 0,
            "byteLength": 96,
            "byteOffset": 39792,
            "name": "mesh1432_norm_bufferView",
            "target": 34962
        },
        {
            "buffer": 0,
            "byteLength": 72,
            "byteOffset": 39888,
            "name": "mesh1432_idx_bufferView",
            "target": 34963
        },
        {
            "buffer": 0,
            "byteLength": 72,
            "byteOffset": 39960,
            "name": "mesh1433_coord_bufferView",
            "target": 34962
        },
        {
            "buffer": 0,
            "byteLength": 72,
            "byteOffset": 40032,
            "name": "mesh1433_norm_bufferView",
            "target": 34962
        },
        {
            "buffer": 0,
            "byteLength": 48,
            "byteOffset": 40104,
            "name": "mesh1433_idx_bufferView",
            "target": 34963
        },
        {
            "buffer": 0,
            "byteLength": 72,
            "byteOffset": 40152,
            "name": "mesh1434_coord_bufferView",
            "target": 34962
        },
        {
            "buffer": 0,
            "byteLength": 72,
            "byteOffset": 40224,
            "name": "mesh1434_norm_bufferView",
            "target": 34962
        },
        {
            "buffer": 0,
            "byteLength": 48,
            "byteOffset": 40296,
            "name": "mesh1434_idx_bufferView",
            "target": 34963
        },
        {
            "buffer": 0,
            "byteLength": 1392,
            "byteOffset": 40344,
            "name": "mesh1435_coord_bufferView",
            "target": 34962
        },
        {
            "buffer": 0,
            "byteLength": 1392,
            "byteOffset": 41736,
            "name": "mesh1435_norm_bufferView",
            "target": 34962
        },
        {
            "buffer": 0,
            "byteLength": 1392,
            "byteOffset": 43128,
            "name": "mesh1435_idx_bufferView",
            "target": 34963
        },
        {
            "buffer": 0,
            "byteLength": 1392,
            "byteOffset": 44520,
            "name": "mesh1436_coord_bufferView",
            "target": 34962
        },
        {
            "buffer": 0,
            "byteLength": 1392,
            "byteOffset": 45912,
            "name": "mesh1436_norm_bufferView",
            "target": 34962
        },
        {
            "buffer": 0,
            "byteLength": 1392,
            "byteOffset": 47304,
            "name": "mesh1436_idx_bufferView",
            "target": 34963
        },
        {
            "buffer": 0,
            "byteLength": 1416,
            "byteOffset": 48696,
            "name": "mesh1437_coord_bufferView",
            "target": 34962
        },
        {
            "buffer": 0,
            "byteLength": 1416,
            "byteOffset": 50112,
            "name": "mesh1437_norm_bufferView",
            "target": 34962
        },
        {
            "buffer": 0,
            "byteLength": 1416,
            "byteOffset": 51528,
            "name": "mesh1437_idx_bufferView",
            "target": 34963
        },
        {
            "buffer": 0,
            "byteLength": 1416,
            "byteOffset": 52944,
            "name": "mesh1438_coord_bufferView",
            "target": 34962
        },
        {
            "buffer": 0,
            "byteLength": 1416,
            "byteOffset": 54360,
            "name": "mesh1438_norm_bufferView",
            "target": 34962
        },
        {
            "buffer": 0,
            "byteLength": 1416,
            "byteOffset": 55776,
            "name": "mesh1438_idx_bufferView",
            "target": 34963
        },
        {
            "buffer": 0,
            "byteLength": 1416,
            "byteOffset": 57192,
            "name": "mesh1439_coord_bufferView",
            "target": 34962
        },
        {
            "buffer": 0,
            "byteLength": 1416,
            "byteOffset": 58608,
            "name": "mesh1439_norm_bufferView",
            "target": 34962
        },
        {
            "buffer": 0,
            "byteLength": 1416,
            "byteOffset": 60024,
            "name": "mesh1439_idx_bufferView",
            "target": 34963
        },
        {
            "buffer": 0,
            "byteLength": 1416,
            "byteOffset": 61440,
            "name": "mesh1440_coord_bufferView",
            "target": 34962
        },
        {
            "buffer": 0,
            "byteLength": 1416,
            "byteOffset": 62856,
            "name": "mesh1440_norm_bufferView",
            "target": 34962
        },
        {
            "buffer": 0,
            "byteLength": 1416,
            "byteOffset": 64272,
            "name": "mesh1440_idx_bufferView",
            "target": 34963
        },
        {
            "buffer": 0,
            "byteLength": 1392,
            "byteOffset": 65688,
            "name": "mesh1441_coord_bufferView",
            "target": 34962
        },
        {
            "buffer": 0,
            "byteLength": 1392,
            "byteOffset": 67080,
            "name": "mesh1441_norm_bufferView",
            "target": 34962
        },
        {
            "buffer": 0,
            "byteLength": 1392,
            "byteOffset": 68472,
            "name": "mesh1441_idx_bufferView",
            "target": 34963
        },
        {
            "buffer": 0,
            "byteLength": 1392,
            "byteOffset": 69864,
            "name": "mesh1442_coord_bufferView",
            "target": 34962
        },
        {
            "buffer": 0,
            "byteLength": 1392,
            "byteOffset": 71256,
            "name": "mesh1442_norm_bufferView",
            "target": 34962
        },
        {
            "buffer": 0,
            "byteLength": 1392,
            "byteOffset": 72648,
            "name": "mesh1442_idx_bufferView",
            "target": 34963
        },
        {
            "buffer": 0,
            "byteLength": 1392,
            "byteOffset": 74040,
            "name": "mesh1443_coord_bufferView",
            "target": 34962
        },
        {
            "buffer": 0,
            "byteLength": 1392,
            "byteOffset": 75432,
            "name": "mesh1443_norm_bufferView",
            "target": 34962
        },
        {
            "buffer": 0,
            "byteLength": 1392,
            "byteOffset": 76824,
            "name": "mesh1443_idx_bufferView",
            "target": 34963
        },
        {
            "buffer": 0,
            "byteLength": 1392,
            "byteOffset": 78216,
            "name": "mesh1444_coord_bufferView",
            "target": 34962
        },
        {
            "buffer": 0,
            "byteLength": 1392,
            "byteOffset": 79608,
            "name": "mesh1444_norm_bufferView",
            "target": 34962
        },
        {
            "buffer": 0,
            "byteLength": 1392,
            "byteOffset": 81000,
            "name": "mesh1444_idx_bufferView",
            "target": 34963
        },
        {
            "buffer": 0,
            "byteLength": 1416,
            "byteOffset": 82392,
            "name": "mesh1445_coord_bufferView",
            "target": 34962
        },
        {
            "buffer": 0,
            "byteLength": 1416,
            "byteOffset": 83808,
            "name": "mesh1445_norm_bufferView",
            "target": 34962
        },
        {
            "buffer": 0,
            "byteLength": 1416,
            "byteOffset": 85224,
            "name": "mesh1445_idx_bufferView",
            "target": 34963
        },
        {
            "buffer": 0,
            "byteLength": 1416,
            "byteOffset": 86640,
            "name": "mesh1446_coord_bufferView",
            "target": 34962
        },
        {
            "buffer": 0,
            "byteLength": 1416,
            "byteOffset": 88056,
            "name": "mesh1446_norm_bufferView",
            "target": 34962
        },
        {
            "buffer": 0,
            "byteLength": 1416,
            "byteOffset": 89472,
            "name": "mesh1446_idx_bufferView",
            "target": 34963
        },
        {
            "buffer": 0,
            "byteLength": 1392,
            "byteOffset": 90888,
            "name": "mesh1447_coord_bufferView",
            "target": 34962
        },
        {
            "buffer": 0,
            "byteLength": 1392,
            "byteOffset": 92280,
            "name": "mesh1447_norm_bufferView",
            "target": 34962
        },
        {
            "buffer": 0,
            "byteLength": 1392,
            "byteOffset": 93672,
            "name": "mesh1447_idx_bufferView",
            "target": 34963
        },
        {
            "buffer": 0,
            "byteLength": 1392,
            "byteOffset": 95064,
            "name": "mesh1448_coord_bufferView",
            "target": 34962
        },
        {
            "buffer": 0,
            "byteLength": 1392,
            "byteOffset": 96456,
            "name": "mesh1448_norm_bufferView",
            "target": 34962
        },
        {
            "buffer": 0,
            "byteLength": 1392,
            "byteOffset": 97848,
            "name": "mesh1448_idx_bufferView",
            "target": 34963
        },
        {
            "buffer": 0,
            "byteLength": 1440,
            "byteOffset": 99240,
            "name": "mesh1449_coord_bufferView",
            "target": 34962
        },
        {
            "buffer": 0,
            "byteLength": 1440,
            "byteOffset": 100680,
            "name": "mesh1449_norm_bufferView",
            "target": 34962
        },
        {
            "buffer": 0,
            "byteLength": 1440,
            "byteOffset": 102120,
            "name": "mesh1449_idx_bufferView",
            "target": 34963
        },
        {
            "buffer": 0,
            "byteLength": 1440,
            "byteOffset": 103560,
            "name": "mesh1450_coord_bufferView",
            "target": 34962
        },
        {
            "buffer": 0,
            "byteLength": 1440,
            "byteOffset": 105000,
            "name": "mesh1450_norm_bufferView",
            "target": 34962
        },
        {
            "buffer": 0,
            "byteLength": 1440,
            "byteOffset": 106440,
            "name": "mesh1450_idx_bufferView",
            "target": 34963
        },
        {
            "buffer": 0,
            "byteLength": 1416,
            "byteOffset": 107880,
            "name": "mesh1451_coord_bufferView",
            "target": 34962
        },
        {
            "buffer": 0,
            "byteLength": 1416,
            "byteOffset": 109296,
            "name": "mesh1451_norm_bufferView",
            "target": 34962
        },
        {
            "buffer": 0,
            "byteLength": 1416,
            "byteOffset": 110712,
            "name": "mesh1451_idx_bufferView",
            "target": 34963
        },
        {
            "buffer": 0,
            "byteLength": 1416,
            "byteOffset": 112128,
            "name": "mesh1452_coord_bufferView",
            "target": 34962
        },
        {
            "buffer": 0,
            "byteLength": 1416,
            "byteOffset": 113544,
            "name": "mesh1452_norm_bufferView",
            "target": 34962
        },
        {
            "buffer": 0,
            "byteLength": 1416,
            "byteOffset": 114960,
            "name": "mesh1452_idx_bufferView",
            "target": 34963
        },
        {
            "buffer": 0,
            "byteLength": 1392,
            "byteOffset": 116376,
            "name": "mesh1453_coord_bufferView",
            "target": 34962
        },
        {
            "buffer": 0,
            "byteLength": 1392,
            "byteOffset": 117768,
            "name": "mesh1453_norm_bufferView",
            "target": 34962
        },
        {
            "buffer": 0,
            "byteLength": 1392,
            "byteOffset": 119160,
            "name": "mesh1453_idx_bufferView",
            "target": 34963
        },
        {
            "buffer": 0,
            "byteLength": 1392,
            "byteOffset": 120552,
            "name": "mesh1454_coord_bufferView",
            "target": 34962
        },
        {
            "buffer": 0,
            "byteLength": 1392,
            "byteOffset": 121944,
            "name": "mesh1454_norm_bufferView",
            "target": 34962
        },
        {
            "buffer": 0,
            "byteLength": 1392,
            "byteOffset": 123336,
            "name": "mesh1454_idx_bufferView",
            "target": 34963
        },
        {
            "buffer": 0,
            "byteLength": 9360,
            "byteOffset": 124728,
            "name": "mesh1455_coord_bufferView",
            "target": 34962
        },
        {
            "buffer": 0,
            "byteLength": 9360,
            "byteOffset": 134088,
            "name": "mesh1455_norm_bufferView",
            "target": 34962
        },
        {
            "buffer": 0,
            "byteLength": 10008,
            "byteOffset": 143448,
            "name": "mesh1455_idx_bufferView",
            "target": 34963
        },
        {
            "buffer": 0,
            "byteLength": 1392,
            "byteOffset": 153456,
            "name": "mesh1456_coord_bufferView",
            "target": 34962
        },
        {
            "buffer": 0,
            "byteLength": 1392,
            "byteOffset": 154848,
            "name": "mesh1456_norm_bufferView",
            "target": 34962
        },
        {
            "buffer": 0,
            "byteLength": 1392,
            "byteOffset": 156240,
            "name": "mesh1456_idx_bufferView",
            "target": 34963
        },
        {
            "buffer": 0,
            "byteLength": 1392,
            "byteOffset": 157632,
            "name": "mesh1457_coord_bufferView",
            "target": 34962
        },
        {
            "buffer": 0,
            "byteLength": 1392,
            "byteOffset": 159024,
            "name": "mesh1457_norm_bufferView",
            "target": 34962
        },
        {
            "buffer": 0,
            "byteLength": 1392,
            "byteOffset": 160416,
            "name": "mesh1457_idx_bufferView",
            "target": 34963
        }
    ],
    "buffers": [
        {
            "byteLength": 161808,
            "name": "Total_buffer",
            "uri": "data:application/octet-stream;base64,"
        }
    ],
    "extensionsUsed": [
        "PTC_onshape_metadata"
    ],
    "materials": [
        {
            "doubleSided": true,
            "name": "0.231373_0.380392_0.705882_0.000000_0.000000",
            "pbrMetallicRoughness": {
                "baseColorFactor": [
                    0.23137255012989044,
                    0.3803921639919281,
                    0.7058823704719543,
                    1.0
                ],
                "metallicFactor": 0.0
            }
        },
        {
            "doubleSided": true,
            "name": "0.400000_0.400000_0.400000_0.000000_0.000000",
            "pbrMetallicRoughness": {
                "baseColorFactor": [
                    0.4000000059604645,
                    0.4000000059604645,
                    0.4000000059604645,
                    1.0
                ],
                "metallicFactor": 0.0
            }
        },
        {
            "doubleSided": true,
            "name": "0.498039_0.498039_0.498039_0.000000_0.000000",
            "pbrMetallicRoughness": {
                "baseColorFactor": [
                    0.49803921580314636,
                    0.49803921580314636,
                    0.49803921580314636,
                    1.0
                ],
                "metallicFactor": 0.0
            }
        },
        {
            "doubleSided": true,
            "name": "0.301961_0.301961_0.301961_0.000000_0.000000",
            "pbrMetallicRoughness": {
                "baseColorFactor": [
                    0.3019607961177826,
                    0.3019607961177826,
                    0.3019607961177826,
                    1.0
                ],
                "metallicFactor": 0.0
            }
        },
        {
            "doubleSided": true,
            "name": "0.910000_0.910000_0.910000_0.000000_0.000000",
            "pbrMetallicRoughness": {
                "baseColorFactor": [
                    0.9100000262260437,
                    0.9100000262260437,
                    0.9100000262260437,
                    1.0
                ],
                "metallicFactor": 0.0
            }
        },
        {
            "doubleSided": true,
            "name": "0.956863_0.898039_0.654902_0.000000_0.000000",
            "pbrMetallicRoughness": {
                "baseColorFactor": [
                    0.95686274766922,
                    0.8980392217636108,
                    0.6549019813537598,
                    1.0
                ],
                "metallicFactor": 0.0
            }
        },
        {
            "doubleSided": true,
            "name": "0.603922_0.647059_0.686275_0.000000_0.000000",
            "pbrMetallicRoughness": {
                "baseColorFactor": [
                    0.6039215922355652,
                    0.6470588445663452,
                    0.686274528503418,
                    1.0
                ],
                "metallicFactor": 0.0
            }
        },
        {
            "doubleSided": true,
            "name": "1.000000_0.125490_0.254902_0.000000_0.000000",
            "pbrMetallicRoughness": {
                "baseColorFactor": [
                    1.0,
                    0.125490203499794,
                    0.2549019753932953,
                    1.0
                ],
                "metallicFactor": 0.0
            }
        },
        {
            "doubleSided": true,
            "name": "0.615686_0.811765_0.929412_0.000000_0.000000",
            "pbrMetallicRoughness": {
                "baseColorFactor": [
                    0.615686297416687,
                    0.8117647171020508,
                    0.929411768913269,
                    1.0
                ],
                "metallicFactor": 0.0
            }
        },
        {
            "doubleSided": true,
            "name": "0.647059_0.647059_0.647059_0.000000_0.000000",
            "pbrMetallicRoughness": {
                "baseColorFactor": [
                    0.6470588445663452,
                    0.6470588445663452,
                    0.6470588445663452,
                    1.0
                ],
                "metallicFactor": 0.0
            }
        },
        {
            "doubleSided": true,
            "name": "0.501961_0.501961_0.501961_0.000000_0.000000",
            "pbrMetallicRoughness": {
                "baseColorFactor": [
                    0.501960813999176,
                    0.501960813999176,
                    0.501960813999176,
                    1.0
                ],
                "metallicFactor": 0.0
            }
        },
        {
            "doubleSided": true,
            "name": "1.000000_0.000000_0.000000_0.000000_0.000000",
            "pbrMetallicRoughness": {
                "baseColorFactor": [
                    1.0,
                    0.0,
                    0.0,
                    1.0
                ],
                "metallicFactor": 0.0
            }
        },
        {
            "doubleSided": true,
            "name": "0.788235_0.396078_0.168627_0.000000_0.000000",
            "pbrMetallicRoughness": {
                "baseColorFactor": [
                    0.7882353067398071,
                    0.3960784375667572,
                    0.16862745583057404,
                    1.0
                ],
                "metallicFactor": 0.0
            }
        },
        {
            "doubleSided": true,
            "name": "0.901961_0.901961_0.901961_0.000000_0.000000",
            "pbrMetallicRoughness": {
                "baseColorFactor": [
                    0.9019607901573181,
                    0.9019607901573181,
                    0.9019607901573181,
                    1.0
                ],
                "metallicFactor": 0.0
            }
        },
        {
            "doubleSided": true,
            "name": "0.768627_0.886275_0.952941_0.000000_0.000000",
            "pbrMetallicRoughness": {
                "baseColorFactor": [
                    0.7686274647712708,
                    0.886274516582489,
                    0.9529411792755127,
                    1.0
                ],
                "metallicFactor": 0.0
            }
        },
        {
            "doubleSided": true,
            "name": "0.000000_0.000000_0.000000_0.000000_0.000000",
            "pbrMetallicRoughness": {
                "baseColorFactor": [
                    0.0,
                    0.0,
                    0.0,
                    1.0
                ],
                "metallicFactor": 0.0
            }
        },
        {
            "doubleSided": true,
            "name": "0.141176_0.192157_0.780392_0.000000_0.000000",
            "pbrMetallicRoughness": {
                "baseColorFactor": [
                    0.1411764770746231,
                    0.1921568661928177,
                    0.7803921699523926,
                    1.0
                ],
                "metallicFactor": 0.0
            }
        },
        {
            "doubleSided": true,
            "name": "0.917647_0.917647_0.917647_0.000000_0.000000",
            "pbrMetallicRoughness": {
                "baseColorFactor": [
                    0.9176470637321472,
                    0.9176470637321472,
                    0.9176470637321472,
                    1.0
                ],
                "metallicFactor": 0.0
            }
        },
        {
            "doubleSided": true,
            "name": "0.980392_0.713725_0.003922_0.000000_0.000000",
            "pbrMetallicRoughness": {
                "baseColorFactor": [
                    0.9803921580314636,
                    0.7137255072593689,
                    0.003921568859368563,
                    1.0
                ],
                "metallicFactor": 0.0
            }
        }
    ],
    "meshes": [
        {
            "name": "mesh1424_mesh",
            "primitives": [
                {
                    "attributes": {
                        "NORMAL": 1,
                        "POSITION": 0
                    },
                    "indices": 2,
                    "material": 10
                }
            ]
        },
        {
            "name": "mesh1425_mesh",
            "primitives": [
                {
                    "attributes": {
                        "NORMAL": 4,
                        "POSITION": 3
                    },
                    "indices": 5,
                    "material": 10
                }
            ]
        },
        {
            "name": "mesh1426_mesh",
            "primitives": [
                {
                    "attributes": {
                        "NORMAL": 7,
                        "POSITION": 6
                    },
                    "indices": 8,
                    "material": 10
                }
            ]
        },
        {
            "name": "mesh1427_mesh",
            "primitives": [
                {
                    "attributes": {
                        "NORMAL": 10,
                        "POSITION": 9
                    },
                    "indices": 11,
                    "material": 10
                }
            ]
        },
        {
            "name": "mesh1428_mesh",
            "primitives": [
                {
                    "attributes": {
                        "NORMAL": 13,
                        "POSITION": 12
                    },
                    "indices": 14,
                    "material": 10
                }
            ]
        },
        {
            "name": "mesh1429_mesh",
            "primitives": [
                {
                    "attributes": {
                        "NORMAL": 16,
                        "POSITION": 15
                    },
                    "indices": 17,
                    "material": 10
                }
            ]
        },
        {
            "name": "mesh1430_mesh",
            "primitives": [
                {
                    "attributes": {
                        "NORMAL": 19,
                        "POSITION": 18
                    },
                    "indices": 20,
                    "material": 10
                }
            ]
        },
        {
            "name": "mesh1431_mesh",
            "primitives": [
                {
                    "attributes": {
                        "NORMAL": 22,
                        "POSITION": 21
                    },
                    "indices": 23,
                    "material": 10
                }
            ]
        },
        {
            "name": "mesh1432_mesh",
            "primitives": [
                {
                    "attributes": {
                        "NORMAL": 25,
                        "POSITION": 24
                    },
                    "indices": 26,
                    "material": 10
                }
            ]
        },
        {
            "name": "mesh1433_mesh",
            "primitives": [
                {
                    "attributes": {
                        "NORMAL": 28,
                        "POSITION": 27
                    },
                    "indices": 29,
                    "material": 10
                }
            ]
        },
        {
            "name": "mesh1434_mesh",
            "primitives": [
                {
                    "attributes": {
                        "NORMAL": 31,
                        "POSITION": 30
                    },
                    "indices": 32,
                    "material": 10
                }
            ]
        },
        {
            "name": "mesh1435_mesh",
            "primitives": [
                {
                    "attributes": {
                        "NORMAL": 34,
                        "POSITION": 33
                    },
                    "indices": 35,
                    "material": 10
                }
            ]
        },
        {
            "name": "mesh1436_mesh",
            "primitives": [
                {
                    "attributes": {
                        "NORMAL": 37,
                        "POSITION": 36
                    },
                    "indices": 38,
                    "material": 10
                }
            ]
        },
        {
            "name": "mesh1437_mesh",
            "primitives": [
                {
                    "attributes": {
                        "NORMAL": 40,
                        "POSITION": 39
                    },
                    "indices": 41,
                    "material": 10
                }
            ]
        },
        {
            "name": "mesh1438_mesh",
            "primitives": [
                {
                    "attributes": {
                        "NORMAL": 43,
                        "POSITION": 42
                    },
                    "indices": 44,
                    "material": 10
                }
            ]
        },
        {
            "name": "mesh1439_mesh",
            "primitives": [
                {
                    "attributes": {
                        "NORMAL": 46,
                        "POSITION": 45
                    },
                    "indices": 47,
                    "material": 10
                }
            ]
        },
        {
            "name": "mesh1440_mesh",
            "primitives": [
                {
                    "attributes": {
                        "NORMAL": 49,
                        "POSITION": 48
                    },
                    "indices": 50,
                    "material": 10
                }
            ]
        },
        {
            "name": "mesh1441_mesh",
            "primitives": [
                {
                    "attributes": {
                        "NORMAL": 52,
                        "POSITION": 51
                    },
                    "indices": 53,
                    "material": 10
                }
            ]
        },
        {
            "name": "mesh1442_mesh",
            "primitives": [
                {
                    "attributes": {
                        "NORMAL": 55,
                        "POSITION": 54
                    },
                    "indices": 56,
                    "material": 10
                }
            ]
        },
        {
            "name": "mesh1443_mesh",
            "primitives": [
                {
                    "attributes": {
                        "NORMAL": 58,
                        "POSITION": 57
                    },
                    "indices": 59,
                    "material": 10
                }
            ]
        },
        {
            "name": "mesh1444_mesh",
            "primitives": [
                {
                    "attributes": {
                        "NORMAL": 61,
                        "POSITION": 60
                    },
                    "indices": 62,
                    "material": 10
                }
            ]
        },
        {
            "name": "mesh1445_mesh",
            "primitives": [
                {
                    "attributes": {
                        "NORMAL": 64,
                        "POSITION": 63
                    },
                    "indices": 65,
                    "material": 10
                }
            ]
        },
        {
            "name": "mesh1446_mesh",
            "primitives": [
                {
                    "attributes": {
                        "NORMAL": 67,
                        "POSITION": 66
                    },
                    "indices": 68,
                    "material": 10
                }
            ]
        },
        {
            "name": "mesh1447_mesh",
            "primitives": [
                {
                    "attributes": {
                        "NORMAL": 70,
                        "POSITION": 69
                    },
                    "indices": 71,
                    "material": 10
                }
            ]
        },
        {
            "name": "mesh1448_mesh",
            "primitives": [
                {
                    "attributes": {
                        "NORMAL": 73,
                        "POSITION": 72
                    },
                    "indices": 74,
                    "material": 10
                }
            ]
        },
        {
            "name": "mesh1449_mesh",
            "primitives": [
                {
                    "attributes": {
                        "NORMAL": 76,
                        "POSITION": 75
                    },
                    "indices": 77,
                    "material": 10
                }
            ]
        },
        {
            "name": "mesh1450_mesh",
            "primitives": [
                {
                    "attributes": {
                        "NORMAL": 79,
                        "POSITION": 78
                    },
                    "indices": 80,
                    "material": 10
                }
            ]
        },
        {
            "name": "mesh1451_mesh",
            "primitives": [
                {
                    "attributes": {
                        "NORMAL": 82,
                        "POSITION": 81
                    },
                    "indices": 83,
                    "material": 10
                }
            ]
        },
        {
            "name": "mesh1452_mesh",
            "primitives": [
                {
                    "attributes": {
                        "NORMAL": 85,
                        "POSITION": 84
                    },
                    "indices": 86,
                    "material": 10
                }
            ]
        },
        {
            "name": "mesh1453_mesh",
            "primitives": [
                {
                    "attributes": {
                        "NORMAL": 88,
                        "POSITION": 87
                    },
                    "indices": 89,
                    "material": 10
                }
            ]
        },
        {
            "name": "mesh1454_mesh",
            "primitives": [
                {
                    "attributes": {
                        "NORMAL": 91,
                        "POSITION": 90
                    },
                    "indices": 92,
                    "material": 10
                }
            ]
        },
        {
            "name": "mesh1455_mesh",
            "primitives": [
                {
                    "attributes": {
                        "NORMAL": 94,
                        "POSITION": 93
                    },
                    "indices": 95,
                    "material": 10
                }
            ]
        },
        {
            "name": "mesh1456_mesh",
            "primitives": [
                {
                    "attributes": {
                        "NORMAL": 97,
                        "POSITION": 96
                    },
                    "indices": 98,
                    "material": 10
                }
            ]
        },
        {
            "name": "mesh1457_mesh",
            "primitives": [
                {
                    "attributes": {
                        "NORMAL": 100,
                        "POSITION": 99
                    },
                    "indices": 101,
                    "material": 10
                }
            ]
        }
    ],
    "nodes": [
        {
            "mesh": 0,
            "name": "mesh1424"
        },
        {
            "mesh": 1,
            "name": "mesh1425"
        },
        {
            "mesh": 2,
            "name": "mesh1426"
        },
        {
            "mesh": 3,
            "name": "mesh1427"
        },
        {
            "mesh": 4,
            "name": "mesh1428"
        },
        {
            "mesh": 5,
            "name": "mesh1429"
        },
        {
            "mesh": 6,
            "name": "mesh1430"
        },
        {
            "mesh": 7,
            "name": "mesh1431"
        },
        {
            "mesh": 8,
            "name": "mesh1432"
        },
        {
            "mesh": 9,
            "name": "mesh1433"
        },
        {
            "mesh": 10,
            "name": "mesh1434"
        },
        {
            "mesh": 11,
            "name": "mesh1435"
        },
        {
            "mesh": 12,
            "name": "mesh1436"
        },
        {
            "mesh": 13,
            "name": "mesh1437"
        },
        {
            "mesh": 14,
            "name": "mesh1438"
        },
        {
            "mesh": 15,
            "name": "mesh1439"
        },
        {
            "mesh": 16,
            "name": "mesh1440"
        },
        {
            "mesh": 17,
            "name": "mesh1441"
        },
        {
            "mesh": 18,
            "name": "mesh1442"
        },
        {
            "mesh": 19,
            "name": "mesh1443"
        },
        {
            "mesh": 20,
            "name": "mesh1444"
        },
        {
            "mesh": 21,
            "name": "mesh1445"
        },
        {
            "mesh": 22,
            "name": "mesh1446"
        },
        {
            "mesh": 23,
            "name": "mesh1447"
        },
        {
            "mesh": 24,
            "name": "mesh1448"
        },
        {
            "mesh": 25,
            "name": "mesh1449"
        },
        {
            "mesh": 26,
            "name": "mesh1450"
        },
        {
            "mesh": 27,
            "name": "mesh1451"
        },
        {
            "mesh": 28,
            "name": "mesh1452"
        },
        {
            "mesh": 29,
            "name": "mesh1453"
        },
        {
            "mesh": 30,
            "name": "mesh1454"
        },
        {
            "mesh": 31,
            "name": "mesh1455"
        },
        {
            "mesh": 32,
            "name": "mesh1456"
        },
        {
            "mesh": 33,
            "name": "mesh1457"
        }
    ],
    "scene": 0,
    "scenes": [
        {
            "name": "Root",
            "nodes": [
                0,
                1,
                2,
                3,
                4,
                5,
                6,
                7,
                8,
                9,
                10,
                11,
                12,
                13,
                14,
                15,
                16,
                17,
                18,
                19,
                20,
                21,
                22,
                23,
                24,
                25,
                26,
                27,
                28,
                29,
                30,
                31,
                32,
                33
            ]
        }
    ]
}