{
    "accessors": [
        {
            "bufferView": 0,
            "componentType": 5126,
            "count": 116,
            "max": [
                0.021826118230819702,
                -0.07401959598064423,
                -0.0025862716138362885
            ],
            "min": [
                0.018173882737755775,
                -0.07783471792936325,
                -0.0044304728507995605
            ],
            "name": "mesh4413_coord_accessor",
            "type": "VEC3"
        },
        {
            "bufferView": 1,
            "componentType": 5126,
            "count": 116,
            "max": [
                0.9985334277153015,
                0.9860321283340454,
                0.16655509173870087
            ],
            "min": [
                -0.9985334277153015,
                -0.9860321283340454,
                -0.16655509173870087
            ],
            "name": "mesh4413_norm_accessor",
            "type": "VEC3"
        },
        {
            "bufferView": 2,
            "componentType": 5125,
            "count": 348,
            "max": [
                115
            ],
            "min": [
                0
            ],
            "name": "mesh4413_idx_accessor",
            "type": "SCALAR"
        },
        {
            "bufferView": 3,
            "componentType": 5126,
            "count": 116,
            "max": [
                0.023494867607951164,
                -0.07290054857730865,
                -0.0038212810177356005
            ],
            "min": [
                0.016505133360624313,
                -0.07980277389287949,
                -0.006604462396353483
            ],
            "name": "mesh4414_coord_accessor",
            "type": "VEC3"
        },
        {
            "bufferView": 4,
            "componentType": 5126,
            "count": 116,
            "max": [
                0.7536027431488037,
                0.6348979473114014,
                -0.521194577217102
            ],
            "min": [
                -0.7536027431488037,
                -0.8534379005432129,
                -0.772596001625061
            ],
            "name": "mesh4414_norm_accessor",
            "type": "VEC3"
        },
        {
            "bufferView": 5,
            "componentType": 5125,
            "count": 348,
            "max": [
                115
            ],
            "min": [
                0
            ],
            "name": "mesh4414_idx_accessor",
            "type": "SCALAR"
        },
        {
            "bufferView": 6,
            "componentType": 5126,
            "count": 844,
            "max": [
                0.07999999821186066,
                0.011415023356676102,
                0.0031306520104408264
            ],
            "min": [
                -0.07999999821186066,
                -0.11147119104862213,
                -0.017626605927944183
            ],
            "name": "mesh4415_coord_accessor",
            "type": "VEC3"
        },
        {
            "bufferView": 7,
            "componentType": 5126,
            "count": 844,
            "max": [
                0.0,
                0.16655509173870087,
                0.9860321283340454
            ],
            "min": [
                0.0,
                0.16655509173870087,
                0.9860321283340454
            ],
            "name": "mesh4415_norm_accessor",
            "type": "VEC3"
        },
        {
            "bufferView": 8,
            "componentType": 5125,
            "count": 2736,
            "max": [
                843
            ],
            "min": [
                0
            ],
            "name": "mesh4415_idx_accessor",
            "type": "SCALAR"
        },
        {
            "bufferView": 9,
            "componentType": 5126,
            "count": 10,
            "max": [
                0.07999999821186066,
                -0.029342813417315483,
                0.0031306520104408264
            ],
            "min": [
                0.07628282904624939,
                -0.1120000034570694,
                -0.013872670009732246
            ],
            "name": "mesh4416_coord_accessor",
            "type": "VEC3"
        },
        {
            "bufferView": 10,
            "componentType": 5126,
            "count": 10,
            "max": [
                0.9990056157112122,
                0.04396118223667145,
                -0.007425679825246334
            ],
            "min": [
                0.9990056157112122,
                0.04396118223667145,
                -0.007425679825246334
            ],
            "name": "mesh4416_norm_accessor",
            "type": "VEC3"
        },
        {
            "bufferView": 11,
            "componentType": 5125,
            "count": 24,
            "max": [
                9
            ],
            "min": [
                0
            ],
            "name": "mesh4416_idx_accessor",
            "type": "SCALAR"
        },
        {
            "bufferView": 12,
            "componentType": 5126,
            "count": 28,
            "max": [
                0.07999999821186066,
                -0.11147119104862213,
                0.0031306520104408264
            ],
            "min": [
                -0.07999999821186066,
                -0.1120000034570694,
                -2.3071822230491534e-16
            ],
            "name": "mesh4417_coord_accessor",
            "type": "VEC3"
        },
        {
            "bufferView": 13,
            "componentType": 5126,
            "count": 28,
            "max": [
                0.0,
                -0.9860321283340454,
                0.16655509173870087
            ],
            "min": [
                0.0,
                -0.9860321283340454,
                0.16655509173870087
            ],
            "name": "mesh4417_norm_accessor",
            "type": "VEC3"
        },
        {
            "bufferView": 14,
            "componentType": 5125,
            "count": 78,
            "max": [
                27
            ],
            "min": [
                0
            ],
            "name": "mesh4417_idx_accessor",
            "type": "SCALAR"
        },
        {
            "bufferView": 15,
            "componentType": 5126,
            "count": 22,
            "max": [
                0.054499998688697815,
                0.011415023356676102,
                -0.017626605927944183
            ],
            "min": [
                -0.054499998688697815,
                0.010886210948228836,
                -0.02075725793838501
            ],
            "name": "mesh4418_coord_accessor",
            "type": "VEC3"
        },
        {
            "bufferView": 16,
            "componentType": 5126,
            "count": 22,
            "max": [
                1.3032328488957477e-16,
                0.9860321283340454,
                -0.16655509173870087
            ],
            "min": [
                1.3032328488957477e-16,
                0.9860321283340454,
                -0.16655509173870087
            ],
            "name": "mesh4418_norm_accessor",
            "type": "VEC3"
        },
        {
            "bufferView": 17,
            "componentType": 5125,
            "count": 60,
            "max": [
                21
            ],
            "min": [
                0
            ],
            "name": "mesh4418_idx_accessor",
            "type": "SCALAR"
        },
        {
            "bufferView": 18,
            "componentType": 5126,
            "count": 6,
            "max": [
                0.07628282904624939,
                -0.029342813417315483,
                -0.01074201799929142
            ],
            "min": [
                0.054499998688697815,
                -0.02987162582576275,
                -0.013872670009732246
            ],
            "name": "mesh4419_coord_accessor",
            "type": "VEC3"
        },
        {
            "bufferView": 19,
            "componentType": 5126,
            "count": 6,
            "max": [
                1.3032328488957477e-16,
                0.9860321283340454,
                -0.16655509173870087
            ],
            "min": [
                1.3032328488957477e-16,
                0.9860321283340454,
                -0.16655509173870087
            ],
            "name": "mesh4419_norm_accessor",
            "type": "VEC3"
        },
        {
            "bufferView": 20,
            "componentType": 5125,
            "count": 12,
            "max": [
                5
            ],
            "min": [
                0
            ],
            "name": "mesh4419_idx_accessor",
            "type": "SCALAR"
        },
        {
            "bufferView": 21,
            "componentType": 5126,
            "count": 6,
            "max": [
                0.054499998688697815,
                0.011415023356676102,
                -0.01074201799929142
            ],
            "min": [
                0.054499998688697815,
                -0.02987162582576275,
                -0.02075725793838501
            ],
            "name": "mesh4420_coord_accessor",
            "type": "VEC3"
        },
        {
            "bufferView": 22,
            "componentType": 5126,
            "count": 6,
            "max": [
                1.0,
                -0.0,
                -0.0
            ],
            "min": [
                1.0,
                -0.0,
                -0.0
            ],
            "name": "mesh4420_norm_accessor",
            "type": "VEC3"
        },
        {
            "bufferView": 23,
            "componentType": 5125,
            "count": 12,
            "max": [
                5
            ],
            "min": [
                0
            ],
            "name": "mesh4420_idx_accessor",
            "type": "SCALAR"
        },
        {
            "bufferView": 24,
            "componentType": 5126,
            "count": 11,
            "max": [
                -0.07628282904624939,
                -0.029342813417315483,
                0.0031306520104408264
            ],
            "min": [
                -0.07999999821186066,
                -0.1120000034570694,
                -0.013872670009732246
            ],
            "name": "mesh4421_coord_accessor",
            "type": "VEC3"
        },
        {
            "bufferView": 25,
            "componentType": 5126,
            "count": 11,
            "max": [
                -0.9990056157112122,
                0.04396118223667145,
                -0.007425679825246334
            ],
            "min": [
                -0.9990056157112122,
                0.04396118223667145,
                -0.007425679825246334
            ],
            "name": "mesh4421_norm_accessor",
            "type": "VEC3"
        },
        {
            "bufferView": 26,
            "componentType": 5125,
            "count": 27,
            "max": [
                10
            ],
            "min": [
                0
            ],
            "name": "mesh4421_idx_accessor",
            "type": "SCALAR"
        },
        {
            "bufferView": 27,
            "componentType": 5126,
            "count": 7,
            "max": [
                -0.054499998688697815,
                -0.029342813417315483,
                -0.01074201799929142
            ],
            "min": [
                -0.07628282904624939,
                -0.02987162582576275,
                -0.013872670009732246
            ],
            "name": "mesh4422_coord_accessor",
            "type": "VEC3"
        },
        {
            "bufferView": 28,
            "componentType": 5126,
            "count": 7,
            "max": [
                -0.0,
                0.9860321283340454,
                -0.16655509173870087
            ],
            "min": [
                -0.0,
                0.9860321283340454,
                -0.16655509173870087
            ],
            "name": "mesh4422_norm_accessor",
            "type": "VEC3"
        },
        {
            "bufferView": 29,
            "componentType": 5125,
            "count": 15,
            "max": [
                6
            ],
            "min": [
                0
            ],
            "name": "mesh4422_idx_accessor",
            "type": "SCALAR"
        },
        {
            "bufferView": 30,
            "componentType": 5126,
            "count": 6,
            "max": [
                -0.054499998688697815,
                0.011415023356676102,
                -0.01074201799929142
            ],
            "min": [
                -0.054499998688697815,
                -0.02987162582576275,
                -0.02075725793838501
            ],
            "name": "mesh4423_coord_accessor",
            "type": "VEC3"
        },
        {
            "bufferView": 31,
            "componentType": 5126,
            "count": 6,
            "max": [
                -1.0,
                -0.0,
                -0.0
            ],
            "min": [
                -1.0,
                -0.0,
                -0.0
            ],
            "name": "mesh4423_norm_accessor",
            "type": "VEC3"
        },
        {
            "bufferView": 32,
            "componentType": 5125,
            "count": 12,
            "max": [
                5
            ],
            "min": [
                0
            ],
            "name": "mesh4423_idx_accessor",
            "type": "SCALAR"
        },
        {
            "bufferView": 33,
            "componentType": 5126,
            "count": 116,
            "max": [
                0.0018722501117736101,
                -0.04185762256383896,
                -0.008003504015505314
            ],
            "min": [
                -0.0018722501117736101,
                -0.04608405381441116,
                -0.011758738197386265
            ],
            "name": "mesh4424_coord_accessor",
            "type": "VEC3"
        },
        {
            "bufferView": 34,
            "componentType": 5126,
            "count": 116,
            "max": [
                0.9985334277153015,
                0.9860321283340454,
                0.16655509173870087
            ],
            "min": [
                -0.9985334277153015,
                -0.9860321283340454,
                -0.16655509173870087
            ],
            "name": "mesh4424_norm_accessor",
            "type": "VEC3"
        },
        {
            "bufferView": 35,
            "componentType": 5125,
            "count": 348,
            "max": [
                115
            ],
            "min": [
                0
            ],
            "name": "mesh4424_idx_accessor",
            "type": "SCALAR"
        },
        {
            "bufferView": 36,
            "componentType": 5126,
            "count": 116,
            "max": [
                0.056826118379831314,
                -0.07401959598064423,
                -0.0025862716138362885
            ],
            "min": [
                0.05317388102412224,
                -0.07783471792936325,
                -0.0044304728507995605
            ],
            "name": "mesh4425_coord_accessor",
            "type": "VEC3"
        },
        {
            "bufferView": 37,
            "componentType": 5126,
            "count": 116,
            "max": [
                0.9985334277153015,
                0.9860321283340454,
                0.16655509173870087
            ],
            "min": [
                -0.9985334277153015,
                -0.9860321283340454,
                -0.16655509173870087
            ],
            "name": "mesh4425_norm_accessor",
            "type": "VEC3"
        },
        {
            "bufferView": 38,
            "componentType": 5125,
            "count": 348,
            "max": [
                115
            ],
            "min": [
                0
            ],
            "name": "mesh4425_idx_accessor",
            "type": "SCALAR"
        },
        {
            "bufferView": 39,
            "componentType": 5126,
            "count": 118,
            "max": [
                0.05849486589431763,
                -0.07290054857730865,
                -0.0038212810177356005
            ],
            "min": [
                0.051505133509635925,
                -0.07980277389287949,
                -0.006604462396353483
            ],
            "name": "mesh4426_coord_accessor",
            "type": "VEC3"
        },
        {
            "bufferView": 40,
            "componentType": 5126,
            "count": 118,
            "max": [
                0.7536027431488037,
                0.6348979473114014,
                -0.521194577217102
            ],
            "min": [
                -0.7536027431488037,
                -0.8534379005432129,
                -0.772596001625061
            ],
            "name": "mesh4426_norm_accessor",
            "type": "VEC3"
        },
        {
            "bufferView": 41,
            "componentType": 5125,
            "count": 354,
            "max": [
                117
            ],
            "min": [
                0
            ],
            "name": "mesh4426_idx_accessor",
            "type": "SCALAR"
        },
        {
            "bufferView": 42,
            "componentType": 5126,
            "count": 116,
            "max": [
                0.07442686706781387,
                -0.05676808953285217,
                -0.005500300321727991
            ],
            "min": [
                0.0707746297121048,
                -0.0605832114815712,
                -0.007344501558691263
            ],
            "name": "mesh4427_coord_accessor",
            "type": "VEC3"
        },
        {
            "bufferView": 43,
            "componentType": 5126,
            "count": 116,
            "max": [
                0.9985334277153015,
                0.9860321283340454,
                0.16655509173870087
            ],
            "min": [
                -0.9985334277153015,
                -0.9860321283340454,
                -0.16655509173870087
            ],
            "name": "mesh4427_norm_accessor",
            "type": "VEC3"
        },
        {
            "bufferView": 44,
            "componentType": 5125,
            "count": 348,
            "max": [
                115
            ],
            "min": [
                0
            ],
            "name": "mesh4427_idx_accessor",
            "type": "SCALAR"
        },
        {
            "bufferView": 45,
            "componentType": 5126,
            "count": 116,
            "max": [
                0.07609561830759048,
                -0.0556490458548069,
                -0.0067353094927966595
            ],
            "min": [
                0.06910588592290878,
                -0.06255127489566803,
                -0.009518491104245186
            ],
            "name": "mesh4428_coord_accessor",
            "type": "VEC3"
        },
        {
            "bufferView": 46,
            "componentType": 5126,
            "count": 116,
            "max": [
                0.7536027431488037,
                0.6348979473114014,
                -0.521194577217102
            ],
            "min": [
                -0.7536027431488037,
                -0.8534379005432129,
                -0.772596001625061
            ],
            "name": "mesh4428_norm_accessor",
            "type": "VEC3"
        },
        {
            "bufferView": 47,
            "componentType": 5125,
            "count": 348,
            "max": [
                115
            ],
            "min": [
                0
            ],
            "name": "mesh4428_idx_accessor",
            "type": "SCALAR"
        },
        {
            "bufferView": 48,
            "componentType": 5126,
            "count": 116,
            "max": [
                0.0518261194229126,
                -0.01605837792158127,
                -0.012376759201288223
            ],
            "min": [
                0.04817388206720352,
                -0.019873499870300293,
                -0.01422096136957407
            ],
            "name": "mesh4429_coord_accessor",
            "type": "VEC3"
        },
        {
            "bufferView": 49,
            "componentType": 5126,
            "count": 116,
            "max": [
                0.9985334277153015,
                0.9860321283340454,
                0.16655509173870087
            ],
            "min": [
                -0.9985334277153015,
                -0.9860321283340454,
                -0.16655509173870087
            ],
            "name": "mesh4429_norm_accessor",
            "type": "VEC3"
        },
        {
            "bufferView": 50,
            "componentType": 5125,
            "count": 348,
            "max": [
                115
            ],
            "min": [
                0
            ],
            "name": "mesh4429_idx_accessor",
            "type": "SCALAR"
        },
        {
            "bufferView": 51,
            "componentType": 5126,
            "count": 116,
            "max": [
                0.05349486693739891,
                -0.014939332380890846,
                -0.013611769303679466
            ],
            "min": [
                0.04650513455271721,
                -0.021841557696461678,
                -0.016394950449466705
            ],
            "name": "mesh4430_coord_accessor",
            "type": "VEC3"
        },
        {
            "bufferView": 52,
            "componentType": 5126,
            "count": 116,
            "max": [
                0.7536027431488037,
                0.6348979473114014,
                -0.521194577217102
            ],
            "min": [
                -0.7536027431488037,
                -0.8534379005432129,
                -0.772596001625061
            ],
            "name": "mesh4430_norm_accessor",
            "type": "VEC3"
        },
        {
            "bufferView": 53,
            "componentType": 5125,
            "count": 348,
            "max": [
                115
            ],
            "min": [
                0
            ],
            "name": "mesh4430_idx_accessor",
            "type": "SCALAR"
        },
        {
            "bufferView": 54,
            "componentType": 5126,
            "count": 118,
            "max": [
                0.051326118409633636,
                0.008288118056952953,
                -0.016489233821630478
            ],
            "min": [
                0.04767388105392456,
                0.004472996108233929,
                -0.0183334369212389
            ],
            "name": "mesh4431_coord_accessor",
            "type": "VEC3"
        },
        {
            "bufferView": 55,
            "componentType": 5126,
            "count": 118,
            "max": [
                0.9985334277153015,
                0.9860321283340454,
                0.16655509173870087
            ],
            "min": [
                -0.9985334277153015,
                -0.9860321283340454,
                -0.16655509173870087
            ],
            "name": "mesh4431_norm_accessor",
            "type": "VEC3"
        },
        {
            "bufferView": 56,
            "componentType": 5125,
            "count": 354,
            "max": [
                117
            ],
            "min": [
                0
            ],
            "name": "mesh4431_idx_accessor",
            "type": "SCALAR"
        },
        {
            "bufferView": 57,
            "componentType": 5126,
            "count": 118,
            "max": [
                0.05299486592411995,
                0.0094071626663208,
                -0.01772424392402172
            ],
            "min": [
                0.04600513353943825,
                0.002504937583580613,
                -0.02050742506980896
            ],
            "name": "mesh4432_coord_accessor",
            "type": "VEC3"
        },
        {
            "bufferView": 58,
            "componentType": 5126,
            "count": 118,
            "max": [
                0.7536027431488037,
                0.6348979473114014,
                -0.521194577217102
            ],
            "min": [
                -0.7536027431488037,
                -0.8534379005432129,
                -0.772596001625061
            ],
            "name": "mesh4432_norm_accessor",
            "type": "VEC3"
        },
        {
            "bufferView": 59,
            "componentType": 5125,
            "count": 354,
            "max": [
                117
            ],
            "min": [
                0
            ],
            "name": "mesh4432_idx_accessor",
            "type": "SCALAR"
        },
        {
            "bufferView": 60,
            "componentType": 5126,
            "count": 116,
            "max": [
                0.013826117850840092,
                0.008288118056952953,
                -0.016489233821630478
            ],
            "min": [
                0.010173882357776165,
                0.004472996108233929,
                -0.0183334369212389
            ],
            "name": "mesh4433_coord_accessor",
            "type": "VEC3"
        },
        {
            "bufferView": 61,
            "componentType": 5126,
            "count": 116,
            "max": [
                0.9985334277153015,
                0.9860321283340454,
                0.16655509173870087
            ],
            "min": [
                -0.9985334277153015,
                -0.9860321283340454,
                -0.16655509173870087
            ],
            "name": "mesh4433_norm_accessor",
            "type": "VEC3"
        },
        {
            "bufferView": 62,
            "componentType": 5125,
            "count": 348,
            "max": [
                115
            ],
            "min": [
                0
            ],
            "name": "mesh4433_idx_accessor",
            "type": "SCALAR"
        },
        {
            "bufferView": 63,
            "componentType": 5126,
            "count": 116,
            "max": [
                0.015494867227971554,
                0.0094071626663208,
                -0.01772424392402172
            ],
            "min": [
                0.008505132980644703,
                0.002504937583580613,
                -0.02050742506980896
            ],
            "name": "mesh4434_coord_accessor",
            "type": "VEC3"
        },
        {
            "bufferView": 64,
            "componentType": 5126,
            "count": 116,
            "max": [
                0.7536027431488037,
                0.6348979473114014,
                -0.521194577217102
            ],
            "min": [
                -0.7536027431488037,
                -0.8534379005432129,
                -0.772596001625061
            ],
            "name": "mesh4434_norm_accessor",
            "type": "VEC3"
        },
        {
            "bufferView": 65,
            "componentType": 5125,
            "count": 348,
            "max": [
                115
            ],
            "min": [
                0
            ],
            "name": "mesh4434_idx_accessor",
            "type": "SCALAR"
        },
        {
            "bufferView": 66,
            "componentType": 5126,
            "count": 116,
            "max": [
                -0.018173882737755775,
                -0.07401959598064423,
                -0.0025862716138362885
            ],
            "min": [
                -0.021826118230819702,
                -0.07783471792936325,
                -0.0044304728507995605
            ],
            "name": "mesh4435_coord_accessor",
            "type": "VEC3"
        },
        {
            "bufferView": 67,
            "componentType": 5126,
            "count": 116,
            "max": [
                0.9985334277153015,
                0.9860321283340454,
                0.16655509173870087
            ],
            "min": [
                -0.9985334277153015,
                -0.9860321283340454,
                -0.16655509173870087
            ],
            "name": "mesh4435_norm_accessor",
            "type": "VEC3"
        },
        {
            "bufferView": 68,
            "componentType": 5125,
            "count": 348,
            "max": [
                115
            ],
            "min": [
                0
            ],
            "name": "mesh4435_idx_accessor",
            "type": "SCALAR"
        },
        {
            "bufferView": 69,
            "componentType": 5126,
            "count": 116,
            "max": [
                -0.016505133360624313,
                -0.07290054857730865,
                -0.0038212810177356005
            ],
            "min": [
                -0.023494867607951164,
                -0.07980277389287949,
                -0.006604462396353483
            ],
            "name": "mesh4436_coord_accessor",
            "type": "VEC3"
        },
        {
            "bufferView": 70,
            "componentType": 5126,
            "count": 116,
            "max": [
                0.7536027431488037,
                0.6348979473114014,
                -0.521194577217102
            ],
            "min": [
                -0.7536027431488037,
                -0.8534379005432129,
                -0.772596001625061
            ],
            "name": "mesh4436_norm_accessor",
            "type": "VEC3"
        },
        {
            "bufferView": 71,
            "componentType": 5125,
            "count": 348,
            "max": [
                115
            ],
            "min": [
                0
            ],
            "name": "mesh4436_idx_accessor",
            "type": "SCALAR"
        },
        {
            "bufferView": 72,
            "componentType": 5126,
            "count": 116,
            "max": [
                -0.05317388102412224,
                -0.07401959598064423,
                -0.0025862716138362885
            ],
            "min": [
                -0.056826118379831314,
                -0.07783471792936325,
                -0.0044304728507995605
            ],
            "name": "mesh4437_coord_accessor",
            "type": "VEC3"
        },
        {
            "bufferView": 73,
            "componentType": 5126,
            "count": 116,
            "max": [
                0.9985334277153015,
                0.9860321283340454,
                0.16655509173870087
            ],
            "min": [
                -0.9985334277153015,
                -0.9860321283340454,
                -0.16655509173870087
            ],
            "name": "mesh4437_norm_accessor",
            "type": "VEC3"
        },
        {
            "bufferView": 74,
            "componentType": 5125,
            "count": 348,
            "max": [
                115
            ],
            "min": [
                0
            ],
            "name": "mesh4437_idx_accessor",
            "type": "SCALAR"
        },
        {
            "bufferView": 75,
            "componentType": 5126,
            "count": 120,
            "max": [
                -0.051505133509635925,
                -0.07290054857730865,
                -0.0038212810177356005
            ],
            "min": [
                -0.05849486589431763,
                -0.07980277389287949,
                -0.006604462396353483
            ],
            "name": "mesh4438_coord_accessor",
            "type": "VEC3"
        },
        {
            "bufferView": 76,
            "componentType": 5126,
            "count": 120,
            "max": [
                0.7536027431488037,
                0.6348979473114014,
                -0.521194577217102
            ],
            "min": [
                -0.7536027431488037,
                -0.8534379005432129,
                -0.772596001625061
            ],
            "name": "mesh4438_norm_accessor",
            "type": "VEC3"
        },
        {
            "bufferView": 77,
            "componentType": 5125,
            "count": 360,
            "max": [
                119
            ],
            "min": [
                0
            ],
            "name": "mesh4438_idx_accessor",
            "type": "SCALAR"
        },
        {
            "bufferView": 78,
            "componentType": 5126,
            "count": 116,
            "max": [
                -0.0707746297121048,
                -0.05676808953285217,
                -0.005500300321727991
            ],
            "min": [
                -0.07442686706781387,
                -0.0605832114815712,
                -0.007344501558691263
            ],
            "name": "mesh4439_coord_accessor",
            "type": "VEC3"
        },
        {
            "bufferView": 79,
            "componentType": 5126,
            "count": 116,
            "max": [
                0.9985334277153015,
                0.9860321283340454,
                0.16655509173870087
            ],
            "min": [
                -0.9985334277153015,
                -0.9860321283340454,
                -0.16655509173870087
            ],
            "name": "mesh4439_norm_accessor",
            "type": "VEC3"
        },
        {
            "bufferView": 80,
            "componentType": 5125,
            "count": 348,
            "max": [
                115
            ],
            "min": [
                0
            ],
            "name": "mesh4439_idx_accessor",
            "type": "SCALAR"
        },
        {
            "bufferView": 81,
            "componentType": 5126,
            "count": 116,
            "max": [
                -0.06910588592290878,
                -0.0556490458548069,
                -0.0067353094927966595
            ],
            "min": [
                -0.07609561830759048,
                -0.06255127489566803,
                -0.009518491104245186
            ],
            "name": "mesh4440_coord_accessor",
            "type": "VEC3"
        },
        {
            "bufferView": 82,
            "componentType": 5126,
            "count": 116,
            "max": [
                0.7536027431488037,
                0.6348979473114014,
                -0.521194577217102
            ],
            "min": [
                -0.7536027431488037,
                -0.8534379005432129,
                -0.772596001625061
            ],
            "name": "mesh4440_norm_accessor",
            "type": "VEC3"
        },
        {
            "bufferView": 83,
            "componentType": 5125,
            "count": 348,
            "max": [
                115
            ],
            "min": [
                0
            ],
            "name": "mesh4440_idx_accessor",
            "type": "SCALAR"
        },
        {
            "bufferView": 84,
            "componentType": 5126,
            "count": 118,
            "max": [
                -0.04817388206720352,
                -0.01605837792158127,
                -0.012376759201288223
            ],
            "min": [
                -0.0518261194229126,
                -0.019873499870300293,
                -0.01422096136957407
            ],
            "name": "mesh4441_coord_accessor",
            "type": "VEC3"
        },
        {
            "bufferView": 85,
            "componentType": 5126,
            "count": 118,
            "max": [
                0.9985334277153015,
                0.9860321283340454,
                0.16655509173870087
            ],
            "min": [
                -0.9985334277153015,
                -0.9860321283340454,
                -0.16655509173870087
            ],
            "name": "mesh4441_norm_accessor",
            "type": "VEC3"
        },
        {
            "bufferView": 86,
            "componentType": 5125,
            "count": 354,
            "max": [
                117
            ],
            "min": [
                0
            ],
            "name": "mesh4441_idx_accessor",
            "type": "SCALAR"
        },
        {
            "bufferView": 87,
            "componentType": 5126,
            "count": 118,
            "max": [
                -0.04650513455271721,
                -0.014939332380890846,
                -0.013611769303679466
            ],
            "min": [
                -0.05349486693739891,
                -0.021841557696461678,
                -0.016394950449466705
            ],
            "name": "mesh4442_coord_accessor",
            "type": "VEC3"
        },
        {
            "bufferView": 88,
            "componentType": 5126,
            "count": 118,
            "max": [
                0.7536027431488037,
                0.6348979473114014,
                -0.521194577217102
            ],
            "min": [
                -0.7536027431488037,
                -0.8534379005432129,
                -0.772596001625061
            ],
            "name": "mesh4442_norm_accessor",
            "type": "VEC3"
        },
        {
            "bufferView": 89,
            "componentType": 5125,
            "count": 354,
            "max": [
                117
            ],
            "min": [
                0
            ],
            "name": "mesh4442_idx_accessor",
            "type": "SCALAR"
        },
        {
            "bufferView": 90,
            "componentType": 5126,
            "count": 118,
            "max": [
                -0.04767388105392456,
                0.008288118056952953,
                -0.016489233821630478
            ],
            "min": [
                -0.051326118409633636,
                0.004472996108233929,
                -0.0183334369212389
            ],
            "name": "mesh4443_coord_accessor",
            "type": "VEC3"
        },
        {
            "bufferView": 91,
            "componentType": 5126,
            "count": 118,
            "max": [
                0.9985334277153015,
                0.9860321283340454,
                0.16655509173870087
            ],
            "min": [
                -0.9985334277153015,
                -0.9860321283340454,
                -0.16655509173870087
            ],
            "name": "mesh4443_norm_accessor",
            "type": "VEC3"
        },
        {
            "bufferView": 92,
            "componentType": 5125,
            "count": 354,
            "max": [
                117
            ],
            "min": [
                0
            ],
            "name": "mesh4443_idx_accessor",
            "type": "SCALAR"
        },
        {
            "bufferView": 93,
            "componentType": 5126,
            "count": 118,
            "max": [
                -0.04600513353943825,
                0.0094071626663208,
                -0.01772424392402172
            ],
            "min": [
                -0.05299486592411995,
                0.002504937583580613,
                -0.02050742506980896
            ],
            "name": "mesh4444_coord_accessor",
            "type": "VEC3"
        },
        {
            "bufferView": 94,
            "componentType": 5126,
            "count": 118,
            "max": [
                0.7536027431488037,
                0.6348979473114014,
                -0.521194577217102
            ],
            "min": [
                -0.7536027431488037,
                -0.8534379005432129,
                -0.772596001625061
            ],
            "name": "mesh4444_norm_accessor",
            "type": "VEC3"
        },
        {
            "bufferView": 95,
            "componentType": 5125,
            "count": 354,
            "max": [
                117
            ],
            "min": [
                0
            ],
            "name": "mesh4444_idx_accessor",
            "type": "SCALAR"
        },
        {
            "bufferView": 96,
            "componentType": 5126,
            "count": 851,
            "max": [
                0.07999999821186066,
                0.010886210948228836,
                -1.0495077029659683e-16
            ],
            "min": [
                -0.07999999821186066,
                -0.1120000034570694,
                -0.02075725793838501
            ],
            "name": "mesh4445_coord_accessor",
            "type": "VEC3"
        },
        {
            "bufferView": 97,
            "componentType": 5126,
            "count": 851,
            "max": [
                0.0,
                -0.16655509173870087,
                -0.9860321283340454
            ],
            "min": [
                0.0,
                -0.16655509173870087,
                -0.9860321283340454
            ],
            "name": "mesh4445_norm_accessor",
            "type": "VEC3"
        },
        {
            "bufferView": 98,
            "componentType": 5125,
            "count": 2760,
            "max": [
                850
            ],
            "min": [
                0
            ],
            "name": "mesh4445_idx_accessor",
            "type": "SCALAR"
        },
        {
            "bufferView": 99,
            "componentType": 5126,
            "count": 116,
            "max": [
                -0.010173882357776165,
                0.008288118056952953,
                -0.016489233821630478
            ],
            "min": [
                -0.013826117850840092,
                0.004472996108233929,
                -0.0183334369212389
            ],
            "name": "mesh4446_coord_accessor",
            "type": "VEC3"
        },
        {
            "bufferView": 100,
            "componentType": 5126,
            "count": 116,
            "max": [
                0.9985334277153015,
                0.9860321283340454,
                0.16655509173870087
            ],
            "min": [
                -0.9985334277153015,
                -0.9860321283340454,
                -0.16655509173870087
            ],
            "name": "mesh4446_norm_accessor",
            "type": "VEC3"
        },
        {
            "bufferView": 101,
            "componentType": 5125,
            "count": 348,
            "max": [
                115
            ],
            "min": [
                0
            ],
            "name": "mesh4446_idx_accessor",
            "type": "SCALAR"
        },
        {
            "bufferView": 102,
            "componentType": 5126,
            "count": 116,
            "max": [
                -0.008505132980644703,
                0.0094071626663208,
                -0.01772424392402172
            ],
            "min": [
                -0.015494867227971554,
                0.002504937583580613,
                -0.02050742506980896
            ],
            "name": "mesh4447_coord_accessor",
            "type": "VEC3"
        },
        {
            "bufferView": 103,
            "componentType": 5126,
            "count": 116,
            "max": [
                0.7536027431488037,
                0.6348979473114014,
                -0.521194577217102
            ],
            "min": [
                -0.7536027431488037,
                -0.8534379005432129,
                -0.772596001625061
            ],
            "name": "mesh4447_norm_accessor",
            "type": "VEC3"
        },
        {
            "bufferView": 104,
            "componentType": 5125,
            "count": 348,
            "max": [
                115
            ],
            "min": [
                0
            ],
            "name": "mesh4447_idx_accessor",
            "type": "SCALAR"
        }
    ],
    "asset": {
        "generator": "ONSHAPE BY PTC INC, 1.221",
        "version": "2.0"
    },
    "bufferViews": [
        {
            "buffer": 0,
            "byteLength": 1392,
            "name": "mesh4413_coord_bufferView",
            "target": 34962
        },
        {
            "buffer": 0,
            "byteLength": 1392,
            "byteOffset": 1392,
            "name": "mesh4413_norm_bufferView",
            "target": 34962
        },
        {
            "buffer": 0,
            "byteLength": 1392,
            "byteOffset": 2784,
            "name": "mesh4413_idx_bufferView",
            "target": 34963
        },
        {
            "buffer": 0,
            "byteLength": 1392,
            "byteOffset": 4176,
            "name": "mesh4414_coord_bufferView",
            "target": 34962
        },
        {
            "buffer": 0,
            "byteLength": 1392,
            "byteOffset": 5568,
            "name": "mesh4414_norm_bufferView",
            "target": 34962
        },
        {
            "buffer": 0,
            "byteLength": 1392,
            "byteOffset": 6960,
            "name": "mesh4414_idx_bufferView",
            "target": 34963
        },
        {
            "buffer": 0,
            "byteLength": 10128,
            "byteOffset": 8352,
            "name": "mesh4415_coord_bufferView",
            "target": 34962
        },
        {
            "buffer": 0,
            "byteLength": 10128,
            "byteOffset": 18480,
            "name": "mesh4415_norm_bufferView",
            "target": 34962
        },
        {
            "buffer": 0,
            "byteLength": 10944,
            "byteOffset": 28608,
            "name": "mesh4415_idx_bufferView",
            "target": 34963
        },
        {
            "buffer": 0,
            "byteLength": 120,
            "byteOffset": 39552,
            "name": "mesh4416_coord_bufferView",
            "target": 34962
        },
        {
            "buffer": 0,
            "byteLength": 120,
            "byteOffset": 39672,
            "name": "mesh4416_norm_bufferView",
            "target": 34962
        },
        {
            "buffer": 0,
            "byteLength": 96,
            "byteOffset": 39792,
            "name": "mesh4416_idx_bufferView",
            "target": 34963
        },
        {
            "buffer": 0,
            "byteLength": 336,
            "byteOffset": 39888,
            "name": "mesh4417_coord_bufferView",
            "target": 34962
        },
        {
            "buffer": 0,
            "byteLength": 336,
            "byteOffset": 40224,
            "name": "mesh4417_norm_bufferView",
            "target": 34962
        },
        {
            "buffer": 0,
            "byteLength": 312,
            "byteOffset": 40560,
            "name": "mesh4417_idx_bufferView",
            "target": 34963
        },
        {
            "buffer": 0,
            "byteLength": 264,
            "byteOffset": 40872,
            "name": "mesh4418_coord_bufferView",
            "target": 34962
        },
        {
            "buffer": 0,
            "byteLength": 264,
            "byteOffset": 41136,
            "name": "mesh4418_norm_bufferView",
            "target": 34962
        },
        {
            "buffer": 0,
            "byteLength": 240,
            "byteOffset": 41400,
            "name": "mesh4418_idx_bufferView",
            "target": 34963
        },
        {
            "buffer": 0,
            "byteLength": 72,
            "byteOffset": 41640,
            "name": "mesh4419_coord_bufferView",
            "target": 34962
        },
        {
            "buffer": 0,
            "byteLength": 72,
            "byteOffset": 41712,
            "name": "mesh4419_norm_bufferView",
            "target": 34962
        },
        {
            "buffer": 0,
            "byteLength": 48,
            "byteOffset": 41784,
            "name": "mesh4419_idx_bufferView",
            "target": 34963
        },
        {
            "buffer": 0,
            "byteLength": 72,
            "byteOffset": 41832,
            "name": "mesh4420_coord_bufferView",
            "target": 34962
        },
        {
            "buffer": 0,
            "byteLength": 72,
            "byteOffset": 41904,
            "name": "mesh4420_norm_bufferView",
            "target": 34962
        },
        {
            "buffer": 0,
            "byteLength": 48,
            "byteOffset": 41976,
            "name": "mesh4420_idx_bufferView",
            "target": 34963
        },
        {
            "buffer": 0,
            "byteLength": 132,
            "byteOffset": 42024,
            "name": "mesh4421_coord_bufferView",
            "target": 34962
        },
        {
            "buffer": 0,
            "byteLength": 132,
            "byteOffset": 42156,
            "name": "mesh4421_norm_bufferView",
            "target": 34962
        },
        {
            "buffer": 0,
            "byteLength": 108,
            "byteOffset": 42288,
            "name": "mesh4421_idx_bufferView",
            "target": 34963
        },
        {
            "buffer": 0,
            "byteLength": 84,
            "byteOffset": 42396,
            "name": "mesh4422_coord_bufferView",
            "target": 34962
        },
        {
            "buffer": 0,
            "byteLength": 84,
            "byteOffset": 42480,
            "name": "mesh4422_norm_bufferView",
            "target": 34962
        },
        {
            "buffer": 0,
            "byteLength": 60,
            "byteOffset": 42564,
            "name": "mesh4422_idx_bufferView",
            "target": 34963
        },
        {
            "buffer": 0,
            "byteLength": 72,
            "byteOffset": 42624,
            "name": "mesh4423_coord_bufferView",
            "target": 34962
        },
        {
            "buffer": 0,
            "byteLength": 72,
            "byteOffset": 42696,
            "name": "mesh4423_norm_bufferView",
            "target": 34962
        },
        {
            "buffer": 0,
            "byteLength": 48,
            "byteOffset": 42768,
            "name": "mesh4423_idx_bufferView",
            "target": 34963
        },
        {
            "buffer": 0,
            "byteLength": 1392,
            "byteOffset": 42816,
            "name": "mesh4424_coord_bufferView",
            "target": 34962
        },
        {
            "buffer": 0,
            "byteLength": 1392,
            "byteOffset": 44208,
            "name": "mesh4424_norm_bufferView",
            "target": 34962
        },
        {
            "buffer": 0,
            "byteLength": 1392,
            "byteOffset": 45600,
            "name": "mesh4424_idx_bufferView",
            "target": 34963
        },
        {
            "buffer": 0,
            "byteLength": 1392,
            "byteOffset": 46992,
            "name": "mesh4425_coord_bufferView",
            "target": 34962
        },
        {
            "buffer": 0,
            "byteLength": 1392,
            "byteOffset": 48384,
            "name": "mesh4425_norm_bufferView",
            "target": 34962
        },
        {
            "buffer": 0,
            "byteLength": 1392,
            "byteOffset": 49776,
            "name": "mesh4425_idx_bufferView",
            "target": 34963
        },
        {
            "buffer": 0,
            "byteLength": 1416,
            "byteOffset": 51168,
            "name": "mesh4426_coord_bufferView",
            "target": 34962
        },
        {
            "buffer": 0,
            "byteLength": 1416,
            "byteOffset": 52584,
            "name": "mesh4426_norm_bufferView",
            "target": 34962
        },
        {
            "buffer": 0,
            "byteLength": 1416,
            "byteOffset": 54000,
            "name": "mesh4426_idx_bufferView",
            "target": 34963
        },
        {
            "buffer": 0,
            "byteLength": 1392,
            "byteOffset": 55416,
            "name": "mesh4427_coord_bufferView",
            "target": 34962
        },
        {
            "buffer": 0,
            "byteLength": 1392,
            "byteOffset": 56808,
            "name": "mesh4427_norm_bufferView",
            "target": 34962
        },
        {
            "buffer": 0,
            "byteLength": 1392,
            "byteOffset": 58200,
            "name": "mesh4427_idx_bufferView",
            "target": 34963
        },
        {
            "buffer": 0,
            "byteLength": 1392,
            "byteOffset": 59592,
            "name": "mesh4428_coord_bufferView",
            "target": 34962
        },
        {
            "buffer": 0,
            "byteLength": 1392,
            "byteOffset": 60984,
            "name": "mesh4428_norm_bufferView",
            "target": 34962
        },
        {
            "buffer": 0,
            "byteLength": 1392,
            "byteOffset": 62376,
            "name": "mesh4428_idx_bufferView",
            "target": 34963
        },
        {
            "buffer": 0,
            "byteLength": 1392,
            "byteOffset": 63768,
            "name": "mesh4429_coord_bufferView",
            "target": 34962
        },
        {
            "buffer": 0,
            "byteLength": 1392,
            "byteOffset": 65160,
            "name": "mesh4429_norm_bufferView",
            "target": 34962
        },
        {
            "buffer": 0,
            "byteLength": 1392,
            "byteOffset": 66552,
            "name": "mesh4429_idx_bufferView",
            "target": 34963
        },
        {
            "buffer": 0,
            "byteLength": 1392,
            "byteOffset": 67944,
            "name": "mesh4430_coord_bufferView",
            "target": 34962
        },
        {
            "buffer": 0,
            "byteLength": 1392,
            "byteOffset": 69336,
            "name": "mesh4430_norm_bufferView",
            "target": 34962
        },
        {
            "buffer": 0,
            "byteLength": 1392,
            "byteOffset": 70728,
            "name": "mesh4430_idx_bufferView",
            "target": 34963
        },
        {
            "buffer": 0,
            "byteLength": 1416,
            "byteOffset": 72120,
            "name": "mesh4431_coord_bufferView",
            "target": 34962
        },
        {
            "buffer": 0,
            "byteLength": 1416,
            "byteOffset": 73536,
            "name": "mesh4431_norm_bufferView",
            "target": 34962
        },
        {
            "buffer": 0,
            "byteLength": 1416,
            "byteOffset": 74952,
            "name": "mesh4431_idx_bufferView",
            "target": 34963
        },
        {
            "buffer": 0,
            "byteLength": 1416,
            "byteOffset": 76368,
            "name": "mesh4432_coord_bufferView",
            "target": 34962
        },
        {
            "buffer": 0,
            "byteLength": 1416,
            "byteOffset": 77784,
            "name": "mesh4432_norm_bufferView",
            "target": 34962
        },
        {
            "buffer": 0,
            "byteLength": 1416,
            "byteOffset": 79200,
            "name": "mesh4432_idx_bufferView",
            "target": 34963
        },
        {
            "buffer": 0,
            "byteLength": 1392,
            "byteOffset": 80616,
            "name": "mesh4433_coord_bufferView",
            "target": 34962
        },
        {
            "buffer": 0,
            "byteLength": 1392,
            "byteOffset": 82008,
            "name": "mesh4433_norm_bufferView",
            "target": 34962
        },
        {
            "buffer": 0,
            "byteLength": 1392,
            "byteOffset": 83400,
            "name": "mesh4433_idx_bufferView",
            "target": 34963
        },
        {
            "buffer": 0,
            "byteLength": 1392,
            "byteOffset": 84792,
            "name": "mesh4434_coord_bufferView",
            "target": 34962
        },
        {
            "buffer": 0,
            "byteLength": 1392,
            "byteOffset": 86184,
            "name": "mesh4434_norm_bufferView",
            "target": 34962
        },
        {
            "buffer": 0,
            "byteLength": 1392,
            "byteOffset": 87576,
            "name": "mesh4434_idx_bufferView",
            "target": 34963
        },
        {
            "buffer": 0,
            "byteLength": 1392,
            "byteOffset": 88968,
            "name": "mesh4435_coord_bufferView",
            "target": 34962
        },
        {
            "buffer": 0,
            "byteLength": 1392,
            "byteOffset": 90360,
            "name": "mesh4435_norm_bufferView",
            "target": 34962
        },
        {
            "buffer": 0,
            "byteLength": 1392,
            "byteOffset": 91752,
            "name": "mesh4435_idx_bufferView",
            "target": 34963
        },
        {
            "buffer": 0,
            "byteLength": 1392,
            "byteOffset": 93144,
            "name": "mesh4436_coord_bufferView",
            "target": 34962
        },
        {
            "buffer": 0,
            "byteLength": 1392,
            "byteOffset": 94536,
            "name": "mesh4436_norm_bufferView",
            "target": 34962
        },
        {
            "buffer": 0,
            "byteLength": 1392,
            "byteOffset": 95928,
            "name": "mesh4436_idx_bufferView",
            "target": 34963
        },
        {
            "buffer": 0,
            "byteLength": 1392,
            "byteOffset": 97320,
            "name": "mesh4437_coord_bufferView",
            "target": 34962
        },
        {
            "buffer": 0,
            "byteLength": 1392,
            "byteOffset": 98712,
            "name": "mesh4437_norm_bufferView",
            "target": 34962
        },
        {
            "buffer": 0,
            "byteLength": 1392,
            "byteOffset": 100104,
            "name": "mesh4437_idx_bufferView",
            "target": 34963
        },
        {
            "buffer": 0,
            "byteLength": 1440,
            "byteOffset": 101496,
            "name": "mesh4438_coord_bufferView",
            "target": 34962
        },
        {
            "buffer": 0,
            "byteLength": 1440,
            "byteOffset": 102936,
            "name": "mesh4438_norm_bufferView",
            "target": 34962
        },
        {
            "buffer": 0,
            "byteLength": 1440,
            "byteOffset": 104376,
            "name": "mesh4438_idx_bufferView",
            "target": 34963
        },
        {
            "buffer": 0,
            "byteLength": 1392,
            "byteOffset": 105816,
            "name": "mesh4439_coord_bufferView",
            "target": 34962
        },
        {
            "buffer": 0,
            "byteLength": 1392,
            "byteOffset": 107208,
            "name": "mesh4439_norm_bufferView",
            "target": 34962
        },
        {
            "buffer": 0,
            "byteLength": 1392,
            "byteOffset": 108600,
            "name": "mesh4439_idx_bufferView",
            "target": 34963
        },
        {
            "buffer": 0,
            "byteLength": 1392,
            "byteOffset": 109992,
            "name": "mesh4440_coord_bufferView",
            "target": 34962
        },
        {
            "buffer": 0,
            "byteLength": 1392,
            "byteOffset": 111384,
            "name": "mesh4440_norm_bufferView",
            "target": 34962
        },
        {
            "buffer": 0,
            "byteLength": 1392,
            "byteOffset": 112776,
            "name": "mesh4440_idx_bufferView",
            "target": 34963
        },
        {
            "buffer": 0,
            "byteLength": 1416,
            "byteOffset": 114168,
            "name": "mesh4441_coord_bufferView",
            "target": 34962
        },
        {
            "buffer": 0,
            "byteLength": 1416,
            "byteOffset": 115584,
            "name": "mesh4441_norm_bufferView",
            "target": 34962
        },
        {
            "buffer": 0,
            "byteLength": 1416,
            "byteOffset": 117000,
            "name": "mesh4441_idx_bufferView",
            "target": 34963
        },
        {
            "buffer": 0,
            "byteLength": 1416,
            "byteOffset": 118416,
            "name": "mesh4442_coord_bufferView",
            "target": 34962
        },
        {
            "buffer": 0,
            "byteLength": 1416,
            "byteOffset": 119832,
            "name": "mesh4442_norm_bufferView",
            "target": 34962
        },
        {
            "buffer": 0,
            "byteLength": 1416,
            "byteOffset": 121248,
            "name": "mesh4442_idx_bufferView",
            "target": 34963
        },
        {
            "buffer": 0,
            "byteLength": 1416,
            "byteOffset": 122664,
            "name": "mesh4443_coord_bufferView",
            "target": 34962
        },
        {
            "buffer": 0,
            "byteLength": 1416,
            "byteOffset": 124080,
            "name": "mesh4443_norm_bufferView",
            "target": 34962
        },
        {
            "buffer": 0,
            "byteLength": 1416,
            "byteOffset": 125496,
            "name": "mesh4443_idx_bufferView",
            "target": 34963
        },
        {
            "buffer": 0,
            "byteLength": 1416,
            "byteOffset": 126912,
            "name": "mesh4444_coord_bufferView",
            "target": 34962
        },
        {
            "buffer": 0,
            "byteLength": 1416,
            "byteOffset": 128328,
            "name": "mesh4444_norm_bufferView",
            "target": 34962
        },
        {
            "buffer": 0,
            "byteLength": 1416,
            "byteOffset": 129744,
            "name": "mesh4444_idx_bufferView",
            "target": 34963
        },
        {
            "buffer": 0,
            "byteLength": 10212,
            "byteOffset": 131160,
            "name": "mesh4445_coord_bufferView",
            "target": 34962
        },
        {
            "buffer": 0,
            "byteLength": 10212,
            "byteOffset": 141372,
            "name": "mesh4445_norm_bufferView",
            "target": 34962
        },
        {
            "buffer": 0,
            "byteLength": 11040,
            "byteOffset": 151584,
            "name": "mesh4445_idx_bufferView",
            "target": 34963
        },
        {
            "buffer": 0,
            "byteLength": 1392,
            "byteOffset": 162624,
            "name": "mesh4446_coord_bufferView",
            "target": 34962
        },
        {
            "buffer": 0,
            "byteLength": 1392,
            "byteOffset": 164016,
            "name": "mesh4446_norm_bufferView",
            "target": 34962
        },
        {
            "buffer": 0,
            "byteLength": 1392,
            "byteOffset": 165408,
            "name": "mesh4446_idx_bufferView",
            "target": 34963
        },
        {
            "buffer": 0,
            "byteLength": 1392,
            "byteOffset": 166800,
            "name": "mesh4447_coord_bufferView",
            "target": 34962
        },
        {
            "buffer": 0,
            "byteLength": 1392,
            "byteOffset": 168192,
            "name": "mesh4447_norm_bufferView",
            "target": 34962
        },
        {
            "buffer": 0,
            "byteLength": 1392,
            "byteOffset": 169584,
            "name": "mesh4447_idx_bufferView",
            "target": 34963
        }
    ],
    "buffers": [
        {
            "byteLength": 170976,
            "name": "Total_buffer",
            "uri": "data:application/octet-stream;base64,"
        }
    ],
    "extensionsUsed": [
        "PTC_onshape_metadata"
    ],
    "materials": [
        {
            "doubleSided": true,
            "name": "0.231373_0.380392_0.705882_0.000000_0.000000",
            "pbrMetallicRoughness": {
                "baseColorFactor": [
                    0.23137255012989044,
                    0.3803921639919281,
                    0.7058823704719543,
                    1.0
                ],
                "metallicFactor": 0.0
            }
        },
        {
            "doubleSided": true,
            "name": "0.400000_0.400000_0.400000_0.000000_0.000000",
            "pbrMetallicRoughness": {
                "baseColorFactor": [
                    0.4000000059604645,
                    0.4000000059604645,
                    0.4000000059604645,
                    1.0
                ],
                "metallicFactor": 0.0
            }
        },
        {
            "doubleSided": true,
            "name": "0.498039_0.498039_0.498039_0.000000_0.000000",
            "pbrMetallicRoughness": {
                "baseColorFactor": [
                    0.49803921580314636,
                    0.49803921580314636,
                    0.49803921580314636,
                    1.0
                ],
                "metallicFactor": 0.0
            }
        },
        {
            "doubleSided": true,
            "name": "0.301961_0.301961_0.301961_0.000000_0.000000",
            "pbrMetallicRoughness": {
                "baseColorFactor": [
                    0.3019607961177826,
                    0.3019607961177826,
                    0.3019607961177826,
                    1.0
                ],
                "metallicFactor": 0.0
            }
        },
        {
            "doubleSided": true,
            "name": "0.910000_0.910000_0.910000_0.000000_0.000000",
            "pbrMetallicRoughness": {
                "baseColorFactor": [
                    0.9100000262260437,
                    0.9100000262260437,
                    0.9100000262260437,
                    1.0
                ],
                "metallicFactor": 0.0
            }
        },
        {
            "doubleSided": true,
            "name": "0.956863_0.898039_0.654902_0.000000_0.000000",
            "pbrMetallicRoughness": {
                "baseColorFactor": [
                    0.95686274766922,
                    0.8980392217636108,
                    0.6549019813537598,
                    1.0
                ],
                "metallicFactor": 0.0
            }
        },
        {
            "doubleSided": true,
            "name": "0.603922_0.647059_0.686275_0.000000_0.000000",
            "pbrMetallicRoughness": {
                "baseColorFactor": [
                    0.6039215922355652,
                    0.6470588445663452,
                    0.686274528503418,
                    1.0
                ],
                "metallicFactor": 0.0
            }
        },
        {
            "doubleSided": true,
            "name": "1.000000_0.125490_0.254902_0.000000_0.000000",
            "pbrMetallicRoughness": {
                "baseColorFactor": [
                    1.0,
                    0.125490203499794,
                    0.2549019753932953,
                    1.0
                ],
                "metallicFactor": 0.0
            }
        },
        {
            "doubleSided": true,
            "name": "0.615686_0.811765_0.929412_0.000000_0.000000",
            "pbrMetallicRoughness": {
                "baseColorFactor": [
                    0.615686297416687,
                    0.8117647171020508,
                    0.929411768913269,
                    1.0
                ],
                "metallicFactor": 0.0
            }
        },
        {
            "doubleSided": true,
            "name": "0.647059_0.647059_0.647059_0.000000_0.000000",
            "pbrMetallicRoughness": {
                "baseColorFactor": [
                    0.6470588445663452,
                    0.6470588445663452,
                    0.6470588445663452,
                    1.0
                ],
                "metallicFactor": 0.0
            }
        },
        {
            "doubleSided": true,
            "name": "0.501961_0.501961_0.501961_0.000000_0.000000",
            "pbrMetallicRoughness": {
                "baseColorFactor": [
                    0.501960813999176,
                    0.501960813999176,
                    0.501960813999176,
                    1.0
                ],
                "metallicFactor": 0.0
            }
        },
        {
            "doubleSided": true,
            "name": "1.000000_0.000000_0.000000_0.000000_0.000000",
            "pbrMetallicRoughness": {
                "baseColorFactor": [
                    1.0,
                    0.0,
                    0.0,
                    1.0
                ],
                "metallicFactor": 0.0
            }
        },
        {
            "doubleSided": true,
            "name": "0.788235_0.396078_0.168627_0.000000_0.000000",
            "pbrMetallicRoughness": {
                "baseColorFactor": [
                    0.7882353067398071,
                    0.3960784375667572,
                    0.16862745583057404,
                    1.0
                ],
                "metallicFactor": 0.0
            }
        },
        {
            "doubleSided": true,
            "name": "0.901961_0.901961_0.901961_0.000000_0.000000",
            "pbrMetallicRoughness": {
                "baseColorFactor": [
                    0.9019607901573181,
                    0.9019607901573181,
                    0.9019607901573181,
                    1.0
                ],
                "metallicFactor": 0.0
            }
        },
        {
            "doubleSided": true,
            "name": "0.768627_0.886275_0.952941_0.000000_0.000000",
            "pbrMetallicRoughness": {
                "baseColorFactor": [
                    0.7686274647712708,
                    0.886274516582489,
                    0.9529411792755127,
                    1.0
                ],
                "metallicFactor": 0.0
            }
        },
        {
            "doubleSided": true,
            "name": "0.000000_0.000000_0.000000_0.000000_0.000000",
            "pbrMetallicRoughness": {
                "baseColorFactor": [
                    0.0,
                    0.0,
                    0.0,
                    1.0
                ],
                "metallicFactor": 0.0
            }
        },
        {
            "doubleSided": true,
            "name": "0.141176_0.192157_0.780392_0.000000_0.000000",
            "pbrMetallicRoughness": {
                "baseColorFactor": [
                    0.1411764770746231,
                    0.1921568661928177,
                    0.7803921699523926,
                    1.0
                ],
                "metallicFactor": 0.0
            }
        },
        {
            "doubleSided": true,
            "name": "0.917647_0.917647_0.917647_0.000000_0.000000",
            "pbrMetallicRoughness": {
                "baseColorFactor": [
                    0.9176470637321472,
                    0.9176470637321472,
                    0.9176470637321472,
                    1.0
                ],
                "metallicFactor": 0.0
            }
        },
        {
            "doubleSided": true,
            "name": "0.980392_0.713725_0.003922_0.000000_0.000000",
            "pbrMetallicRoughness": {
                "baseColorFactor": [
                    0.9803921580314636,
                    0.7137255072593689,
                    0.003921568859368563,
                    1.0
                ],
                "metallicFactor": 0.0
            }
        }
    ],
    "meshes": [
        {
            "name": "mesh4413_mesh",
            "primitives": [
                {
                    "attributes": {
                        "NORMAL": 1,
                        "POSITION": 0
                    },
                    "indices": 2,
                    "material": 15
                }
            ]
        },
        {
            "name": "mesh4414_mesh",
            "primitives": [
                {
                    "attributes": {
                        "NORMAL": 4,
                        "POSITION": 3
                    },
                    "indices": 5,
                    "material": 15
                }
            ]
        },
        {
            "name": "mesh4415_mesh",
            "primitives": [
                {
                    "attributes": {
                        "NORMAL": 7,
                        "POSITION": 6
                    },
                    "indices": 8,
                    "material": 15
                }
            ]
        },
        {
            "name": "mesh4416_mesh",
            "primitives": [
                {
                    "attributes": {
                        "NORMAL": 10,
                        "POSITION": 9
                    },
                    "indices": 11,
                    "material": 15
                }
            ]
        },
        {
            "name": "mesh4417_mesh",
            "primitives": [
                {
                    "attributes": {
                        "NORMAL": 13,
                        "POSITION": 12
                    },
                    "indices": 14,
                    "material": 15
                }
            ]
        },
        {
            "name": "mesh4418_mesh",
            "primitives": [
                {
                    "attributes": {
                        "NORMAL": 16,
                        "POSITION": 15
                    },
                    "indices": 17,
                    "material": 15
                }
            ]
        },
        {
            "name": "mesh4419_mesh",
            "primitives": [
                {
                    "attributes": {
                        "NORMAL": 19,
                        "POSITION": 18
                    },
                    "indices": 20,
                    "material": 15
                }
            ]
        },
        {
            "name": "mesh4420_mesh",
            "primitives": [
                {
                    "attributes": {
                        "NORMAL": 22,
                        "POSITION": 21
                    },
                    "indices": 23,
                    "material": 15
                }
            ]
        },
        {
            "name": "mesh4421_mesh",
            "primitives": [
                {
                    "attributes": {
                        "NORMAL": 25,
                        "POSITION": 24
                    },
                    "indices": 26,
                    "material": 15
                }
            ]
        },
        {
            "name": "mesh4422_mesh",
            "primitives": [
                {
                    "attributes": {
                        "NORMAL": 28,
                        "POSITION": 27
                    },
                    "indices": 29,
                    "material": 15
                }
            ]
        },
        {
            "name": "mesh4423_mesh",
            "primitives": [
                {
                    "attributes": {
                        "NORMAL": 31,
                        "POSITION": 30
                    },
                    "indices": 32,
                    "material": 15
                }
            ]
        },
        {
            "name": "mesh4424_mesh",
            "primitives": [
                {
                    "attributes": {
                        "NORMAL": 34,
                        "POSITION": 33
                    },
                    "indices": 35,
                    "material": 15
                }
            ]
        },
        {
            "name": "mesh4425_mesh",
            "primitives": [
                {
                    "attributes": {
                        "NORMAL": 37,
                        "POSITION": 36
                    },
                    "indices": 38,
                    "material": 15
                }
            ]
        },
        {
            "name": "mesh4426_mesh",
            "primitives": [
                {
                    "attributes": {
                        "NORMAL": 40,
                        "POSITION": 39
                    },
                    "indices": 41,
                    "material": 15
                }
            ]
        },
        {
            "name": "mesh4427_mesh",
            "primitives": [
                {
                    "attributes": {
                        "NORMAL": 43,
                        "POSITION": 42
                    },
                    "indices": 44,
                    "material": 15
                }
            ]
        },
        {
            "name": "mesh4428_mesh",
            "primitives": [
                {
                    "attributes": {
                        "NORMAL": 46,
                        "POSITION": 45
                    },
                    "indices": 47,
                    "material": 15
                }
            ]
        },
        {
            "name": "mesh4429_mesh",
            "primitives": [
                {
                    "attributes": {
                        "NORMAL": 49,
                        "POSITION": 48
                    },
                    "indices": 50,
                    "material": 15
                }
            ]
        },
        {
            "name": "mesh4430_mesh",
            "primitives": [
                {
                    "attributes": {
                        "NORMAL": 52,
                        "POSITION": 51
                    },
                    "indices": 53,
                    "material": 15
                }
            ]
        },
        {
            "name": "mesh4431_mesh",
            "primitives": [
                {
                    "attributes": {
                        "NORMAL": 55,
                        "POSITION": 54
                    },
                    "indices": 56,
                    "material": 15
                }
            ]
        },
        {
            "name": "mesh4432_mesh",
            "primitives": [
                {
                    "attributes": {
                        "NORMAL": 58,
                        "POSITION": 57
                    },
                    "indices": 59,
                    "material": 15
                }
            ]
        },
        {
            "name": "mesh4433_mesh",
            "primitives": [
                {
                    "attributes": {
                        "NORMAL": 61,
                        "POSITION": 60
                    },
                    "indices": 62,
                    "material": 15
                }
            ]
        },
        {
            "name": "mesh4434_mesh",
            "primitives": [
                {
                    "attributes": {
                        "NORMAL": 64,
                        "POSITION": 63
                    },
                    "indices": 65,
                    "material": 15
                }
            ]
        },
        {
            "name": "mesh4435_mesh",
            "primitives": [
                {
                    "attributes": {
                        "NORMAL": 67,
                        "POSITION": 66
                    },
                    "indices": 68,
                    "material": 15
                }
            ]
        },
        {
            "name": "mesh4436_mesh",
            "primitives": [
                {
                    "attributes": {
                        "NORMAL": 70,
                        "POSITION": 69
                    },
                    "indices": 71,
                    "material": 15
                }
            ]
        },
        {
            "name": "mesh4437_mesh",
            "primitives": [
                {
                    "attributes": {
                        "NORMAL": 73,
                        "POSITION": 72
                    },
                    "indices": 74,
                    "material": 15
                }
            ]
        },
        {
            "name": "mesh4438_mesh",
            "primitives": [
                {
                    "attributes": {
                        "NORMAL": 76,
                        "POSITION": 75
                    },
                    "indices": 77,
                    "material": 15
                }
            ]
        },
        {
            "name": "mesh4439_mesh",
            "primitives": [
                {
                    "attributes": {
                        "NORMAL": 79,
                        "POSITION": 78
                    },
                    "indices": 80,
                    "material": 15
                }
            ]
        },
        {
            "name": "mesh4440_mesh",
            "primitives": [
                {
                    "attributes": {
                        "NORMAL": 82,
                        "POSITION": 81
                    },
                    "indices": 83,
                    "material": 15
                }
            ]
        },
        {
            "name": "mesh4441_mesh",
            "primitives": [
                {
                    "attributes": {
                        "NORMAL": 85,
                        "POSITION": 84
                    },
                    "indices": 86,
                    "material": 15
                }
            ]
        },
        {
            "name": "mesh4442_mesh",
            "primitives": [
                {
                    "attributes": {
                        "NORMAL": 88,
                        "POSITION": 87
                    },
                    "indices": 89,
                    "material": 15
                }
            ]
        },
        {
            "name": "mesh4443_mesh",
            "primitives": [
                {
                    "attributes": {
                        "NORMAL": 91,
                        "POSITION": 90
                    },
                    "indices": 92,
                    "material": 15
                }
            ]
        },
        {
            "name": "mesh4444_mesh",
            "primitives": [
                {
                    "attributes": {
                        "NORMAL": 94,
                        "POSITION": 93
                    },
                    "indices": 95,
                    "material": 15
                }
            ]
        },
        {
            "name": "mesh4445_mesh",
            "primitives": [
                {
                    "attributes": {
                        "NORMAL": 97,
                        "POSITION": 96
                    },
                    "indices": 98,
                    "material": 15
                }
            ]
        },
        {
            "name": "mesh4446_mesh",
            "primitives": [
                {
                    "attributes": {
                        "NORMAL": 100,
                        "POSITION": 99
                    },
                    "indices": 101,
                    "material": 15
                }
            ]
        },
        {
            "name": "mesh4447_mesh",
            "primitives": [
                {
                    "attributes": {
                        "NORMAL": 103,
                        "POSITION": 102
                    },
                    "indices": 104,
                    "material": 15
                }
            ]
        }
    ],
    "nodes": [
        {
            "mesh": 0,
            "name": "mesh4413"
        },
        {
            "mesh": 1,
            "name": "mesh4414"
        },
        {
            "mesh": 2,
            "name": "mesh4415"
        },
        {
            "mesh": 3,
            "name": "mesh4416"
        },
        {
            "mesh": 4,
            "name": "mesh4417"
        },
        {
            "mesh": 5,
            "name": "mesh4418"
        },
        {
            "mesh": 6,
            "name": "mesh4419"
        },
        {
            "mesh": 7,
            "name": "mesh4420"
        },
        {
            "mesh": 8,
            "name": "mesh4421"
        },
        {
            "mesh": 9,
            "name": "mesh4422"
        },
        {
            "mesh": 10,
            "name": "mesh4423"
        },
        {
            "mesh": 11,
            "name": "mesh4424"
        },
        {
            "mesh": 12,
            "name": "mesh4425"
        },
        {
            "mesh": 13,
            "name": "mesh4426"
        },
        {
            "mesh": 14,
            "name": "mesh4427"
        },
        {
            "mesh": 15,
            "name": "mesh4428"
        },
        {
            "mesh": 16,
            "name": "mesh4429"
        },
        {
            "mesh": 17,
            "name": "mesh4430"
        },
        {
            "mesh": 18,
            "name": "mesh4431"
        },
        {
            "mesh": 19,
            "name": "mesh4432"
        },
        {
            "mesh": 20,
            "name": "mesh4433"
        },
        {
            "mesh": 21,
            "name": "mesh4434"
        },
        {
            "mesh": 22,
            "name": "mesh4435"
        },
        {
            "mesh": 23,
            "name": "mesh4436"
        },
        {
            "mesh": 24,
            "name": "mesh4437"
        },
        {
            "mesh": 25,
            "name": "mesh4438"
        },
        {
            "mesh": 26,
            "name": "mesh4439"
        },
        {
            "mesh": 27,
            "name": "mesh4440"
        },
        {
            "mesh": 28,
            "name": "mesh4441"
        },
        {
            "mesh": 29,
            "name": "mesh4442"
        },
        {
            "mesh": 30,
            "name": "mesh4443"
        },
        {
            "mesh": 31,
            "name": "mesh4444"
        },
        {
            "mesh": 32,
            "name": "mesh4445"
        },
        {
            "mesh": 33,
            "name": "mesh4446"
        },
        {
            "mesh": 34,
            "name": "mesh4447"
        }
    ],
    "scene": 0,
    "scenes": [
        {
            "name": "Root",
            "nodes": [
                0,
                1,
                2,
                3,
                4,
                5,
                6,
                7,
                8,
                9,
                10,
                11,
                12,
                13,
                14,
                15,
                16,
                17,
                18,
                19,
                20,
                21,
                22,
                23,
                24,
                25,
                26,
                27,
                28,
                29,
                30,
                31,
                32,
                33,
                34
            ]
        }
    ]
}