#VRML V2.0 utf8
# 3D model generated by easyeda2kicad.py (https://github.com/uPesy/easyeda2kicad.py)

Shape{
    appearance Appearance {
        material  Material 	{
            diffuseColor 0.25098039215686274 0.25098039215686274 0.25098039215686274
            specularColor 0.12549019607843137 0.12549019607843137 0.12549019607843137
            ambientIntensity 0.251
            transparency 0.0
            shininess 0.5
        }
    }
    geometry IndexedFaceSet {
        ccw TRUE
        solid FALSE
        coord DEF co Coordinate {
            point [
                0.0 -0.374 0.2756, -0.1181 -0.4921 0.2756, -1.0 -0.374 0.2756, -0.8819 -0.4921 0.2756, -0.8819 -0.4921 1.2598, -1.0 -0.374 1.2598, -1.0 -0.374 0.3937, -1.0 0.374 1.2598, -1.0 0.374 0.3937, -0.8819 0.4921 1.2598, -0.8819 0.4921 0.2756, -1.0 0.374 0.2756, -0.1181 0.4921 0.2756, -0.1181 0.4921 1.2598, 0.0 0.374 1.2598, 0.0 0.374 0.3937, 0.0 0.374 0.2756, 0.0 -0.374 1.2598, 0.0 -0.374 0.3937, -0.1181 -0.4921 1.2598, -0.374 -0.126 1.2598, -0.626 -0.126 1.2598, -0.626 0.126 1.2598, -0.374 0.126 1.2598, -0.374 0.126 0.3937, -0.374 -0.126 0.3937, -0.626 -0.126 0.3937, -0.626 0.126 0.3937
            ]
        }
        coordIndex [
            0,1,2,-1,2,1,3,-1,4,5,3,-1,3,5,6,-1,3,6,2,-1,5,7,6,-1,6,7,8,-1,7,9,8,-1,8,9,10,-1,8,10,11,-1,12,10,13,-1,13,10,9,-1,13,14,12,-1,12,14,15,-1,12,15,16,-1,14,17,15,-1,15,17,18,-1,17,19,18,-1,18,19,1,-1,18,1,0,-1,3,1,4,-1,4,1,19,-1,11,10,16,-1,16,10,12,-1,19,20,4,-1,4,20,21,-1,4,21,5,-1,5,21,22,-1,5,22,7,-1,19,17,20,-1,20,17,14,-1,20,14,23,-1,23,14,13,-1,23,13,22,-1,22,13,9,-1,22,9,7,-1,6,18,2,-1,2,18,0,-1,15,8,16,-1,16,8,11,-1,24,15,25,-1,25,15,18,-1,25,18,26,-1,26,18,6,-1,26,6,27,-1,27,6,8,-1,27,8,24,-1,24,8,15,-1,
        ]
    }
}
Shape{
    appearance Appearance {
        material  Material 	{
            diffuseColor 1.0 1.0 0.5019607843137255
            specularColor 0.5019607843137255 0.5019607843137255 0.25098039215686274
            ambientIntensity 0.9432
            transparency 0.0
            shininess 0.5
        }
    }
    geometry IndexedFaceSet {
        ccw TRUE
        solid FALSE
        coord DEF co Coordinate {
            point [
                -0.374 -0.126 0.3622, -0.626 -0.126 0.3622, -0.374 -0.1297 0.3337, -0.626 -0.1297 0.3337, -0.374 -0.1408 0.3071, -0.626 -0.1408 0.3071, -0.374 -0.1583 0.2843, -0.626 -0.1583 0.2843, -0.374 -0.1811 0.2667, -0.626 -0.1811 0.2667, -0.374 -0.2077 0.2557, -0.626 -0.2077 0.2557, -0.374 -0.2362 0.252, -0.626 -0.2362 0.252, -0.374 -0.7874 0.252, -0.626 -0.7874 0.252, -0.5543 -0.9843 0.1803, -0.5543 -0.9843 0.0716, -0.4457 -0.9843 0.1803, -0.4457 -0.9843 0.0716, -0.626 -0.7874 0.0, -0.626 -0.2362 0.0, -0.374 -0.7874 0.0, -0.374 -0.2362 0.0, -0.626 -0.1556 0.0091, -0.374 -0.1556 0.0091, -0.626 -0.0791 0.0359, -0.374 -0.0791 0.0359, -0.626 -0.0104 0.079, -0.374 -0.0104 0.079, -0.626 0.047 0.1364, -0.374 0.047 0.1364, -0.626 0.0901 0.205, -0.374 0.0901 0.205, -0.626 0.1169 0.2816, -0.374 0.1169 0.2816, -0.626 0.126 0.3622, -0.374 0.126 0.3622, -0.626 -0.126 0.3937, -0.626 0.126 0.3937, -0.374 0.126 0.3937, -0.374 -0.126 0.3937, -0.374 0.126 3.4252, -0.374 0.126 1.2598, -0.626 0.126 3.4252, -0.626 0.126 1.2598, -0.5543 0.0543 3.622, -0.5543 -0.0543 3.622, -0.4457 0.0543 3.622, -0.4457 -0.0543 3.622, -0.626 -0.126 3.4252, -0.626 -0.126 1.2598, -0.374 -0.126 3.4252, -0.374 -0.126 1.2598
            ]
        }
        coordIndex [
            0,1,2,-1,2,1,3,-1,2,3,4,-1,4,3,5,-1,4,5,6,-1,6,5,7,-1,6,7,8,-1,8,7,9,-1,8,9,10,-1,10,9,11,-1,10,11,12,-1,12,11,13,-1,14,12,15,-1,15,12,13,-1,16,17,18,-1,18,17,19,-1,20,21,22,-1,22,21,23,-1,23,21,24,-1,23,24,25,-1,25,24,26,-1,25,26,27,-1,27,26,28,-1,27,28,29,-1,29,28,30,-1,29,30,31,-1,31,30,32,-1,31,32,33,-1,33,32,34,-1,33,34,35,-1,35,34,36,-1,35,36,37,-1,38,39,1,-1,1,39,36,-1,1,36,3,-1,3,36,34,-1,3,34,5,-1,5,34,32,-1,5,32,7,-1,32,30,7,-1,7,30,28,-1,7,28,9,-1,9,28,26,-1,9,26,11,-1,11,26,24,-1,11,24,13,-1,13,24,21,-1,13,21,15,-1,15,21,20,-1,40,41,37,-1,37,41,0,-1,37,0,35,-1,35,0,2,-1,35,2,33,-1,33,2,4,-1,33,4,31,-1,31,4,6,-1,31,6,29,-1,29,6,8,-1,14,22,12,-1,12,22,23,-1,12,23,10,-1,10,23,25,-1,10,25,8,-1,8,25,27,-1,8,27,29,-1,38,1,41,-1,41,1,0,-1,37,36,40,-1,40,36,39,-1,42,43,44,-1,44,43,45,-1,46,47,48,-1,48,47,49,-1,50,51,52,-1,52,51,53,-1,52,53,42,-1,42,53,43,-1,44,45,50,-1,50,45,51,-1,22,19,20,-1,20,19,17,-1,14,18,22,-1,22,18,19,-1,16,15,17,-1,17,15,20,-1,15,16,14,-1,14,16,18,-1,52,49,50,-1,50,49,47,-1,42,48,52,-1,52,48,49,-1,46,44,47,-1,47,44,50,-1,44,46,42,-1,42,46,48,-1,
        ]
    }
}
Shape{
    appearance Appearance {
        material  Material 	{
            diffuseColor 0.25098039215686274 0.25098039215686274 0.25098039215686274
            specularColor 0.12549019607843137 0.12549019607843137 0.12549019607843137
            ambientIntensity 0.251
            transparency 0.0
            shininess 0.5
        }
    }
    geometry IndexedFaceSet {
        ccw TRUE
        solid FALSE
        coord DEF co Coordinate {
            point [
                1.0 -0.374 0.2756, 0.8819 -0.4921 0.2756, 0.0 -0.374 0.2756, 0.1181 -0.4921 0.2756, 1.0 0.374 0.4724, 1.0 0.374 1.2598, 1.0 -0.374 0.4724, 1.0 -0.374 1.2598, 0.1181 0.4921 1.2598, 0.8819 0.4921 1.2598, 0.1181 0.4921 0.2756, 0.8819 0.4921 0.2756, 0.0 -0.374 0.4724, 0.0 -0.374 1.2598, 0.0 0.374 0.4724, 0.0 0.374 1.2598, 0.8819 -0.4921 1.2598, 0.1181 -0.4921 1.2598, 0.626 -0.126 1.2598, 0.374 -0.126 1.2598, 0.374 0.126 1.2598, 0.626 0.126 1.2598, 0.0 0.374 0.2756, 1.0 0.374 0.2756, 0.626 0.126 0.4724, 0.626 -0.126 0.4724, 0.374 -0.126 0.4724, 0.374 0.126 0.4724
            ]
        }
        coordIndex [
            0,1,2,-1,2,1,3,-1,4,5,6,-1,6,5,7,-1,8,9,10,-1,10,9,11,-1,12,13,14,-1,14,13,15,-1,16,17,1,-1,1,17,3,-1,16,18,17,-1,17,18,19,-1,17,19,13,-1,13,19,20,-1,13,20,15,-1,16,7,18,-1,18,7,5,-1,18,5,21,-1,21,5,9,-1,21,9,20,-1,20,9,8,-1,20,8,15,-1,22,10,23,-1,23,10,11,-1,7,16,6,-1,6,16,1,-1,6,1,0,-1,17,13,3,-1,3,13,12,-1,3,12,2,-1,15,8,14,-1,14,8,10,-1,14,10,22,-1,9,5,11,-1,11,5,4,-1,11,4,23,-1,12,6,2,-1,2,6,0,-1,4,14,23,-1,23,14,22,-1,24,4,25,-1,25,4,6,-1,25,6,26,-1,26,6,12,-1,26,12,27,-1,27,12,14,-1,27,14,24,-1,24,14,4,-1,
        ]
    }
}
Shape{
    appearance Appearance {
        material  Material 	{
            diffuseColor 1.0 1.0 0.5019607843137255
            specularColor 0.5019607843137255 0.5019607843137255 0.25098039215686274
            ambientIntensity 0.9432
            transparency 0.0
            shininess 0.5
        }
    }
    geometry IndexedFaceSet {
        ccw TRUE
        solid FALSE
        coord DEF co Coordinate {
            point [
                0.626 -0.126 0.3622, 0.374 -0.126 0.3622, 0.374 -0.1169 0.2816, 0.626 -0.1169 0.2816, 0.374 -0.0901 0.205, 0.626 -0.0901 0.205, 0.374 -0.047 0.1364, 0.626 -0.047 0.1364, 0.374 0.0104 0.079, 0.626 0.0104 0.079, 0.374 0.0791 0.0359, 0.626 0.0791 0.0359, 0.374 0.1556 0.0091, 0.626 0.1556 0.0091, 0.374 0.2362 0.0, 0.626 0.2362 0.0, 0.626 0.7874 0.0, 0.374 0.7874 0.0, 0.4457 0.9843 0.0716, 0.4457 0.9843 0.1803, 0.5543 0.9843 0.0716, 0.5543 0.9843 0.1803, 0.374 0.7874 0.252, 0.374 0.2362 0.252, 0.626 0.7874 0.252, 0.626 0.2362 0.252, 0.626 0.2077 0.2557, 0.374 0.2077 0.2557, 0.626 0.1811 0.2667, 0.374 0.1811 0.2667, 0.626 0.1583 0.2843, 0.374 0.1583 0.2843, 0.626 0.1408 0.3071, 0.374 0.1408 0.3071, 0.626 0.1297 0.3337, 0.374 0.1297 0.3337, 0.626 0.126 0.3622, 0.374 0.126 0.3622, 0.374 -0.126 0.4724, 0.374 0.126 0.4724, 0.626 0.126 0.4724, 0.626 -0.126 0.4724, 0.626 0.126 3.4252, 0.626 0.126 1.2598, 0.374 0.126 3.4252, 0.374 0.126 1.2598, 0.4457 0.0543 3.622, 0.4457 -0.0543 3.622, 0.5543 0.0543 3.622, 0.5543 -0.0543 3.622, 0.374 -0.126 3.4252, 0.374 -0.126 1.2598, 0.626 -0.126 3.4252, 0.626 -0.126 1.2598
            ]
        }
        coordIndex [
            0,1,2,-1,0,2,3,-1,3,2,4,-1,3,4,5,-1,5,4,6,-1,5,6,7,-1,7,6,8,-1,7,8,9,-1,9,8,10,-1,9,10,11,-1,11,10,12,-1,11,12,13,-1,13,12,14,-1,13,14,15,-1,16,15,17,-1,17,15,14,-1,18,19,20,-1,20,19,21,-1,22,23,24,-1,24,23,25,-1,25,23,26,-1,26,23,27,-1,26,27,28,-1,28,27,29,-1,28,29,30,-1,30,29,31,-1,30,31,32,-1,32,31,33,-1,32,33,34,-1,34,33,35,-1,34,35,36,-1,36,35,37,-1,22,17,23,-1,23,17,14,-1,23,14,27,-1,27,14,12,-1,27,12,29,-1,38,39,1,-1,1,39,37,-1,1,37,2,-1,2,37,35,-1,2,35,4,-1,4,35,33,-1,4,33,6,-1,6,33,31,-1,6,31,8,-1,8,31,29,-1,8,29,10,-1,10,29,12,-1,40,41,36,-1,36,41,0,-1,36,0,34,-1,34,0,3,-1,34,3,32,-1,32,3,5,-1,32,5,30,-1,16,24,15,-1,15,24,25,-1,15,25,13,-1,13,25,26,-1,13,26,11,-1,11,26,28,-1,11,28,9,-1,9,28,30,-1,9,30,7,-1,7,30,5,-1,38,1,41,-1,41,1,0,-1,36,37,40,-1,40,37,39,-1,42,43,44,-1,44,43,45,-1,46,47,48,-1,48,47,49,-1,50,51,52,-1,52,51,53,-1,52,53,42,-1,42,53,43,-1,44,45,50,-1,50,45,51,-1,24,21,22,-1,22,21,19,-1,16,20,24,-1,24,20,21,-1,18,17,19,-1,19,17,22,-1,17,18,16,-1,16,18,20,-1,52,49,50,-1,50,49,47,-1,42,48,52,-1,52,48,49,-1,46,44,47,-1,47,44,50,-1,44,46,42,-1,42,46,48,-1,
        ]
    }
}
Shape{
    appearance Appearance {
        material  Material 	{
            diffuseColor 0.25098039215686274 0.25098039215686274 0.25098039215686274
            specularColor 0.12549019607843137 0.12549019607843137 0.12549019607843137
            ambientIntensity 0.251
            transparency 0.0
            shininess 0.5
        }
    }
    geometry IndexedFaceSet {
        ccw TRUE
        solid FALSE
        coord DEF co Coordinate {
            point [
                1.1181 -0.4921 0.2756, 1.0 -0.374 0.2756, 1.8819 -0.4921 0.2756, 1.9606 -0.374 0.2756, 1.9606 -0.4134 0.2756, 1.1181 -0.4921 1.2598, 1.0 -0.374 1.2598, 1.0 -0.374 0.3937, 1.0 0.374 1.2598, 1.0 0.374 0.3937, 1.1181 0.4921 1.2598, 1.1181 0.4921 0.2756, 1.0 0.374 0.2756, 1.8819 0.4921 0.2756, 1.8819 0.4921 1.2598, 1.9606 0.4134 0.2756, 1.9606 0.4134 1.2598, 1.9606 -0.374 0.3937, 1.9606 0.374 0.2756, 1.9606 0.374 0.3937, 1.9606 -0.4134 1.2598, 1.8819 -0.4921 1.2598, 1.374 0.126 1.2598, 1.374 -0.126 1.2598, 1.626 -0.126 1.2598, 1.626 0.126 1.2598, 1.626 0.126 0.3937, 1.626 -0.126 0.3937, 1.374 -0.126 0.3937, 1.374 0.126 0.3937
            ]
        }
        coordIndex [
            0,1,2,-1,2,1,3,-1,2,3,4,-1,5,6,0,-1,0,6,7,-1,0,7,1,-1,6,8,7,-1,7,8,9,-1,8,10,9,-1,9,10,11,-1,9,11,12,-1,13,11,14,-1,14,11,10,-1,15,13,16,-1,16,13,14,-1,4,3,17,-1,18,15,19,-1,19,15,16,-1,19,16,17,-1,17,16,20,-1,17,20,4,-1,2,4,21,-1,21,4,20,-1,0,2,5,-1,5,2,21,-1,13,15,11,-1,11,15,18,-1,11,18,12,-1,5,21,20,-1,22,6,23,-1,23,6,5,-1,23,5,24,-1,24,5,20,-1,24,20,25,-1,25,20,16,-1,16,14,25,-1,25,14,10,-1,25,10,22,-1,22,10,8,-1,22,8,6,-1,7,17,1,-1,1,17,3,-1,19,9,18,-1,18,9,12,-1,26,19,27,-1,27,19,17,-1,27,17,28,-1,28,17,7,-1,28,7,29,-1,29,7,9,-1,29,9,26,-1,26,9,19,-1,
        ]
    }
}
Shape{
    appearance Appearance {
        material  Material 	{
            diffuseColor 1.0 1.0 0.5019607843137255
            specularColor 0.5019607843137255 0.5019607843137255 0.25098039215686274
            ambientIntensity 0.9432
            transparency 0.0
            shininess 0.5
        }
    }
    geometry IndexedFaceSet {
        ccw TRUE
        solid FALSE
        coord DEF co Coordinate {
            point [
                1.626 -0.126 0.3622, 1.374 -0.126 0.3622, 1.626 -0.1297 0.3337, 1.374 -0.1297 0.3337, 1.626 -0.1408 0.3071, 1.374 -0.1408 0.3071, 1.626 -0.1583 0.2843, 1.374 -0.1583 0.2843, 1.626 -0.1811 0.2667, 1.374 -0.1811 0.2667, 1.626 -0.2077 0.2557, 1.374 -0.2077 0.2557, 1.626 -0.2362 0.252, 1.374 -0.2362 0.252, 1.626 -0.7874 0.252, 1.374 -0.7874 0.252, 1.4457 -0.9843 0.1803, 1.4457 -0.9843 0.0716, 1.5543 -0.9843 0.1803, 1.5543 -0.9843 0.0716, 1.374 -0.7874 0.0, 1.374 -0.2362 0.0, 1.626 -0.7874 0.0, 1.626 -0.2362 0.0, 1.374 -0.1556 0.0091, 1.626 -0.1556 0.0091, 1.374 -0.0791 0.0359, 1.626 -0.0791 0.0359, 1.374 -0.0104 0.079, 1.626 -0.0104 0.079, 1.374 0.047 0.1364, 1.626 0.047 0.1364, 1.374 0.0901 0.205, 1.626 0.0901 0.205, 1.374 0.1169 0.2816, 1.626 0.1169 0.2816, 1.374 0.126 0.3622, 1.626 0.126 0.3622, 1.374 -0.126 0.3937, 1.374 0.126 0.3937, 1.626 0.126 0.3937, 1.626 -0.126 0.3937, 1.626 0.126 3.4252, 1.626 0.126 1.2598, 1.374 0.126 3.4252, 1.374 0.126 1.2598, 1.4457 0.0543 3.622, 1.4457 -0.0543 3.622, 1.5543 0.0543 3.622, 1.5543 -0.0543 3.622, 1.374 -0.126 3.4252, 1.374 -0.126 1.2598, 1.626 -0.126 3.4252, 1.626 -0.126 1.2598
            ]
        }
        coordIndex [
            0,1,2,-1,2,1,3,-1,2,3,4,-1,4,3,5,-1,4,5,6,-1,6,5,7,-1,6,7,8,-1,8,7,9,-1,8,9,10,-1,10,9,11,-1,10,11,12,-1,12,11,13,-1,14,12,15,-1,15,12,13,-1,16,17,18,-1,18,17,19,-1,20,21,22,-1,22,21,23,-1,23,21,24,-1,23,24,25,-1,25,24,26,-1,25,26,27,-1,27,26,28,-1,27,28,29,-1,29,28,30,-1,29,30,31,-1,31,30,32,-1,31,32,33,-1,33,32,34,-1,33,34,35,-1,35,34,36,-1,35,36,37,-1,38,39,1,-1,1,39,36,-1,1,36,3,-1,3,36,34,-1,3,34,5,-1,5,34,32,-1,5,32,7,-1,32,30,7,-1,7,30,28,-1,7,28,9,-1,9,28,26,-1,9,26,11,-1,11,26,24,-1,11,24,13,-1,13,24,21,-1,13,21,15,-1,15,21,20,-1,40,41,37,-1,37,41,0,-1,37,0,35,-1,35,0,2,-1,35,2,33,-1,33,2,4,-1,33,4,31,-1,31,4,6,-1,31,6,29,-1,29,6,8,-1,14,22,12,-1,12,22,23,-1,12,23,10,-1,10,23,25,-1,10,25,8,-1,8,25,27,-1,8,27,29,-1,38,1,41,-1,41,1,0,-1,37,36,40,-1,40,36,39,-1,42,43,44,-1,44,43,45,-1,46,47,48,-1,48,47,49,-1,50,51,52,-1,52,51,53,-1,52,53,42,-1,42,53,43,-1,44,45,50,-1,50,45,51,-1,22,19,20,-1,20,19,17,-1,14,18,22,-1,22,18,19,-1,16,15,17,-1,17,15,20,-1,15,16,14,-1,14,16,18,-1,52,49,50,-1,50,49,47,-1,42,48,52,-1,52,48,49,-1,46,44,47,-1,47,44,50,-1,44,46,42,-1,42,46,48,-1,
        ]
    }
}
Shape{
    appearance Appearance {
        material  Material 	{
            diffuseColor 0.25098039215686274 0.25098039215686274 0.25098039215686274
            specularColor 0.12549019607843137 0.12549019607843137 0.12549019607843137
            ambientIntensity 0.251
            transparency 0.0
            shininess 0.5
        }
    }
    geometry IndexedFaceSet {
        ccw TRUE
        solid FALSE
        coord DEF co Coordinate {
            point [
                -1.8666 0.4921 0.5636, -1.8666 0.4921 0.6511, -1.7894 0.4921 0.6511, -1.8819 0.4921 0.9641, -1.8819 0.4921 1.2598, -1.8666 0.4921 1.2598, -1.8819 0.4921 0.2756, -1.8819 0.4921 0.4509, -1.8666 0.4921 0.4509, -1.5623 0.4921 0.6505, -1.5673 0.4921 0.6511, -1.5408 0.4921 0.6511, -1.6138 0.4921 0.4777, -1.6111 0.4921 0.4774, -1.6278 0.4921 0.4774, -1.5985 0.4921 0.4777, -1.5973 0.4921 0.4782, -1.5973 0.4921 0.4774, -1.3542 0.4921 0.6566, -1.3621 0.4921 0.6511, -1.4726 0.4921 0.6511, -1.3727 0.4921 0.6437, -1.3891 0.4921 0.6245, -1.4415 0.4921 0.5636, -1.4726 0.4921 0.5636, -1.4373 0.4921 0.5741, -1.4276 0.4921 0.5876, -1.4148 0.4921 0.5985, -1.3983 0.4921 0.6063, -1.4006 0.4921 0.6055, -1.2647 0.4921 0.6581, -1.2868 0.4921 0.666, -1.1181 0.4921 0.9641, -1.4726 0.4921 0.9641, -1.3306 0.4921 0.6657, -1.3082 0.4921 0.6684, -1.1181 0.4921 0.6511, -1.2008 0.4921 0.6277, -1.2195 0.4921 0.63, -1.1427 0.4921 0.5577, -1.1438 0.4921 0.5636, -1.1181 0.4921 0.5636, -1.1459 0.4921 0.5755, -1.1535 0.4921 0.5926, -1.1649 0.4921 0.6072, -1.2532 0.4921 0.6511, -1.2512 0.4921 0.6499, -1.2401 0.4921 0.6404, -1.2249 0.4921 0.6297, -1.2304 0.4921 0.629, -1.1681 0.4921 0.6102, -1.1832 0.4921 0.6208, -1.2005 0.4921 0.4786, -1.1945 0.4921 0.4804, -1.1181 0.4921 0.4774, -1.1773 0.4921 0.4888, -1.1625 0.4921 0.5014, -1.1517 0.4921 0.5169, -1.1449 0.4921 0.5346, -1.1426 0.4921 0.5531, -1.2216 0.4921 0.4528, -1.2123 0.4921 0.4598, -1.1181 0.4921 0.4509, -1.2052 0.4921 0.4685, -1.2011 0.4921 0.4774, -1.4726 0.4921 0.4509, -1.2652 0.4921 0.4509, -1.4726 0.4921 0.2756, -1.257 0.4921 0.4478, -1.1181 0.4921 0.2756, -1.2455 0.4921 0.4464, -1.2437 0.4921 0.4464, -1.2325 0.4921 0.4482, -1.2259 0.4921 0.4509, -1.4726 0.4921 0.4774, -1.29 0.4921 0.4774, -1.29 0.4921 0.4772, -1.2843 0.4921 0.4666, -1.2771 0.4921 0.4584, -1.2676 0.4921 0.4519, -1.3506 0.4921 0.5053, -1.3538 0.4921 0.5066, -1.3594 0.4921 0.5337, -1.4277 0.4921 0.499, -1.4148 0.4921 0.4881, -1.2811 0.4921 0.5256, -1.3447 0.4921 0.5588, -1.2728 0.4921 0.5332, -1.2628 0.4921 0.5385, -1.3477 0.4921 0.5033, -1.4371 0.4921 0.5122, -1.4156 0.4921 0.5478, -1.4134 0.4921 0.5569, -1.4098 0.4921 0.5636, -1.1737 0.4921 0.5636, -1.4431 0.4921 0.5596, -1.4453 0.4921 0.5441, -1.4431 0.4921 0.5272, -1.3575 0.4921 0.5071, -1.358 0.4921 0.5071, -1.3594 0.4921 0.5068, -1.1765 0.4921 0.5352, -1.1821 0.4921 0.5255, -1.2062 0.4921 0.5206, -1.1906 0.4921 0.5168, -1.201 0.4921 0.5104, -1.2237 0.4921 0.5363, -1.214 0.4921 0.5296, -1.1725 0.4921 0.5541, -1.1731 0.4921 0.5468, -1.2342 0.4921 0.5403, -1.2455 0.4921 0.5417, -1.2513 0.4921 0.5414, -1.3428 0.4921 0.4924, -1.3429 0.4921 0.4943, -1.293 0.4921 0.4986, -1.3439 0.4921 0.4979, -1.3457 0.4921 0.5011, -1.4062 0.4921 0.5185, -1.4115 0.4921 0.5259, -1.4147 0.4921 0.5344, -1.4159 0.4921 0.5436, -1.3539 0.4921 0.4781, -1.3507 0.4921 0.4794, -1.3477 0.4921 0.4815, -1.3466 0.4921 0.4827, -1.3445 0.4921 0.4856, -1.3433 0.4921 0.4889, -1.2927 0.4921 0.4889, -1.293 0.4921 0.4938, -1.4003 0.4921 0.481, -1.3845 0.4921 0.4777, -1.3566 0.4921 0.4777, -1.3604 0.4921 0.5066, -1.3817 0.4921 0.5066, -1.3902 0.4921 0.5083, -1.3986 0.4921 0.5121, -1.4056 0.4921 0.5179, -1.3648 0.4921 0.6091, -1.3541 0.4921 0.6219, -1.2451 0.4921 0.5944, -1.3529 0.4921 0.623, -1.3396 0.4921 0.6323, -1.2523 0.4921 0.6094, -1.2417 0.4921 0.5962, -1.231 0.4921 0.6001, -1.409 0.4921 0.5651, -1.4035 0.4921 0.5712, -1.3789 0.4921 0.5806, -1.3962 0.4921 0.5763, -1.3879 0.4921 0.5795, -1.3751 0.4921 0.5806, -1.3722 0.4921 0.5938, -1.2033 0.4921 0.5985, -1.1927 0.4921 0.5929, -1.215 0.4921 0.6013, -1.1845 0.4921 0.5856, -1.178 0.4921 0.5761, -1.263 0.4921 0.6221, -1.3247 0.4921 0.638, -1.2757 0.4921 0.6314, -1.3086 0.4921 0.6399, -1.2912 0.4921 0.6377, -1.2199 0.4921 0.6015, -1.1739 0.4921 0.5656, -1.7191 0.4921 0.537, -1.7206 0.4921 0.4855, -1.7269 0.4921 0.5636, -1.7269 0.4921 0.4774, -1.7206 0.4921 0.4779, -1.7058 0.4921 0.4774, -1.7058 0.4921 0.5156, -1.7172 0.4921 0.5156, -1.7172 0.4921 0.508, -1.7058 0.4921 0.4855, -1.7058 0.4921 0.508, -1.6933 0.4921 0.508, -1.6933 0.4921 0.4855, -1.7058 0.4921 0.537, -1.6933 0.4921 0.537, -1.6933 0.4921 0.5156, -1.7058 0.4921 0.4779, -1.6847 0.4921 0.4779, -1.6567 0.4921 0.4774, -1.6757 0.4921 0.5256, -1.6518 0.4921 0.4898, -1.6528 0.4921 0.4858, -1.653 0.4921 0.4858, -1.6433 0.4921 0.5636, -1.6847 0.4921 0.5446, -1.7058 0.4921 0.5636, -1.7058 0.4921 0.5446, -1.7191 0.4921 0.5446, -1.6534 0.4921 0.4875, -1.654 0.4921 0.4897, -1.6433 0.4921 0.514, -1.667 0.4921 0.5256, -1.5934 0.4921 0.4882, -1.5849 0.4921 0.5636, -1.5849 0.4921 0.4774, -1.5934 0.4921 0.4796, -1.5968 0.4921 0.4862, -1.5973 0.4921 0.486, -1.5973 0.4921 0.5037, -1.5958 0.4921 0.5052, -1.5948 0.4921 0.5069, -1.5938 0.4921 0.5095, -1.5935 0.4921 0.5127, -1.5938 0.4921 0.5157, -1.5948 0.4921 0.5184, -1.5972 0.4921 0.5037, -1.5973 0.4921 0.4509, -1.6064 0.4921 0.4768, -1.6016 0.4921 0.4774, -1.6233 0.4921 0.5246, -1.6233 0.4921 0.5164, -1.5964 0.4921 0.5207, -1.5973 0.4921 0.5215, -1.5973 0.4921 0.5636, -1.5988 0.4921 0.5229, -1.6015 0.4921 0.5245, -1.6252 0.4921 0.4875, -1.6242 0.4921 0.4849, -1.6226 0.4921 0.4827, -1.6062 0.4921 0.5261, -1.612 0.4921 0.5267, -1.6278 0.4921 0.5636, -1.6179 0.4921 0.5261, -1.6228 0.4921 0.4988, -1.6244 0.4921 0.4965, -1.6253 0.4921 0.494, -1.6256 0.4921 0.4909, -1.6202 0.4921 0.4806, -1.6182 0.4921 0.4794, -1.6112 0.4921 0.5199, -1.6087 0.4921 0.5197, -1.6021 0.4921 0.5135, -1.6065 0.4921 0.5191, -1.6046 0.4921 0.5181, -1.6022 0.4921 0.5124, -1.6025 0.4921 0.5111, -1.6031 0.4921 0.5099, -1.6039 0.4921 0.509, -1.6069 0.4921 0.5072, -1.6166 0.4921 0.5193, -1.612 0.4921 0.5049, -1.6213 0.4921 0.5176, -1.6153 0.4921 0.5036, -1.6208 0.4921 0.5005, -1.6034 0.4921 0.517, -1.6027 0.4921 0.5159, -1.6022 0.4921 0.5148, -1.602 0.4921 0.4842, -1.6061 0.4921 0.4989, -1.6011 0.4921 0.5012, -1.6072 0.4921 0.4836, -1.6075 0.4921 0.4836, -1.6116 0.4921 0.4966, -1.6118 0.4921 0.4841, -1.617 0.4921 0.4901, -1.6169 0.4921 0.4911, -1.614 0.4921 0.4849, -1.6147 0.4921 0.4854, -1.6157 0.4921 0.4862, -1.6164 0.4921 0.4873, -1.6169 0.4921 0.4885, -1.6166 0.4921 0.4924, -1.6159 0.4921 0.4935, -1.6149 0.4921 0.4946, -1.7514 0.4921 0.602, -1.7269 0.4921 0.602, -1.7582 0.4921 0.5838, -1.7677 0.4921 0.5838, -1.7894 0.4921 0.5636, -1.7423 0.4921 0.6505, -1.7077 0.4921 0.5838, -1.7172 0.4921 0.5838, -1.7236 0.4921 0.602, -1.6355 0.4921 0.6428, -1.6433 0.4921 0.6511, -1.6355 0.4921 0.6505, -1.6278 0.4921 0.6511, -1.6278 0.4921 0.6505, -1.6336 0.4921 0.6215, -1.6336 0.4921 0.6138, -1.637 0.4921 0.5914, -1.6278 0.4921 0.5914, -1.6278 0.4921 0.6138, -1.6098 0.4921 0.6138, -1.6098 0.4921 0.5914, -1.6278 0.4921 0.6428, -1.6278 0.4921 0.6215, -1.6098 0.4921 0.6428, -1.6098 0.4921 0.6215, -1.6011 0.4921 0.5838, -1.6278 0.4921 0.5838, -1.637 0.4921 0.5838, -1.6011 0.4921 0.6505, -1.5973 0.4921 0.6511, -1.5878 0.4921 0.5948, -1.5878 0.4921 0.5865, -1.5867 0.4921 0.586, -1.5721 0.4921 0.6438, -1.5689 0.4921 0.6437, -1.5849 0.4921 0.5935, -1.5803 0.4921 0.6429, -1.5878 0.4921 0.6399, -1.5871 0.4921 0.6403, -1.5849 0.4921 0.6411, -1.5632 0.4921 0.6425, -1.558 0.4921 0.6399, -1.5539 0.4921 0.6364, -1.5534 0.4921 0.6359, -1.5502 0.4921 0.6313, -1.548 0.4921 0.6255, -1.5469 0.4921 0.6164, -1.547 0.4921 0.6134, -1.5812 0.4921 0.5918, -1.5737 0.4921 0.5904, -1.5706 0.4921 0.5903, -1.5481 0.4921 0.6068, -1.5504 0.4921 0.6015, -1.5534 0.4921 0.5974, -1.5553 0.4921 0.5955, -1.5647 0.4921 0.5909, -1.5598 0.4921 0.5926, -1.5791 0.4921 0.6511, -1.5807 0.4921 0.6509, -1.5849 0.4921 0.6511, -1.5849 0.4921 0.6497, -1.5878 0.4921 0.6489, -1.5426 0.4921 0.6355, -1.5475 0.4921 0.6418, -1.5491 0.4921 0.6434, -1.5554 0.4921 0.6478, -1.5368 0.4921 0.5636, -1.5408 0.4921 0.5636, -1.5408 0.4921 0.6007, -1.5368 0.4921 0.6511, -1.5395 0.4921 0.6281, -1.5408 0.4921 0.6312, -1.5391 0.4921 0.605, -1.5378 0.4921 0.6159, -1.538 0.4921 0.6194, -1.5518 0.4921 0.5873, -1.5464 0.4921 0.5918, -1.5693 0.4921 0.5826, -1.5653 0.4921 0.5828, -1.5581 0.4921 0.5843, -1.5458 0.4921 0.5924, -1.5419 0.4921 0.5981, -1.5849 0.4921 0.5854, -1.5795 0.4921 0.5836, -1.5456 0.4921 0.4984, -1.5473 0.4921 0.5008, -1.5485 0.4921 0.5141, -1.5737 0.4921 0.4779, -1.5635 0.4921 0.4774, -1.5539 0.4921 0.4774, -1.5507 0.4921 0.4786, -1.5408 0.4921 0.4774, -1.5737 0.4921 0.4853, -1.5735 0.4921 0.4853, -1.5713 0.4921 0.4822, -1.5686 0.4921 0.4797, -1.5499 0.4921 0.503, -1.5536 0.4921 0.5048, -1.5534 0.4921 0.5173, -1.5596 0.4921 0.5062, -1.5669 0.4921 0.5196, -1.5641 0.4921 0.5199, -1.5586 0.4921 0.5192, -1.5479 0.4921 0.4805, -1.547 0.4921 0.4815, -1.5452 0.4921 0.484, -1.5763 0.4921 0.5235, -1.5785 0.4921 0.5213, -1.5802 0.4921 0.5186, -1.567 0.4921 0.4787, -1.5637 0.4921 0.4774, -1.5442 0.4921 0.4869, -1.5438 0.4921 0.4907, -1.5438 0.4921 0.4919, -1.5444 0.4921 0.4955, -1.5564 0.4921 0.5256, -1.5649 0.4921 0.5267, -1.5701 0.4921 0.5262, -1.5735 0.4921 0.5251, -1.5485 0.4921 0.5222, -1.5502 0.4921 0.5232, -1.5737 0.4921 0.5082, -1.5734 0.4921 0.5119, -1.5726 0.4921 0.5149, -1.5716 0.4921 0.5166, -1.5815 0.4921 0.5147, -1.5821 0.4921 0.5086, -1.5821 0.4921 0.4779, -1.5703 0.4921 0.518, -1.5689 0.4921 0.5189, -1.5541 0.4921 0.4774, -1.5408 0.4921 0.4509, -1.5589 0.4921 0.4768, -1.6433 0.4921 0.4774, -1.6433 0.4921 0.4915, -1.63 0.4921 0.5256, -1.6393 0.4921 0.5256, -1.6487 0.4921 0.478, -1.6484 0.4921 0.4774, -1.645 0.4921 0.4694, -1.6278 0.4921 0.4509, -1.6317 0.4921 0.4562, -1.6317 0.4921 0.4636, -1.6418 0.4921 0.4646, -1.6433 0.4921 0.4663, -1.6433 0.4921 0.4664, -1.6334 0.4921 0.463, -1.6364 0.4921 0.4626, -1.6433 0.4921 0.457, -1.6404 0.4921 0.4559, -1.6433 0.4921 0.4509, -1.6371 0.4921 0.4555, -1.6352 0.4921 0.4555, -1.6385 0.4921 0.4629, -1.6403 0.4921 0.4636, -1.6541 0.4921 0.4707, -1.6503 0.4921 0.4634, -1.7058 0.4921 0.4509, -1.6472 0.4921 0.4597, -1.6467 0.4921 0.4592, -1.6437 0.4921 0.4571, -1.8819 0.4921 0.6511, -1.8819 0.4921 0.5636, -1.8819 0.4921 0.4774, -1.8666 0.4921 0.4774, -1.8166 0.4921 0.5446, -1.7912 0.4921 0.4779, -1.7894 0.4921 0.4774, -1.8007 0.4921 0.4779, -1.8258 0.4921 0.5446, -1.8513 0.4921 0.4779, -1.8417 0.4921 0.4779, -1.8349 0.4921 0.4962, -1.8072 0.4921 0.4962, -1.7269 0.4921 0.6343, -1.7331 0.4921 0.6505, -1.7269 0.4921 0.6511, -1.7857 0.4921 0.5001, -1.7824 0.4921 0.4932, -1.7775 0.4921 0.4873, -1.7705 0.4921 0.4823, -1.7629 0.4921 0.4793, -1.7516 0.4921 0.4779, -1.7332 0.4921 0.4779, -1.7332 0.4921 0.5446, -1.7522 0.4921 0.5446, -1.7624 0.4921 0.5435, -1.7705 0.4921 0.5406, -1.7775 0.4921 0.5358, -1.7798 0.4921 0.5335, -1.7839 0.4921 0.5277, -1.7864 0.4921 0.5213, -1.7875 0.4921 0.5121, -1.7873 0.4921 0.5079, -1.7269 0.4921 0.4509, -1.7894 0.4921 0.4509, -1.6496 0.4921 0.5838, -1.7038 0.4921 0.6137, -1.7021 0.4921 0.6059, -1.6989 0.4921 0.599, -1.6939 0.4921 0.5931, -1.7004 0.4921 0.6335, -1.7029 0.4921 0.6272, -1.7058 0.4921 0.6511, -1.704 0.4921 0.618, -1.6869 0.4921 0.5881, -1.6793 0.4921 0.5851, -1.668 0.4921 0.5838, -1.6496 0.4921 0.6505, -1.6687 0.4921 0.6505, -1.6789 0.4921 0.6494, -1.6869 0.4921 0.6464, -1.6939 0.4921 0.6417, -1.6963 0.4921 0.6394, -1.5849 0.4921 0.4509, -1.5849 0.4921 0.9641, -1.5973 0.4921 0.9641, -1.6278 0.4921 0.9641, -1.6433 0.4921 0.9641, -1.7058 0.4921 0.9641, -1.7269 0.4921 0.9641, -1.7894 0.4921 0.9641, -1.8666 0.4921 0.9641, -1.8666 0.4921 0.2756, -1.7894 0.4921 0.2756, -1.7269 0.4921 0.2756, -1.7058 0.4921 0.2756, -1.6433 0.4921 0.2756, -1.6278 0.4921 0.2756, -1.5973 0.4921 0.2756, -1.5849 0.4921 0.2756, -1.5408 0.4921 0.2756, -1.5368 0.4921 0.4774, -1.5368 0.4921 0.4509, -1.5368 0.4921 0.2756, -1.5343 0.4921 0.537, -1.5358 0.4921 0.4855, -1.4999 0.4921 0.4779, -1.4999 0.4921 0.5446, -1.5343 0.4921 0.5446, -1.5358 0.4921 0.4779, -1.5085 0.4921 0.508, -1.5085 0.4921 0.4855, -1.5324 0.4921 0.508, -1.5324 0.4921 0.5156, -1.5085 0.4921 0.5156, -1.5085 0.4921 0.537, -1.5085 0.4921 0.6505, -1.5085 0.4921 0.5914, -1.5351 0.4921 0.5914, -1.4999 0.4921 0.5838, -1.4999 0.4921 0.6505, -1.5351 0.4921 0.5838, -1.5368 0.4921 0.9641, -1.5408 0.4921 0.9641, -1.572 0.4921 0.6516, -1.7894 0.4921 1.2598, -1.7269 0.4921 1.2598, -1.7058 0.4921 1.2598, -1.6433 0.4921 1.2598, -1.6278 0.4921 1.2598, -1.5973 0.4921 1.2598, -1.5849 0.4921 1.2598, -1.5408 0.4921 1.2598, -1.5368 0.4921 1.2598, -1.4726 0.4921 1.2598, -1.1181 0.4921 1.2598, -1.1181 -0.4921 0.2756, -1.8819 -0.4921 0.2756, -1.0 -0.374 0.2756, -1.9606 -0.4134 0.2756, -1.9606 -0.374 0.2756, -1.0 0.374 0.4724, -1.0 0.374 1.2598, -1.0 -0.374 0.4724, -1.0 -0.374 1.2598, -1.9606 0.4134 0.2756, -1.9606 0.374 0.2756, -1.9606 0.374 0.4724, -1.9606 -0.374 0.4724, -1.9606 -0.4134 1.2598, -1.9606 0.4134 1.2598, -1.1181 -0.4921 1.2598, -1.8819 -0.4921 1.2598, -1.374 -0.126 1.2598, -1.626 -0.126 1.2598, -1.374 0.126 1.2598, -1.626 0.126 1.2598, -1.0 0.374 0.2756, -1.374 0.126 0.4724, -1.374 -0.126 0.4724, -1.626 -0.126 0.4724, -1.626 0.126 0.4724
            ]
        }
        coordIndex [
            0,1,2,-1,3,4,5,-1,6,7,8,-1,9,10,11,-1,12,13,14,-1,15,16,17,-1,18,19,20,-1,20,19,21,-1,20,21,22,-1,23,24,25,-1,25,24,20,-1,25,20,26,-1,26,20,27,-1,22,28,20,-1,20,28,29,-1,20,29,27,-1,30,31,32,-1,33,34,18,-1,32,31,33,-1,33,31,35,-1,33,35,34,-1,36,37,38,-1,39,40,41,-1,41,40,42,-1,41,42,36,-1,36,42,43,-1,36,43,44,-1,30,32,45,-1,45,32,36,-1,45,36,46,-1,46,36,38,-1,46,38,47,-1,47,38,48,-1,47,48,49,-1,44,50,36,-1,36,50,51,-1,36,51,37,-1,52,53,54,-1,54,53,55,-1,54,55,56,-1,56,57,54,-1,54,57,58,-1,54,58,41,-1,41,58,59,-1,41,59,39,-1,60,61,62,-1,62,61,63,-1,62,63,54,-1,54,63,64,-1,54,64,52,-1,65,66,67,-1,67,66,68,-1,67,68,69,-1,69,68,70,-1,70,71,69,-1,69,71,72,-1,69,72,62,-1,62,72,73,-1,62,73,60,-1,74,75,65,-1,65,75,76,-1,65,76,77,-1,77,78,65,-1,65,78,79,-1,65,79,66,-1,80,81,82,-1,83,84,74,-1,85,86,87,-1,87,86,88,-1,80,82,89,-1,83,74,90,-1,91,92,86,-1,86,92,93,-1,86,93,94,-1,23,95,24,-1,24,95,96,-1,24,96,74,-1,74,96,97,-1,74,97,90,-1,81,98,82,-1,82,98,99,-1,82,99,100,-1,101,102,103,-1,103,102,104,-1,103,104,105,-1,106,94,107,-1,107,94,108,-1,107,108,103,-1,103,108,109,-1,103,109,101,-1,106,110,94,-1,94,110,111,-1,94,111,86,-1,86,111,112,-1,86,112,88,-1,113,114,115,-1,115,114,116,-1,115,116,82,-1,82,116,117,-1,82,117,89,-1,118,119,82,-1,82,119,120,-1,82,120,86,-1,86,120,121,-1,86,121,91,-1,122,123,75,-1,75,123,124,-1,75,124,125,-1,125,126,75,-1,75,126,127,-1,75,127,128,-1,128,127,113,-1,128,113,129,-1,129,113,115,-1,84,130,74,-1,74,130,131,-1,74,131,75,-1,75,131,132,-1,75,132,122,-1,100,133,82,-1,82,133,134,-1,82,134,135,-1,135,136,82,-1,82,136,137,-1,82,137,118,-1,138,139,140,-1,139,141,140,-1,140,141,142,-1,140,142,143,-1,93,140,94,-1,94,140,144,-1,94,144,145,-1,146,147,148,-1,148,147,149,-1,148,149,150,-1,146,148,93,-1,93,148,151,-1,93,151,140,-1,140,151,152,-1,140,152,138,-1,153,154,155,-1,155,154,156,-1,155,156,157,-1,143,142,158,-1,158,142,159,-1,158,159,160,-1,160,159,161,-1,160,161,162,-1,145,163,94,-1,94,163,155,-1,94,155,164,-1,164,155,157,-1,165,166,167,-1,167,166,168,-1,168,166,169,-1,168,169,170,-1,171,172,165,-1,165,172,166,-1,166,172,173,-1,166,173,174,-1,173,175,174,-1,174,175,176,-1,174,176,177,-1,165,178,171,-1,171,178,179,-1,171,179,180,-1,169,181,170,-1,170,181,182,-1,170,182,183,-1,183,182,184,-1,185,186,187,-1,188,189,190,-1,190,189,191,-1,190,191,167,-1,167,191,192,-1,167,192,165,-1,187,193,185,-1,185,193,194,-1,185,194,195,-1,195,194,196,-1,195,196,188,-1,188,196,184,-1,188,184,189,-1,189,184,182,-1,197,198,199,-1,17,16,199,-1,199,16,200,-1,199,200,197,-1,201,202,203,-1,204,205,197,-1,205,206,197,-1,197,206,207,-1,197,207,198,-1,198,207,208,-1,198,208,209,-1,201,203,197,-1,197,203,210,-1,197,210,204,-1,211,212,213,-1,214,215,14,-1,216,217,218,-1,218,217,219,-1,218,219,220,-1,221,222,14,-1,14,222,223,-1,220,224,218,-1,218,224,225,-1,218,225,226,-1,226,225,227,-1,226,227,214,-1,228,229,215,-1,215,229,230,-1,215,230,14,-1,14,230,231,-1,14,231,221,-1,223,232,14,-1,14,232,233,-1,14,233,12,-1,234,235,236,-1,236,235,237,-1,236,237,238,-1,236,239,234,-1,234,239,240,-1,234,240,241,-1,241,242,234,-1,234,242,243,-1,234,243,244,-1,244,243,245,-1,244,245,246,-1,246,245,247,-1,246,247,215,-1,215,247,248,-1,215,248,228,-1,249,250,238,-1,238,250,251,-1,238,251,236,-1,252,253,202,-1,202,253,254,-1,202,254,203,-1,252,255,253,-1,253,255,256,-1,253,256,257,-1,257,256,258,-1,257,259,260,-1,258,261,257,-1,257,261,262,-1,257,262,263,-1,263,264,257,-1,257,264,265,-1,257,265,259,-1,260,266,257,-1,257,266,267,-1,257,267,268,-1,269,270,271,-1,271,270,167,-1,271,167,272,-1,272,167,273,-1,272,273,274,-1,275,190,276,-1,276,190,167,-1,276,167,277,-1,277,167,270,-1,278,279,280,-1,280,279,281,-1,280,281,282,-1,283,284,285,-1,285,284,286,-1,284,287,286,-1,286,287,288,-1,286,288,289,-1,278,290,291,-1,291,290,292,-1,291,292,293,-1,294,218,295,-1,295,218,226,-1,295,226,296,-1,296,226,188,-1,296,188,285,-1,282,281,297,-1,297,281,298,-1,297,298,294,-1,299,300,218,-1,300,301,218,-1,218,301,198,-1,218,198,216,-1,216,198,209,-1,302,303,304,-1,302,304,305,-1,294,298,218,-1,218,298,306,-1,218,306,299,-1,299,306,307,-1,299,307,304,-1,304,307,308,-1,304,308,305,-1,303,309,304,-1,304,309,310,-1,304,310,311,-1,311,312,304,-1,304,312,313,-1,304,313,314,-1,314,315,304,-1,304,315,316,-1,304,316,317,-1,317,316,318,-1,318,316,319,-1,319,316,320,-1,319,320,321,-1,321,322,319,-1,319,322,323,-1,319,323,324,-1,324,323,325,-1,326,327,328,-1,328,327,329,-1,328,329,298,-1,298,329,330,-1,298,330,306,-1,11,331,332,-1,332,333,11,-1,11,333,334,-1,11,334,9,-1,335,336,337,-1,338,339,11,-1,11,339,340,-1,11,340,331,-1,337,341,335,-1,335,341,342,-1,335,342,338,-1,338,342,343,-1,338,343,339,-1,336,344,345,-1,346,347,336,-1,336,347,348,-1,336,348,344,-1,345,349,336,-1,336,349,350,-1,336,350,337,-1,301,351,198,-1,198,351,352,-1,198,352,346,-1,353,354,355,-1,356,357,199,-1,358,359,360,-1,361,362,356,-1,356,362,363,-1,356,363,364,-1,354,365,355,-1,355,365,366,-1,355,366,367,-1,367,366,368,-1,369,370,368,-1,368,370,371,-1,368,371,367,-1,359,372,360,-1,360,372,373,-1,360,373,374,-1,375,376,198,-1,198,376,377,-1,364,378,356,-1,356,378,379,-1,356,379,357,-1,374,380,360,-1,360,380,381,-1,360,381,382,-1,336,382,383,-1,346,336,198,-1,198,336,384,-1,198,384,385,-1,385,386,198,-1,198,386,387,-1,198,387,375,-1,353,355,383,-1,383,355,388,-1,383,388,336,-1,336,388,389,-1,336,389,384,-1,390,391,368,-1,368,391,392,-1,368,392,393,-1,377,394,198,-1,198,394,395,-1,198,395,199,-1,199,395,396,-1,199,396,356,-1,393,397,368,-1,368,397,398,-1,368,398,369,-1,358,360,399,-1,399,360,400,-1,399,400,401,-1,402,403,14,-1,14,403,404,-1,214,14,226,-1,226,14,404,-1,226,404,188,-1,188,404,405,-1,188,405,195,-1,406,403,407,-1,407,403,402,-1,407,402,408,-1,409,410,411,-1,412,413,402,-1,402,413,414,-1,402,414,408,-1,212,211,13,-1,13,211,409,-1,13,409,14,-1,14,409,411,-1,14,411,402,-1,402,411,415,-1,402,415,416,-1,417,418,419,-1,419,418,420,-1,419,420,409,-1,409,420,421,-1,409,421,410,-1,416,422,402,-1,402,422,423,-1,402,423,412,-1,424,425,426,-1,424,426,183,-1,425,427,426,-1,426,427,428,-1,426,428,419,-1,419,428,429,-1,419,429,417,-1,430,1,431,-1,431,1,0,-1,431,0,432,-1,432,0,433,-1,434,273,435,-1,435,273,436,-1,435,436,437,-1,0,438,433,-1,433,438,439,-1,433,439,440,-1,441,442,440,-1,440,442,437,-1,440,437,433,-1,433,437,436,-1,443,444,445,-1,445,444,274,-1,445,274,2,-1,2,274,273,-1,2,273,0,-1,0,273,434,-1,0,434,438,-1,446,447,436,-1,436,447,448,-1,436,448,449,-1,449,450,436,-1,436,450,451,-1,436,451,168,-1,168,451,452,-1,168,452,167,-1,452,453,167,-1,167,453,454,-1,167,454,273,-1,273,454,455,-1,273,455,456,-1,456,457,273,-1,273,457,458,-1,273,458,459,-1,459,460,273,-1,273,460,461,-1,273,461,436,-1,436,461,462,-1,436,462,446,-1,183,426,170,-1,170,426,463,-1,170,463,168,-1,168,463,464,-1,168,464,436,-1,436,464,8,-1,436,8,433,-1,433,8,7,-1,433,7,432,-1,291,283,278,-1,278,283,285,-1,278,285,279,-1,279,285,188,-1,279,188,465,-1,466,467,190,-1,190,467,468,-1,190,468,469,-1,470,471,472,-1,472,471,473,-1,469,474,190,-1,190,474,475,-1,190,475,188,-1,188,475,476,-1,188,476,465,-1,465,477,279,-1,279,477,478,-1,279,478,472,-1,472,478,479,-1,472,479,480,-1,480,481,472,-1,472,481,482,-1,472,482,470,-1,443,445,275,-1,275,445,472,-1,275,472,190,-1,190,472,473,-1,190,473,466,-1,401,400,357,-1,357,400,483,-1,357,483,199,-1,199,483,211,-1,199,211,17,-1,17,211,213,-1,17,213,15,-1,326,328,484,-1,484,328,298,-1,484,298,485,-1,485,298,281,-1,485,281,486,-1,486,281,279,-1,486,279,487,-1,487,279,472,-1,487,472,488,-1,488,472,445,-1,488,445,489,-1,489,445,2,-1,489,2,490,-1,490,2,1,-1,490,1,491,-1,491,1,430,-1,491,430,3,-1,6,8,492,-1,492,8,464,-1,492,464,493,-1,493,464,463,-1,493,463,494,-1,494,463,426,-1,494,426,495,-1,495,426,419,-1,495,419,496,-1,496,419,409,-1,496,409,497,-1,497,409,211,-1,497,211,498,-1,498,211,483,-1,498,483,499,-1,499,483,400,-1,499,400,500,-1,360,501,400,-1,400,501,502,-1,400,502,500,-1,500,502,503,-1,504,505,335,-1,74,506,24,-1,24,506,507,-1,24,507,335,-1,335,507,508,-1,335,508,504,-1,382,336,360,-1,360,336,335,-1,360,335,501,-1,501,335,505,-1,501,505,509,-1,67,503,65,-1,65,503,502,-1,65,502,74,-1,74,502,501,-1,74,501,506,-1,506,501,509,-1,510,511,512,-1,512,511,505,-1,512,505,513,-1,513,505,504,-1,513,504,514,-1,514,504,515,-1,516,517,518,-1,519,520,20,-1,20,520,516,-1,20,516,338,-1,338,516,518,-1,338,518,335,-1,335,518,521,-1,335,521,24,-1,24,521,519,-1,24,519,20,-1,18,20,33,-1,33,20,338,-1,33,338,522,-1,522,338,11,-1,522,11,523,-1,523,11,10,-1,523,10,484,-1,484,10,524,-1,484,524,326,-1,3,5,491,-1,491,5,525,-1,491,525,490,-1,490,525,526,-1,490,526,489,-1,489,526,527,-1,489,527,488,-1,488,527,528,-1,488,528,487,-1,487,528,529,-1,487,529,486,-1,486,529,530,-1,486,530,485,-1,485,530,531,-1,485,531,484,-1,484,531,532,-1,484,532,523,-1,523,532,533,-1,523,533,522,-1,522,533,534,-1,522,534,33,-1,33,534,535,-1,33,535,32,-1,536,537,538,-1,538,537,539,-1,538,539,540,-1,541,542,543,-1,543,542,544,-1,545,546,547,-1,540,539,548,-1,548,539,549,-1,548,549,547,-1,547,549,550,-1,547,550,545,-1,551,552,536,-1,536,552,537,-1,551,553,554,-1,551,554,552,-1,535,4,550,-1,551,544,553,-1,553,544,542,-1,553,542,555,-1,555,542,535,-1,555,535,556,-1,556,535,550,-1,556,550,554,-1,554,550,549,-1,554,549,552,-1,69,557,6,-1,6,557,546,-1,6,546,545,-1,544,551,543,-1,543,551,536,-1,543,536,538,-1,539,537,549,-1,549,537,552,-1,6,545,4,-1,4,545,550,-1,535,542,69,-1,69,542,541,-1,69,541,557,-1,548,543,540,-1,540,543,538,-1,541,547,557,-1,557,547,546,-1,558,541,559,-1,559,541,543,-1,559,543,560,-1,560,543,548,-1,560,548,561,-1,561,548,547,-1,561,547,558,-1,558,547,541,-1,
        ]
    }
}
Shape{
    appearance Appearance {
        material  Material 	{
            diffuseColor 1.0 1.0 0.5019607843137255
            specularColor 0.5019607843137255 0.5019607843137255 0.25098039215686274
            ambientIntensity 0.9432
            transparency 0.0
            shininess 0.5
        }
    }
    geometry IndexedFaceSet {
        ccw TRUE
        solid FALSE
        coord DEF co Coordinate {
            point [
                -1.374 -0.126 0.3622, -1.626 -0.126 0.3622, -1.626 -0.1169 0.2816, -1.374 -0.1169 0.2816, -1.626 -0.0901 0.205, -1.374 -0.0901 0.205, -1.626 -0.047 0.1364, -1.374 -0.047 0.1364, -1.626 0.0104 0.079, -1.374 0.0104 0.079, -1.626 0.0791 0.0359, -1.374 0.0791 0.0359, -1.626 0.1556 0.0091, -1.374 0.1556 0.0091, -1.626 0.2362 0.0, -1.374 0.2362 0.0, -1.374 0.7874 0.0, -1.626 0.7874 0.0, -1.5543 0.9843 0.0716, -1.5543 0.9843 0.1803, -1.4457 0.9843 0.0716, -1.4457 0.9843 0.1803, -1.626 0.7874 0.252, -1.626 0.2362 0.252, -1.374 0.7874 0.252, -1.374 0.2362 0.252, -1.374 0.2077 0.2557, -1.626 0.2077 0.2557, -1.374 0.1811 0.2667, -1.626 0.1811 0.2667, -1.374 0.1583 0.2843, -1.626 0.1583 0.2843, -1.374 0.1408 0.3071, -1.626 0.1408 0.3071, -1.374 0.1297 0.3337, -1.626 0.1297 0.3337, -1.374 0.126 0.3622, -1.626 0.126 0.3622, -1.626 -0.126 0.4724, -1.626 0.126 0.4724, -1.374 0.126 0.4724, -1.374 -0.126 0.4724, -1.374 0.126 3.4252, -1.374 0.126 1.2598, -1.626 0.126 3.4252, -1.626 0.126 1.2598, -1.5543 0.0543 3.622, -1.5543 -0.0543 3.622, -1.4457 0.0543 3.622, -1.4457 -0.0543 3.622, -1.626 -0.126 3.4252, -1.626 -0.126 1.2598, -1.374 -0.126 3.4252, -1.374 -0.126 1.2598
            ]
        }
        coordIndex [
            0,1,2,-1,0,2,3,-1,3,2,4,-1,3,4,5,-1,5,4,6,-1,5,6,7,-1,7,6,8,-1,7,8,9,-1,9,8,10,-1,9,10,11,-1,11,10,12,-1,11,12,13,-1,13,12,14,-1,13,14,15,-1,16,15,17,-1,17,15,14,-1,18,19,20,-1,20,19,21,-1,22,23,24,-1,24,23,25,-1,25,23,26,-1,26,23,27,-1,26,27,28,-1,28,27,29,-1,28,29,30,-1,30,29,31,-1,30,31,32,-1,32,31,33,-1,32,33,34,-1,34,33,35,-1,34,35,36,-1,36,35,37,-1,22,17,23,-1,23,17,14,-1,23,14,27,-1,27,14,12,-1,27,12,29,-1,38,39,1,-1,1,39,37,-1,1,37,2,-1,2,37,35,-1,2,35,4,-1,4,35,33,-1,4,33,6,-1,6,33,31,-1,6,31,8,-1,8,31,29,-1,8,29,10,-1,10,29,12,-1,40,41,36,-1,36,41,0,-1,36,0,34,-1,34,0,3,-1,34,3,32,-1,32,3,5,-1,32,5,30,-1,16,24,15,-1,15,24,25,-1,15,25,13,-1,13,25,26,-1,13,26,11,-1,11,26,28,-1,11,28,9,-1,9,28,30,-1,9,30,7,-1,7,30,5,-1,38,1,41,-1,41,1,0,-1,36,37,40,-1,40,37,39,-1,42,43,44,-1,44,43,45,-1,46,47,48,-1,48,47,49,-1,50,51,52,-1,52,51,53,-1,52,53,42,-1,42,53,43,-1,44,45,50,-1,50,45,51,-1,24,21,22,-1,22,21,19,-1,16,20,24,-1,24,20,21,-1,18,17,19,-1,19,17,22,-1,17,18,16,-1,16,18,20,-1,52,49,50,-1,50,49,47,-1,42,48,52,-1,52,48,49,-1,46,44,47,-1,47,44,50,-1,44,46,42,-1,42,46,48,-1,
        ]
    }
}
Shape{
    appearance Appearance {
        material  Material 	{
            diffuseColor 1.0 1.0 1.0
            specularColor 0.5019607843137255 0.5019607843137255 0.5019607843137255
            ambientIntensity 1.0
            transparency 0.0
            shininess 0.5
        }
    }
    geometry IndexedFaceSet {
        ccw TRUE
        solid FALSE
        coord DEF co Coordinate {
            point [
                -1.5351 0.4961 0.5914, -1.5351 0.4961 0.5838, -1.5351 0.4921 0.5914, -1.5351 0.4921 0.5838, -1.5085 0.4961 0.5914, -1.5085 0.4921 0.5914, -1.5085 0.4961 0.6505, -1.5085 0.4921 0.6505, -1.4999 0.4961 0.6505, -1.4999 0.4921 0.6505, -1.4999 0.4961 0.5838, -1.4999 0.4921 0.5838, -1.5878 0.4921 0.5865, -1.5878 0.4961 0.5865, -1.5867 0.4961 0.586, -1.5693 0.4961 0.5826, -1.5693 0.4921 0.5826, -1.5795 0.4921 0.5836, -1.5795 0.4961 0.5836, -1.5849 0.4921 0.5854, -1.5867 0.4921 0.586, -1.5878 0.4961 0.5948, -1.5878 0.4921 0.5948, -1.5849 0.4921 0.5935, -1.5812 0.4961 0.5918, -1.5812 0.4921 0.5918, -1.5737 0.4921 0.5904, -1.5737 0.4961 0.5904, -1.5706 0.4921 0.5903, -1.5706 0.4961 0.5903, -1.5647 0.4921 0.5909, -1.5647 0.4961 0.5909, -1.5598 0.4921 0.5926, -1.5598 0.4961 0.5926, -1.5553 0.4921 0.5955, -1.5553 0.4961 0.5955, -1.5534 0.4921 0.5974, -1.5534 0.4961 0.5974, -1.5504 0.4921 0.6015, -1.5504 0.4961 0.6015, -1.5481 0.4921 0.6068, -1.5481 0.4961 0.6068, -1.547 0.4921 0.6134, -1.547 0.4961 0.6134, -1.5469 0.4921 0.6164, -1.5469 0.4961 0.6164, -1.548 0.4921 0.6255, -1.548 0.4961 0.6255, -1.5502 0.4921 0.6313, -1.5502 0.4961 0.6313, -1.5534 0.4921 0.6359, -1.5534 0.4961 0.6359, -1.5539 0.4921 0.6364, -1.5539 0.4961 0.6364, -1.558 0.4921 0.6399, -1.558 0.4961 0.6399, -1.5632 0.4921 0.6425, -1.5632 0.4961 0.6425, -1.5689 0.4921 0.6437, -1.5689 0.4961 0.6437, -1.5721 0.4921 0.6438, -1.5721 0.4961 0.6438, -1.5878 0.4921 0.6399, -1.5878 0.4961 0.6399, -1.5871 0.4961 0.6403, -1.5803 0.4921 0.6429, -1.5803 0.4961 0.6429, -1.5849 0.4921 0.6411, -1.5871 0.4921 0.6403, -1.5878 0.4961 0.6489, -1.5878 0.4921 0.6489, -1.5849 0.4921 0.6497, -1.5807 0.4961 0.6509, -1.572 0.4921 0.6516, -1.572 0.4961 0.6516, -1.5791 0.4921 0.6511, -1.5807 0.4921 0.6509, -1.5673 0.4921 0.6511, -1.5623 0.4961 0.6505, -1.5623 0.4921 0.6505, -1.5554 0.4921 0.6478, -1.5554 0.4961 0.6478, -1.5491 0.4921 0.6434, -1.5491 0.4961 0.6434, -1.5475 0.4921 0.6418, -1.5475 0.4961 0.6418, -1.5426 0.4921 0.6355, -1.5408 0.4921 0.6312, -1.5395 0.4961 0.6281, -1.5426 0.4961 0.6355, -1.5395 0.4921 0.6281, -1.538 0.4921 0.6194, -1.538 0.4961 0.6194, -1.5378 0.4921 0.6159, -1.5378 0.4961 0.6159, -1.5391 0.4921 0.605, -1.5408 0.4921 0.6007, -1.5419 0.4961 0.5981, -1.5391 0.4961 0.605, -1.5419 0.4921 0.5981, -1.5458 0.4921 0.5924, -1.5458 0.4961 0.5924, -1.5464 0.4921 0.5918, -1.5464 0.4961 0.5918, -1.5518 0.4921 0.5873, -1.5518 0.4961 0.5873, -1.5581 0.4921 0.5843, -1.5581 0.4961 0.5843, -1.5653 0.4921 0.5828, -1.5653 0.4961 0.5828, -1.637 0.4961 0.5914, -1.637 0.4961 0.5838, -1.637 0.4921 0.5914, -1.637 0.4921 0.5838, -1.6098 0.4921 0.5914, -1.6098 0.4961 0.5914, -1.6278 0.4921 0.5914, -1.6098 0.4961 0.6138, -1.6098 0.4921 0.6138, -1.6336 0.4961 0.6138, -1.6278 0.4921 0.6138, -1.6336 0.4921 0.6138, -1.6336 0.4961 0.6215, -1.6336 0.4921 0.6215, -1.6098 0.4921 0.6215, -1.6098 0.4961 0.6215, -1.6278 0.4921 0.6215, -1.6098 0.4961 0.6428, -1.6098 0.4921 0.6428, -1.6355 0.4961 0.6428, -1.6278 0.4921 0.6428, -1.6355 0.4921 0.6428, -1.6355 0.4961 0.6505, -1.6355 0.4921 0.6505, -1.6011 0.4921 0.6505, -1.6011 0.4961 0.6505, -1.6278 0.4921 0.6505, -1.6011 0.4961 0.5838, -1.6011 0.4921 0.5838, -1.6278 0.4921 0.5838, -1.6939 0.4961 0.5931, -1.687 0.4961 0.5976, -1.6869 0.4961 0.5881, -1.6827 0.4961 0.5946, -1.6793 0.4961 0.5851, -1.6772 0.4961 0.5925, -1.668 0.4961 0.5838, -1.6679 0.4961 0.5914, -1.6496 0.4961 0.5838, -1.6583 0.4961 0.5914, -1.6496 0.4961 0.6505, -1.6583 0.4961 0.6428, -1.6687 0.4961 0.6505, -1.6683 0.4961 0.6428, -1.669 0.4961 0.6428, -1.6789 0.4961 0.6494, -1.6775 0.4961 0.6417, -1.6869 0.4961 0.6464, -1.6832 0.4961 0.6395, -1.6939 0.4961 0.6417, -1.6876 0.4961 0.6365, -1.6963 0.4961 0.6394, -1.6895 0.4961 0.6347, -1.7004 0.4961 0.6335, -1.692 0.4961 0.631, -1.7029 0.4961 0.6272, -1.6939 0.4961 0.6261, -1.704 0.4961 0.618, -1.6949 0.4961 0.6178, -1.7038 0.4961 0.6137, -1.6946 0.4961 0.6132, -1.7021 0.4961 0.6059, -1.6933 0.4961 0.6071, -1.6989 0.4961 0.599, -1.691 0.4961 0.6022, -1.6878 0.4961 0.5983, -1.668 0.4921 0.5838, -1.6496 0.4921 0.5838, -1.6793 0.4921 0.5851, -1.6869 0.4921 0.5881, -1.6939 0.4921 0.5931, -1.6989 0.4921 0.599, -1.7021 0.4921 0.6059, -1.7038 0.4921 0.6137, -1.704 0.4921 0.618, -1.7029 0.4921 0.6272, -1.7004 0.4921 0.6335, -1.6963 0.4921 0.6394, -1.6939 0.4921 0.6417, -1.6869 0.4921 0.6464, -1.6789 0.4921 0.6494, -1.6687 0.4921 0.6505, -1.6496 0.4921 0.6505, -1.6683 0.4921 0.6428, -1.6583 0.4921 0.6428, -1.6583 0.4921 0.5914, -1.6679 0.4921 0.5914, -1.6878 0.4921 0.5983, -1.687 0.4921 0.5976, -1.6827 0.4921 0.5946, -1.6772 0.4921 0.5925, -1.6949 0.4921 0.6178, -1.6946 0.4921 0.6132, -1.6933 0.4921 0.6071, -1.691 0.4921 0.6022, -1.6876 0.4921 0.6365, -1.6895 0.4921 0.6347, -1.692 0.4921 0.631, -1.6939 0.4921 0.6261, -1.669 0.4921 0.6428, -1.6775 0.4921 0.6417, -1.6832 0.4921 0.6395
            ]
        }
        coordIndex [
            0,1,2,-1,2,1,3,-1,4,0,5,-1,5,0,2,-1,6,4,7,-1,7,4,5,-1,8,6,9,-1,9,6,7,-1,10,8,11,-1,11,8,9,-1,1,10,3,-1,3,10,11,-1,6,8,4,-1,4,8,10,-1,4,10,0,-1,0,10,1,-1,12,13,14,-1,15,16,17,-1,15,17,18,-1,18,17,19,-1,18,19,14,-1,14,19,20,-1,14,20,12,-1,21,13,22,-1,22,13,12,-1,21,22,23,-1,21,23,24,-1,23,25,24,-1,24,25,26,-1,24,26,27,-1,27,26,28,-1,27,28,29,-1,29,28,30,-1,29,30,31,-1,31,30,32,-1,31,32,33,-1,33,32,34,-1,33,34,35,-1,35,34,36,-1,35,36,37,-1,37,36,38,-1,37,38,39,-1,39,38,40,-1,39,40,41,-1,41,40,42,-1,41,42,43,-1,43,42,44,-1,43,44,45,-1,45,44,46,-1,45,46,47,-1,47,46,48,-1,47,48,49,-1,49,48,50,-1,49,50,51,-1,51,50,52,-1,51,52,53,-1,53,52,54,-1,53,54,55,-1,55,54,56,-1,55,56,57,-1,57,56,58,-1,57,58,59,-1,59,58,60,-1,59,60,61,-1,62,63,64,-1,61,60,65,-1,61,65,66,-1,66,65,67,-1,66,67,64,-1,64,67,68,-1,64,68,62,-1,69,63,70,-1,70,63,62,-1,69,70,71,-1,69,71,72,-1,73,74,75,-1,75,74,72,-1,75,72,76,-1,76,72,71,-1,74,73,77,-1,74,77,78,-1,77,79,78,-1,78,79,80,-1,78,80,81,-1,81,80,82,-1,81,82,83,-1,83,82,84,-1,83,84,85,-1,85,84,86,-1,87,88,86,-1,86,88,89,-1,86,89,85,-1,87,90,88,-1,88,90,91,-1,88,91,92,-1,92,91,93,-1,92,93,94,-1,94,93,95,-1,96,97,95,-1,95,97,98,-1,95,98,94,-1,96,99,97,-1,97,99,100,-1,97,100,101,-1,101,100,102,-1,101,102,103,-1,103,102,104,-1,103,104,105,-1,105,104,106,-1,105,106,107,-1,107,106,108,-1,107,108,109,-1,109,108,16,-1,109,16,15,-1,55,57,78,-1,47,49,89,-1,89,49,85,-1,78,57,74,-1,94,45,92,-1,92,45,47,-1,92,47,88,-1,88,47,89,-1,57,59,74,-1,74,59,61,-1,74,61,72,-1,72,61,66,-1,72,66,69,-1,69,66,64,-1,69,64,63,-1,13,21,14,-1,14,21,24,-1,14,24,18,-1,18,24,27,-1,18,27,15,-1,15,27,29,-1,15,29,109,-1,109,29,31,-1,109,31,107,-1,107,31,33,-1,107,33,105,-1,105,33,35,-1,105,35,103,-1,103,35,37,-1,103,37,101,-1,101,37,39,-1,101,39,97,-1,97,39,98,-1,98,39,41,-1,98,41,94,-1,94,41,43,-1,94,43,45,-1,49,51,85,-1,85,51,53,-1,85,53,83,-1,83,53,55,-1,83,55,81,-1,81,55,78,-1,110,111,112,-1,112,111,113,-1,114,115,116,-1,116,115,110,-1,116,110,112,-1,117,115,118,-1,118,115,114,-1,117,118,119,-1,119,118,120,-1,119,120,121,-1,122,119,123,-1,123,119,121,-1,124,125,126,-1,126,125,122,-1,126,122,123,-1,127,125,128,-1,128,125,124,-1,127,128,129,-1,129,128,130,-1,129,130,131,-1,132,129,133,-1,133,129,131,-1,134,135,136,-1,136,135,132,-1,136,132,133,-1,137,135,138,-1,138,135,134,-1,137,138,111,-1,111,138,139,-1,111,139,113,-1,137,111,110,-1,110,115,137,-1,137,115,117,-1,137,117,135,-1,129,132,127,-1,127,132,135,-1,127,135,125,-1,125,135,117,-1,125,117,122,-1,122,117,119,-1,140,141,142,-1,142,141,143,-1,142,143,144,-1,144,143,145,-1,144,145,146,-1,146,145,147,-1,146,147,148,-1,148,147,149,-1,148,149,150,-1,150,149,151,-1,150,151,152,-1,151,153,152,-1,152,153,154,-1,152,154,155,-1,155,154,156,-1,155,156,157,-1,157,156,158,-1,157,158,159,-1,159,158,160,-1,159,160,161,-1,161,160,162,-1,161,162,163,-1,163,162,164,-1,163,164,165,-1,165,164,166,-1,165,166,167,-1,167,166,168,-1,167,168,169,-1,169,168,170,-1,169,170,171,-1,171,170,172,-1,171,172,173,-1,173,172,174,-1,173,174,140,-1,140,174,175,-1,140,175,141,-1,146,148,176,-1,176,148,177,-1,146,176,178,-1,146,178,144,-1,144,178,179,-1,144,179,142,-1,142,179,180,-1,142,180,140,-1,140,180,181,-1,140,181,173,-1,173,181,182,-1,173,182,171,-1,171,182,183,-1,171,183,169,-1,169,183,184,-1,169,184,167,-1,167,184,185,-1,167,185,165,-1,165,185,186,-1,165,186,163,-1,163,186,187,-1,163,187,161,-1,161,187,188,-1,161,188,159,-1,159,188,189,-1,159,189,157,-1,157,189,190,-1,157,190,155,-1,155,190,191,-1,155,191,152,-1,150,152,192,-1,192,152,191,-1,148,150,177,-1,177,150,192,-1,153,151,193,-1,193,151,194,-1,151,149,194,-1,194,149,195,-1,149,147,195,-1,195,147,196,-1,175,197,198,-1,175,198,141,-1,141,198,199,-1,141,199,143,-1,143,199,200,-1,143,200,145,-1,145,200,196,-1,145,196,147,-1,168,201,202,-1,168,202,170,-1,170,202,203,-1,170,203,172,-1,172,203,204,-1,172,204,174,-1,174,204,197,-1,174,197,175,-1,160,205,206,-1,160,206,162,-1,162,206,207,-1,162,207,164,-1,164,207,208,-1,164,208,166,-1,166,208,201,-1,166,201,168,-1,153,193,209,-1,153,209,154,-1,154,209,210,-1,154,210,156,-1,156,210,211,-1,156,211,158,-1,158,211,205,-1,158,205,160,-1,
        ]
    }
}
Shape{
    appearance Appearance {
        material  Material 	{
            diffuseColor 0.25098039215686274 0.25098039215686274 0.25098039215686274
            specularColor 0.12549019607843137 0.12549019607843137 0.12549019607843137
            ambientIntensity 0.251
            transparency 0.0
            shininess 0.5
        }
    }
    geometry IndexedFaceSet {
        ccw TRUE
        solid FALSE
        coord DEF co Coordinate {
            point [
                -1.6827 0.4921 0.5946, -1.687 0.4921 0.5976, -1.669 0.4921 0.6428, -1.6583 0.4921 0.6428, -1.6583 0.4921 0.5914, -1.6683 0.4921 0.6428, -1.6679 0.4921 0.5914, -1.6772 0.4921 0.5925, -1.6878 0.4921 0.5983, -1.691 0.4921 0.6022, -1.6933 0.4921 0.6071, -1.6949 0.4921 0.6178, -1.6876 0.4921 0.6365, -1.6832 0.4921 0.6395, -1.6939 0.4921 0.6261, -1.692 0.4921 0.631, -1.6895 0.4921 0.6347, -1.6946 0.4921 0.6132, -1.6775 0.4921 0.6417
            ]
        }
        coordIndex [
            0,1,2,-1,3,4,5,-1,5,4,6,-1,5,6,2,-1,2,6,7,-1,2,7,0,-1,1,8,2,-1,2,8,9,-1,2,9,10,-1,11,12,13,-1,14,15,11,-1,11,15,16,-1,11,16,12,-1,10,17,2,-1,2,17,11,-1,2,11,18,-1,18,11,13,-1,
        ]
    }
}
Shape{
    appearance Appearance {
        material  Material 	{
            diffuseColor 1.0 1.0 1.0
            specularColor 0.5019607843137255 0.5019607843137255 0.5019607843137255
            ambientIntensity 1.0
            transparency 0.0
            shininess 0.5
        }
    }
    geometry IndexedFaceSet {
        ccw TRUE
        solid FALSE
        coord DEF co Coordinate {
            point [
                -1.7263 0.4961 0.6096, -1.7236 0.4961 0.602, -1.7487 0.4961 0.6096, -1.7514 0.4961 0.602, -1.7363 0.4961 0.6373, -1.7331 0.4961 0.6505, -1.7077 0.4961 0.5838, -1.7172 0.4961 0.5838, -1.7369 0.4961 0.6393, -1.7374 0.4961 0.642, -1.7423 0.4961 0.6505, -1.7376 0.4961 0.642, -1.7381 0.4961 0.6391, -1.7386 0.4961 0.6373, -1.7677 0.4961 0.5838, -1.7582 0.4961 0.5838, -1.7423 0.4921 0.6505, -1.7677 0.4921 0.5838, -1.7331 0.4921 0.6505, -1.7077 0.4921 0.5838, -1.7269 0.4921 0.6343, -1.7172 0.4921 0.5838, -1.7236 0.4921 0.602, -1.7514 0.4921 0.602, -1.7269 0.4921 0.602, -1.7582 0.4921 0.5838, -1.7263 0.4921 0.6096, -1.7487 0.4921 0.6096, -1.7386 0.4921 0.6373, -1.7376 0.4921 0.642, -1.7381 0.4921 0.6391, -1.7374 0.4921 0.642, -1.7363 0.4921 0.6373, -1.7369 0.4921 0.6393
            ]
        }
        coordIndex [
            0,1,2,-1,2,1,3,-1,4,5,0,-1,0,5,6,-1,0,6,1,-1,1,6,7,-1,4,8,5,-1,5,8,9,-1,5,9,10,-1,10,9,11,-1,10,11,12,-1,12,13,10,-1,10,13,2,-1,10,2,14,-1,14,2,3,-1,14,3,15,-1,10,14,16,-1,16,14,17,-1,5,10,18,-1,18,10,16,-1,19,6,20,-1,20,6,5,-1,20,5,18,-1,7,6,21,-1,21,6,19,-1,1,7,22,-1,22,7,21,-1,23,3,24,-1,24,3,1,-1,24,1,22,-1,15,3,25,-1,25,3,23,-1,14,15,17,-1,17,15,25,-1,0,2,26,-1,26,2,27,-1,2,13,27,-1,27,13,28,-1,11,29,30,-1,11,30,12,-1,12,30,28,-1,12,28,13,-1,11,9,29,-1,29,9,31,-1,4,32,33,-1,4,33,8,-1,8,33,31,-1,8,31,9,-1,4,0,32,-1,32,0,26,-1,
        ]
    }
}
Shape{
    appearance Appearance {
        material  Material 	{
            diffuseColor 0.25098039215686274 0.25098039215686274 0.25098039215686274
            specularColor 0.12549019607843137 0.12549019607843137 0.12549019607843137
            ambientIntensity 0.251
            transparency 0.0
            shininess 0.5
        }
    }
    geometry IndexedFaceSet {
        ccw TRUE
        solid FALSE
        coord DEF co Coordinate {
            point [
                -1.7376 0.4921 0.642, -1.7374 0.4921 0.642, -1.7381 0.4921 0.6391, -1.7369 0.4921 0.6393, -1.7386 0.4921 0.6373, -1.7363 0.4921 0.6373, -1.7487 0.4921 0.6096, -1.7263 0.4921 0.6096
            ]
        }
        coordIndex [
            0,1,2,-1,2,1,3,-1,2,3,4,-1,4,3,5,-1,4,5,6,-1,6,5,7,-1,
        ]
    }
}
Shape{
    appearance Appearance {
        material  Material 	{
            diffuseColor 1.0 1.0 1.0
            specularColor 0.5019607843137255 0.5019607843137255 0.5019607843137255
            ambientIntensity 1.0
            transparency 0.0
            shininess 0.5
        }
    }
    geometry IndexedFaceSet {
        ccw TRUE
        solid FALSE
        coord DEF co Coordinate {
            point [
                -1.5358 0.4961 0.4855, -1.5358 0.4961 0.4779, -1.5358 0.4921 0.4855, -1.5358 0.4921 0.4779, -1.5085 0.4961 0.4855, -1.5085 0.4921 0.4855, -1.5085 0.4961 0.508, -1.5085 0.4921 0.508, -1.5324 0.4961 0.508, -1.5324 0.4921 0.508, -1.5324 0.4961 0.5156, -1.5324 0.4921 0.5156, -1.5085 0.4961 0.5156, -1.5085 0.4921 0.5156, -1.5085 0.4961 0.537, -1.5085 0.4921 0.537, -1.5343 0.4961 0.537, -1.5343 0.4921 0.537, -1.5343 0.4961 0.5446, -1.5343 0.4921 0.5446, -1.4999 0.4961 0.5446, -1.4999 0.4921 0.5446, -1.4999 0.4961 0.4779, -1.4999 0.4921 0.4779, -1.5737 0.4961 0.4779, -1.5821 0.4961 0.4779, -1.5737 0.4961 0.4853, -1.5821 0.4961 0.5086, -1.5626 0.4961 0.5003, -1.5737 0.4961 0.5018, -1.5737 0.4961 0.4973, -1.5735 0.4961 0.4853, -1.5691 0.4961 0.4865, -1.5713 0.4961 0.4822, -1.5667 0.4961 0.4849, -1.5499 0.4961 0.503, -1.5473 0.4961 0.5008, -1.5535 0.4961 0.4962, -1.5737 0.4961 0.4967, -1.5732 0.4961 0.493, -1.572 0.4961 0.49, -1.5702 0.4961 0.4875, -1.5485 0.4961 0.5222, -1.5485 0.4961 0.5141, -1.5502 0.4961 0.5232, -1.5534 0.4961 0.5173, -1.5564 0.4961 0.5256, -1.5586 0.4961 0.5192, -1.5649 0.4961 0.5267, -1.5641 0.4961 0.5199, -1.5701 0.4961 0.5262, -1.5669 0.4961 0.5196, -1.5735 0.4961 0.5251, -1.5689 0.4961 0.5189, -1.5763 0.4961 0.5235, -1.5703 0.4961 0.518, -1.5785 0.4961 0.5213, -1.5716 0.4961 0.5166, -1.5802 0.4961 0.5186, -1.5726 0.4961 0.5149, -1.5815 0.4961 0.5147, -1.5734 0.4961 0.5119, -1.5737 0.4961 0.5082, -1.5528 0.4961 0.4946, -1.5456 0.4961 0.4984, -1.5524 0.4961 0.4927, -1.5596 0.4961 0.5062, -1.5555 0.4961 0.4982, -1.5574 0.4961 0.4991, -1.554 0.4961 0.4865, -1.5479 0.4961 0.4805, -1.5547 0.4961 0.4858, -1.5507 0.4961 0.4786, -1.5564 0.4961 0.4847, -1.5539 0.4961 0.4774, -1.5583 0.4961 0.484, -1.5589 0.4961 0.4768, -1.5611 0.4961 0.4837, -1.5637 0.4961 0.4774, -1.5642 0.4961 0.484, -1.567 0.4961 0.4787, -1.5686 0.4961 0.4797, -1.5545 0.4961 0.4974, -1.5536 0.4961 0.5048, -1.5444 0.4961 0.4955, -1.5438 0.4961 0.4919, -1.5523 0.4961 0.4914, -1.5438 0.4961 0.4907, -1.5525 0.4961 0.4894, -1.5442 0.4961 0.4869, -1.553 0.4961 0.4879, -1.5452 0.4961 0.484, -1.547 0.4961 0.4815, -1.5649 0.4921 0.5267, -1.5564 0.4921 0.5256, -1.5502 0.4921 0.5232, -1.5485 0.4921 0.5222, -1.5485 0.4921 0.5141, -1.5534 0.4921 0.5173, -1.5586 0.4921 0.5192, -1.5641 0.4921 0.5199, -1.5669 0.4921 0.5196, -1.5689 0.4921 0.5189, -1.5703 0.4921 0.518, -1.5716 0.4921 0.5166, -1.5726 0.4921 0.5149, -1.5734 0.4921 0.5119, -1.5737 0.4921 0.5082, -1.5596 0.4921 0.5062, -1.5536 0.4921 0.5048, -1.5499 0.4921 0.503, -1.5473 0.4921 0.5008, -1.5456 0.4921 0.4984, -1.5444 0.4921 0.4955, -1.5438 0.4921 0.4919, -1.5438 0.4921 0.4907, -1.5442 0.4921 0.4869, -1.5452 0.4921 0.484, -1.547 0.4921 0.4815, -1.5479 0.4921 0.4805, -1.5589 0.4921 0.4768, -1.5541 0.4921 0.4774, -1.5539 0.4921 0.4774, -1.5507 0.4921 0.4786, -1.5635 0.4921 0.4774, -1.5637 0.4921 0.4774, -1.567 0.4921 0.4787, -1.5686 0.4921 0.4797, -1.5713 0.4921 0.4822, -1.5735 0.4921 0.4853, -1.5737 0.4921 0.4853, -1.5737 0.4921 0.4779, -1.5821 0.4921 0.4779, -1.5821 0.4921 0.5086, -1.5815 0.4921 0.5147, -1.5802 0.4921 0.5186, -1.5785 0.4921 0.5213, -1.5763 0.4921 0.5235, -1.5735 0.4921 0.5251, -1.5701 0.4921 0.5262, -1.5545 0.4921 0.4974, -1.5555 0.4921 0.4982, -1.5574 0.4921 0.4991, -1.5626 0.4921 0.5003, -1.5523 0.4921 0.4914, -1.5524 0.4921 0.4927, -1.5528 0.4921 0.4946, -1.5535 0.4921 0.4962, -1.5547 0.4921 0.4858, -1.554 0.4921 0.4865, -1.553 0.4921 0.4879, -1.5525 0.4921 0.4894, -1.5611 0.4921 0.4837, -1.5583 0.4921 0.484, -1.5564 0.4921 0.4847, -1.5702 0.4921 0.4875, -1.5691 0.4921 0.4865, -1.5667 0.4921 0.4849, -1.5642 0.4921 0.484, -1.5737 0.4921 0.4973, -1.5737 0.4921 0.4967, -1.5732 0.4921 0.493, -1.572 0.4921 0.49, -1.5737 0.4921 0.5018
            ]
        }
        coordIndex [
            0,1,2,-1,2,1,3,-1,4,0,5,-1,5,0,2,-1,6,4,7,-1,7,4,5,-1,8,6,9,-1,9,6,7,-1,10,8,11,-1,11,8,9,-1,12,10,13,-1,13,10,11,-1,14,12,15,-1,15,12,13,-1,16,14,17,-1,17,14,15,-1,18,16,19,-1,19,16,17,-1,20,18,21,-1,21,18,19,-1,22,20,23,-1,23,20,21,-1,1,22,3,-1,3,22,23,-1,22,1,0,-1,0,4,22,-1,22,4,6,-1,22,6,20,-1,16,18,14,-1,14,18,20,-1,14,20,12,-1,12,20,6,-1,12,6,10,-1,10,6,8,-1,24,25,26,-1,26,25,27,-1,28,29,27,-1,27,29,30,-1,31,32,33,-1,33,32,34,-1,35,36,37,-1,30,38,27,-1,27,38,39,-1,27,39,26,-1,26,39,40,-1,26,40,31,-1,31,40,41,-1,31,41,32,-1,42,43,44,-1,44,43,45,-1,44,45,46,-1,46,45,47,-1,46,47,48,-1,48,47,49,-1,48,49,50,-1,50,49,51,-1,50,51,52,-1,52,51,53,-1,52,53,54,-1,54,53,55,-1,54,55,56,-1,56,55,57,-1,56,57,58,-1,58,57,59,-1,58,59,60,-1,60,59,61,-1,60,61,27,-1,27,61,62,-1,27,62,28,-1,37,36,63,-1,63,36,64,-1,63,64,65,-1,66,67,62,-1,62,67,68,-1,62,68,28,-1,69,70,71,-1,71,70,72,-1,71,72,73,-1,73,72,74,-1,73,74,75,-1,75,74,76,-1,75,76,77,-1,77,76,78,-1,77,78,79,-1,79,78,80,-1,79,80,34,-1,34,80,81,-1,34,81,33,-1,37,82,35,-1,35,82,67,-1,35,67,83,-1,83,67,66,-1,64,84,65,-1,65,84,85,-1,65,85,86,-1,86,85,87,-1,86,87,88,-1,88,87,89,-1,88,89,90,-1,90,89,91,-1,90,91,69,-1,69,91,92,-1,69,92,70,-1,48,93,94,-1,48,94,46,-1,46,94,95,-1,46,95,44,-1,44,95,96,-1,44,96,42,-1,43,42,97,-1,97,42,96,-1,43,97,98,-1,43,98,45,-1,45,98,99,-1,45,99,47,-1,47,99,100,-1,47,100,49,-1,49,100,101,-1,49,101,51,-1,51,101,102,-1,51,102,53,-1,53,102,103,-1,53,103,55,-1,55,103,104,-1,55,104,57,-1,57,104,105,-1,57,105,59,-1,59,105,106,-1,59,106,61,-1,61,106,107,-1,61,107,62,-1,66,62,108,-1,108,62,107,-1,66,108,109,-1,66,109,83,-1,83,109,110,-1,83,110,35,-1,35,110,111,-1,35,111,36,-1,36,111,112,-1,36,112,64,-1,64,112,113,-1,64,113,84,-1,84,113,114,-1,84,114,85,-1,85,114,115,-1,85,115,87,-1,87,115,116,-1,87,116,89,-1,89,116,117,-1,89,117,91,-1,91,117,118,-1,91,118,92,-1,92,118,119,-1,92,119,70,-1,120,76,121,-1,121,76,74,-1,121,74,122,-1,122,74,72,-1,122,72,123,-1,123,72,70,-1,123,70,119,-1,120,124,76,-1,76,124,78,-1,124,125,78,-1,78,125,126,-1,78,126,80,-1,80,126,127,-1,80,127,81,-1,81,127,128,-1,81,128,33,-1,33,128,129,-1,33,129,31,-1,26,31,130,-1,130,31,129,-1,24,26,131,-1,131,26,130,-1,25,24,132,-1,132,24,131,-1,27,25,133,-1,133,25,132,-1,27,133,134,-1,27,134,60,-1,60,134,135,-1,60,135,58,-1,58,135,136,-1,58,136,56,-1,56,136,137,-1,56,137,54,-1,54,137,138,-1,54,138,52,-1,52,138,139,-1,52,139,50,-1,50,139,93,-1,50,93,48,-1,82,140,141,-1,82,141,67,-1,67,141,142,-1,67,142,68,-1,68,142,143,-1,68,143,28,-1,86,144,145,-1,86,145,65,-1,65,145,146,-1,65,146,63,-1,63,146,147,-1,63,147,37,-1,37,147,140,-1,37,140,82,-1,71,148,149,-1,71,149,69,-1,69,149,150,-1,69,150,90,-1,90,150,151,-1,90,151,88,-1,88,151,144,-1,88,144,86,-1,77,152,153,-1,77,153,75,-1,75,153,154,-1,75,154,73,-1,73,154,148,-1,73,148,71,-1,41,155,156,-1,41,156,32,-1,32,156,157,-1,32,157,34,-1,34,157,158,-1,34,158,79,-1,79,158,152,-1,79,152,77,-1,30,159,160,-1,30,160,38,-1,38,160,161,-1,38,161,39,-1,39,161,162,-1,39,162,40,-1,40,162,155,-1,40,155,41,-1,30,29,159,-1,159,29,163,-1,29,28,163,-1,163,28,143,-1,
        ]
    }
}
Shape{
    appearance Appearance {
        material  Material 	{
            diffuseColor 0.25098039215686274 0.25098039215686274 0.25098039215686274
            specularColor 0.12549019607843137 0.12549019607843137 0.12549019607843137
            ambientIntensity 0.251
            transparency 0.0
            shininess 0.5
        }
    }
    geometry IndexedFaceSet {
        ccw TRUE
        solid FALSE
        coord DEF co Coordinate {
            point [
                -1.5737 0.4921 0.4967, -1.5737 0.4921 0.4973, -1.5545 0.4921 0.4974, -1.5737 0.4921 0.5018, -1.5626 0.4921 0.5003, -1.5574 0.4921 0.4991, -1.5555 0.4921 0.4982, -1.5732 0.4921 0.493, -1.5535 0.4921 0.4962, -1.572 0.4921 0.49, -1.554 0.4921 0.4865, -1.5547 0.4921 0.4858, -1.5691 0.4921 0.4865, -1.553 0.4921 0.4879, -1.5667 0.4921 0.4849, -1.5642 0.4921 0.484, -1.5611 0.4921 0.4837, -1.5528 0.4921 0.4946, -1.5524 0.4921 0.4927, -1.5702 0.4921 0.4875, -1.5523 0.4921 0.4914, -1.5525 0.4921 0.4894, -1.5564 0.4921 0.4847, -1.5583 0.4921 0.484
            ]
        }
        coordIndex [
            0,1,2,-1,1,3,4,-1,4,5,1,-1,1,5,6,-1,1,6,2,-1,0,2,7,-1,7,2,8,-1,7,8,9,-1,10,11,12,-1,10,12,13,-1,14,12,15,-1,15,12,16,-1,8,17,9,-1,9,17,18,-1,9,18,19,-1,19,18,20,-1,19,20,12,-1,12,20,21,-1,12,21,13,-1,11,22,12,-1,12,22,23,-1,12,23,16,-1,
        ]
    }
}
Shape{
    appearance Appearance {
        material  Material 	{
            diffuseColor 1.0 1.0 1.0
            specularColor 0.5019607843137255 0.5019607843137255 0.5019607843137255
            ambientIntensity 1.0
            transparency 0.0
            shininess 0.5
        }
    }
    geometry IndexedFaceSet {
        ccw TRUE
        solid FALSE
        coord DEF co Coordinate {
            point [
                -1.5934 0.4921 0.4882, -1.5934 0.4961 0.4882, -1.5968 0.4961 0.4862, -1.6072 0.4961 0.4836, -1.6072 0.4921 0.4836, -1.602 0.4921 0.4842, -1.602 0.4961 0.4842, -1.5973 0.4921 0.486, -1.5968 0.4921 0.4862, -1.5934 0.4961 0.4796, -1.5934 0.4921 0.4796, -1.5973 0.4921 0.4782, -1.5985 0.4961 0.4777, -1.6064 0.4921 0.4768, -1.6064 0.4961 0.4768, -1.6016 0.4921 0.4774, -1.5985 0.4921 0.4777, -1.6138 0.4961 0.4777, -1.6111 0.4921 0.4774, -1.6138 0.4921 0.4777, -1.6182 0.4921 0.4794, -1.6182 0.4961 0.4794, -1.6202 0.4921 0.4806, -1.6202 0.4961 0.4806, -1.6226 0.4921 0.4827, -1.6226 0.4961 0.4827, -1.6242 0.4921 0.4849, -1.6242 0.4961 0.4849, -1.6252 0.4921 0.4875, -1.6252 0.4961 0.4875, -1.6256 0.4921 0.4909, -1.6256 0.4961 0.4909, -1.6253 0.4921 0.494, -1.6253 0.4961 0.494, -1.6244 0.4921 0.4965, -1.6244 0.4961 0.4965, -1.6228 0.4921 0.4988, -1.6228 0.4961 0.4988, -1.6208 0.4921 0.5005, -1.6208 0.4961 0.5005, -1.6153 0.4921 0.5036, -1.6153 0.4961 0.5036, -1.612 0.4921 0.5049, -1.612 0.4961 0.5049, -1.6069 0.4921 0.5072, -1.6069 0.4961 0.5072, -1.6039 0.4921 0.509, -1.6039 0.4961 0.509, -1.6031 0.4921 0.5099, -1.6031 0.4961 0.5099, -1.6025 0.4921 0.5111, -1.6025 0.4961 0.5111, -1.6022 0.4921 0.5124, -1.6022 0.4961 0.5124, -1.6021 0.4921 0.5135, -1.6021 0.4961 0.5135, -1.6022 0.4921 0.5148, -1.6022 0.4961 0.5148, -1.6027 0.4921 0.5159, -1.6027 0.4961 0.5159, -1.6034 0.4921 0.517, -1.6034 0.4961 0.517, -1.6046 0.4921 0.5181, -1.6046 0.4961 0.5181, -1.6065 0.4921 0.5191, -1.6065 0.4961 0.5191, -1.6087 0.4921 0.5197, -1.6087 0.4961 0.5197, -1.6112 0.4921 0.5199, -1.6112 0.4961 0.5199, -1.6166 0.4921 0.5193, -1.6166 0.4961 0.5193, -1.6213 0.4921 0.5176, -1.6213 0.4961 0.5176, -1.6233 0.4921 0.5164, -1.6233 0.4961 0.5164, -1.6233 0.4961 0.5246, -1.6233 0.4921 0.5246, -1.6179 0.4921 0.5261, -1.6179 0.4961 0.5261, -1.612 0.4921 0.5267, -1.612 0.4961 0.5267, -1.6062 0.4921 0.5261, -1.6062 0.4961 0.5261, -1.6015 0.4921 0.5245, -1.6015 0.4961 0.5245, -1.5988 0.4921 0.5229, -1.5988 0.4961 0.5229, -1.5973 0.4921 0.5215, -1.5964 0.4961 0.5207, -1.5964 0.4921 0.5207, -1.5948 0.4921 0.5184, -1.5948 0.4961 0.5184, -1.5938 0.4921 0.5157, -1.5938 0.4961 0.5157, -1.5935 0.4921 0.5127, -1.5935 0.4961 0.5127, -1.5938 0.4921 0.5095, -1.5938 0.4961 0.5095, -1.5948 0.4921 0.5069, -1.5948 0.4961 0.5069, -1.5958 0.4921 0.5052, -1.5958 0.4961 0.5052, -1.6061 0.4921 0.4989, -1.6061 0.4961 0.4989, -1.6011 0.4961 0.5012, -1.5972 0.4921 0.5037, -1.5972 0.4961 0.5037, -1.5973 0.4921 0.5037, -1.6011 0.4921 0.5012, -1.6116 0.4921 0.4966, -1.6116 0.4961 0.4966, -1.6149 0.4921 0.4946, -1.6149 0.4961 0.4946, -1.6159 0.4921 0.4935, -1.6159 0.4961 0.4935, -1.6166 0.4921 0.4924, -1.6166 0.4961 0.4924, -1.6169 0.4921 0.4911, -1.6169 0.4961 0.4911, -1.617 0.4921 0.4901, -1.617 0.4961 0.4901, -1.6169 0.4921 0.4885, -1.6169 0.4961 0.4885, -1.6164 0.4921 0.4873, -1.6164 0.4961 0.4873, -1.6157 0.4921 0.4862, -1.6157 0.4961 0.4862, -1.6147 0.4921 0.4854, -1.6147 0.4961 0.4854, -1.614 0.4921 0.4849, -1.614 0.4961 0.4849, -1.6118 0.4921 0.4841, -1.6118 0.4961 0.4841, -1.6075 0.4921 0.4836, -1.6075 0.4961 0.4836, -1.667 0.4961 0.5256, -1.6757 0.4961 0.5256, -1.667 0.4921 0.5256, -1.6757 0.4921 0.5256, -1.654 0.4961 0.4897, -1.654 0.4921 0.4897, -1.6534 0.4921 0.4875, -1.6534 0.4961 0.4875, -1.653 0.4921 0.4858, -1.653 0.4961 0.4858, -1.6528 0.4961 0.4858, -1.6528 0.4921 0.4858, -1.6518 0.4961 0.4898, -1.6518 0.4921 0.4898, -1.6393 0.4921 0.5256, -1.6393 0.4961 0.5256, -1.6433 0.4921 0.514, -1.63 0.4961 0.5256, -1.63 0.4921 0.5256, -1.6487 0.4921 0.478, -1.6487 0.4961 0.478, -1.6433 0.4921 0.4915, -1.645 0.4921 0.4694, -1.645 0.4961 0.4694, -1.6484 0.4921 0.4774, -1.6433 0.4961 0.4663, -1.6433 0.4921 0.4664, -1.6433 0.4921 0.4663, -1.6418 0.4921 0.4646, -1.6418 0.4961 0.4646, -1.6403 0.4921 0.4636, -1.6403 0.4961 0.4636, -1.6385 0.4921 0.4629, -1.6385 0.4961 0.4629, -1.6364 0.4921 0.4626, -1.6364 0.4961 0.4626, -1.6334 0.4921 0.463, -1.6334 0.4961 0.463, -1.6317 0.4921 0.4636, -1.6317 0.4961 0.4636, -1.6317 0.4961 0.4562, -1.6317 0.4921 0.4562, -1.6352 0.4921 0.4555, -1.6352 0.4961 0.4555, -1.6371 0.4921 0.4555, -1.6371 0.4961 0.4555, -1.6404 0.4921 0.4559, -1.6404 0.4961 0.4559, -1.6433 0.4921 0.457, -1.6437 0.4961 0.4571, -1.6437 0.4921 0.4571, -1.6467 0.4921 0.4592, -1.6467 0.4961 0.4592, -1.6472 0.4921 0.4597, -1.6472 0.4961 0.4597, -1.6503 0.4921 0.4634, -1.6503 0.4961 0.4634, -1.6541 0.4921 0.4707, -1.6541 0.4961 0.4707, -1.6567 0.4921 0.4774, -1.7206 0.4961 0.4855, -1.7206 0.4961 0.4779, -1.7206 0.4921 0.4855, -1.7206 0.4921 0.4779, -1.6933 0.4921 0.4855, -1.6933 0.4961 0.4855, -1.7058 0.4921 0.4855, -1.6933 0.4961 0.508, -1.6933 0.4921 0.508, -1.7172 0.4961 0.508, -1.7058 0.4921 0.508, -1.7172 0.4921 0.508, -1.7172 0.4961 0.5156, -1.7172 0.4921 0.5156, -1.6933 0.4921 0.5156, -1.6933 0.4961 0.5156, -1.7058 0.4921 0.5156, -1.6933 0.4961 0.537, -1.6933 0.4921 0.537, -1.7191 0.4921 0.537, -1.7191 0.4961 0.537, -1.7058 0.4921 0.537, -1.7191 0.4961 0.5446, -1.7191 0.4921 0.5446, -1.6847 0.4921 0.5446, -1.6847 0.4961 0.5446, -1.7058 0.4921 0.5446, -1.6847 0.4961 0.4779, -1.6847 0.4921 0.4779, -1.7058 0.4921 0.4779, -1.7775 0.4961 0.4873, -1.7706 0.4961 0.4918, -1.7705 0.4961 0.4823, -1.7662 0.4961 0.4888, -1.7629 0.4961 0.4793, -1.7607 0.4961 0.4866, -1.7516 0.4961 0.4779, -1.7515 0.4961 0.4855, -1.7332 0.4961 0.4779, -1.7418 0.4961 0.4855, -1.7332 0.4961 0.5446, -1.7418 0.4961 0.537, -1.7522 0.4961 0.5446, -1.7519 0.4961 0.537, -1.7526 0.4961 0.537, -1.7624 0.4961 0.5435, -1.7611 0.4961 0.5359, -1.7705 0.4961 0.5406, -1.7668 0.4961 0.5337, -1.7775 0.4961 0.5358, -1.7711 0.4961 0.5307, -1.7798 0.4961 0.5335, -1.773 0.4961 0.5289, -1.7839 0.4961 0.5277, -1.7756 0.4961 0.5251, -1.7864 0.4961 0.5213, -1.7775 0.4961 0.5202, -1.7875 0.4961 0.5121, -1.7785 0.4961 0.5119, -1.7873 0.4961 0.5079, -1.7782 0.4961 0.5073, -1.7857 0.4961 0.5001, -1.7769 0.4961 0.5013, -1.7824 0.4961 0.4932, -1.7745 0.4961 0.4964, -1.7713 0.4961 0.4925, -1.7516 0.4921 0.4779, -1.7332 0.4921 0.4779, -1.7629 0.4921 0.4793, -1.7705 0.4921 0.4823, -1.7775 0.4921 0.4873, -1.7824 0.4921 0.4932, -1.7857 0.4921 0.5001, -1.7873 0.4921 0.5079, -1.7875 0.4921 0.5121, -1.7864 0.4921 0.5213, -1.7839 0.4921 0.5277, -1.7798 0.4921 0.5335, -1.7775 0.4921 0.5358, -1.7705 0.4921 0.5406, -1.7624 0.4921 0.5435, -1.7522 0.4921 0.5446, -1.7332 0.4921 0.5446, -1.7519 0.4921 0.537, -1.7418 0.4921 0.537, -1.7418 0.4921 0.4855, -1.7515 0.4921 0.4855, -1.7713 0.4921 0.4925, -1.7706 0.4921 0.4918, -1.7662 0.4921 0.4888, -1.7607 0.4921 0.4866, -1.7785 0.4921 0.5119, -1.7782 0.4921 0.5073, -1.7769 0.4921 0.5013, -1.7745 0.4921 0.4964, -1.7711 0.4921 0.5307, -1.773 0.4921 0.5289, -1.7756 0.4921 0.5251, -1.7775 0.4921 0.5202, -1.7526 0.4921 0.537, -1.7611 0.4921 0.5359, -1.7668 0.4921 0.5337
            ]
        }
        coordIndex [
            0,1,2,-1,3,4,5,-1,3,5,6,-1,6,5,7,-1,6,7,2,-1,2,7,8,-1,2,8,0,-1,9,1,10,-1,10,1,0,-1,10,11,9,-1,9,11,12,-1,13,14,15,-1,15,14,12,-1,15,12,16,-1,16,12,11,-1,14,13,17,-1,17,13,18,-1,18,19,17,-1,17,19,20,-1,17,20,21,-1,21,20,22,-1,21,22,23,-1,23,22,24,-1,23,24,25,-1,25,24,26,-1,25,26,27,-1,27,26,28,-1,27,28,29,-1,29,28,30,-1,29,30,31,-1,31,30,32,-1,31,32,33,-1,33,32,34,-1,33,34,35,-1,35,34,36,-1,35,36,37,-1,37,36,38,-1,37,38,39,-1,39,38,40,-1,39,40,41,-1,41,40,42,-1,41,42,43,-1,43,42,44,-1,43,44,45,-1,45,44,46,-1,45,46,47,-1,47,46,48,-1,47,48,49,-1,49,48,50,-1,49,50,51,-1,51,50,52,-1,51,52,53,-1,53,52,54,-1,53,54,55,-1,55,54,56,-1,55,56,57,-1,57,56,58,-1,57,58,59,-1,59,58,60,-1,59,60,61,-1,61,60,62,-1,61,62,63,-1,63,62,64,-1,63,64,65,-1,65,64,66,-1,65,66,67,-1,67,66,68,-1,67,68,69,-1,69,68,70,-1,69,70,71,-1,71,70,72,-1,71,72,73,-1,73,72,74,-1,73,74,75,-1,76,75,77,-1,77,75,74,-1,76,77,78,-1,76,78,79,-1,79,78,80,-1,79,80,81,-1,81,80,82,-1,81,82,83,-1,83,82,84,-1,83,84,85,-1,85,84,86,-1,85,86,87,-1,86,88,87,-1,87,88,89,-1,88,90,89,-1,89,90,91,-1,89,91,92,-1,92,91,93,-1,92,93,94,-1,94,93,95,-1,94,95,96,-1,96,95,97,-1,96,97,98,-1,98,97,99,-1,98,99,100,-1,100,99,101,-1,100,101,102,-1,103,104,105,-1,102,101,106,-1,102,106,107,-1,107,106,108,-1,107,108,105,-1,105,108,109,-1,105,109,103,-1,104,103,110,-1,104,110,111,-1,111,110,112,-1,111,112,113,-1,113,112,114,-1,113,114,115,-1,115,114,116,-1,115,116,117,-1,117,116,118,-1,117,118,119,-1,119,118,120,-1,119,120,121,-1,121,120,122,-1,121,122,123,-1,123,122,124,-1,123,124,125,-1,125,124,126,-1,125,126,127,-1,127,126,128,-1,127,128,129,-1,129,128,130,-1,129,130,131,-1,131,130,132,-1,131,132,133,-1,133,132,134,-1,133,134,135,-1,135,134,4,-1,135,4,3,-1,61,63,85,-1,85,63,83,-1,111,43,104,-1,104,43,45,-1,21,23,127,-1,127,23,25,-1,127,25,125,-1,125,25,27,-1,125,27,123,-1,123,27,29,-1,123,29,121,-1,121,29,31,-1,121,31,119,-1,119,31,33,-1,119,33,117,-1,117,33,35,-1,117,35,115,-1,115,35,37,-1,115,37,113,-1,113,37,39,-1,113,39,111,-1,111,39,41,-1,111,41,43,-1,14,3,12,-1,12,3,6,-1,12,6,9,-1,9,6,2,-1,9,2,1,-1,63,65,83,-1,83,65,67,-1,83,67,81,-1,81,67,69,-1,81,69,79,-1,79,69,71,-1,79,71,76,-1,76,71,73,-1,76,73,75,-1,127,129,21,-1,21,129,131,-1,21,131,17,-1,17,131,133,-1,17,133,14,-1,14,133,135,-1,14,135,3,-1,85,87,61,-1,61,87,89,-1,61,89,59,-1,59,89,92,-1,59,92,57,-1,57,92,94,-1,57,94,55,-1,55,94,96,-1,55,96,53,-1,53,96,98,-1,53,98,51,-1,51,98,100,-1,51,100,49,-1,49,100,102,-1,49,102,47,-1,47,102,107,-1,47,107,45,-1,45,107,105,-1,45,105,104,-1,136,137,138,-1,138,137,139,-1,140,136,141,-1,141,136,138,-1,140,141,142,-1,140,142,143,-1,143,142,144,-1,143,144,145,-1,146,145,147,-1,147,145,144,-1,148,146,149,-1,149,146,147,-1,150,151,152,-1,152,151,148,-1,152,148,149,-1,153,151,154,-1,154,151,150,-1,155,156,157,-1,157,156,153,-1,157,153,154,-1,158,159,160,-1,160,159,156,-1,160,156,155,-1,159,158,161,-1,161,158,162,-1,162,163,161,-1,161,163,164,-1,161,164,165,-1,165,164,166,-1,165,166,167,-1,167,166,168,-1,167,168,169,-1,169,168,170,-1,169,170,171,-1,171,170,172,-1,171,172,173,-1,173,172,174,-1,173,174,175,-1,176,175,177,-1,177,175,174,-1,176,177,178,-1,176,178,179,-1,179,178,180,-1,179,180,181,-1,181,180,182,-1,181,182,183,-1,183,182,184,-1,183,184,185,-1,184,186,185,-1,185,186,187,-1,185,187,188,-1,188,187,189,-1,188,189,190,-1,190,189,191,-1,190,191,192,-1,192,191,193,-1,192,193,194,-1,139,137,195,-1,195,137,194,-1,195,194,193,-1,143,145,194,-1,137,136,194,-1,194,136,140,-1,194,140,143,-1,151,153,148,-1,148,153,156,-1,148,156,146,-1,175,176,173,-1,173,176,179,-1,173,179,171,-1,171,179,181,-1,171,181,169,-1,169,181,183,-1,169,183,167,-1,167,183,185,-1,167,185,165,-1,145,146,194,-1,194,146,156,-1,194,156,192,-1,156,159,192,-1,192,159,161,-1,192,161,190,-1,190,161,165,-1,190,165,188,-1,188,165,185,-1,196,197,198,-1,198,197,199,-1,200,201,202,-1,202,201,196,-1,202,196,198,-1,203,201,204,-1,204,201,200,-1,203,204,205,-1,205,204,206,-1,205,206,207,-1,208,205,209,-1,209,205,207,-1,210,211,212,-1,212,211,208,-1,212,208,209,-1,213,211,214,-1,214,211,210,-1,215,216,217,-1,217,216,213,-1,217,213,214,-1,218,216,219,-1,219,216,215,-1,220,221,222,-1,222,221,218,-1,222,218,219,-1,223,221,224,-1,224,221,220,-1,199,197,225,-1,225,197,223,-1,225,223,224,-1,223,197,196,-1,196,201,223,-1,223,201,203,-1,223,203,221,-1,216,218,213,-1,213,218,221,-1,213,221,211,-1,211,221,203,-1,211,203,208,-1,208,203,205,-1,226,227,228,-1,228,227,229,-1,228,229,230,-1,230,229,231,-1,230,231,232,-1,232,231,233,-1,232,233,234,-1,234,233,235,-1,234,235,236,-1,236,235,237,-1,236,237,238,-1,237,239,238,-1,238,239,240,-1,238,240,241,-1,241,240,242,-1,241,242,243,-1,243,242,244,-1,243,244,245,-1,245,244,246,-1,245,246,247,-1,247,246,248,-1,247,248,249,-1,249,248,250,-1,249,250,251,-1,251,250,252,-1,251,252,253,-1,253,252,254,-1,253,254,255,-1,255,254,256,-1,255,256,257,-1,257,256,258,-1,257,258,259,-1,259,258,260,-1,259,260,226,-1,226,260,261,-1,226,261,227,-1,232,234,262,-1,262,234,263,-1,232,262,264,-1,232,264,230,-1,230,264,265,-1,230,265,228,-1,228,265,266,-1,228,266,226,-1,226,266,267,-1,226,267,259,-1,259,267,268,-1,259,268,257,-1,257,268,269,-1,257,269,255,-1,255,269,270,-1,255,270,253,-1,253,270,271,-1,253,271,251,-1,251,271,272,-1,251,272,249,-1,249,272,273,-1,249,273,247,-1,247,273,274,-1,247,274,245,-1,245,274,275,-1,245,275,243,-1,243,275,276,-1,243,276,241,-1,241,276,277,-1,241,277,238,-1,236,238,278,-1,278,238,277,-1,234,236,263,-1,263,236,278,-1,239,237,279,-1,279,237,280,-1,237,235,280,-1,280,235,281,-1,235,233,281,-1,281,233,282,-1,261,283,284,-1,261,284,227,-1,227,284,285,-1,227,285,229,-1,229,285,286,-1,229,286,231,-1,231,286,282,-1,231,282,233,-1,254,287,288,-1,254,288,256,-1,256,288,289,-1,256,289,258,-1,258,289,290,-1,258,290,260,-1,260,290,283,-1,260,283,261,-1,246,291,292,-1,246,292,248,-1,248,292,293,-1,248,293,250,-1,250,293,294,-1,250,294,252,-1,252,294,287,-1,252,287,254,-1,239,279,295,-1,239,295,240,-1,240,295,296,-1,240,296,242,-1,242,296,297,-1,242,297,244,-1,244,297,291,-1,244,291,246,-1,
        ]
    }
}
Shape{
    appearance Appearance {
        material  Material 	{
            diffuseColor 0.25098039215686274 0.25098039215686274 0.25098039215686274
            specularColor 0.12549019607843137 0.12549019607843137 0.12549019607843137
            ambientIntensity 0.251
            transparency 0.0
            shininess 0.5
        }
    }
    geometry IndexedFaceSet {
        ccw TRUE
        solid FALSE
        coord DEF co Coordinate {
            point [
                -1.7662 0.4921 0.4888, -1.7706 0.4921 0.4918, -1.7526 0.4921 0.537, -1.7418 0.4921 0.537, -1.7418 0.4921 0.4855, -1.7519 0.4921 0.537, -1.7515 0.4921 0.4855, -1.7607 0.4921 0.4866, -1.7713 0.4921 0.4925, -1.7745 0.4921 0.4964, -1.7769 0.4921 0.5013, -1.7785 0.4921 0.5119, -1.7711 0.4921 0.5307, -1.7668 0.4921 0.5337, -1.7775 0.4921 0.5202, -1.7756 0.4921 0.5251, -1.773 0.4921 0.5289, -1.7782 0.4921 0.5073, -1.7611 0.4921 0.5359
            ]
        }
        coordIndex [
            0,1,2,-1,3,4,5,-1,5,4,6,-1,5,6,2,-1,2,6,7,-1,2,7,0,-1,1,8,2,-1,2,8,9,-1,2,9,10,-1,11,12,13,-1,14,15,11,-1,11,15,16,-1,11,16,12,-1,10,17,2,-1,2,17,11,-1,2,11,18,-1,18,11,13,-1,
        ]
    }
}
Shape{
    appearance Appearance {
        material  Material 	{
            diffuseColor 1.0 1.0 1.0
            specularColor 0.5019607843137255 0.5019607843137255 0.5019607843137255
            ambientIntensity 1.0
            transparency 0.0
            shininess 0.5
        }
    }
    geometry IndexedFaceSet {
        ccw TRUE
        solid FALSE
        coord DEF co Coordinate {
            point [
                -1.8099 0.4961 0.5037, -1.8072 0.4961 0.4962, -1.8323 0.4961 0.5037, -1.8349 0.4961 0.4962, -1.8199 0.4961 0.5314, -1.8166 0.4961 0.5446, -1.7912 0.4961 0.4779, -1.8007 0.4961 0.4779, -1.8204 0.4961 0.5334, -1.821 0.4961 0.5361, -1.8258 0.4961 0.5446, -1.8212 0.4961 0.5361, -1.8217 0.4961 0.5333, -1.8222 0.4961 0.5314, -1.8513 0.4961 0.4779, -1.8417 0.4961 0.4779, -1.8258 0.4921 0.5446, -1.8513 0.4921 0.4779, -1.8166 0.4921 0.5446, -1.7912 0.4921 0.4779, -1.8007 0.4921 0.4779, -1.8072 0.4921 0.4962, -1.8349 0.4921 0.4962, -1.8417 0.4921 0.4779, -1.8099 0.4921 0.5037, -1.8323 0.4921 0.5037, -1.8222 0.4921 0.5314, -1.8212 0.4921 0.5361, -1.8217 0.4921 0.5333, -1.821 0.4921 0.5361, -1.8199 0.4921 0.5314, -1.8204 0.4921 0.5334
            ]
        }
        coordIndex [
            0,1,2,-1,2,1,3,-1,4,5,0,-1,0,5,6,-1,0,6,1,-1,1,6,7,-1,4,8,5,-1,5,8,9,-1,5,9,10,-1,10,9,11,-1,10,11,12,-1,12,13,10,-1,10,13,2,-1,10,2,14,-1,14,2,3,-1,14,3,15,-1,10,14,16,-1,16,14,17,-1,5,10,18,-1,18,10,16,-1,6,5,19,-1,19,5,18,-1,7,6,20,-1,20,6,19,-1,1,7,21,-1,21,7,20,-1,3,1,22,-1,22,1,21,-1,15,3,23,-1,23,3,22,-1,14,15,17,-1,17,15,23,-1,0,2,24,-1,24,2,25,-1,2,13,25,-1,25,13,26,-1,11,27,28,-1,11,28,12,-1,12,28,26,-1,12,26,13,-1,11,9,27,-1,27,9,29,-1,4,30,31,-1,4,31,8,-1,8,31,29,-1,8,29,9,-1,4,0,30,-1,30,0,24,-1,
        ]
    }
}
Shape{
    appearance Appearance {
        material  Material 	{
            diffuseColor 0.25098039215686274 0.25098039215686274 0.25098039215686274
            specularColor 0.12549019607843137 0.12549019607843137 0.12549019607843137
            ambientIntensity 0.251
            transparency 0.0
            shininess 0.5
        }
    }
    geometry IndexedFaceSet {
        ccw TRUE
        solid FALSE
        coord DEF co Coordinate {
            point [
                -1.8212 0.4921 0.5361, -1.821 0.4921 0.5361, -1.8217 0.4921 0.5333, -1.8204 0.4921 0.5334, -1.8222 0.4921 0.5314, -1.8199 0.4921 0.5314, -1.8323 0.4921 0.5037, -1.8099 0.4921 0.5037
            ]
        }
        coordIndex [
            0,1,2,-1,2,1,3,-1,2,3,4,-1,4,3,5,-1,4,5,6,-1,6,5,7,-1,
        ]
    }
}
Shape{
    appearance Appearance {
        material  Material 	{
            diffuseColor 1.0 1.0 1.0
            specularColor 0.5019607843137255 0.5019607843137255 0.5019607843137255
            ambientIntensity 1.0
            transparency 0.0
            shininess 0.5
        }
    }
    geometry IndexedFaceSet {
        ccw TRUE
        solid FALSE
        coord DEF co Coordinate {
            point [
                -1.2052 0.4961 0.4685, -1.2123 0.4961 0.4598, -1.201 0.4961 0.5104, -1.1927 0.4961 0.5929, -1.2033 0.4961 0.5985, -1.2008 0.4961 0.6277, -1.2304 0.4961 0.629, -1.2451 0.4961 0.5944, -1.2523 0.4961 0.6094, -1.293 0.4961 0.4938, -1.293 0.4961 0.4986, -1.2528 0.4961 0.5102, -1.2483 0.4961 0.5116, -1.1906 0.4961 0.5168, -1.1945 0.4961 0.4804, -1.2005 0.4961 0.4786, -1.2195 0.4961 0.63, -1.2599 0.4961 0.5044, -1.2621 0.4961 0.5006, -1.2927 0.4961 0.4889, -1.3594 0.4961 0.5337, -1.3447 0.4961 0.5588, -1.2811 0.4961 0.5256, -1.2451 0.4961 0.5118, -1.2406 0.4961 0.5113, -1.2342 0.4961 0.5403, -1.2364 0.4961 0.5097, -1.2237 0.4961 0.5363, -1.2327 0.4961 0.5071, -1.214 0.4961 0.5296, -1.2304 0.4961 0.5046, -1.2062 0.4961 0.5206, -1.2281 0.4961 0.5007, -1.2268 0.4961 0.4962, -1.2267 0.4961 0.4915, -1.2628 0.4961 0.5385, -1.2513 0.4961 0.5414, -1.2455 0.4961 0.5417, -1.2567 0.4961 0.5077, -1.3751 0.4961 0.5806, -1.3789 0.4961 0.5806, -1.3983 0.4961 0.6063, -1.3879 0.4961 0.5795, -1.4006 0.4961 0.6055, -1.3962 0.4961 0.5763, -1.4148 0.4961 0.5985, -1.4276 0.4961 0.5876, -1.2401 0.4961 0.6404, -1.263 0.4961 0.6221, -1.2512 0.4961 0.6499, -1.2757 0.4961 0.6314, -1.2647 0.4961 0.6581, -1.215 0.4961 0.6013, -1.2199 0.4961 0.6015, -1.2249 0.4961 0.6297, -1.231 0.4961 0.6001, -1.2417 0.4961 0.5962, -1.2276 0.4961 0.4871, -1.2296 0.4961 0.4832, -1.2728 0.4961 0.5332, -1.4277 0.4961 0.499, -1.4056 0.4961 0.5179, -1.4148 0.4961 0.4881, -1.3986 0.4961 0.5121, -1.4003 0.4961 0.481, -1.3902 0.4961 0.5083, -1.3845 0.4961 0.4777, -1.3817 0.4961 0.5066, -1.3566 0.4961 0.4777, -1.3604 0.4961 0.5066, -1.3539 0.4961 0.4781, -1.4035 0.4961 0.5712, -1.409 0.4961 0.5651, -1.4373 0.4961 0.5741, -1.4134 0.4961 0.5569, -1.4431 0.4961 0.5596, -1.4156 0.4961 0.5478, -1.4453 0.4961 0.5441, -1.4159 0.4961 0.5436, -1.4431 0.4961 0.5272, -1.4147 0.4961 0.5344, -1.4371 0.4961 0.5122, -1.4115 0.4961 0.5259, -1.4062 0.4961 0.5185, -1.3727 0.4961 0.6437, -1.3541 0.4961 0.6219, -1.3891 0.4961 0.6245, -1.3648 0.4961 0.6091, -1.3722 0.4961 0.5938, -1.1739 0.4961 0.5656, -1.1427 0.4961 0.5577, -1.1725 0.4961 0.5541, -1.1426 0.4961 0.5531, -1.1731 0.4961 0.5468, -1.1449 0.4961 0.5346, -1.1765 0.4961 0.5352, -1.1517 0.4961 0.5169, -1.1821 0.4961 0.5255, -1.1625 0.4961 0.5014, -1.1773 0.4961 0.4888, -1.2868 0.4961 0.666, -1.2912 0.4961 0.6377, -1.3082 0.4961 0.6684, -1.3086 0.4961 0.6399, -1.3306 0.4961 0.6657, -1.3247 0.4961 0.638, -1.3542 0.4961 0.6566, -1.3396 0.4961 0.6323, -1.3529 0.4961 0.623, -1.1832 0.4961 0.6208, -1.1681 0.4961 0.6102, -1.1845 0.4961 0.5856, -1.1649 0.4961 0.6072, -1.178 0.4961 0.5761, -1.1535 0.4961 0.5926, -1.1459 0.4961 0.5755, -1.2633 0.4961 0.4963, -1.2635 0.4961 0.4917, -1.29 0.4961 0.4772, -1.2625 0.4961 0.4871, -1.2843 0.4961 0.4666, -1.2604 0.4961 0.483, -1.2771 0.4961 0.4584, -1.2574 0.4961 0.4795, -1.2676 0.4961 0.4519, -1.2537 0.4961 0.477, -1.257 0.4961 0.4478, -1.2496 0.4961 0.4754, -1.2455 0.4961 0.4464, -1.2451 0.4961 0.4748, -1.2437 0.4961 0.4464, -1.2443 0.4961 0.4749, -1.2325 0.4961 0.4482, -1.24 0.4961 0.4756, -1.2216 0.4961 0.4528, -1.2357 0.4961 0.4774, -1.2321 0.4961 0.4802, -1.358 0.4961 0.5071, -1.3466 0.4961 0.4827, -1.3477 0.4961 0.4815, -1.3594 0.4961 0.5068, -1.3507 0.4961 0.4794, -1.3428 0.4961 0.4924, -1.3433 0.4961 0.4889, -1.3445 0.4961 0.4856, -1.3538 0.4961 0.5066, -1.3506 0.4961 0.5053, -1.3429 0.4961 0.4943, -1.3477 0.4961 0.5033, -1.3457 0.4961 0.5011, -1.3439 0.4961 0.4979, -1.3575 0.4961 0.5071, -1.4453 0.4921 0.5441, -1.4431 0.4921 0.5596, -1.4415 0.4921 0.5636, -1.4373 0.4921 0.5741, -1.4276 0.4921 0.5876, -1.4148 0.4921 0.5985, -1.4006 0.4921 0.6055, -1.3983 0.4921 0.6063, -1.3891 0.4921 0.6245, -1.3727 0.4921 0.6437, -1.3621 0.4921 0.6511, -1.3542 0.4921 0.6566, -1.3306 0.4921 0.6657, -1.3082 0.4921 0.6684, -1.2512 0.4921 0.6499, -1.2532 0.4921 0.6511, -1.2647 0.4921 0.6581, -1.2868 0.4921 0.666, -1.2401 0.4921 0.6404, -1.2304 0.4921 0.629, -1.2249 0.4921 0.6297, -1.2195 0.4921 0.63, -1.2008 0.4921 0.6277, -1.1832 0.4921 0.6208, -1.1681 0.4921 0.6102, -1.1649 0.4921 0.6072, -1.1459 0.4921 0.5755, -1.1535 0.4921 0.5926, -1.1438 0.4921 0.5636, -1.1427 0.4921 0.5577, -1.1426 0.4921 0.5531, -1.1449 0.4921 0.5346, -1.1517 0.4921 0.5169, -1.1625 0.4921 0.5014, -1.1773 0.4921 0.4888, -1.1945 0.4921 0.4804, -1.2005 0.4921 0.4786, -1.2011 0.4921 0.4774, -1.2052 0.4921 0.4685, -1.2123 0.4921 0.4598, -1.2216 0.4921 0.4528, -1.2259 0.4921 0.4509, -1.2325 0.4921 0.4482, -1.2437 0.4921 0.4464, -1.2455 0.4921 0.4464, -1.293 0.4921 0.4938, -1.257 0.4921 0.4478, -1.2652 0.4921 0.4509, -1.2676 0.4921 0.4519, -1.2771 0.4921 0.4584, -1.2843 0.4921 0.4666, -1.29 0.4921 0.4772, -1.29 0.4921 0.4774, -1.2927 0.4921 0.4889, -1.293 0.4921 0.4986, -1.3594 0.4921 0.5337, -1.3447 0.4921 0.5588, -1.2811 0.4921 0.5256, -1.2728 0.4921 0.5332, -1.2628 0.4921 0.5385, -1.2513 0.4921 0.5414, -1.2455 0.4921 0.5417, -1.2342 0.4921 0.5403, -1.2237 0.4921 0.5363, -1.214 0.4921 0.5296, -1.2062 0.4921 0.5206, -1.201 0.4921 0.5104, -1.1906 0.4921 0.5168, -1.1821 0.4921 0.5255, -1.1765 0.4921 0.5352, -1.1731 0.4921 0.5468, -1.1725 0.4921 0.5541, -1.1737 0.4921 0.5636, -1.1739 0.4921 0.5656, -1.178 0.4921 0.5761, -1.1845 0.4921 0.5856, -1.1927 0.4921 0.5929, -1.2033 0.4921 0.5985, -1.215 0.4921 0.6013, -1.2199 0.4921 0.6015, -1.231 0.4921 0.6001, -1.2417 0.4921 0.5962, -1.2451 0.4921 0.5944, -1.2523 0.4921 0.6094, -1.263 0.4921 0.6221, -1.2757 0.4921 0.6314, -1.2912 0.4921 0.6377, -1.3086 0.4921 0.6399, -1.3247 0.4921 0.638, -1.3396 0.4921 0.6323, -1.3529 0.4921 0.623, -1.3541 0.4921 0.6219, -1.3648 0.4921 0.6091, -1.3722 0.4921 0.5938, -1.3751 0.4921 0.5806, -1.3789 0.4921 0.5806, -1.3879 0.4921 0.5795, -1.3962 0.4921 0.5763, -1.4035 0.4921 0.5712, -1.409 0.4921 0.5651, -1.4098 0.4921 0.5636, -1.4134 0.4921 0.5569, -1.4156 0.4921 0.5478, -1.4159 0.4921 0.5436, -1.4147 0.4921 0.5344, -1.4115 0.4921 0.5259, -1.4062 0.4921 0.5185, -1.4056 0.4921 0.5179, -1.3986 0.4921 0.5121, -1.3902 0.4921 0.5083, -1.3817 0.4921 0.5066, -1.3604 0.4921 0.5066, -1.3594 0.4921 0.5068, -1.358 0.4921 0.5071, -1.3575 0.4921 0.5071, -1.3538 0.4921 0.5066, -1.3506 0.4921 0.5053, -1.3477 0.4921 0.5033, -1.3457 0.4921 0.5011, -1.3439 0.4921 0.4979, -1.3429 0.4921 0.4943, -1.3428 0.4921 0.4924, -1.3433 0.4921 0.4889, -1.3445 0.4921 0.4856, -1.3466 0.4921 0.4827, -1.3477 0.4921 0.4815, -1.3507 0.4921 0.4794, -1.3539 0.4921 0.4781, -1.3566 0.4921 0.4777, -1.3845 0.4921 0.4777, -1.4003 0.4921 0.481, -1.4148 0.4921 0.4881, -1.4277 0.4921 0.499, -1.4371 0.4921 0.5122, -1.4431 0.4921 0.5272, -1.2451 0.4921 0.5118, -1.2483 0.4921 0.5116, -1.2528 0.4921 0.5102, -1.2567 0.4921 0.5077, -1.2599 0.4921 0.5044, -1.2621 0.4921 0.5006, -1.2633 0.4921 0.4963, -1.2635 0.4921 0.4917, -1.2625 0.4921 0.4871, -1.2604 0.4921 0.483, -1.2574 0.4921 0.4795, -1.2537 0.4921 0.477, -1.2496 0.4921 0.4754, -1.2451 0.4921 0.4748, -1.2443 0.4921 0.4749, -1.24 0.4921 0.4756, -1.2357 0.4921 0.4774, -1.2321 0.4921 0.4802, -1.2296 0.4921 0.4832, -1.2276 0.4921 0.4871, -1.2267 0.4921 0.4915, -1.2268 0.4921 0.4962, -1.2281 0.4921 0.5007, -1.2304 0.4921 0.5046, -1.2327 0.4921 0.5071, -1.2364 0.4921 0.5097, -1.2406 0.4921 0.5113
            ]
        }
        coordIndex [
            0,1,2,-1,3,4,5,-1,6,7,8,-1,9,10,11,-1,11,10,12,-1,13,14,2,-1,2,14,15,-1,2,15,0,-1,5,4,16,-1,17,18,19,-1,20,21,10,-1,10,21,22,-1,10,22,12,-1,12,22,23,-1,24,25,26,-1,26,25,27,-1,26,27,28,-1,28,27,29,-1,28,29,30,-1,30,29,31,-1,30,31,32,-1,32,31,2,-1,32,2,33,-1,33,2,34,-1,35,36,24,-1,24,36,37,-1,24,37,25,-1,9,11,19,-1,19,11,38,-1,19,38,17,-1,39,40,41,-1,41,40,42,-1,41,42,43,-1,43,42,44,-1,43,44,45,-1,45,44,46,-1,6,8,47,-1,47,8,48,-1,47,48,49,-1,49,48,50,-1,49,50,51,-1,4,52,16,-1,16,52,53,-1,16,53,54,-1,54,53,55,-1,54,55,6,-1,6,55,56,-1,6,56,7,-1,34,2,57,-1,57,2,1,-1,57,1,58,-1,23,22,24,-1,24,22,59,-1,24,59,35,-1,60,61,62,-1,62,61,63,-1,62,63,64,-1,64,63,65,-1,64,65,66,-1,66,65,67,-1,66,67,68,-1,68,67,69,-1,68,69,70,-1,44,71,46,-1,46,71,72,-1,46,72,73,-1,73,72,74,-1,73,74,75,-1,75,74,76,-1,75,76,77,-1,77,76,78,-1,77,78,79,-1,79,78,80,-1,79,80,81,-1,81,80,82,-1,81,82,60,-1,60,82,83,-1,60,83,61,-1,84,85,86,-1,86,85,87,-1,86,87,41,-1,41,87,88,-1,41,88,39,-1,89,90,91,-1,91,90,92,-1,91,92,93,-1,93,92,94,-1,93,94,95,-1,95,94,96,-1,95,96,97,-1,97,96,98,-1,97,98,13,-1,13,98,99,-1,13,99,14,-1,51,50,100,-1,100,50,101,-1,100,101,102,-1,102,101,103,-1,102,103,104,-1,104,103,105,-1,104,105,106,-1,106,105,107,-1,106,107,84,-1,84,107,108,-1,84,108,85,-1,5,109,3,-1,3,109,110,-1,3,110,111,-1,111,110,112,-1,111,112,113,-1,113,112,114,-1,113,114,89,-1,89,114,115,-1,89,115,90,-1,18,116,19,-1,19,116,117,-1,19,117,118,-1,118,117,119,-1,118,119,120,-1,120,119,121,-1,120,121,122,-1,122,121,123,-1,122,123,124,-1,124,123,125,-1,124,125,126,-1,126,125,127,-1,126,127,128,-1,128,127,129,-1,128,129,130,-1,130,129,131,-1,130,131,132,-1,132,131,133,-1,132,133,134,-1,134,133,135,-1,134,135,1,-1,1,135,136,-1,1,136,58,-1,137,138,139,-1,69,140,70,-1,70,140,137,-1,70,137,141,-1,141,137,139,-1,142,143,137,-1,137,143,144,-1,137,144,138,-1,145,146,147,-1,146,148,147,-1,147,148,149,-1,147,149,150,-1,142,137,147,-1,147,137,151,-1,147,151,145,-1,77,152,153,-1,77,153,75,-1,75,153,154,-1,75,154,73,-1,154,155,73,-1,73,155,156,-1,73,156,46,-1,46,156,157,-1,46,157,45,-1,45,157,158,-1,45,158,43,-1,43,158,159,-1,43,159,41,-1,41,159,160,-1,41,160,86,-1,86,160,161,-1,86,161,84,-1,84,161,106,-1,106,161,162,-1,162,163,106,-1,106,163,164,-1,106,164,104,-1,104,164,165,-1,104,165,102,-1,166,49,167,-1,167,49,51,-1,167,51,168,-1,168,51,100,-1,168,100,169,-1,169,100,102,-1,169,102,165,-1,49,166,170,-1,49,170,47,-1,47,170,171,-1,47,171,6,-1,6,171,172,-1,6,172,54,-1,54,172,173,-1,54,173,16,-1,16,173,174,-1,16,174,5,-1,5,174,175,-1,5,175,109,-1,109,175,176,-1,109,176,110,-1,110,176,177,-1,110,177,112,-1,178,114,179,-1,179,114,112,-1,179,112,177,-1,180,90,178,-1,178,90,115,-1,178,115,114,-1,180,181,90,-1,90,181,182,-1,90,182,92,-1,92,182,183,-1,92,183,94,-1,94,183,184,-1,94,184,96,-1,96,184,185,-1,96,185,98,-1,98,185,186,-1,98,186,99,-1,99,186,187,-1,99,187,14,-1,14,187,188,-1,14,188,15,-1,15,188,189,-1,15,189,0,-1,189,190,0,-1,0,190,191,-1,0,191,1,-1,1,191,192,-1,1,192,134,-1,134,192,193,-1,134,193,132,-1,193,194,132,-1,132,194,195,-1,132,195,130,-1,130,195,196,-1,130,196,128,-1,197,9,19,-1,128,196,198,-1,199,124,198,-1,198,124,126,-1,198,126,128,-1,199,200,124,-1,124,200,201,-1,124,201,122,-1,122,201,202,-1,122,202,120,-1,120,202,203,-1,120,203,118,-1,118,203,204,-1,118,204,19,-1,19,204,205,-1,19,205,197,-1,10,9,206,-1,206,9,197,-1,20,10,207,-1,207,10,206,-1,21,20,208,-1,208,20,207,-1,22,21,209,-1,209,21,208,-1,22,209,210,-1,22,210,59,-1,59,210,211,-1,59,211,35,-1,35,211,212,-1,35,212,36,-1,36,212,213,-1,36,213,37,-1,37,213,214,-1,37,214,25,-1,25,214,215,-1,25,215,27,-1,27,215,216,-1,27,216,29,-1,29,216,217,-1,29,217,31,-1,31,217,218,-1,31,218,2,-1,2,218,219,-1,2,219,13,-1,13,219,220,-1,13,220,97,-1,97,220,221,-1,97,221,95,-1,95,221,222,-1,95,222,93,-1,93,222,223,-1,93,223,91,-1,223,224,91,-1,91,224,89,-1,224,225,89,-1,89,225,226,-1,89,226,113,-1,113,226,227,-1,113,227,111,-1,111,227,228,-1,111,228,3,-1,3,228,229,-1,3,229,4,-1,4,229,230,-1,4,230,52,-1,52,230,231,-1,52,231,53,-1,53,231,232,-1,53,232,55,-1,55,232,233,-1,55,233,56,-1,56,233,234,-1,56,234,7,-1,7,234,235,-1,7,235,8,-1,8,235,236,-1,8,236,48,-1,48,236,237,-1,48,237,50,-1,50,237,238,-1,50,238,101,-1,101,238,239,-1,101,239,103,-1,103,239,240,-1,103,240,105,-1,105,240,241,-1,105,241,107,-1,107,241,242,-1,107,242,108,-1,108,242,243,-1,108,243,85,-1,85,243,244,-1,85,244,87,-1,87,244,245,-1,87,245,88,-1,88,245,246,-1,88,246,39,-1,40,39,247,-1,247,39,246,-1,40,247,248,-1,40,248,42,-1,42,248,249,-1,42,249,44,-1,44,249,250,-1,44,250,71,-1,71,250,251,-1,71,251,72,-1,72,251,252,-1,72,252,74,-1,252,253,74,-1,74,253,254,-1,74,254,76,-1,76,254,255,-1,76,255,78,-1,78,255,256,-1,78,256,80,-1,80,256,257,-1,80,257,82,-1,82,257,258,-1,82,258,83,-1,83,258,259,-1,83,259,61,-1,61,259,260,-1,61,260,63,-1,63,260,261,-1,63,261,65,-1,65,261,262,-1,65,262,67,-1,69,67,263,-1,263,67,262,-1,69,263,264,-1,69,264,140,-1,140,264,265,-1,140,265,137,-1,137,265,266,-1,137,266,151,-1,151,266,267,-1,151,267,145,-1,145,267,268,-1,145,268,146,-1,146,268,269,-1,146,269,148,-1,148,269,270,-1,148,270,149,-1,149,270,271,-1,149,271,150,-1,150,271,272,-1,150,272,147,-1,147,272,273,-1,147,273,142,-1,142,273,274,-1,142,274,143,-1,143,274,275,-1,143,275,144,-1,144,275,276,-1,144,276,138,-1,138,276,277,-1,138,277,139,-1,139,277,278,-1,139,278,141,-1,141,278,279,-1,141,279,70,-1,70,279,280,-1,70,280,68,-1,66,68,281,-1,281,68,280,-1,66,281,282,-1,66,282,64,-1,64,282,283,-1,64,283,62,-1,62,283,284,-1,62,284,60,-1,60,284,285,-1,60,285,81,-1,81,285,286,-1,81,286,79,-1,79,286,152,-1,79,152,77,-1,23,287,288,-1,23,288,12,-1,12,288,289,-1,12,289,11,-1,11,289,290,-1,11,290,38,-1,38,290,291,-1,38,291,17,-1,17,291,292,-1,17,292,18,-1,18,292,293,-1,18,293,116,-1,116,293,294,-1,116,294,117,-1,117,294,295,-1,117,295,119,-1,119,295,296,-1,119,296,121,-1,121,296,297,-1,121,297,123,-1,123,297,298,-1,123,298,125,-1,125,298,299,-1,125,299,127,-1,127,299,300,-1,127,300,129,-1,129,300,301,-1,129,301,131,-1,131,301,302,-1,131,302,133,-1,133,302,303,-1,133,303,135,-1,135,303,304,-1,135,304,136,-1,136,304,305,-1,136,305,58,-1,58,305,306,-1,58,306,57,-1,57,306,307,-1,57,307,34,-1,34,307,308,-1,34,308,33,-1,33,308,309,-1,33,309,32,-1,32,309,310,-1,32,310,30,-1,30,310,311,-1,30,311,28,-1,28,311,312,-1,28,312,26,-1,26,312,313,-1,26,313,24,-1,24,313,287,-1,24,287,23,-1,
        ]
    }
}
Shape{
    appearance Appearance {
        material  Material 	{
            diffuseColor 0.25098039215686274 0.25098039215686274 0.25098039215686274
            specularColor 0.12549019607843137 0.12549019607843137 0.12549019607843137
            ambientIntensity 0.251
            transparency 0.0
            shininess 0.5
        }
    }
    geometry IndexedFaceSet {
        ccw TRUE
        solid FALSE
        coord DEF co Coordinate {
            point [
                -1.2406 0.4921 0.5113, -1.2364 0.4921 0.5097, -1.2443 0.4921 0.4749, -1.2327 0.4921 0.5071, -1.2304 0.4921 0.5046, -1.2483 0.4921 0.5116, -1.2451 0.4921 0.4748, -1.2496 0.4921 0.4754, -1.2451 0.4921 0.5118, -1.2276 0.4921 0.4871, -1.2296 0.4921 0.4832, -1.2321 0.4921 0.4802, -1.2574 0.4921 0.4795, -1.2599 0.4921 0.5044, -1.2567 0.4921 0.5077, -1.2281 0.4921 0.5007, -1.2268 0.4921 0.4962, -1.2267 0.4921 0.4915, -1.2357 0.4921 0.4774, -1.24 0.4921 0.4756, -1.2537 0.4921 0.477, -1.2528 0.4921 0.5102, -1.2625 0.4921 0.4871, -1.2635 0.4921 0.4917, -1.2604 0.4921 0.483, -1.2633 0.4921 0.4963, -1.2621 0.4921 0.5006
            ]
        }
        coordIndex [
            0,1,2,-1,2,1,3,-1,2,3,4,-1,5,6,7,-1,6,5,2,-1,2,5,8,-1,2,8,0,-1,9,10,4,-1,4,10,11,-1,12,13,14,-1,15,16,4,-1,4,16,17,-1,4,17,9,-1,11,18,4,-1,4,18,19,-1,4,19,2,-1,7,20,5,-1,5,20,12,-1,5,12,21,-1,21,12,14,-1,22,23,24,-1,24,23,25,-1,24,25,12,-1,12,25,26,-1,12,26,13,-1,
        ]
    }
}