#VRML V2.0 utf8
# 3D model generated by easyeda2kicad.py (https://github.com/uPesy/easyeda2kicad.py)

Shape{
    appearance Appearance {
        material  Material 	{
            diffuseColor 0.25098039215686274 0.25098039215686274 0.25098039215686274
            specularColor 0.12549019607843137 0.12549019607843137 0.12549019607843137
            ambientIntensity 0.251
            transparency 0.0
            shininess 0.5
        }
    }
    geometry IndexedFaceSet {
        ccw TRUE
        solid FALSE
        coord DEF co Coordinate {
            point [
                -0.5 0.374 0.2756, -0.3819 0.4921 0.2756, 0.5 0.374 0.2756, 0.3819 0.4921 0.2756, 0.3819 0.4921 1.2598, 0.5 0.374 1.2598, 0.5 0.374 0.3937, 0.5 -0.374 1.2598, 0.5 -0.374 0.3937, 0.3819 -0.4921 1.2598, 0.3819 -0.4921 0.2756, 0.5 -0.374 0.2756, -0.3819 -0.4921 0.2756, -0.3819 -0.4921 1.2598, -0.5 -0.374 1.2598, -0.5 -0.374 0.3937, -0.5 -0.374 0.2756, -0.5 0.374 1.2598, -0.5 0.374 0.3937, -0.3819 0.4921 1.2598, 0.126 0.126 1.2598, -0.126 0.126 1.2598, -0.126 -0.126 1.2598, 0.126 -0.126 1.2598, 0.126 0.126 0.3937, 0.126 -0.126 0.3937, -0.126 -0.126 0.3937, -0.126 0.126 0.3937
            ]
        }
        coordIndex [
            0,1,2,-1,2,1,3,-1,4,5,3,-1,3,5,6,-1,3,6,2,-1,5,7,6,-1,6,7,8,-1,7,9,8,-1,8,9,10,-1,8,10,11,-1,12,10,13,-1,13,10,9,-1,13,14,12,-1,12,14,15,-1,12,15,16,-1,14,17,15,-1,15,17,18,-1,17,19,18,-1,18,19,1,-1,18,1,0,-1,3,1,4,-1,4,1,19,-1,11,10,16,-1,16,10,12,-1,20,4,21,-1,21,4,19,-1,19,17,21,-1,21,17,14,-1,21,14,22,-1,22,14,13,-1,22,13,23,-1,23,13,9,-1,23,9,20,-1,20,9,7,-1,20,7,4,-1,4,7,5,-1,6,18,2,-1,2,18,0,-1,15,8,16,-1,16,8,11,-1,24,6,25,-1,25,6,8,-1,25,8,26,-1,26,8,15,-1,26,15,27,-1,27,15,18,-1,27,18,24,-1,24,18,6,-1,
        ]
    }
}
Shape{
    appearance Appearance {
        material  Material 	{
            diffuseColor 1.0 1.0 0.5019607843137255
            specularColor 0.5019607843137255 0.5019607843137255 0.25098039215686274
            ambientIntensity 0.9432
            transparency 0.0
            shininess 0.5
        }
    }
    geometry IndexedFaceSet {
        ccw TRUE
        solid FALSE
        coord DEF co Coordinate {
            point [
                -0.126 0.126 0.2638, 0.126 0.126 0.2638, -0.126 0.1264 0.2607, 0.126 0.1264 0.2607, -0.126 0.1276 0.2579, 0.126 0.1276 0.2579, -0.126 0.1294 0.2554, 0.126 0.1294 0.2554, -0.126 0.1319 0.2536, 0.126 0.1319 0.2536, -0.126 0.1347 0.2524, 0.126 0.1347 0.2524, -0.126 0.1378 0.252, 0.126 0.1378 0.252, -0.126 0.8661 0.252, 0.126 0.8661 0.252, 0.0578 0.9843 0.1838, 0.0578 0.9843 0.0682, -0.0578 0.9843 0.1838, -0.0578 0.9843 0.0682, 0.126 0.8661 0.0, 0.126 0.1378 0.0, -0.126 0.8661 0.0, -0.126 0.1378 0.0, 0.126 0.0695 0.009, -0.126 0.0695 0.009, 0.126 0.0059 0.0353, -0.126 0.0059 0.0353, 0.126 -0.0487 0.0773, -0.126 -0.0487 0.0773, 0.126 -0.0906 0.1319, -0.126 -0.0906 0.1319, 0.126 -0.117 0.1955, -0.126 -0.117 0.1955, 0.126 -0.126 0.2638, -0.126 -0.126 0.2638, 0.126 0.126 0.3937, 0.126 -0.126 0.3937, -0.126 0.126 0.3937, -0.126 -0.126 0.3937, -0.126 -0.126 3.5039, -0.126 -0.126 1.2598, 0.126 -0.126 3.5039, 0.126 -0.126 1.2598, 0.0578 -0.0578 3.622, 0.0578 0.0578 3.622, -0.0578 -0.0578 3.622, -0.0578 0.0578 3.622, 0.126 0.126 3.5039, 0.126 0.126 1.2598, -0.126 0.126 3.5039, -0.126 0.126 1.2598
            ]
        }
        coordIndex [
            0,1,2,-1,2,1,3,-1,2,3,4,-1,4,3,5,-1,4,5,6,-1,6,5,7,-1,6,7,8,-1,8,7,9,-1,8,9,10,-1,10,9,11,-1,10,11,12,-1,12,11,13,-1,14,12,15,-1,15,12,13,-1,16,17,18,-1,18,17,19,-1,20,21,22,-1,22,21,23,-1,23,21,24,-1,23,24,25,-1,25,24,26,-1,25,26,27,-1,27,26,28,-1,27,28,29,-1,29,28,30,-1,29,30,31,-1,31,30,32,-1,31,32,33,-1,33,32,34,-1,33,34,35,-1,36,37,1,-1,1,37,34,-1,1,34,3,-1,3,34,32,-1,3,32,5,-1,5,32,30,-1,5,30,7,-1,7,30,28,-1,7,28,9,-1,9,28,26,-1,9,26,11,-1,11,26,24,-1,11,24,13,-1,13,24,21,-1,13,21,15,-1,15,21,20,-1,14,22,12,-1,12,22,23,-1,12,23,10,-1,10,23,25,-1,10,25,8,-1,8,25,27,-1,8,27,6,-1,6,27,29,-1,6,29,4,-1,4,29,31,-1,4,31,2,-1,2,31,33,-1,2,33,0,-1,0,33,35,-1,0,35,38,-1,38,35,39,-1,36,1,38,-1,38,1,0,-1,35,34,39,-1,39,34,37,-1,40,41,42,-1,42,41,43,-1,44,45,46,-1,46,45,47,-1,48,49,50,-1,50,49,51,-1,50,51,40,-1,40,51,41,-1,42,43,48,-1,48,43,49,-1,22,19,20,-1,20,19,17,-1,14,18,22,-1,22,18,19,-1,16,15,17,-1,17,15,20,-1,15,16,14,-1,14,16,18,-1,50,47,48,-1,48,47,45,-1,40,46,50,-1,50,46,47,-1,44,42,45,-1,45,42,48,-1,42,44,40,-1,40,44,46,-1,
        ]
    }
}
Shape{
    appearance Appearance {
        material  Material 	{
            diffuseColor 0.25098039215686274 0.25098039215686274 0.25098039215686274
            specularColor 0.12549019607843137 0.12549019607843137 0.12549019607843137
            ambientIntensity 0.251
            transparency 0.0
            shininess 0.5
        }
    }
    geometry IndexedFaceSet {
        ccw TRUE
        solid FALSE
        coord DEF co Coordinate {
            point [
                1.0274 0.4921 0.4774, 1.0274 0.4921 0.4509, 0.9632 0.4921 0.4509, 1.0274 0.4921 0.5832, 1.0274 0.4921 0.5636, 0.9632 0.4921 0.5636, 0.9377 0.4921 0.6505, 0.9327 0.4921 0.6511, 0.9592 0.4921 0.6511, 0.8902 0.4921 0.6428, 0.8902 0.4921 0.6215, 0.8722 0.4921 0.6215, 0.7418 0.4921 0.5838, 0.7486 0.4921 0.602, 0.7731 0.4921 0.602, 0.8862 0.4921 0.4777, 0.8889 0.4921 0.4774, 0.8722 0.4921 0.4774, 0.8067 0.4921 0.537, 0.8067 0.4921 0.5156, 0.7942 0.4921 0.5156, 1.0852 0.4921 0.5985, 1.0724 0.4921 0.5876, 1.0274 0.4921 0.6511, 1.1379 0.4921 0.6511, 1.1273 0.4921 0.6437, 1.1109 0.4921 0.6245, 1.1017 0.4921 0.6063, 1.0994 0.4921 0.6055, 1.2353 0.4921 0.6581, 1.2133 0.4921 0.666, 1.3696 0.4921 1.2598, 1.0274 0.4921 1.2598, 1.1694 0.4921 0.6657, 1.1458 0.4921 0.6566, 1.1918 0.4921 0.6684, 1.3696 0.4921 0.6511, 1.2992 0.4921 0.6277, 1.2805 0.4921 0.63, 1.3696 0.4921 0.5832, 1.3507 0.4921 0.5832, 1.3465 0.4921 0.5926, 1.3351 0.4921 0.6072, 1.2468 0.4921 0.6511, 1.2488 0.4921 0.6499, 1.2599 0.4921 0.6404, 1.2751 0.4921 0.6297, 1.2696 0.4921 0.629, 1.3319 0.4921 0.6102, 1.3168 0.4921 0.6208, 1.2995 0.4921 0.4786, 1.3055 0.4921 0.4804, 1.3696 0.4921 0.4774, 1.3227 0.4921 0.4888, 1.3375 0.4921 0.5014, 1.3483 0.4921 0.5169, 1.3551 0.4921 0.5346, 1.3696 0.4921 0.5636, 1.3574 0.4921 0.5531, 1.3573 0.4921 0.5577, 1.3562 0.4921 0.5636, 1.3541 0.4921 0.5755, 1.2784 0.4921 0.4528, 1.2877 0.4921 0.4598, 1.3696 0.4921 0.4509, 1.2948 0.4921 0.4685, 1.2989 0.4921 0.4774, 1.2545 0.4921 0.4464, 1.3696 0.4921 0.2756, 1.243 0.4921 0.4478, 1.0274 0.4921 0.2756, 1.2348 0.4921 0.4509, 1.2563 0.4921 0.4464, 1.2675 0.4921 0.4482, 1.2741 0.4921 0.4509, 1.21 0.4921 0.4774, 1.21 0.4921 0.4772, 1.2157 0.4921 0.4666, 1.2229 0.4921 0.4584, 1.2324 0.4921 0.4519, 1.0569 0.4921 0.5596, 1.0547 0.4921 0.5441, 1.1494 0.4921 0.5053, 1.1462 0.4921 0.5066, 1.1406 0.4921 0.5337, 1.0723 0.4921 0.499, 1.0852 0.4921 0.4881, 1.2189 0.4921 0.5256, 1.1553 0.4921 0.5588, 1.2272 0.4921 0.5332, 1.2372 0.4921 0.5385, 1.1523 0.4921 0.5033, 1.0629 0.4921 0.5122, 1.0844 0.4921 0.5478, 1.0866 0.4921 0.5569, 1.0902 0.4921 0.5636, 1.3263 0.4921 0.5636, 1.0569 0.4921 0.5272, 1.1425 0.4921 0.5071, 1.142 0.4921 0.5071, 1.1406 0.4921 0.5068, 1.3235 0.4921 0.5352, 1.3179 0.4921 0.5255, 1.2938 0.4921 0.5206, 1.3094 0.4921 0.5168, 1.299 0.4921 0.5104, 1.2763 0.4921 0.5363, 1.286 0.4921 0.5296, 1.3275 0.4921 0.5541, 1.3269 0.4921 0.5468, 1.2658 0.4921 0.5403, 1.2545 0.4921 0.5417, 1.2487 0.4921 0.5414, 1.1572 0.4921 0.4924, 1.1571 0.4921 0.4943, 1.207 0.4921 0.4986, 1.1561 0.4921 0.4979, 1.1543 0.4921 0.5011, 1.0938 0.4921 0.5185, 1.0885 0.4921 0.5259, 1.0853 0.4921 0.5344, 1.0841 0.4921 0.5436, 1.1461 0.4921 0.4781, 1.1493 0.4921 0.4794, 1.1523 0.4921 0.4815, 1.1534 0.4921 0.4827, 1.1555 0.4921 0.4856, 1.1567 0.4921 0.4889, 1.2073 0.4921 0.4889, 1.207 0.4921 0.4938, 1.0997 0.4921 0.481, 1.1155 0.4921 0.4777, 1.1434 0.4921 0.4777, 1.1396 0.4921 0.5066, 1.1183 0.4921 0.5066, 1.1098 0.4921 0.5083, 1.1014 0.4921 0.5121, 1.0944 0.4921 0.5179, 1.1249 0.4921 0.5806, 1.322 0.4921 0.5761, 1.3261 0.4921 0.5656, 1.1211 0.4921 0.5806, 1.091 0.4921 0.5651, 1.0965 0.4921 0.5712, 1.1038 0.4921 0.5763, 1.1121 0.4921 0.5795, 1.1352 0.4921 0.6091, 1.1459 0.4921 0.6219, 1.2549 0.4921 0.5944, 1.1471 0.4921 0.623, 1.1604 0.4921 0.6323, 1.2477 0.4921 0.6094, 1.3171 0.4921 0.5832, 1.2583 0.4921 0.5962, 1.1255 0.4921 0.5832, 1.1278 0.4921 0.5938, 1.269 0.4921 0.6001, 1.2801 0.4921 0.6015, 1.285 0.4921 0.6013, 1.237 0.4921 0.6221, 1.1753 0.4921 0.638, 1.2243 0.4921 0.6314, 1.1914 0.4921 0.6399, 1.2088 0.4921 0.6377, 1.2967 0.4921 0.5985, 1.3073 0.4921 0.5929, 1.3155 0.4921 0.5856, 1.0692 0.4921 0.5832, 1.0627 0.4921 0.5741, 1.0585 0.4921 0.5636, 0.7809 0.4921 0.5446, 0.7809 0.4921 0.537, 0.7731 0.4921 0.5636, 0.7794 0.4921 0.4855, 0.7731 0.4921 0.4774, 0.7794 0.4921 0.4779, 0.7942 0.4921 0.4774, 0.8067 0.4921 0.4855, 0.7942 0.4921 0.4855, 0.8067 0.4921 0.508, 0.7942 0.4921 0.508, 0.7828 0.4921 0.508, 0.7828 0.4921 0.5156, 0.7942 0.4921 0.537, 0.7942 0.4921 0.4779, 0.8153 0.4921 0.4779, 0.8198 0.4921 0.4774, 0.8153 0.4921 0.5446, 0.9527 0.4921 0.5008, 0.9515 0.4921 0.5141, 0.9544 0.4921 0.4984, 0.9556 0.4921 0.4955, 0.9179 0.4921 0.4779, 0.9263 0.4921 0.4779, 0.9365 0.4921 0.4774, 0.9066 0.4921 0.4882, 0.9179 0.4921 0.5086, 0.9066 0.4921 0.4796, 0.9461 0.4921 0.4774, 0.9493 0.4921 0.4786, 0.9592 0.4921 0.4774, 0.9548 0.4921 0.484, 0.9558 0.4921 0.4869, 0.9436 0.4921 0.5256, 0.9592 0.4921 0.5636, 0.9498 0.4921 0.5232, 0.9515 0.4921 0.5222, 0.9501 0.4921 0.503, 0.9464 0.4921 0.5048, 0.9466 0.4921 0.5173, 0.9404 0.4921 0.5062, 0.9331 0.4921 0.5196, 0.9359 0.4921 0.5199, 0.9414 0.4921 0.5192, 0.9263 0.4921 0.4853, 0.9265 0.4921 0.4853, 0.9287 0.4921 0.4822, 0.9314 0.4921 0.4797, 0.9521 0.4921 0.4805, 0.953 0.4921 0.4815, 0.933 0.4921 0.4787, 0.9363 0.4921 0.4774, 0.9052 0.4921 0.5184, 0.9237 0.4921 0.5235, 0.9215 0.4921 0.5213, 0.9562 0.4921 0.4907, 0.9562 0.4921 0.4919, 0.9032 0.4921 0.4862, 0.9027 0.4921 0.486, 0.9027 0.4921 0.5037, 0.9062 0.4921 0.5157, 0.9351 0.4921 0.5267, 0.9299 0.4921 0.5262, 0.9265 0.4921 0.5251, 0.9263 0.4921 0.5082, 0.9266 0.4921 0.5119, 0.9274 0.4921 0.5149, 0.9284 0.4921 0.5166, 0.9185 0.4921 0.5147, 0.9062 0.4921 0.5095, 0.9198 0.4921 0.5186, 0.9065 0.4921 0.5127, 0.9297 0.4921 0.518, 0.9311 0.4921 0.5189, 0.9028 0.4921 0.5037, 0.9042 0.4921 0.5052, 0.9052 0.4921 0.5069, 0.9027 0.4921 0.4782, 0.9027 0.4921 0.4774, 0.9015 0.4921 0.4777, 0.8984 0.4921 0.4774, 0.8767 0.4921 0.5246, 0.8767 0.4921 0.5164, 0.9036 0.4921 0.5207, 0.9027 0.4921 0.5215, 0.9027 0.4921 0.5636, 0.9012 0.4921 0.5229, 0.8985 0.4921 0.5245, 0.8748 0.4921 0.4875, 0.8758 0.4921 0.4849, 0.8774 0.4921 0.4827, 0.8938 0.4921 0.5261, 0.888 0.4921 0.5267, 0.8722 0.4921 0.5636, 0.8821 0.4921 0.5261, 0.8772 0.4921 0.4988, 0.8756 0.4921 0.4965, 0.8747 0.4921 0.494, 0.8744 0.4921 0.4909, 0.8798 0.4921 0.4806, 0.8818 0.4921 0.4794, 0.8888 0.4921 0.5199, 0.8913 0.4921 0.5197, 0.8979 0.4921 0.5135, 0.8935 0.4921 0.5191, 0.8954 0.4921 0.5181, 0.8978 0.4921 0.5124, 0.8975 0.4921 0.5111, 0.8969 0.4921 0.5099, 0.8961 0.4921 0.509, 0.8931 0.4921 0.5072, 0.8834 0.4921 0.5193, 0.888 0.4921 0.5049, 0.8787 0.4921 0.5176, 0.8847 0.4921 0.5036, 0.8792 0.4921 0.5005, 0.8966 0.4921 0.517, 0.8973 0.4921 0.5159, 0.8978 0.4921 0.5148, 0.898 0.4921 0.4842, 0.8939 0.4921 0.4989, 0.8989 0.4921 0.5012, 0.8928 0.4921 0.4836, 0.8925 0.4921 0.4836, 0.8884 0.4921 0.4966, 0.8882 0.4921 0.4841, 0.883 0.4921 0.4901, 0.8831 0.4921 0.4911, 0.886 0.4921 0.4849, 0.8853 0.4921 0.4854, 0.8843 0.4921 0.4862, 0.8836 0.4921 0.4873, 0.8831 0.4921 0.4885, 0.8834 0.4921 0.4924, 0.8841 0.4921 0.4935, 0.8851 0.4921 0.4946, 0.7323 0.4921 0.5838, 0.7731 0.4921 0.5832, 0.6181 0.4921 0.5832, 0.6181 0.4921 0.6511, 0.7577 0.4921 0.6505, 0.7731 0.4921 0.6511, 0.7828 0.4921 0.5838, 0.7923 0.4921 0.5838, 0.7942 0.4921 0.5832, 0.7764 0.4921 0.602, 0.7942 0.4921 0.6511, 0.7731 0.4921 0.6343, 0.7669 0.4921 0.6505, 0.8198 0.4921 0.5832, 0.8207 0.4921 0.5851, 0.832 0.4921 0.5838, 0.8313 0.4921 0.6505, 0.8198 0.4921 0.6511, 0.8567 0.4921 0.6511, 0.8567 0.4921 0.5832, 0.8504 0.4921 0.5838, 0.8504 0.4921 0.6505, 0.7979 0.4921 0.6059, 0.8011 0.4921 0.599, 0.8037 0.4921 0.6394, 0.7996 0.4921 0.6335, 0.8061 0.4921 0.5931, 0.8131 0.4921 0.5881, 0.8198 0.4921 0.5855, 0.8061 0.4921 0.6417, 0.8211 0.4921 0.6494, 0.8198 0.4921 0.6489, 0.8131 0.4921 0.6464, 0.7971 0.4921 0.6272, 0.796 0.4921 0.618, 0.7962 0.4921 0.6137, 0.8722 0.4921 0.6511, 0.8645 0.4921 0.6505, 0.8722 0.4921 0.6505, 0.8902 0.4921 0.5914, 0.8722 0.4921 0.5914, 0.8902 0.4921 0.6138, 0.8722 0.4921 0.6138, 0.8664 0.4921 0.6138, 0.863 0.4921 0.5914, 0.8664 0.4921 0.6215, 0.8645 0.4921 0.6428, 0.8722 0.4921 0.6428, 0.8989 0.4921 0.5838, 0.9027 0.4921 0.5832, 0.8722 0.4921 0.5832, 0.863 0.4921 0.5838, 0.8722 0.4921 0.5838, 0.8989 0.4921 0.6505, 0.9027 0.4921 0.6511, 0.9209 0.4921 0.6511, 0.9193 0.4921 0.6509, 0.9122 0.4921 0.6489, 0.9122 0.4921 0.6399, 0.9122 0.4921 0.5948, 0.9122 0.4921 0.5865, 0.9279 0.4921 0.6438, 0.9311 0.4921 0.6437, 0.9133 0.4921 0.586, 0.9205 0.4921 0.5836, 0.9248 0.4921 0.5832, 0.9197 0.4921 0.6429, 0.9129 0.4921 0.6403, 0.9368 0.4921 0.6425, 0.942 0.4921 0.6399, 0.9461 0.4921 0.6364, 0.9466 0.4921 0.6359, 0.9498 0.4921 0.6313, 0.952 0.4921 0.6255, 0.9531 0.4921 0.6164, 0.953 0.4921 0.6134, 0.9188 0.4921 0.5918, 0.9263 0.4921 0.5904, 0.9294 0.4921 0.5903, 0.9519 0.4921 0.6068, 0.9496 0.4921 0.6015, 0.9466 0.4921 0.5974, 0.9447 0.4921 0.5955, 0.9353 0.4921 0.5909, 0.9402 0.4921 0.5926, 0.928 0.4921 0.6516, 0.9592 0.4921 1.2598, 0.9027 0.4921 1.2598, 0.9574 0.4921 0.6355, 0.9525 0.4921 0.6418, 0.9509 0.4921 0.6434, 0.9446 0.4921 0.6478, 0.9592 0.4921 0.6007, 0.9609 0.4921 0.605, 0.9632 0.4921 0.5832, 0.9622 0.4921 0.6159, 0.962 0.4921 0.6194, 0.9632 0.4921 0.6511, 0.9605 0.4921 0.6281, 0.9592 0.4921 0.6312, 0.9482 0.4921 0.5873, 0.9536 0.4921 0.5918, 0.9592 0.4921 0.5832, 0.9542 0.4921 0.5924, 0.9581 0.4921 0.5981, 0.9307 0.4921 0.5826, 0.9347 0.4921 0.5828, 0.9365 0.4921 0.5832, 0.9419 0.4921 0.5843, 0.8936 0.4921 0.4768, 0.9027 0.4921 0.4509, 0.9592 0.4921 0.4509, 0.9459 0.4921 0.4774, 0.9411 0.4921 0.4768, 0.833 0.4921 0.5256, 0.8243 0.4921 0.5256, 0.8198 0.4921 0.5636, 0.7942 0.4921 0.5446, 0.7942 0.4921 0.5636, 0.8433 0.4921 0.4774, 0.8482 0.4921 0.4898, 0.8472 0.4921 0.4858, 0.847 0.4921 0.4858, 0.8567 0.4921 0.5636, 0.8567 0.4921 0.514, 0.846 0.4921 0.4897, 0.8466 0.4921 0.4875, 0.8567 0.4921 0.4774, 0.8567 0.4921 0.4915, 0.87 0.4921 0.5256, 0.8607 0.4921 0.5256, 0.8513 0.4921 0.478, 0.8516 0.4921 0.4774, 0.855 0.4921 0.4694, 0.8722 0.4921 0.4509, 0.8683 0.4921 0.4562, 0.8683 0.4921 0.4636, 0.8582 0.4921 0.4646, 0.8567 0.4921 0.4663, 0.8567 0.4921 0.4664, 0.8666 0.4921 0.463, 0.8636 0.4921 0.4626, 0.8567 0.4921 0.457, 0.8596 0.4921 0.4559, 0.8567 0.4921 0.4509, 0.8629 0.4921 0.4555, 0.8648 0.4921 0.4555, 0.8615 0.4921 0.4629, 0.8597 0.4921 0.4636, 0.8459 0.4921 0.4707, 0.8497 0.4921 0.4634, 0.8198 0.4921 0.4509, 0.8528 0.4921 0.4597, 0.8533 0.4921 0.4592, 0.8563 0.4921 0.4571, 1.3819 0.4921 0.2756, 1.3819 0.4921 0.4509, 1.3819 0.4921 0.4774, 1.3819 0.4921 0.5636, 1.3819 0.4921 0.5832, 1.3819 0.4921 0.6511, 1.3819 0.4921 1.2598, 0.9649 0.4921 0.5914, 0.9649 0.4921 0.5838, 1.0001 0.4921 0.5838, 0.9915 0.4921 0.6505, 0.9915 0.4921 0.5914, 1.0001 0.4921 0.6505, 0.9632 0.4921 0.4774, 0.9642 0.4921 0.4779, 1.0001 0.4921 0.4779, 0.9642 0.4921 0.4855, 0.9657 0.4921 0.537, 0.9915 0.4921 0.508, 0.9915 0.4921 0.4855, 0.9676 0.4921 0.508, 0.9676 0.4921 0.5156, 0.9915 0.4921 0.5156, 0.9915 0.4921 0.537, 1.0001 0.4921 0.5446, 0.9657 0.4921 0.5446, 0.9632 0.4921 1.2598, 0.8722 0.4921 1.2598, 0.8567 0.4921 1.2598, 0.8198 0.4921 1.2598, 0.7942 0.4921 1.2598, 0.7731 0.4921 1.2598, 0.6181 0.4921 1.2598, 0.6181 0.4921 0.5636, 0.6993 0.4921 0.4779, 0.7088 0.4921 0.4779, 0.7127 0.4921 0.5079, 0.7143 0.4921 0.5001, 0.6742 0.4921 0.5446, 0.6181 0.4921 0.4774, 0.6487 0.4921 0.4779, 0.6583 0.4921 0.4779, 0.6651 0.4921 0.4962, 0.6928 0.4921 0.4962, 0.6834 0.4921 0.5446, 0.7176 0.4921 0.4932, 0.7225 0.4921 0.4873, 0.7295 0.4921 0.4823, 0.7668 0.4921 0.5446, 0.7668 0.4921 0.4779, 0.7484 0.4921 0.4779, 0.7371 0.4921 0.4793, 0.7125 0.4921 0.5121, 0.7136 0.4921 0.5213, 0.7225 0.4921 0.5358, 0.7202 0.4921 0.5335, 0.7161 0.4921 0.5277, 0.7478 0.4921 0.5446, 0.7376 0.4921 0.5435, 0.7295 0.4921 0.5406, 0.7942 0.4921 0.4509, 0.7731 0.4921 0.4509, 0.6181 0.4921 0.4509, 0.9632 0.4921 0.2756, 0.9592 0.4921 0.2756, 0.9027 0.4921 0.2756, 0.8722 0.4921 0.2756, 0.8567 0.4921 0.2756, 0.8198 0.4921 0.2756, 0.7942 0.4921 0.2756, 0.7731 0.4921 0.2756, 0.6181 0.4921 0.2756, 1.5 0.374 0.2756, 0.5 0.374 0.2756, 0.5 -0.374 0.3937, 0.5 -0.374 1.2598, 0.5 0.374 0.3937, 0.5 0.374 1.2598, 1.3819 -0.4921 1.2598, 0.6181 -0.4921 1.2598, 1.3819 -0.4921 0.2756, 0.6181 -0.4921 0.2756, 1.5 0.374 0.3937, 1.5 0.374 1.2598, 1.5 -0.374 0.3937, 1.5 -0.374 1.2598, 0.874 0.126 1.2598, 1.126 -0.126 1.2598, 1.126 0.126 1.2598, 0.874 -0.126 1.2598, 1.5 -0.374 0.2756, 0.5 -0.374 0.2756, 1.126 0.126 0.3937, 1.126 -0.126 0.3937, 0.874 -0.126 0.3937, 0.874 0.126 0.3937
            ]
        }
        coordIndex [
            0,1,2,-1,3,4,5,-1,6,7,8,-1,9,10,11,-1,12,13,14,-1,15,16,17,-1,18,19,20,-1,21,22,23,-1,23,22,3,-1,24,25,23,-1,23,25,26,-1,26,27,23,-1,23,27,28,-1,23,28,21,-1,29,30,31,-1,32,33,34,-1,31,30,32,-1,32,30,35,-1,32,35,33,-1,36,37,38,-1,39,40,36,-1,36,40,41,-1,36,41,42,-1,29,31,43,-1,43,31,36,-1,43,36,44,-1,44,36,38,-1,44,38,45,-1,45,38,46,-1,45,46,47,-1,42,48,36,-1,36,48,49,-1,36,49,37,-1,50,51,52,-1,52,51,53,-1,52,53,54,-1,54,55,52,-1,52,55,56,-1,52,56,57,-1,57,56,58,-1,58,59,57,-1,57,59,60,-1,57,60,39,-1,39,60,61,-1,39,61,40,-1,62,63,64,-1,64,63,65,-1,64,65,52,-1,52,65,66,-1,52,66,50,-1,67,68,69,-1,69,68,70,-1,69,70,71,-1,67,72,68,-1,68,72,73,-1,68,73,64,-1,64,73,74,-1,64,74,62,-1,0,75,1,-1,1,75,76,-1,1,76,77,-1,77,78,1,-1,1,78,79,-1,1,79,71,-1,80,81,4,-1,82,83,84,-1,85,86,0,-1,87,88,89,-1,89,88,90,-1,82,84,91,-1,85,0,92,-1,93,94,88,-1,88,94,95,-1,88,95,96,-1,4,81,0,-1,0,81,97,-1,0,97,92,-1,83,98,84,-1,84,98,99,-1,84,99,100,-1,101,102,103,-1,103,102,104,-1,103,104,105,-1,106,96,107,-1,107,96,108,-1,107,108,103,-1,103,108,109,-1,103,109,101,-1,106,110,96,-1,96,110,111,-1,96,111,88,-1,88,111,112,-1,88,112,90,-1,113,114,115,-1,115,114,116,-1,115,116,84,-1,84,116,117,-1,84,117,91,-1,118,119,84,-1,84,119,120,-1,84,120,88,-1,88,120,121,-1,88,121,93,-1,122,123,75,-1,75,123,124,-1,75,124,125,-1,125,126,75,-1,75,126,127,-1,75,127,128,-1,128,127,113,-1,128,113,129,-1,129,113,115,-1,86,130,0,-1,0,130,131,-1,0,131,75,-1,75,131,132,-1,75,132,122,-1,100,133,84,-1,84,133,134,-1,84,134,135,-1,135,136,84,-1,84,136,137,-1,84,137,118,-1,138,139,140,-1,140,96,138,-1,138,96,95,-1,138,95,141,-1,141,95,142,-1,142,143,141,-1,141,143,144,-1,141,144,145,-1,146,147,148,-1,147,149,148,-1,148,149,150,-1,148,150,151,-1,152,148,153,-1,139,138,152,-1,152,138,154,-1,152,154,148,-1,148,154,155,-1,148,155,146,-1,153,156,152,-1,152,156,157,-1,152,157,158,-1,151,150,159,-1,159,150,160,-1,159,160,161,-1,161,160,162,-1,161,162,163,-1,164,165,158,-1,158,165,166,-1,158,166,152,-1,22,167,3,-1,3,167,168,-1,3,168,4,-1,4,168,169,-1,4,169,80,-1,170,171,172,-1,172,171,173,-1,172,173,174,-1,174,173,175,-1,174,175,176,-1,177,178,179,-1,179,178,180,-1,180,178,181,-1,181,178,173,-1,181,173,182,-1,182,173,171,-1,182,171,20,-1,20,171,183,-1,20,183,18,-1,175,184,176,-1,176,184,185,-1,176,185,186,-1,186,185,187,-1,188,189,190,-1,190,189,191,-1,192,193,194,-1,195,196,197,-1,197,196,192,-1,198,199,200,-1,200,201,202,-1,203,204,205,-1,205,204,206,-1,188,207,189,-1,189,207,208,-1,189,208,209,-1,209,208,210,-1,211,212,210,-1,210,212,213,-1,210,213,209,-1,214,215,193,-1,193,215,216,-1,193,216,217,-1,199,218,200,-1,200,218,219,-1,200,219,201,-1,217,220,193,-1,193,220,221,-1,193,221,194,-1,222,223,224,-1,202,225,200,-1,200,225,226,-1,200,226,204,-1,204,226,191,-1,204,191,206,-1,206,191,189,-1,227,228,229,-1,222,224,230,-1,203,231,204,-1,204,231,232,-1,204,232,233,-1,234,235,210,-1,210,235,236,-1,210,236,237,-1,238,196,239,-1,227,229,195,-1,224,240,230,-1,230,240,238,-1,230,238,241,-1,241,238,239,-1,237,242,210,-1,210,242,243,-1,210,243,211,-1,229,244,195,-1,195,244,245,-1,195,245,196,-1,196,245,246,-1,196,246,239,-1,247,248,249,-1,249,248,250,-1,251,252,17,-1,253,254,255,-1,255,254,256,-1,255,256,257,-1,258,259,17,-1,17,259,260,-1,257,261,255,-1,255,261,262,-1,255,262,263,-1,263,262,264,-1,263,264,251,-1,265,266,252,-1,252,266,267,-1,252,267,17,-1,17,267,268,-1,17,268,258,-1,260,269,17,-1,17,269,270,-1,17,270,15,-1,271,272,273,-1,273,272,274,-1,273,274,275,-1,273,276,271,-1,271,276,277,-1,271,277,278,-1,278,279,271,-1,271,279,280,-1,271,280,281,-1,281,280,282,-1,281,282,283,-1,283,282,284,-1,283,284,252,-1,252,284,285,-1,252,285,265,-1,286,287,275,-1,275,287,288,-1,275,288,273,-1,289,290,228,-1,228,290,291,-1,228,291,229,-1,289,292,290,-1,290,292,293,-1,290,293,294,-1,294,293,295,-1,294,296,297,-1,295,298,294,-1,294,298,299,-1,294,299,300,-1,300,301,294,-1,294,301,302,-1,294,302,296,-1,297,303,294,-1,294,303,304,-1,294,304,305,-1,306,12,307,-1,308,309,310,-1,310,309,311,-1,312,313,314,-1,12,14,307,-1,307,14,315,-1,307,315,312,-1,314,313,316,-1,316,313,317,-1,316,317,311,-1,311,317,318,-1,311,318,310,-1,319,320,321,-1,322,323,324,-1,319,321,325,-1,325,321,326,-1,325,326,324,-1,324,326,327,-1,324,327,322,-1,328,329,314,-1,330,331,316,-1,329,332,314,-1,314,332,333,-1,314,333,319,-1,319,333,334,-1,319,334,320,-1,330,316,335,-1,322,336,323,-1,323,336,337,-1,323,337,316,-1,316,337,338,-1,316,338,335,-1,331,339,316,-1,316,339,340,-1,316,340,314,-1,314,340,341,-1,314,341,328,-1,324,342,343,-1,343,342,344,-1,345,346,347,-1,347,346,348,-1,348,346,349,-1,349,346,350,-1,349,350,351,-1,351,350,352,-1,351,352,11,-1,11,352,353,-1,11,353,9,-1,354,355,356,-1,343,352,324,-1,324,352,350,-1,324,350,325,-1,325,350,357,-1,325,357,356,-1,356,357,358,-1,356,358,354,-1,344,342,359,-1,359,342,360,-1,359,360,354,-1,361,362,360,-1,360,362,363,-1,360,363,364,-1,365,366,355,-1,367,368,365,-1,366,369,355,-1,355,369,370,-1,355,370,371,-1,367,365,372,-1,354,360,355,-1,355,360,364,-1,355,364,365,-1,365,364,373,-1,365,373,372,-1,368,374,365,-1,365,374,375,-1,365,375,376,-1,376,377,365,-1,365,377,378,-1,365,378,379,-1,379,380,365,-1,365,380,381,-1,365,381,382,-1,382,381,383,-1,383,381,384,-1,384,381,385,-1,384,385,386,-1,386,387,384,-1,384,387,388,-1,384,388,389,-1,389,388,390,-1,7,391,392,-1,392,391,361,-1,392,361,393,-1,8,394,395,-1,395,396,8,-1,8,396,397,-1,8,397,6,-1,398,399,400,-1,401,402,403,-1,403,402,404,-1,403,404,8,-1,8,404,405,-1,8,405,394,-1,406,407,408,-1,408,407,409,-1,408,409,410,-1,411,412,204,-1,204,412,413,-1,204,413,408,-1,408,413,414,-1,408,414,406,-1,223,222,233,-1,233,222,253,-1,233,253,204,-1,204,253,255,-1,204,255,411,-1,415,250,416,-1,416,250,248,-1,416,248,417,-1,198,200,418,-1,418,200,417,-1,418,417,419,-1,419,417,194,-1,194,417,248,-1,194,248,192,-1,192,248,247,-1,192,247,197,-1,420,421,422,-1,170,172,423,-1,423,172,424,-1,423,424,187,-1,187,424,422,-1,187,422,186,-1,186,422,421,-1,186,421,425,-1,426,427,428,-1,422,429,420,-1,420,429,430,-1,420,430,431,-1,431,430,426,-1,431,426,432,-1,432,426,428,-1,433,434,17,-1,17,434,435,-1,251,17,263,-1,263,17,435,-1,263,435,429,-1,429,435,436,-1,429,436,430,-1,437,434,438,-1,438,434,433,-1,438,433,439,-1,440,441,442,-1,443,444,433,-1,433,444,445,-1,433,445,439,-1,415,416,16,-1,16,416,440,-1,16,440,17,-1,17,440,442,-1,17,442,433,-1,433,442,446,-1,433,446,447,-1,448,449,450,-1,450,449,451,-1,450,451,440,-1,440,451,452,-1,440,452,441,-1,447,453,433,-1,433,453,454,-1,433,454,443,-1,455,456,457,-1,455,457,425,-1,456,458,457,-1,457,458,459,-1,457,459,450,-1,450,459,460,-1,450,460,448,-1,461,68,462,-1,462,68,64,-1,462,64,463,-1,463,64,52,-1,463,52,464,-1,464,52,57,-1,464,57,465,-1,465,57,39,-1,465,39,466,-1,466,39,36,-1,466,36,467,-1,467,36,31,-1,468,469,400,-1,400,469,470,-1,471,403,23,-1,399,401,400,-1,400,401,403,-1,400,403,468,-1,468,403,471,-1,468,471,472,-1,5,400,3,-1,3,400,470,-1,3,470,23,-1,23,470,473,-1,23,473,471,-1,474,475,476,-1,475,474,477,-1,477,474,5,-1,477,5,478,-1,479,480,481,-1,481,480,477,-1,481,477,482,-1,482,477,478,-1,482,478,483,-1,483,478,484,-1,2,474,0,-1,0,474,476,-1,0,476,4,-1,4,476,485,-1,4,485,5,-1,5,485,486,-1,5,486,478,-1,7,392,8,-1,8,392,487,-1,8,487,403,-1,403,487,32,-1,403,32,23,-1,23,32,34,-1,23,34,24,-1,2,417,474,-1,474,417,200,-1,474,200,5,-1,5,200,204,-1,5,204,400,-1,400,204,408,-1,400,408,398,-1,398,408,410,-1,172,314,424,-1,424,314,319,-1,424,319,422,-1,422,319,325,-1,422,325,429,-1,429,325,356,-1,429,356,263,-1,263,356,355,-1,263,355,255,-1,255,355,371,-1,255,371,411,-1,361,360,393,-1,393,360,342,-1,393,342,488,-1,488,342,324,-1,488,324,489,-1,489,324,323,-1,489,323,490,-1,490,323,316,-1,490,316,491,-1,491,316,311,-1,491,311,492,-1,492,311,309,-1,492,309,493,-1,310,306,308,-1,308,306,307,-1,308,307,494,-1,495,496,174,-1,497,498,496,-1,494,499,500,-1,500,499,501,-1,500,501,502,-1,503,504,502,-1,502,504,495,-1,502,495,500,-1,500,495,174,-1,312,314,307,-1,307,314,172,-1,307,172,494,-1,494,172,505,-1,494,505,499,-1,498,506,496,-1,496,506,507,-1,496,507,508,-1,509,172,510,-1,510,172,174,-1,510,174,511,-1,511,174,496,-1,511,496,512,-1,512,496,508,-1,497,496,513,-1,513,496,505,-1,513,505,514,-1,515,516,505,-1,505,516,517,-1,505,517,514,-1,509,518,172,-1,172,518,519,-1,172,519,505,-1,505,519,520,-1,505,520,515,-1,425,457,186,-1,186,457,521,-1,186,521,176,-1,176,521,522,-1,176,522,174,-1,174,522,523,-1,174,523,500,-1,71,70,1,-1,1,70,524,-1,1,524,2,-1,2,524,525,-1,2,525,417,-1,417,525,526,-1,417,526,416,-1,416,526,527,-1,416,527,440,-1,440,527,528,-1,440,528,450,-1,450,528,529,-1,450,529,457,-1,457,529,530,-1,457,530,521,-1,521,530,531,-1,521,531,522,-1,522,531,532,-1,522,532,523,-1,68,461,533,-1,532,531,534,-1,534,531,530,-1,534,530,529,-1,526,525,534,-1,534,525,524,-1,534,524,533,-1,533,524,70,-1,533,70,68,-1,529,528,534,-1,534,528,527,-1,534,527,526,-1,535,536,537,-1,537,536,538,-1,539,540,541,-1,541,540,542,-1,543,544,545,-1,545,544,546,-1,393,488,547,-1,539,546,548,-1,548,546,544,-1,548,544,549,-1,549,544,467,-1,549,467,31,-1,539,548,540,-1,540,548,550,-1,540,550,536,-1,536,550,547,-1,536,547,538,-1,31,32,549,-1,549,32,487,-1,549,487,547,-1,547,487,392,-1,547,392,393,-1,491,492,547,-1,547,492,493,-1,547,493,538,-1,488,489,547,-1,547,489,490,-1,547,490,491,-1,551,541,552,-1,552,541,542,-1,537,538,493,-1,493,309,537,-1,537,309,308,-1,537,308,494,-1,532,534,523,-1,523,534,537,-1,523,537,500,-1,500,537,494,-1,543,533,461,-1,461,462,543,-1,543,462,463,-1,543,463,464,-1,467,544,466,-1,466,544,543,-1,466,543,465,-1,465,543,464,-1,546,539,545,-1,545,539,541,-1,545,541,551,-1,540,536,542,-1,542,536,535,-1,542,535,552,-1,543,537,533,-1,533,537,534,-1,535,545,552,-1,552,545,551,-1,553,543,554,-1,554,543,545,-1,554,545,555,-1,555,545,535,-1,555,535,556,-1,556,535,537,-1,556,537,553,-1,553,537,543,-1,
        ]
    }
}
Shape{
    appearance Appearance {
        material  Material 	{
            diffuseColor 1.0 1.0 0.5019607843137255
            specularColor 0.5019607843137255 0.5019607843137255 0.25098039215686274
            ambientIntensity 0.9432
            transparency 0.0
            shininess 0.5
        }
    }
    geometry IndexedFaceSet {
        ccw TRUE
        solid FALSE
        coord DEF co Coordinate {
            point [
                0.874 0.126 0.2638, 1.126 0.126 0.2638, 1.126 0.117 0.1955, 0.874 0.117 0.1955, 1.126 0.0906 0.1319, 0.874 0.0906 0.1319, 1.126 0.0487 0.0773, 0.874 0.0487 0.0773, 1.126 -0.0059 0.0353, 0.874 -0.0059 0.0353, 1.126 -0.0695 0.009, 0.874 -0.0695 0.009, 1.126 -0.1378 0.0, 0.874 -0.1378 0.0, 0.874 -0.8661 0.0, 1.126 -0.8661 0.0, 1.0578 -0.9843 0.0682, 1.0578 -0.9843 0.1838, 0.9422 -0.9843 0.0682, 0.9422 -0.9843 0.1838, 1.126 -0.8661 0.252, 1.126 -0.1378 0.252, 0.874 -0.8661 0.252, 0.874 -0.1378 0.252, 0.874 -0.1347 0.2524, 1.126 -0.1347 0.2524, 0.874 -0.1319 0.2536, 1.126 -0.1319 0.2536, 0.874 -0.1294 0.2554, 1.126 -0.1294 0.2554, 0.874 -0.1276 0.2579, 1.126 -0.1276 0.2579, 0.874 -0.1264 0.2607, 1.126 -0.1264 0.2607, 0.874 -0.126 0.2638, 1.126 -0.126 0.2638, 1.126 -0.126 0.3937, 1.126 0.126 0.3937, 0.874 -0.126 0.3937, 0.874 0.126 0.3937, 0.874 -0.126 3.5039, 0.874 -0.126 1.2598, 1.126 -0.126 3.5039, 1.126 -0.126 1.2598, 1.0578 -0.0578 3.622, 1.0578 0.0578 3.622, 0.9422 -0.0578 3.622, 0.9422 0.0578 3.622, 1.126 0.126 3.5039, 1.126 0.126 1.2598, 0.874 0.126 3.5039, 0.874 0.126 1.2598
            ]
        }
        coordIndex [
            0,1,2,-1,0,2,3,-1,3,2,4,-1,3,4,5,-1,5,4,6,-1,5,6,7,-1,7,6,8,-1,7,8,9,-1,9,8,10,-1,9,10,11,-1,11,10,12,-1,11,12,13,-1,14,13,15,-1,15,13,12,-1,16,17,18,-1,18,17,19,-1,20,21,22,-1,22,21,23,-1,23,21,24,-1,24,21,25,-1,24,25,26,-1,26,25,27,-1,26,27,28,-1,28,27,29,-1,28,29,30,-1,30,29,31,-1,30,31,32,-1,32,31,33,-1,32,33,34,-1,34,33,35,-1,20,15,21,-1,21,15,12,-1,21,12,25,-1,25,12,10,-1,25,10,27,-1,27,10,8,-1,27,8,29,-1,29,8,6,-1,29,6,31,-1,31,6,4,-1,31,4,33,-1,33,4,2,-1,33,2,35,-1,35,2,1,-1,35,1,36,-1,36,1,37,-1,38,39,34,-1,34,39,0,-1,34,0,32,-1,32,0,3,-1,32,3,30,-1,30,3,5,-1,30,5,28,-1,28,5,7,-1,28,7,26,-1,26,7,9,-1,26,9,24,-1,24,9,11,-1,24,11,23,-1,23,11,13,-1,23,13,22,-1,22,13,14,-1,37,1,39,-1,39,1,0,-1,34,35,38,-1,38,35,36,-1,40,41,42,-1,42,41,43,-1,44,45,46,-1,46,45,47,-1,48,49,50,-1,50,49,51,-1,50,51,40,-1,40,51,41,-1,42,43,48,-1,48,43,49,-1,22,19,20,-1,20,19,17,-1,14,18,22,-1,22,18,19,-1,16,15,17,-1,17,15,20,-1,15,16,14,-1,14,16,18,-1,50,47,48,-1,48,47,45,-1,40,46,50,-1,50,46,47,-1,44,42,45,-1,45,42,48,-1,42,44,40,-1,40,44,46,-1,
        ]
    }
}
Shape{
    appearance Appearance {
        material  Material 	{
            diffuseColor 1.0 1.0 1.0
            specularColor 0.5019607843137255 0.5019607843137255 0.5019607843137255
            ambientIntensity 1.0
            transparency 0.0
            shininess 0.5
        }
    }
    geometry IndexedFaceSet {
        ccw TRUE
        solid FALSE
        coord DEF co Coordinate {
            point [
                0.9649 0.4961 0.5914, 0.9649 0.4961 0.5838, 0.9649 0.4921 0.5914, 0.9649 0.4921 0.5838, 0.9915 0.4961 0.5914, 0.9915 0.4921 0.5914, 0.9915 0.4961 0.6505, 0.9915 0.4921 0.6505, 1.0001 0.4961 0.6505, 1.0001 0.4921 0.6505, 1.0001 0.4961 0.5838, 1.0001 0.4921 0.5838, 0.9307 0.4961 0.5826, 0.9307 0.4921 0.5826, 0.9205 0.4961 0.5836, 0.9248 0.4921 0.5832, 0.9205 0.4921 0.5836, 0.9133 0.4921 0.586, 0.9133 0.4961 0.586, 0.9122 0.4921 0.5865, 0.9122 0.4961 0.5865, 0.9122 0.4961 0.5948, 0.9122 0.4921 0.5948, 0.9188 0.4921 0.5918, 0.9188 0.4961 0.5918, 0.9263 0.4921 0.5904, 0.9263 0.4961 0.5904, 0.9294 0.4921 0.5903, 0.9294 0.4961 0.5903, 0.9353 0.4921 0.5909, 0.9353 0.4961 0.5909, 0.9402 0.4921 0.5926, 0.9402 0.4961 0.5926, 0.9447 0.4921 0.5955, 0.9447 0.4961 0.5955, 0.9466 0.4921 0.5974, 0.9466 0.4961 0.5974, 0.9496 0.4921 0.6015, 0.9496 0.4961 0.6015, 0.9519 0.4921 0.6068, 0.9519 0.4961 0.6068, 0.953 0.4921 0.6134, 0.953 0.4961 0.6134, 0.9531 0.4921 0.6164, 0.9531 0.4961 0.6164, 0.952 0.4921 0.6255, 0.952 0.4961 0.6255, 0.9498 0.4921 0.6313, 0.9498 0.4961 0.6313, 0.9466 0.4921 0.6359, 0.9466 0.4961 0.6359, 0.9461 0.4921 0.6364, 0.9461 0.4961 0.6364, 0.942 0.4921 0.6399, 0.942 0.4961 0.6399, 0.9368 0.4921 0.6425, 0.9368 0.4961 0.6425, 0.9311 0.4921 0.6437, 0.9311 0.4961 0.6437, 0.9279 0.4921 0.6438, 0.9279 0.4961 0.6438, 0.9197 0.4921 0.6429, 0.9197 0.4961 0.6429, 0.9129 0.4921 0.6403, 0.9129 0.4961 0.6403, 0.9122 0.4921 0.6399, 0.9122 0.4961 0.6399, 0.9122 0.4961 0.6489, 0.9122 0.4921 0.6489, 0.928 0.4921 0.6516, 0.928 0.4961 0.6516, 0.9209 0.4921 0.6511, 0.9193 0.4961 0.6509, 0.9193 0.4921 0.6509, 0.9327 0.4921 0.6511, 0.9377 0.4961 0.6505, 0.9377 0.4921 0.6505, 0.9446 0.4921 0.6478, 0.9446 0.4961 0.6478, 0.9509 0.4921 0.6434, 0.9509 0.4961 0.6434, 0.9525 0.4921 0.6418, 0.9525 0.4961 0.6418, 0.9574 0.4921 0.6355, 0.9592 0.4921 0.6312, 0.9605 0.4961 0.6281, 0.9574 0.4961 0.6355, 0.9605 0.4921 0.6281, 0.962 0.4921 0.6194, 0.962 0.4961 0.6194, 0.9622 0.4921 0.6159, 0.9622 0.4961 0.6159, 0.9609 0.4921 0.605, 0.9592 0.4921 0.6007, 0.9581 0.4961 0.5981, 0.9609 0.4961 0.605, 0.9581 0.4921 0.5981, 0.9542 0.4921 0.5924, 0.9542 0.4961 0.5924, 0.9536 0.4921 0.5918, 0.9536 0.4961 0.5918, 0.9347 0.4961 0.5828, 0.9482 0.4921 0.5873, 0.9482 0.4961 0.5873, 0.9419 0.4921 0.5843, 0.9419 0.4961 0.5843, 0.9365 0.4921 0.5832, 0.9347 0.4921 0.5828, 0.863 0.4961 0.5914, 0.863 0.4961 0.5838, 0.863 0.4921 0.5914, 0.863 0.4921 0.5838, 0.8902 0.4921 0.5914, 0.8902 0.4961 0.5914, 0.8722 0.4921 0.5914, 0.8902 0.4961 0.6138, 0.8902 0.4921 0.6138, 0.8664 0.4961 0.6138, 0.8722 0.4921 0.6138, 0.8664 0.4921 0.6138, 0.8664 0.4961 0.6215, 0.8664 0.4921 0.6215, 0.8902 0.4921 0.6215, 0.8902 0.4961 0.6215, 0.8722 0.4921 0.6215, 0.8902 0.4961 0.6428, 0.8902 0.4921 0.6428, 0.8645 0.4961 0.6428, 0.8722 0.4921 0.6428, 0.8645 0.4921 0.6428, 0.8645 0.4961 0.6505, 0.8645 0.4921 0.6505, 0.8989 0.4921 0.6505, 0.8989 0.4961 0.6505, 0.8722 0.4921 0.6505, 0.8989 0.4961 0.5838, 0.8989 0.4921 0.5838, 0.8722 0.4921 0.5838, 0.8061 0.4961 0.5931, 0.813 0.4961 0.5976, 0.8131 0.4961 0.5881, 0.8173 0.4961 0.5946, 0.8207 0.4961 0.5851, 0.8228 0.4961 0.5925, 0.832 0.4961 0.5838, 0.8321 0.4961 0.5914, 0.8504 0.4961 0.5838, 0.8417 0.4961 0.5914, 0.8504 0.4961 0.6505, 0.8417 0.4961 0.6428, 0.8313 0.4961 0.6505, 0.8317 0.4961 0.6428, 0.831 0.4961 0.6428, 0.8211 0.4961 0.6494, 0.8225 0.4961 0.6417, 0.8131 0.4961 0.6464, 0.8168 0.4961 0.6395, 0.8061 0.4961 0.6417, 0.8124 0.4961 0.6365, 0.8037 0.4961 0.6394, 0.8105 0.4961 0.6347, 0.7996 0.4961 0.6335, 0.808 0.4961 0.631, 0.7971 0.4961 0.6272, 0.8061 0.4961 0.6261, 0.796 0.4961 0.618, 0.8051 0.4961 0.6178, 0.7962 0.4961 0.6137, 0.8054 0.4961 0.6132, 0.7979 0.4961 0.6059, 0.8067 0.4961 0.6071, 0.8011 0.4961 0.599, 0.809 0.4961 0.6022, 0.8122 0.4961 0.5983, 0.832 0.4921 0.5838, 0.8504 0.4921 0.5838, 0.8061 0.4921 0.5931, 0.8207 0.4921 0.5851, 0.8198 0.4921 0.5855, 0.8131 0.4921 0.5881, 0.8011 0.4921 0.599, 0.7979 0.4921 0.6059, 0.7962 0.4921 0.6137, 0.796 0.4921 0.618, 0.7971 0.4921 0.6272, 0.7996 0.4921 0.6335, 0.8037 0.4921 0.6394, 0.8061 0.4921 0.6417, 0.8313 0.4921 0.6505, 0.8131 0.4921 0.6464, 0.8198 0.4921 0.6489, 0.8211 0.4921 0.6494, 0.8504 0.4921 0.6505, 0.8317 0.4921 0.6428, 0.8417 0.4921 0.6428, 0.8417 0.4921 0.5914, 0.8321 0.4921 0.5914, 0.8122 0.4921 0.5983, 0.813 0.4921 0.5976, 0.8173 0.4921 0.5946, 0.8228 0.4921 0.5925, 0.8051 0.4921 0.6178, 0.8054 0.4921 0.6132, 0.8067 0.4921 0.6071, 0.809 0.4921 0.6022, 0.8124 0.4921 0.6365, 0.8105 0.4921 0.6347, 0.808 0.4921 0.631, 0.8061 0.4921 0.6261, 0.831 0.4921 0.6428, 0.8225 0.4921 0.6417, 0.8168 0.4921 0.6395
            ]
        }
        coordIndex [
            0,1,2,-1,2,1,3,-1,4,0,5,-1,5,0,2,-1,6,4,7,-1,7,4,5,-1,8,6,9,-1,9,6,7,-1,10,8,11,-1,11,8,9,-1,1,10,3,-1,3,10,11,-1,6,8,4,-1,4,8,10,-1,4,10,0,-1,0,10,1,-1,12,13,14,-1,14,13,15,-1,15,16,14,-1,14,16,17,-1,14,17,18,-1,18,17,19,-1,18,19,20,-1,21,20,22,-1,22,20,19,-1,21,22,23,-1,21,23,24,-1,24,23,25,-1,24,25,26,-1,26,25,27,-1,26,27,28,-1,28,27,29,-1,28,29,30,-1,30,29,31,-1,30,31,32,-1,32,31,33,-1,32,33,34,-1,34,33,35,-1,34,35,36,-1,36,35,37,-1,36,37,38,-1,38,37,39,-1,38,39,40,-1,40,39,41,-1,40,41,42,-1,42,41,43,-1,42,43,44,-1,44,43,45,-1,44,45,46,-1,46,45,47,-1,46,47,48,-1,48,47,49,-1,48,49,50,-1,50,49,51,-1,50,51,52,-1,52,51,53,-1,52,53,54,-1,54,53,55,-1,54,55,56,-1,56,55,57,-1,56,57,58,-1,58,57,59,-1,58,59,60,-1,60,59,61,-1,60,61,62,-1,62,61,63,-1,62,63,64,-1,64,63,65,-1,64,65,66,-1,67,66,68,-1,68,66,65,-1,69,70,71,-1,71,70,72,-1,71,72,73,-1,73,72,67,-1,73,67,68,-1,70,69,74,-1,70,74,75,-1,74,76,75,-1,75,76,77,-1,75,77,78,-1,78,77,79,-1,78,79,80,-1,80,79,81,-1,80,81,82,-1,82,81,83,-1,84,85,83,-1,83,85,86,-1,83,86,82,-1,84,87,85,-1,85,87,88,-1,85,88,89,-1,89,88,90,-1,89,90,91,-1,91,90,92,-1,93,94,92,-1,92,94,95,-1,92,95,91,-1,93,96,94,-1,94,96,97,-1,94,97,98,-1,98,97,99,-1,98,99,100,-1,13,12,101,-1,100,99,102,-1,100,102,103,-1,103,102,104,-1,103,104,105,-1,105,104,106,-1,105,106,101,-1,101,106,107,-1,101,107,13,-1,54,56,75,-1,46,48,86,-1,86,48,82,-1,75,56,70,-1,91,44,89,-1,89,44,46,-1,89,46,85,-1,85,46,86,-1,56,58,70,-1,70,58,60,-1,70,60,72,-1,72,60,62,-1,72,62,67,-1,67,62,64,-1,67,64,66,-1,20,21,18,-1,18,21,24,-1,18,24,14,-1,14,24,26,-1,14,26,12,-1,12,26,28,-1,12,28,101,-1,101,28,30,-1,101,30,105,-1,105,30,32,-1,105,32,103,-1,103,32,34,-1,103,34,100,-1,100,34,36,-1,100,36,98,-1,98,36,38,-1,98,38,94,-1,94,38,95,-1,95,38,40,-1,95,40,91,-1,91,40,42,-1,91,42,44,-1,48,50,82,-1,82,50,52,-1,82,52,80,-1,80,52,54,-1,80,54,78,-1,78,54,75,-1,108,109,110,-1,110,109,111,-1,112,113,114,-1,114,113,108,-1,114,108,110,-1,115,113,116,-1,116,113,112,-1,115,116,117,-1,117,116,118,-1,117,118,119,-1,120,117,121,-1,121,117,119,-1,122,123,124,-1,124,123,120,-1,124,120,121,-1,125,123,126,-1,126,123,122,-1,125,126,127,-1,127,126,128,-1,127,128,129,-1,130,127,131,-1,131,127,129,-1,132,133,134,-1,134,133,130,-1,134,130,131,-1,135,133,136,-1,136,133,132,-1,135,136,109,-1,109,136,137,-1,109,137,111,-1,135,109,108,-1,108,113,135,-1,135,113,115,-1,135,115,133,-1,127,130,125,-1,125,130,133,-1,125,133,123,-1,123,133,115,-1,123,115,120,-1,120,115,117,-1,138,139,140,-1,140,139,141,-1,140,141,142,-1,142,141,143,-1,142,143,144,-1,144,143,145,-1,144,145,146,-1,146,145,147,-1,146,147,148,-1,148,147,149,-1,148,149,150,-1,149,151,150,-1,150,151,152,-1,150,152,153,-1,153,152,154,-1,153,154,155,-1,155,154,156,-1,155,156,157,-1,157,156,158,-1,157,158,159,-1,159,158,160,-1,159,160,161,-1,161,160,162,-1,161,162,163,-1,163,162,164,-1,163,164,165,-1,165,164,166,-1,165,166,167,-1,167,166,168,-1,167,168,169,-1,169,168,170,-1,169,170,171,-1,171,170,172,-1,171,172,138,-1,138,172,173,-1,138,173,139,-1,144,146,174,-1,174,146,175,-1,176,138,140,-1,144,174,177,-1,144,177,142,-1,142,177,178,-1,142,178,140,-1,140,178,179,-1,140,179,176,-1,138,176,180,-1,138,180,171,-1,171,180,181,-1,171,181,169,-1,169,181,182,-1,169,182,167,-1,167,182,183,-1,167,183,165,-1,165,183,184,-1,165,184,163,-1,163,184,185,-1,163,185,161,-1,161,185,186,-1,161,186,159,-1,159,186,187,-1,159,187,157,-1,188,150,153,-1,157,187,189,-1,157,189,155,-1,155,189,190,-1,155,190,153,-1,153,190,191,-1,153,191,188,-1,148,150,192,-1,192,150,188,-1,146,148,175,-1,175,148,192,-1,151,149,193,-1,193,149,194,-1,149,147,194,-1,194,147,195,-1,147,145,195,-1,195,145,196,-1,173,197,198,-1,173,198,139,-1,139,198,199,-1,139,199,141,-1,141,199,200,-1,141,200,143,-1,143,200,196,-1,143,196,145,-1,166,201,202,-1,166,202,168,-1,168,202,203,-1,168,203,170,-1,170,203,204,-1,170,204,172,-1,172,204,197,-1,172,197,173,-1,158,205,206,-1,158,206,160,-1,160,206,207,-1,160,207,162,-1,162,207,208,-1,162,208,164,-1,164,208,201,-1,164,201,166,-1,151,193,209,-1,151,209,152,-1,152,209,210,-1,152,210,154,-1,154,210,211,-1,154,211,156,-1,156,211,205,-1,156,205,158,-1,
        ]
    }
}
Shape{
    appearance Appearance {
        material  Material 	{
            diffuseColor 0.25098039215686274 0.25098039215686274 0.25098039215686274
            specularColor 0.12549019607843137 0.12549019607843137 0.12549019607843137
            ambientIntensity 0.251
            transparency 0.0
            shininess 0.5
        }
    }
    geometry IndexedFaceSet {
        ccw TRUE
        solid FALSE
        coord DEF co Coordinate {
            point [
                0.8173 0.4921 0.5946, 0.813 0.4921 0.5976, 0.831 0.4921 0.6428, 0.8417 0.4921 0.6428, 0.8417 0.4921 0.5914, 0.8317 0.4921 0.6428, 0.8321 0.4921 0.5914, 0.8228 0.4921 0.5925, 0.8122 0.4921 0.5983, 0.809 0.4921 0.6022, 0.8067 0.4921 0.6071, 0.8051 0.4921 0.6178, 0.8124 0.4921 0.6365, 0.8168 0.4921 0.6395, 0.8061 0.4921 0.6261, 0.808 0.4921 0.631, 0.8105 0.4921 0.6347, 0.8054 0.4921 0.6132, 0.8225 0.4921 0.6417
            ]
        }
        coordIndex [
            0,1,2,-1,3,4,5,-1,5,4,6,-1,5,6,2,-1,2,6,7,-1,2,7,0,-1,1,8,2,-1,2,8,9,-1,2,9,10,-1,11,12,13,-1,14,15,11,-1,11,15,16,-1,11,16,12,-1,10,17,2,-1,2,17,11,-1,2,11,18,-1,18,11,13,-1,
        ]
    }
}
Shape{
    appearance Appearance {
        material  Material 	{
            diffuseColor 1.0 1.0 1.0
            specularColor 0.5019607843137255 0.5019607843137255 0.5019607843137255
            ambientIntensity 1.0
            transparency 0.0
            shininess 0.5
        }
    }
    geometry IndexedFaceSet {
        ccw TRUE
        solid FALSE
        coord DEF co Coordinate {
            point [
                0.7737 0.4961 0.6096, 0.7764 0.4961 0.602, 0.7513 0.4961 0.6096, 0.7486 0.4961 0.602, 0.7637 0.4961 0.6373, 0.7669 0.4961 0.6505, 0.7923 0.4961 0.5838, 0.7828 0.4961 0.5838, 0.7631 0.4961 0.6393, 0.7626 0.4961 0.642, 0.7577 0.4961 0.6505, 0.7624 0.4961 0.642, 0.7619 0.4961 0.6391, 0.7614 0.4961 0.6373, 0.7323 0.4961 0.5838, 0.7418 0.4961 0.5838, 0.7577 0.4921 0.6505, 0.7323 0.4921 0.5838, 0.7669 0.4921 0.6505, 0.7923 0.4921 0.5838, 0.7731 0.4921 0.6343, 0.7828 0.4921 0.5838, 0.7764 0.4921 0.602, 0.7486 0.4921 0.602, 0.7731 0.4921 0.602, 0.7418 0.4921 0.5838, 0.7737 0.4921 0.6096, 0.7513 0.4921 0.6096, 0.7614 0.4921 0.6373, 0.7624 0.4921 0.642, 0.7619 0.4921 0.6391, 0.7626 0.4921 0.642, 0.7637 0.4921 0.6373, 0.7631 0.4921 0.6393
            ]
        }
        coordIndex [
            0,1,2,-1,2,1,3,-1,4,5,0,-1,0,5,6,-1,0,6,1,-1,1,6,7,-1,4,8,5,-1,5,8,9,-1,5,9,10,-1,10,9,11,-1,10,11,12,-1,12,13,10,-1,10,13,2,-1,10,2,14,-1,14,2,3,-1,14,3,15,-1,10,14,16,-1,16,14,17,-1,5,10,18,-1,18,10,16,-1,19,6,20,-1,20,6,5,-1,20,5,18,-1,7,6,21,-1,21,6,19,-1,1,7,22,-1,22,7,21,-1,23,3,24,-1,24,3,1,-1,24,1,22,-1,15,3,25,-1,25,3,23,-1,14,15,17,-1,17,15,25,-1,0,2,26,-1,26,2,27,-1,2,13,27,-1,27,13,28,-1,11,29,30,-1,11,30,12,-1,12,30,28,-1,12,28,13,-1,11,9,29,-1,29,9,31,-1,4,32,33,-1,4,33,8,-1,8,33,31,-1,8,31,9,-1,4,0,32,-1,32,0,26,-1,
        ]
    }
}
Shape{
    appearance Appearance {
        material  Material 	{
            diffuseColor 0.25098039215686274 0.25098039215686274 0.25098039215686274
            specularColor 0.12549019607843137 0.12549019607843137 0.12549019607843137
            ambientIntensity 0.251
            transparency 0.0
            shininess 0.5
        }
    }
    geometry IndexedFaceSet {
        ccw TRUE
        solid FALSE
        coord DEF co Coordinate {
            point [
                0.7624 0.4921 0.642, 0.7626 0.4921 0.642, 0.7619 0.4921 0.6391, 0.7631 0.4921 0.6393, 0.7614 0.4921 0.6373, 0.7637 0.4921 0.6373, 0.7513 0.4921 0.6096, 0.7737 0.4921 0.6096
            ]
        }
        coordIndex [
            0,1,2,-1,2,1,3,-1,2,3,4,-1,4,3,5,-1,4,5,6,-1,6,5,7,-1,
        ]
    }
}
Shape{
    appearance Appearance {
        material  Material 	{
            diffuseColor 1.0 1.0 1.0
            specularColor 0.5019607843137255 0.5019607843137255 0.5019607843137255
            ambientIntensity 1.0
            transparency 0.0
            shininess 0.5
        }
    }
    geometry IndexedFaceSet {
        ccw TRUE
        solid FALSE
        coord DEF co Coordinate {
            point [
                0.9642 0.4961 0.4855, 0.9642 0.4961 0.4779, 0.9642 0.4921 0.4855, 0.9642 0.4921 0.4779, 0.9915 0.4961 0.4855, 0.9915 0.4921 0.4855, 0.9915 0.4961 0.508, 0.9915 0.4921 0.508, 0.9676 0.4961 0.508, 0.9676 0.4921 0.508, 0.9676 0.4961 0.5156, 0.9676 0.4921 0.5156, 0.9915 0.4961 0.5156, 0.9915 0.4921 0.5156, 0.9915 0.4961 0.537, 0.9915 0.4921 0.537, 0.9657 0.4961 0.537, 0.9657 0.4921 0.537, 0.9657 0.4961 0.5446, 0.9657 0.4921 0.5446, 1.0001 0.4961 0.5446, 1.0001 0.4921 0.5446, 1.0001 0.4961 0.4779, 1.0001 0.4921 0.4779, 0.9263 0.4961 0.4779, 0.9179 0.4961 0.4779, 0.9263 0.4961 0.4853, 0.9179 0.4961 0.5086, 0.9374 0.4961 0.5003, 0.9263 0.4961 0.5018, 0.9263 0.4961 0.4973, 0.9265 0.4961 0.4853, 0.9309 0.4961 0.4865, 0.9287 0.4961 0.4822, 0.9333 0.4961 0.4849, 0.9501 0.4961 0.503, 0.9527 0.4961 0.5008, 0.9465 0.4961 0.4962, 0.9263 0.4961 0.4967, 0.9268 0.4961 0.493, 0.928 0.4961 0.49, 0.9298 0.4961 0.4875, 0.9515 0.4961 0.5222, 0.9515 0.4961 0.5141, 0.9498 0.4961 0.5232, 0.9466 0.4961 0.5173, 0.9436 0.4961 0.5256, 0.9414 0.4961 0.5192, 0.9351 0.4961 0.5267, 0.9359 0.4961 0.5199, 0.9299 0.4961 0.5262, 0.9331 0.4961 0.5196, 0.9265 0.4961 0.5251, 0.9311 0.4961 0.5189, 0.9237 0.4961 0.5235, 0.9297 0.4961 0.518, 0.9215 0.4961 0.5213, 0.9284 0.4961 0.5166, 0.9198 0.4961 0.5186, 0.9274 0.4961 0.5149, 0.9185 0.4961 0.5147, 0.9266 0.4961 0.5119, 0.9263 0.4961 0.5082, 0.9472 0.4961 0.4946, 0.9544 0.4961 0.4984, 0.9476 0.4961 0.4927, 0.9404 0.4961 0.5062, 0.9445 0.4961 0.4982, 0.9426 0.4961 0.4991, 0.946 0.4961 0.4865, 0.9521 0.4961 0.4805, 0.9453 0.4961 0.4858, 0.9493 0.4961 0.4786, 0.9436 0.4961 0.4847, 0.9461 0.4961 0.4774, 0.9417 0.4961 0.484, 0.9411 0.4961 0.4768, 0.9389 0.4961 0.4837, 0.9363 0.4961 0.4774, 0.9358 0.4961 0.484, 0.933 0.4961 0.4787, 0.9314 0.4961 0.4797, 0.9455 0.4961 0.4974, 0.9464 0.4961 0.5048, 0.9556 0.4961 0.4955, 0.9562 0.4961 0.4919, 0.9477 0.4961 0.4914, 0.9562 0.4961 0.4907, 0.9475 0.4961 0.4894, 0.9558 0.4961 0.4869, 0.947 0.4961 0.4879, 0.9548 0.4961 0.484, 0.953 0.4961 0.4815, 0.9351 0.4921 0.5267, 0.9436 0.4921 0.5256, 0.9498 0.4921 0.5232, 0.9515 0.4921 0.5222, 0.9515 0.4921 0.5141, 0.9466 0.4921 0.5173, 0.9414 0.4921 0.5192, 0.9359 0.4921 0.5199, 0.9331 0.4921 0.5196, 0.9311 0.4921 0.5189, 0.9297 0.4921 0.518, 0.9284 0.4921 0.5166, 0.9274 0.4921 0.5149, 0.9266 0.4921 0.5119, 0.9263 0.4921 0.5082, 0.9404 0.4921 0.5062, 0.9464 0.4921 0.5048, 0.9501 0.4921 0.503, 0.9527 0.4921 0.5008, 0.9544 0.4921 0.4984, 0.9556 0.4921 0.4955, 0.9562 0.4921 0.4919, 0.9562 0.4921 0.4907, 0.9558 0.4921 0.4869, 0.9548 0.4921 0.484, 0.953 0.4921 0.4815, 0.9521 0.4921 0.4805, 0.9411 0.4921 0.4768, 0.9459 0.4921 0.4774, 0.9461 0.4921 0.4774, 0.9493 0.4921 0.4786, 0.9365 0.4921 0.4774, 0.9363 0.4921 0.4774, 0.933 0.4921 0.4787, 0.9314 0.4921 0.4797, 0.9287 0.4921 0.4822, 0.9265 0.4921 0.4853, 0.9263 0.4921 0.4853, 0.9263 0.4921 0.4779, 0.9179 0.4921 0.4779, 0.9179 0.4921 0.5086, 0.9185 0.4921 0.5147, 0.9198 0.4921 0.5186, 0.9215 0.4921 0.5213, 0.9237 0.4921 0.5235, 0.9265 0.4921 0.5251, 0.9299 0.4921 0.5262, 0.9455 0.4921 0.4974, 0.9445 0.4921 0.4982, 0.9426 0.4921 0.4991, 0.9374 0.4921 0.5003, 0.9477 0.4921 0.4914, 0.9476 0.4921 0.4927, 0.9472 0.4921 0.4946, 0.9465 0.4921 0.4962, 0.9453 0.4921 0.4858, 0.946 0.4921 0.4865, 0.947 0.4921 0.4879, 0.9475 0.4921 0.4894, 0.9389 0.4921 0.4837, 0.9417 0.4921 0.484, 0.9436 0.4921 0.4847, 0.9298 0.4921 0.4875, 0.9309 0.4921 0.4865, 0.9333 0.4921 0.4849, 0.9358 0.4921 0.484, 0.9263 0.4921 0.4973, 0.9263 0.4921 0.4967, 0.9268 0.4921 0.493, 0.928 0.4921 0.49, 0.9263 0.4921 0.5018
            ]
        }
        coordIndex [
            0,1,2,-1,2,1,3,-1,4,0,5,-1,5,0,2,-1,6,4,7,-1,7,4,5,-1,8,6,9,-1,9,6,7,-1,10,8,11,-1,11,8,9,-1,12,10,13,-1,13,10,11,-1,14,12,15,-1,15,12,13,-1,16,14,17,-1,17,14,15,-1,18,16,19,-1,19,16,17,-1,20,18,21,-1,21,18,19,-1,22,20,23,-1,23,20,21,-1,1,22,3,-1,3,22,23,-1,22,1,0,-1,0,4,22,-1,22,4,6,-1,22,6,20,-1,16,18,14,-1,14,18,20,-1,14,20,12,-1,12,20,6,-1,12,6,10,-1,10,6,8,-1,24,25,26,-1,26,25,27,-1,28,29,27,-1,27,29,30,-1,31,32,33,-1,33,32,34,-1,35,36,37,-1,30,38,27,-1,27,38,39,-1,27,39,26,-1,26,39,40,-1,26,40,31,-1,31,40,41,-1,31,41,32,-1,42,43,44,-1,44,43,45,-1,44,45,46,-1,46,45,47,-1,46,47,48,-1,48,47,49,-1,48,49,50,-1,50,49,51,-1,50,51,52,-1,52,51,53,-1,52,53,54,-1,54,53,55,-1,54,55,56,-1,56,55,57,-1,56,57,58,-1,58,57,59,-1,58,59,60,-1,60,59,61,-1,60,61,27,-1,27,61,62,-1,27,62,28,-1,37,36,63,-1,63,36,64,-1,63,64,65,-1,66,67,62,-1,62,67,68,-1,62,68,28,-1,69,70,71,-1,71,70,72,-1,71,72,73,-1,73,72,74,-1,73,74,75,-1,75,74,76,-1,75,76,77,-1,77,76,78,-1,77,78,79,-1,79,78,80,-1,79,80,34,-1,34,80,81,-1,34,81,33,-1,37,82,35,-1,35,82,67,-1,35,67,83,-1,83,67,66,-1,64,84,65,-1,65,84,85,-1,65,85,86,-1,86,85,87,-1,86,87,88,-1,88,87,89,-1,88,89,90,-1,90,89,91,-1,90,91,69,-1,69,91,92,-1,69,92,70,-1,48,93,94,-1,48,94,46,-1,46,94,95,-1,46,95,44,-1,44,95,96,-1,44,96,42,-1,43,42,97,-1,97,42,96,-1,43,97,98,-1,43,98,45,-1,45,98,99,-1,45,99,47,-1,47,99,100,-1,47,100,49,-1,49,100,101,-1,49,101,51,-1,51,101,102,-1,51,102,53,-1,53,102,103,-1,53,103,55,-1,55,103,104,-1,55,104,57,-1,57,104,105,-1,57,105,59,-1,59,105,106,-1,59,106,61,-1,61,106,107,-1,61,107,62,-1,66,62,108,-1,108,62,107,-1,66,108,109,-1,66,109,83,-1,83,109,110,-1,83,110,35,-1,35,110,111,-1,35,111,36,-1,36,111,112,-1,36,112,64,-1,64,112,113,-1,64,113,84,-1,84,113,114,-1,84,114,85,-1,85,114,115,-1,85,115,87,-1,87,115,116,-1,87,116,89,-1,89,116,117,-1,89,117,91,-1,91,117,118,-1,91,118,92,-1,92,118,119,-1,92,119,70,-1,120,76,121,-1,121,76,74,-1,121,74,122,-1,122,74,72,-1,122,72,123,-1,123,72,70,-1,123,70,119,-1,120,124,76,-1,76,124,78,-1,124,125,78,-1,78,125,126,-1,78,126,80,-1,80,126,127,-1,80,127,81,-1,81,127,128,-1,81,128,33,-1,33,128,129,-1,33,129,31,-1,26,31,130,-1,130,31,129,-1,24,26,131,-1,131,26,130,-1,25,24,132,-1,132,24,131,-1,27,25,133,-1,133,25,132,-1,27,133,134,-1,27,134,60,-1,60,134,135,-1,60,135,58,-1,58,135,136,-1,58,136,56,-1,56,136,137,-1,56,137,54,-1,54,137,138,-1,54,138,52,-1,52,138,139,-1,52,139,50,-1,50,139,93,-1,50,93,48,-1,82,140,141,-1,82,141,67,-1,67,141,142,-1,67,142,68,-1,68,142,143,-1,68,143,28,-1,86,144,145,-1,86,145,65,-1,65,145,146,-1,65,146,63,-1,63,146,147,-1,63,147,37,-1,37,147,140,-1,37,140,82,-1,71,148,149,-1,71,149,69,-1,69,149,150,-1,69,150,90,-1,90,150,151,-1,90,151,88,-1,88,151,144,-1,88,144,86,-1,77,152,153,-1,77,153,75,-1,75,153,154,-1,75,154,73,-1,73,154,148,-1,73,148,71,-1,41,155,156,-1,41,156,32,-1,32,156,157,-1,32,157,34,-1,34,157,158,-1,34,158,79,-1,79,158,152,-1,79,152,77,-1,30,159,160,-1,30,160,38,-1,38,160,161,-1,38,161,39,-1,39,161,162,-1,39,162,40,-1,40,162,155,-1,40,155,41,-1,30,29,159,-1,159,29,163,-1,29,28,163,-1,163,28,143,-1,
        ]
    }
}
Shape{
    appearance Appearance {
        material  Material 	{
            diffuseColor 0.25098039215686274 0.25098039215686274 0.25098039215686274
            specularColor 0.12549019607843137 0.12549019607843137 0.12549019607843137
            ambientIntensity 0.251
            transparency 0.0
            shininess 0.5
        }
    }
    geometry IndexedFaceSet {
        ccw TRUE
        solid FALSE
        coord DEF co Coordinate {
            point [
                0.9263 0.4921 0.4967, 0.9263 0.4921 0.4973, 0.9455 0.4921 0.4974, 0.9263 0.4921 0.5018, 0.9374 0.4921 0.5003, 0.9426 0.4921 0.4991, 0.9445 0.4921 0.4982, 0.9268 0.4921 0.493, 0.9465 0.4921 0.4962, 0.928 0.4921 0.49, 0.946 0.4921 0.4865, 0.9453 0.4921 0.4858, 0.9309 0.4921 0.4865, 0.947 0.4921 0.4879, 0.9333 0.4921 0.4849, 0.9358 0.4921 0.484, 0.9389 0.4921 0.4837, 0.9472 0.4921 0.4946, 0.9476 0.4921 0.4927, 0.9298 0.4921 0.4875, 0.9477 0.4921 0.4914, 0.9475 0.4921 0.4894, 0.9436 0.4921 0.4847, 0.9417 0.4921 0.484
            ]
        }
        coordIndex [
            0,1,2,-1,1,3,4,-1,4,5,1,-1,1,5,6,-1,1,6,2,-1,0,2,7,-1,7,2,8,-1,7,8,9,-1,10,11,12,-1,10,12,13,-1,14,12,15,-1,15,12,16,-1,8,17,9,-1,9,17,18,-1,9,18,19,-1,19,18,20,-1,19,20,12,-1,12,20,21,-1,12,21,13,-1,11,22,12,-1,12,22,23,-1,12,23,16,-1,
        ]
    }
}
Shape{
    appearance Appearance {
        material  Material 	{
            diffuseColor 1.0 1.0 1.0
            specularColor 0.5019607843137255 0.5019607843137255 0.5019607843137255
            ambientIntensity 1.0
            transparency 0.0
            shininess 0.5
        }
    }
    geometry IndexedFaceSet {
        ccw TRUE
        solid FALSE
        coord DEF co Coordinate {
            point [
                0.9066 0.4921 0.4882, 0.9066 0.4961 0.4882, 0.9032 0.4961 0.4862, 0.8928 0.4961 0.4836, 0.8928 0.4921 0.4836, 0.898 0.4921 0.4842, 0.898 0.4961 0.4842, 0.9027 0.4921 0.486, 0.9032 0.4921 0.4862, 0.9066 0.4961 0.4796, 0.9066 0.4921 0.4796, 0.9027 0.4921 0.4782, 0.9015 0.4961 0.4777, 0.8936 0.4921 0.4768, 0.8936 0.4961 0.4768, 0.8984 0.4921 0.4774, 0.9015 0.4921 0.4777, 0.8862 0.4961 0.4777, 0.8889 0.4921 0.4774, 0.8862 0.4921 0.4777, 0.8818 0.4921 0.4794, 0.8818 0.4961 0.4794, 0.8798 0.4921 0.4806, 0.8798 0.4961 0.4806, 0.8774 0.4921 0.4827, 0.8774 0.4961 0.4827, 0.8758 0.4921 0.4849, 0.8758 0.4961 0.4849, 0.8748 0.4921 0.4875, 0.8748 0.4961 0.4875, 0.8744 0.4921 0.4909, 0.8744 0.4961 0.4909, 0.8747 0.4921 0.494, 0.8747 0.4961 0.494, 0.8756 0.4921 0.4965, 0.8756 0.4961 0.4965, 0.8772 0.4921 0.4988, 0.8772 0.4961 0.4988, 0.8792 0.4921 0.5005, 0.8792 0.4961 0.5005, 0.8847 0.4921 0.5036, 0.8847 0.4961 0.5036, 0.888 0.4921 0.5049, 0.888 0.4961 0.5049, 0.8931 0.4921 0.5072, 0.8931 0.4961 0.5072, 0.8961 0.4921 0.509, 0.8961 0.4961 0.509, 0.8969 0.4921 0.5099, 0.8969 0.4961 0.5099, 0.8975 0.4921 0.5111, 0.8975 0.4961 0.5111, 0.8978 0.4921 0.5124, 0.8978 0.4961 0.5124, 0.8979 0.4921 0.5135, 0.8979 0.4961 0.5135, 0.8978 0.4921 0.5148, 0.8978 0.4961 0.5148, 0.8973 0.4921 0.5159, 0.8973 0.4961 0.5159, 0.8966 0.4921 0.517, 0.8966 0.4961 0.517, 0.8954 0.4921 0.5181, 0.8954 0.4961 0.5181, 0.8935 0.4921 0.5191, 0.8935 0.4961 0.5191, 0.8913 0.4921 0.5197, 0.8913 0.4961 0.5197, 0.8888 0.4921 0.5199, 0.8888 0.4961 0.5199, 0.8834 0.4921 0.5193, 0.8834 0.4961 0.5193, 0.8787 0.4921 0.5176, 0.8787 0.4961 0.5176, 0.8767 0.4921 0.5164, 0.8767 0.4961 0.5164, 0.8767 0.4961 0.5246, 0.8767 0.4921 0.5246, 0.8821 0.4921 0.5261, 0.8821 0.4961 0.5261, 0.888 0.4921 0.5267, 0.888 0.4961 0.5267, 0.8938 0.4921 0.5261, 0.8938 0.4961 0.5261, 0.8985 0.4921 0.5245, 0.8985 0.4961 0.5245, 0.9012 0.4921 0.5229, 0.9012 0.4961 0.5229, 0.9027 0.4921 0.5215, 0.9036 0.4961 0.5207, 0.9036 0.4921 0.5207, 0.9052 0.4921 0.5184, 0.9052 0.4961 0.5184, 0.9062 0.4921 0.5157, 0.9062 0.4961 0.5157, 0.9065 0.4921 0.5127, 0.9065 0.4961 0.5127, 0.9062 0.4921 0.5095, 0.9062 0.4961 0.5095, 0.9052 0.4921 0.5069, 0.9052 0.4961 0.5069, 0.9042 0.4921 0.5052, 0.9042 0.4961 0.5052, 0.8939 0.4921 0.4989, 0.8939 0.4961 0.4989, 0.8989 0.4961 0.5012, 0.9028 0.4921 0.5037, 0.9028 0.4961 0.5037, 0.9027 0.4921 0.5037, 0.8989 0.4921 0.5012, 0.8884 0.4921 0.4966, 0.8884 0.4961 0.4966, 0.8851 0.4921 0.4946, 0.8851 0.4961 0.4946, 0.8841 0.4921 0.4935, 0.8841 0.4961 0.4935, 0.8834 0.4921 0.4924, 0.8834 0.4961 0.4924, 0.8831 0.4921 0.4911, 0.8831 0.4961 0.4911, 0.883 0.4921 0.4901, 0.883 0.4961 0.4901, 0.8831 0.4921 0.4885, 0.8831 0.4961 0.4885, 0.8836 0.4921 0.4873, 0.8836 0.4961 0.4873, 0.8843 0.4921 0.4862, 0.8843 0.4961 0.4862, 0.8853 0.4921 0.4854, 0.8853 0.4961 0.4854, 0.886 0.4921 0.4849, 0.886 0.4961 0.4849, 0.8882 0.4921 0.4841, 0.8882 0.4961 0.4841, 0.8925 0.4921 0.4836, 0.8925 0.4961 0.4836, 0.833 0.4961 0.5256, 0.8243 0.4961 0.5256, 0.833 0.4921 0.5256, 0.8243 0.4921 0.5256, 0.846 0.4961 0.4897, 0.846 0.4921 0.4897, 0.8466 0.4921 0.4875, 0.8466 0.4961 0.4875, 0.847 0.4921 0.4858, 0.847 0.4961 0.4858, 0.8472 0.4961 0.4858, 0.8472 0.4921 0.4858, 0.8482 0.4961 0.4898, 0.8482 0.4921 0.4898, 0.8607 0.4921 0.5256, 0.8607 0.4961 0.5256, 0.8567 0.4921 0.514, 0.87 0.4961 0.5256, 0.87 0.4921 0.5256, 0.8513 0.4921 0.478, 0.8513 0.4961 0.478, 0.8567 0.4921 0.4915, 0.855 0.4921 0.4694, 0.855 0.4961 0.4694, 0.8516 0.4921 0.4774, 0.8567 0.4961 0.4663, 0.8567 0.4921 0.4664, 0.8567 0.4921 0.4663, 0.8582 0.4921 0.4646, 0.8582 0.4961 0.4646, 0.8597 0.4921 0.4636, 0.8597 0.4961 0.4636, 0.8615 0.4921 0.4629, 0.8615 0.4961 0.4629, 0.8636 0.4921 0.4626, 0.8636 0.4961 0.4626, 0.8666 0.4921 0.463, 0.8666 0.4961 0.463, 0.8683 0.4921 0.4636, 0.8683 0.4961 0.4636, 0.8683 0.4961 0.4562, 0.8683 0.4921 0.4562, 0.8648 0.4921 0.4555, 0.8648 0.4961 0.4555, 0.8629 0.4921 0.4555, 0.8629 0.4961 0.4555, 0.8596 0.4921 0.4559, 0.8596 0.4961 0.4559, 0.8567 0.4921 0.457, 0.8563 0.4961 0.4571, 0.8563 0.4921 0.4571, 0.8533 0.4921 0.4592, 0.8533 0.4961 0.4592, 0.8528 0.4921 0.4597, 0.8528 0.4961 0.4597, 0.8497 0.4921 0.4634, 0.8497 0.4961 0.4634, 0.8459 0.4921 0.4707, 0.8459 0.4961 0.4707, 0.8433 0.4921 0.4774, 0.7794 0.4961 0.4855, 0.7794 0.4961 0.4779, 0.7794 0.4921 0.4855, 0.7794 0.4921 0.4779, 0.8067 0.4921 0.4855, 0.8067 0.4961 0.4855, 0.7942 0.4921 0.4855, 0.8067 0.4961 0.508, 0.8067 0.4921 0.508, 0.7828 0.4961 0.508, 0.7942 0.4921 0.508, 0.7828 0.4921 0.508, 0.7828 0.4961 0.5156, 0.7828 0.4921 0.5156, 0.8067 0.4921 0.5156, 0.8067 0.4961 0.5156, 0.7942 0.4921 0.5156, 0.8067 0.4961 0.537, 0.8067 0.4921 0.537, 0.7809 0.4921 0.537, 0.7809 0.4961 0.537, 0.7942 0.4921 0.537, 0.7809 0.4961 0.5446, 0.7809 0.4921 0.5446, 0.8153 0.4921 0.5446, 0.8153 0.4961 0.5446, 0.7942 0.4921 0.5446, 0.8153 0.4961 0.4779, 0.8153 0.4921 0.4779, 0.7942 0.4921 0.4779, 0.7225 0.4961 0.4873, 0.7294 0.4961 0.4918, 0.7295 0.4961 0.4823, 0.7338 0.4961 0.4888, 0.7371 0.4961 0.4793, 0.7393 0.4961 0.4866, 0.7484 0.4961 0.4779, 0.7485 0.4961 0.4855, 0.7668 0.4961 0.4779, 0.7582 0.4961 0.4855, 0.7668 0.4961 0.5446, 0.7582 0.4961 0.537, 0.7478 0.4961 0.5446, 0.7481 0.4961 0.537, 0.7474 0.4961 0.537, 0.7376 0.4961 0.5435, 0.7389 0.4961 0.5359, 0.7295 0.4961 0.5406, 0.7332 0.4961 0.5337, 0.7225 0.4961 0.5358, 0.7288 0.4961 0.5307, 0.7202 0.4961 0.5335, 0.727 0.4961 0.5289, 0.7161 0.4961 0.5277, 0.7244 0.4961 0.5251, 0.7136 0.4961 0.5213, 0.7225 0.4961 0.5202, 0.7125 0.4961 0.5121, 0.7215 0.4961 0.5119, 0.7127 0.4961 0.5079, 0.7218 0.4961 0.5073, 0.7143 0.4961 0.5001, 0.7231 0.4961 0.5013, 0.7176 0.4961 0.4932, 0.7255 0.4961 0.4964, 0.7287 0.4961 0.4925, 0.7484 0.4921 0.4779, 0.7668 0.4921 0.4779, 0.7371 0.4921 0.4793, 0.7295 0.4921 0.4823, 0.7225 0.4921 0.4873, 0.7176 0.4921 0.4932, 0.7143 0.4921 0.5001, 0.7127 0.4921 0.5079, 0.7125 0.4921 0.5121, 0.7136 0.4921 0.5213, 0.7161 0.4921 0.5277, 0.7202 0.4921 0.5335, 0.7225 0.4921 0.5358, 0.7295 0.4921 0.5406, 0.7376 0.4921 0.5435, 0.7478 0.4921 0.5446, 0.7668 0.4921 0.5446, 0.7481 0.4921 0.537, 0.7582 0.4921 0.537, 0.7582 0.4921 0.4855, 0.7485 0.4921 0.4855, 0.7287 0.4921 0.4925, 0.7294 0.4921 0.4918, 0.7338 0.4921 0.4888, 0.7393 0.4921 0.4866, 0.7215 0.4921 0.5119, 0.7218 0.4921 0.5073, 0.7231 0.4921 0.5013, 0.7255 0.4921 0.4964, 0.7288 0.4921 0.5307, 0.727 0.4921 0.5289, 0.7244 0.4921 0.5251, 0.7225 0.4921 0.5202, 0.7474 0.4921 0.537, 0.7389 0.4921 0.5359, 0.7332 0.4921 0.5337
            ]
        }
        coordIndex [
            0,1,2,-1,3,4,5,-1,3,5,6,-1,6,5,7,-1,6,7,2,-1,2,7,8,-1,2,8,0,-1,9,1,10,-1,10,1,0,-1,10,11,9,-1,9,11,12,-1,13,14,15,-1,15,14,12,-1,15,12,16,-1,16,12,11,-1,14,13,17,-1,17,13,18,-1,18,19,17,-1,17,19,20,-1,17,20,21,-1,21,20,22,-1,21,22,23,-1,23,22,24,-1,23,24,25,-1,25,24,26,-1,25,26,27,-1,27,26,28,-1,27,28,29,-1,29,28,30,-1,29,30,31,-1,31,30,32,-1,31,32,33,-1,33,32,34,-1,33,34,35,-1,35,34,36,-1,35,36,37,-1,37,36,38,-1,37,38,39,-1,39,38,40,-1,39,40,41,-1,41,40,42,-1,41,42,43,-1,43,42,44,-1,43,44,45,-1,45,44,46,-1,45,46,47,-1,47,46,48,-1,47,48,49,-1,49,48,50,-1,49,50,51,-1,51,50,52,-1,51,52,53,-1,53,52,54,-1,53,54,55,-1,55,54,56,-1,55,56,57,-1,57,56,58,-1,57,58,59,-1,59,58,60,-1,59,60,61,-1,61,60,62,-1,61,62,63,-1,63,62,64,-1,63,64,65,-1,65,64,66,-1,65,66,67,-1,67,66,68,-1,67,68,69,-1,69,68,70,-1,69,70,71,-1,71,70,72,-1,71,72,73,-1,73,72,74,-1,73,74,75,-1,76,75,77,-1,77,75,74,-1,76,77,78,-1,76,78,79,-1,79,78,80,-1,79,80,81,-1,81,80,82,-1,81,82,83,-1,83,82,84,-1,83,84,85,-1,85,84,86,-1,85,86,87,-1,86,88,87,-1,87,88,89,-1,88,90,89,-1,89,90,91,-1,89,91,92,-1,92,91,93,-1,92,93,94,-1,94,93,95,-1,94,95,96,-1,96,95,97,-1,96,97,98,-1,98,97,99,-1,98,99,100,-1,100,99,101,-1,100,101,102,-1,103,104,105,-1,102,101,106,-1,102,106,107,-1,107,106,108,-1,107,108,105,-1,105,108,109,-1,105,109,103,-1,104,103,110,-1,104,110,111,-1,111,110,112,-1,111,112,113,-1,113,112,114,-1,113,114,115,-1,115,114,116,-1,115,116,117,-1,117,116,118,-1,117,118,119,-1,119,118,120,-1,119,120,121,-1,121,120,122,-1,121,122,123,-1,123,122,124,-1,123,124,125,-1,125,124,126,-1,125,126,127,-1,127,126,128,-1,127,128,129,-1,129,128,130,-1,129,130,131,-1,131,130,132,-1,131,132,133,-1,133,132,134,-1,133,134,135,-1,135,134,4,-1,135,4,3,-1,61,63,85,-1,85,63,83,-1,111,43,104,-1,104,43,45,-1,21,23,127,-1,127,23,25,-1,127,25,125,-1,125,25,27,-1,125,27,123,-1,123,27,29,-1,123,29,121,-1,121,29,31,-1,121,31,119,-1,119,31,33,-1,119,33,117,-1,117,33,35,-1,117,35,115,-1,115,35,37,-1,115,37,113,-1,113,37,39,-1,113,39,111,-1,111,39,41,-1,111,41,43,-1,14,3,12,-1,12,3,6,-1,12,6,9,-1,9,6,2,-1,9,2,1,-1,63,65,83,-1,83,65,67,-1,83,67,81,-1,81,67,69,-1,81,69,79,-1,79,69,71,-1,79,71,76,-1,76,71,73,-1,76,73,75,-1,127,129,21,-1,21,129,131,-1,21,131,17,-1,17,131,133,-1,17,133,14,-1,14,133,135,-1,14,135,3,-1,85,87,61,-1,61,87,89,-1,61,89,59,-1,59,89,92,-1,59,92,57,-1,57,92,94,-1,57,94,55,-1,55,94,96,-1,55,96,53,-1,53,96,98,-1,53,98,51,-1,51,98,100,-1,51,100,49,-1,49,100,102,-1,49,102,47,-1,47,102,107,-1,47,107,45,-1,45,107,105,-1,45,105,104,-1,136,137,138,-1,138,137,139,-1,140,136,141,-1,141,136,138,-1,140,141,142,-1,140,142,143,-1,143,142,144,-1,143,144,145,-1,146,145,147,-1,147,145,144,-1,148,146,149,-1,149,146,147,-1,150,151,152,-1,152,151,148,-1,152,148,149,-1,153,151,154,-1,154,151,150,-1,155,156,157,-1,157,156,153,-1,157,153,154,-1,158,159,160,-1,160,159,156,-1,160,156,155,-1,159,158,161,-1,161,158,162,-1,162,163,161,-1,161,163,164,-1,161,164,165,-1,165,164,166,-1,165,166,167,-1,167,166,168,-1,167,168,169,-1,169,168,170,-1,169,170,171,-1,171,170,172,-1,171,172,173,-1,173,172,174,-1,173,174,175,-1,176,175,177,-1,177,175,174,-1,176,177,178,-1,176,178,179,-1,179,178,180,-1,179,180,181,-1,181,180,182,-1,181,182,183,-1,183,182,184,-1,183,184,185,-1,184,186,185,-1,185,186,187,-1,185,187,188,-1,188,187,189,-1,188,189,190,-1,190,189,191,-1,190,191,192,-1,192,191,193,-1,192,193,194,-1,139,137,195,-1,195,137,194,-1,195,194,193,-1,143,145,194,-1,137,136,194,-1,194,136,140,-1,194,140,143,-1,151,153,148,-1,148,153,156,-1,148,156,146,-1,175,176,173,-1,173,176,179,-1,173,179,171,-1,171,179,181,-1,171,181,169,-1,169,181,183,-1,169,183,167,-1,167,183,185,-1,167,185,165,-1,145,146,194,-1,194,146,156,-1,194,156,192,-1,156,159,192,-1,192,159,161,-1,192,161,190,-1,190,161,165,-1,190,165,188,-1,188,165,185,-1,196,197,198,-1,198,197,199,-1,200,201,202,-1,202,201,196,-1,202,196,198,-1,203,201,204,-1,204,201,200,-1,203,204,205,-1,205,204,206,-1,205,206,207,-1,208,205,209,-1,209,205,207,-1,210,211,212,-1,212,211,208,-1,212,208,209,-1,213,211,214,-1,214,211,210,-1,215,216,217,-1,217,216,213,-1,217,213,214,-1,218,216,219,-1,219,216,215,-1,220,221,222,-1,222,221,218,-1,222,218,219,-1,223,221,224,-1,224,221,220,-1,199,197,225,-1,225,197,223,-1,225,223,224,-1,223,197,196,-1,196,201,223,-1,223,201,203,-1,223,203,221,-1,216,218,213,-1,213,218,221,-1,213,221,211,-1,211,221,203,-1,211,203,208,-1,208,203,205,-1,226,227,228,-1,228,227,229,-1,228,229,230,-1,230,229,231,-1,230,231,232,-1,232,231,233,-1,232,233,234,-1,234,233,235,-1,234,235,236,-1,236,235,237,-1,236,237,238,-1,237,239,238,-1,238,239,240,-1,238,240,241,-1,241,240,242,-1,241,242,243,-1,243,242,244,-1,243,244,245,-1,245,244,246,-1,245,246,247,-1,247,246,248,-1,247,248,249,-1,249,248,250,-1,249,250,251,-1,251,250,252,-1,251,252,253,-1,253,252,254,-1,253,254,255,-1,255,254,256,-1,255,256,257,-1,257,256,258,-1,257,258,259,-1,259,258,260,-1,259,260,226,-1,226,260,261,-1,226,261,227,-1,232,234,262,-1,262,234,263,-1,232,262,264,-1,232,264,230,-1,230,264,265,-1,230,265,228,-1,228,265,266,-1,228,266,226,-1,226,266,267,-1,226,267,259,-1,259,267,268,-1,259,268,257,-1,257,268,269,-1,257,269,255,-1,255,269,270,-1,255,270,253,-1,253,270,271,-1,253,271,251,-1,251,271,272,-1,251,272,249,-1,249,272,273,-1,249,273,247,-1,247,273,274,-1,247,274,245,-1,245,274,275,-1,245,275,243,-1,243,275,276,-1,243,276,241,-1,241,276,277,-1,241,277,238,-1,236,238,278,-1,278,238,277,-1,234,236,263,-1,263,236,278,-1,239,237,279,-1,279,237,280,-1,237,235,280,-1,280,235,281,-1,235,233,281,-1,281,233,282,-1,261,283,284,-1,261,284,227,-1,227,284,285,-1,227,285,229,-1,229,285,286,-1,229,286,231,-1,231,286,282,-1,231,282,233,-1,254,287,288,-1,254,288,256,-1,256,288,289,-1,256,289,258,-1,258,289,290,-1,258,290,260,-1,260,290,283,-1,260,283,261,-1,246,291,292,-1,246,292,248,-1,248,292,293,-1,248,293,250,-1,250,293,294,-1,250,294,252,-1,252,294,287,-1,252,287,254,-1,239,279,295,-1,239,295,240,-1,240,295,296,-1,240,296,242,-1,242,296,297,-1,242,297,244,-1,244,297,291,-1,244,291,246,-1,
        ]
    }
}
Shape{
    appearance Appearance {
        material  Material 	{
            diffuseColor 0.25098039215686274 0.25098039215686274 0.25098039215686274
            specularColor 0.12549019607843137 0.12549019607843137 0.12549019607843137
            ambientIntensity 0.251
            transparency 0.0
            shininess 0.5
        }
    }
    geometry IndexedFaceSet {
        ccw TRUE
        solid FALSE
        coord DEF co Coordinate {
            point [
                0.7338 0.4921 0.4888, 0.7294 0.4921 0.4918, 0.7474 0.4921 0.537, 0.7582 0.4921 0.537, 0.7582 0.4921 0.4855, 0.7481 0.4921 0.537, 0.7485 0.4921 0.4855, 0.7393 0.4921 0.4866, 0.7287 0.4921 0.4925, 0.7255 0.4921 0.4964, 0.7231 0.4921 0.5013, 0.7215 0.4921 0.5119, 0.7288 0.4921 0.5307, 0.7332 0.4921 0.5337, 0.7225 0.4921 0.5202, 0.7244 0.4921 0.5251, 0.727 0.4921 0.5289, 0.7218 0.4921 0.5073, 0.7389 0.4921 0.5359
            ]
        }
        coordIndex [
            0,1,2,-1,3,4,5,-1,5,4,6,-1,5,6,2,-1,2,6,7,-1,2,7,0,-1,1,8,2,-1,2,8,9,-1,2,9,10,-1,11,12,13,-1,14,15,11,-1,11,15,16,-1,11,16,12,-1,10,17,2,-1,2,17,11,-1,2,11,18,-1,18,11,13,-1,
        ]
    }
}
Shape{
    appearance Appearance {
        material  Material 	{
            diffuseColor 1.0 1.0 1.0
            specularColor 0.5019607843137255 0.5019607843137255 0.5019607843137255
            ambientIntensity 1.0
            transparency 0.0
            shininess 0.5
        }
    }
    geometry IndexedFaceSet {
        ccw TRUE
        solid FALSE
        coord DEF co Coordinate {
            point [
                0.6901 0.4961 0.5037, 0.6928 0.4961 0.4962, 0.6677 0.4961 0.5037, 0.6651 0.4961 0.4962, 0.6801 0.4961 0.5314, 0.6834 0.4961 0.5446, 0.7088 0.4961 0.4779, 0.6993 0.4961 0.4779, 0.6796 0.4961 0.5334, 0.679 0.4961 0.5361, 0.6742 0.4961 0.5446, 0.6788 0.4961 0.5361, 0.6783 0.4961 0.5333, 0.6778 0.4961 0.5314, 0.6487 0.4961 0.4779, 0.6583 0.4961 0.4779, 0.6742 0.4921 0.5446, 0.6487 0.4921 0.4779, 0.6834 0.4921 0.5446, 0.7088 0.4921 0.4779, 0.6993 0.4921 0.4779, 0.6928 0.4921 0.4962, 0.6651 0.4921 0.4962, 0.6583 0.4921 0.4779, 0.6901 0.4921 0.5037, 0.6677 0.4921 0.5037, 0.6778 0.4921 0.5314, 0.6788 0.4921 0.5361, 0.6783 0.4921 0.5333, 0.679 0.4921 0.5361, 0.6801 0.4921 0.5314, 0.6796 0.4921 0.5334
            ]
        }
        coordIndex [
            0,1,2,-1,2,1,3,-1,4,5,0,-1,0,5,6,-1,0,6,1,-1,1,6,7,-1,4,8,5,-1,5,8,9,-1,5,9,10,-1,10,9,11,-1,10,11,12,-1,12,13,10,-1,10,13,2,-1,10,2,14,-1,14,2,3,-1,14,3,15,-1,10,14,16,-1,16,14,17,-1,5,10,18,-1,18,10,16,-1,6,5,19,-1,19,5,18,-1,7,6,20,-1,20,6,19,-1,1,7,21,-1,21,7,20,-1,3,1,22,-1,22,1,21,-1,15,3,23,-1,23,3,22,-1,14,15,17,-1,17,15,23,-1,0,2,24,-1,24,2,25,-1,2,13,25,-1,25,13,26,-1,11,27,28,-1,11,28,12,-1,12,28,26,-1,12,26,13,-1,11,9,27,-1,27,9,29,-1,4,30,31,-1,4,31,8,-1,8,31,29,-1,8,29,9,-1,4,0,30,-1,30,0,24,-1,
        ]
    }
}
Shape{
    appearance Appearance {
        material  Material 	{
            diffuseColor 0.25098039215686274 0.25098039215686274 0.25098039215686274
            specularColor 0.12549019607843137 0.12549019607843137 0.12549019607843137
            ambientIntensity 0.251
            transparency 0.0
            shininess 0.5
        }
    }
    geometry IndexedFaceSet {
        ccw TRUE
        solid FALSE
        coord DEF co Coordinate {
            point [
                0.6788 0.4921 0.5361, 0.679 0.4921 0.5361, 0.6783 0.4921 0.5333, 0.6796 0.4921 0.5334, 0.6778 0.4921 0.5314, 0.6801 0.4921 0.5314, 0.6677 0.4921 0.5037, 0.6901 0.4921 0.5037
            ]
        }
        coordIndex [
            0,1,2,-1,2,1,3,-1,2,3,4,-1,4,3,5,-1,4,5,6,-1,6,5,7,-1,
        ]
    }
}
Shape{
    appearance Appearance {
        material  Material 	{
            diffuseColor 1.0 1.0 1.0
            specularColor 0.5019607843137255 0.5019607843137255 0.5019607843137255
            ambientIntensity 1.0
            transparency 0.0
            shininess 0.5
        }
    }
    geometry IndexedFaceSet {
        ccw TRUE
        solid FALSE
        coord DEF co Coordinate {
            point [
                1.2948 0.4961 0.4685, 1.2877 0.4961 0.4598, 1.299 0.4961 0.5104, 1.3073 0.4961 0.5929, 1.2967 0.4961 0.5985, 1.2992 0.4961 0.6277, 1.2696 0.4961 0.629, 1.2549 0.4961 0.5944, 1.2477 0.4961 0.6094, 1.207 0.4961 0.4938, 1.207 0.4961 0.4986, 1.2472 0.4961 0.5102, 1.2517 0.4961 0.5116, 1.3094 0.4961 0.5168, 1.3055 0.4961 0.4804, 1.2995 0.4961 0.4786, 1.2805 0.4961 0.63, 1.2401 0.4961 0.5045, 1.2379 0.4961 0.5006, 1.2073 0.4961 0.4889, 1.1406 0.4961 0.5337, 1.1553 0.4961 0.5588, 1.2189 0.4961 0.5256, 1.2549 0.4961 0.5118, 1.2594 0.4961 0.5113, 1.2658 0.4961 0.5403, 1.2636 0.4961 0.5097, 1.2763 0.4961 0.5363, 1.2673 0.4961 0.5071, 1.286 0.4961 0.5296, 1.2696 0.4961 0.5046, 1.2938 0.4961 0.5206, 1.2719 0.4961 0.5007, 1.2732 0.4961 0.4962, 1.2733 0.4961 0.4915, 1.2372 0.4961 0.5385, 1.2487 0.4961 0.5414, 1.2545 0.4961 0.5417, 1.2433 0.4961 0.5077, 1.1249 0.4961 0.5806, 1.1211 0.4961 0.5806, 1.1017 0.4961 0.6063, 1.1121 0.4961 0.5795, 1.0994 0.4961 0.6055, 1.1038 0.4961 0.5763, 1.0852 0.4961 0.5985, 1.0724 0.4961 0.5876, 1.2599 0.4961 0.6404, 1.237 0.4961 0.6221, 1.2488 0.4961 0.6499, 1.2243 0.4961 0.6314, 1.2353 0.4961 0.6581, 1.285 0.4961 0.6013, 1.2801 0.4961 0.6015, 1.2751 0.4961 0.6297, 1.269 0.4961 0.6001, 1.2583 0.4961 0.5962, 1.2724 0.4961 0.4871, 1.2704 0.4961 0.4832, 1.2272 0.4961 0.5332, 1.0723 0.4961 0.499, 1.0944 0.4961 0.5179, 1.0852 0.4961 0.4881, 1.1014 0.4961 0.5121, 1.0997 0.4961 0.481, 1.1098 0.4961 0.5083, 1.1155 0.4961 0.4777, 1.1183 0.4961 0.5066, 1.1434 0.4961 0.4777, 1.1396 0.4961 0.5066, 1.1461 0.4961 0.4781, 1.0965 0.4961 0.5712, 1.091 0.4961 0.5651, 1.0627 0.4961 0.5741, 1.0866 0.4961 0.5569, 1.0569 0.4961 0.5596, 1.0844 0.4961 0.5478, 1.0547 0.4961 0.5441, 1.0841 0.4961 0.5436, 1.0569 0.4961 0.5272, 1.0853 0.4961 0.5344, 1.0629 0.4961 0.5122, 1.0885 0.4961 0.5259, 1.0938 0.4961 0.5185, 1.1273 0.4961 0.6437, 1.1459 0.4961 0.6219, 1.1109 0.4961 0.6245, 1.1352 0.4961 0.6091, 1.1278 0.4961 0.5938, 1.3261 0.4961 0.5656, 1.3573 0.4961 0.5577, 1.3275 0.4961 0.5541, 1.3574 0.4961 0.5531, 1.3269 0.4961 0.5468, 1.3551 0.4961 0.5346, 1.3235 0.4961 0.5352, 1.3483 0.4961 0.5169, 1.3179 0.4961 0.5255, 1.3375 0.4961 0.5014, 1.3227 0.4961 0.4888, 1.2133 0.4961 0.666, 1.2088 0.4961 0.6377, 1.1918 0.4961 0.6684, 1.1914 0.4961 0.6399, 1.1694 0.4961 0.6657, 1.1753 0.4961 0.638, 1.1458 0.4961 0.6566, 1.1604 0.4961 0.6323, 1.1471 0.4961 0.623, 1.3168 0.4961 0.6208, 1.3319 0.4961 0.6102, 1.3155 0.4961 0.5856, 1.3351 0.4961 0.6072, 1.322 0.4961 0.5761, 1.3465 0.4961 0.5926, 1.3541 0.4961 0.5755, 1.2367 0.4961 0.4963, 1.2365 0.4961 0.4917, 1.21 0.4961 0.4772, 1.2375 0.4961 0.4871, 1.2157 0.4961 0.4666, 1.2396 0.4961 0.483, 1.2229 0.4961 0.4584, 1.2426 0.4961 0.4795, 1.2324 0.4961 0.4519, 1.2463 0.4961 0.477, 1.243 0.4961 0.4478, 1.2504 0.4961 0.4754, 1.2545 0.4961 0.4464, 1.2549 0.4961 0.4748, 1.2563 0.4961 0.4464, 1.2557 0.4961 0.4749, 1.2675 0.4961 0.4482, 1.26 0.4961 0.4756, 1.2784 0.4961 0.4528, 1.2643 0.4961 0.4774, 1.2679 0.4961 0.4802, 1.142 0.4961 0.5071, 1.1534 0.4961 0.4827, 1.1523 0.4961 0.4815, 1.1406 0.4961 0.5068, 1.1493 0.4961 0.4794, 1.1572 0.4961 0.4924, 1.1567 0.4961 0.4889, 1.1555 0.4961 0.4856, 1.1462 0.4961 0.5066, 1.1494 0.4961 0.5053, 1.1571 0.4961 0.4943, 1.1523 0.4961 0.5033, 1.1543 0.4961 0.5011, 1.1561 0.4961 0.4979, 1.1425 0.4961 0.5071, 1.0692 0.4921 0.5832, 1.0627 0.4921 0.5741, 1.0585 0.4921 0.5636, 1.0569 0.4921 0.5596, 1.0547 0.4921 0.5441, 1.0724 0.4921 0.5876, 1.0852 0.4921 0.5985, 1.0994 0.4921 0.6055, 1.1017 0.4921 0.6063, 1.1109 0.4921 0.6245, 1.1273 0.4921 0.6437, 1.1379 0.4921 0.6511, 1.1458 0.4921 0.6566, 1.1694 0.4921 0.6657, 1.1918 0.4921 0.6684, 1.2488 0.4921 0.6499, 1.2468 0.4921 0.6511, 1.2353 0.4921 0.6581, 1.2133 0.4921 0.666, 1.2599 0.4921 0.6404, 1.2696 0.4921 0.629, 1.2751 0.4921 0.6297, 1.2805 0.4921 0.63, 1.2992 0.4921 0.6277, 1.3168 0.4921 0.6208, 1.3319 0.4921 0.6102, 1.3351 0.4921 0.6072, 1.3465 0.4921 0.5926, 1.3507 0.4921 0.5832, 1.3541 0.4921 0.5755, 1.3562 0.4921 0.5636, 1.3573 0.4921 0.5577, 1.3574 0.4921 0.5531, 1.3551 0.4921 0.5346, 1.3483 0.4921 0.5169, 1.3375 0.4921 0.5014, 1.3227 0.4921 0.4888, 1.3055 0.4921 0.4804, 1.2995 0.4921 0.4786, 1.2989 0.4921 0.4774, 1.2948 0.4921 0.4685, 1.2877 0.4921 0.4598, 1.2784 0.4921 0.4528, 1.2741 0.4921 0.4509, 1.2675 0.4921 0.4482, 1.2563 0.4921 0.4464, 1.2545 0.4921 0.4464, 1.207 0.4921 0.4938, 1.243 0.4921 0.4478, 1.2348 0.4921 0.4509, 1.2324 0.4921 0.4519, 1.2229 0.4921 0.4584, 1.2157 0.4921 0.4666, 1.21 0.4921 0.4772, 1.21 0.4921 0.4774, 1.2073 0.4921 0.4889, 1.207 0.4921 0.4986, 1.1406 0.4921 0.5337, 1.1553 0.4921 0.5588, 1.2189 0.4921 0.5256, 1.2272 0.4921 0.5332, 1.2372 0.4921 0.5385, 1.2487 0.4921 0.5414, 1.2545 0.4921 0.5417, 1.2658 0.4921 0.5403, 1.2763 0.4921 0.5363, 1.286 0.4921 0.5296, 1.2938 0.4921 0.5206, 1.299 0.4921 0.5104, 1.3094 0.4921 0.5168, 1.3179 0.4921 0.5255, 1.3235 0.4921 0.5352, 1.3269 0.4921 0.5468, 1.3275 0.4921 0.5541, 1.3263 0.4921 0.5636, 1.3261 0.4921 0.5656, 1.322 0.4921 0.5761, 1.3171 0.4921 0.5832, 1.3155 0.4921 0.5856, 1.3073 0.4921 0.5929, 1.2967 0.4921 0.5985, 1.285 0.4921 0.6013, 1.2801 0.4921 0.6015, 1.269 0.4921 0.6001, 1.2583 0.4921 0.5962, 1.2549 0.4921 0.5944, 1.2477 0.4921 0.6094, 1.237 0.4921 0.6221, 1.2243 0.4921 0.6314, 1.2088 0.4921 0.6377, 1.1914 0.4921 0.6399, 1.1753 0.4921 0.638, 1.1604 0.4921 0.6323, 1.1471 0.4921 0.623, 1.1459 0.4921 0.6219, 1.1352 0.4921 0.6091, 1.1278 0.4921 0.5938, 1.1255 0.4921 0.5832, 1.1249 0.4921 0.5806, 1.1211 0.4921 0.5806, 1.1121 0.4921 0.5795, 1.1038 0.4921 0.5763, 1.0965 0.4921 0.5712, 1.091 0.4921 0.5651, 1.0902 0.4921 0.5636, 1.0866 0.4921 0.5569, 1.0844 0.4921 0.5478, 1.0841 0.4921 0.5436, 1.0853 0.4921 0.5344, 1.0885 0.4921 0.5259, 1.0938 0.4921 0.5185, 1.0944 0.4921 0.5179, 1.1014 0.4921 0.5121, 1.1098 0.4921 0.5083, 1.1183 0.4921 0.5066, 1.1396 0.4921 0.5066, 1.1406 0.4921 0.5068, 1.142 0.4921 0.5071, 1.1425 0.4921 0.5071, 1.1462 0.4921 0.5066, 1.1494 0.4921 0.5053, 1.1523 0.4921 0.5033, 1.1543 0.4921 0.5011, 1.1561 0.4921 0.4979, 1.1571 0.4921 0.4943, 1.1572 0.4921 0.4924, 1.1567 0.4921 0.4889, 1.1555 0.4921 0.4856, 1.1534 0.4921 0.4827, 1.1523 0.4921 0.4815, 1.1493 0.4921 0.4794, 1.1461 0.4921 0.4781, 1.1434 0.4921 0.4777, 1.1155 0.4921 0.4777, 1.0997 0.4921 0.481, 1.0852 0.4921 0.4881, 1.0723 0.4921 0.499, 1.0629 0.4921 0.5122, 1.0569 0.4921 0.5272, 1.2549 0.4921 0.5118, 1.2517 0.4921 0.5116, 1.2472 0.4921 0.5102, 1.2433 0.4921 0.5077, 1.2401 0.4921 0.5045, 1.2379 0.4921 0.5006, 1.2367 0.4921 0.4963, 1.2365 0.4921 0.4917, 1.2375 0.4921 0.4871, 1.2396 0.4921 0.483, 1.2426 0.4921 0.4795, 1.2463 0.4921 0.477, 1.2504 0.4921 0.4754, 1.2549 0.4921 0.4748, 1.2557 0.4921 0.4749, 1.26 0.4921 0.4756, 1.2643 0.4921 0.4774, 1.2679 0.4921 0.4802, 1.2704 0.4921 0.4832, 1.2724 0.4921 0.4871, 1.2733 0.4921 0.4915, 1.2732 0.4921 0.4962, 1.2719 0.4921 0.5007, 1.2696 0.4921 0.5046, 1.2673 0.4921 0.5071, 1.2636 0.4921 0.5097, 1.2594 0.4921 0.5113
            ]
        }
        coordIndex [
            0,1,2,-1,3,4,5,-1,6,7,8,-1,9,10,11,-1,11,10,12,-1,13,14,2,-1,2,14,15,-1,2,15,0,-1,5,4,16,-1,17,18,19,-1,20,21,10,-1,10,21,22,-1,10,22,12,-1,12,22,23,-1,24,25,26,-1,26,25,27,-1,26,27,28,-1,28,27,29,-1,28,29,30,-1,30,29,31,-1,30,31,32,-1,32,31,2,-1,32,2,33,-1,33,2,34,-1,35,36,24,-1,24,36,37,-1,24,37,25,-1,9,11,19,-1,19,11,38,-1,19,38,17,-1,39,40,41,-1,41,40,42,-1,41,42,43,-1,43,42,44,-1,43,44,45,-1,45,44,46,-1,6,8,47,-1,47,8,48,-1,47,48,49,-1,49,48,50,-1,49,50,51,-1,4,52,16,-1,16,52,53,-1,16,53,54,-1,54,53,55,-1,54,55,6,-1,6,55,56,-1,6,56,7,-1,34,2,57,-1,57,2,1,-1,57,1,58,-1,23,22,24,-1,24,22,59,-1,24,59,35,-1,60,61,62,-1,62,61,63,-1,62,63,64,-1,64,63,65,-1,64,65,66,-1,66,65,67,-1,66,67,68,-1,68,67,69,-1,68,69,70,-1,44,71,46,-1,46,71,72,-1,46,72,73,-1,73,72,74,-1,73,74,75,-1,75,74,76,-1,75,76,77,-1,77,76,78,-1,77,78,79,-1,79,78,80,-1,79,80,81,-1,81,80,82,-1,81,82,60,-1,60,82,83,-1,60,83,61,-1,84,85,86,-1,86,85,87,-1,86,87,41,-1,41,87,88,-1,41,88,39,-1,89,90,91,-1,91,90,92,-1,91,92,93,-1,93,92,94,-1,93,94,95,-1,95,94,96,-1,95,96,97,-1,97,96,98,-1,97,98,13,-1,13,98,99,-1,13,99,14,-1,51,50,100,-1,100,50,101,-1,100,101,102,-1,102,101,103,-1,102,103,104,-1,104,103,105,-1,104,105,106,-1,106,105,107,-1,106,107,84,-1,84,107,108,-1,84,108,85,-1,5,109,3,-1,3,109,110,-1,3,110,111,-1,111,110,112,-1,111,112,113,-1,113,112,114,-1,113,114,89,-1,89,114,115,-1,89,115,90,-1,18,116,19,-1,19,116,117,-1,19,117,118,-1,118,117,119,-1,118,119,120,-1,120,119,121,-1,120,121,122,-1,122,121,123,-1,122,123,124,-1,124,123,125,-1,124,125,126,-1,126,125,127,-1,126,127,128,-1,128,127,129,-1,128,129,130,-1,130,129,131,-1,130,131,132,-1,132,131,133,-1,132,133,134,-1,134,133,135,-1,134,135,1,-1,1,135,136,-1,1,136,58,-1,137,138,139,-1,69,140,70,-1,70,140,137,-1,70,137,141,-1,141,137,139,-1,142,143,137,-1,137,143,144,-1,137,144,138,-1,145,146,147,-1,146,148,147,-1,147,148,149,-1,147,149,150,-1,142,137,147,-1,147,137,151,-1,147,151,145,-1,152,46,153,-1,153,46,73,-1,153,73,154,-1,154,73,75,-1,154,75,155,-1,155,75,77,-1,155,77,156,-1,152,157,46,-1,46,157,158,-1,46,158,45,-1,45,158,159,-1,45,159,43,-1,43,159,160,-1,43,160,41,-1,41,160,161,-1,41,161,86,-1,86,161,162,-1,86,162,84,-1,84,162,106,-1,106,162,163,-1,163,164,106,-1,106,164,165,-1,106,165,104,-1,104,165,166,-1,104,166,102,-1,167,49,168,-1,168,49,51,-1,168,51,169,-1,169,51,100,-1,169,100,170,-1,170,100,102,-1,170,102,166,-1,49,167,171,-1,49,171,47,-1,47,171,172,-1,47,172,6,-1,6,172,173,-1,6,173,54,-1,54,173,174,-1,54,174,16,-1,16,174,175,-1,16,175,5,-1,5,175,176,-1,5,176,109,-1,109,176,177,-1,109,177,110,-1,110,177,178,-1,110,178,112,-1,115,114,179,-1,179,114,112,-1,179,112,178,-1,179,180,115,-1,115,180,181,-1,115,181,90,-1,90,181,182,-1,182,183,90,-1,90,183,184,-1,90,184,92,-1,92,184,185,-1,92,185,94,-1,94,185,186,-1,94,186,96,-1,96,186,187,-1,96,187,98,-1,98,187,188,-1,98,188,99,-1,99,188,189,-1,99,189,14,-1,14,189,190,-1,14,190,15,-1,15,190,191,-1,15,191,0,-1,191,192,0,-1,0,192,193,-1,0,193,1,-1,1,193,194,-1,1,194,134,-1,134,194,195,-1,134,195,132,-1,195,196,132,-1,132,196,197,-1,132,197,130,-1,130,197,198,-1,130,198,128,-1,199,9,19,-1,128,198,200,-1,201,124,200,-1,200,124,126,-1,200,126,128,-1,201,202,124,-1,124,202,203,-1,124,203,122,-1,122,203,204,-1,122,204,120,-1,120,204,205,-1,120,205,118,-1,118,205,206,-1,118,206,19,-1,19,206,207,-1,19,207,199,-1,10,9,208,-1,208,9,199,-1,20,10,209,-1,209,10,208,-1,21,20,210,-1,210,20,209,-1,22,21,211,-1,211,21,210,-1,22,211,212,-1,22,212,59,-1,59,212,213,-1,59,213,35,-1,35,213,214,-1,35,214,36,-1,36,214,215,-1,36,215,37,-1,37,215,216,-1,37,216,25,-1,25,216,217,-1,25,217,27,-1,27,217,218,-1,27,218,29,-1,29,218,219,-1,29,219,31,-1,31,219,220,-1,31,220,2,-1,2,220,221,-1,2,221,13,-1,13,221,222,-1,13,222,97,-1,97,222,223,-1,97,223,95,-1,95,223,224,-1,95,224,93,-1,93,224,225,-1,93,225,91,-1,91,225,226,-1,91,226,89,-1,89,226,227,-1,89,227,228,-1,229,111,228,-1,228,111,113,-1,228,113,89,-1,229,230,111,-1,111,230,231,-1,111,231,3,-1,3,231,232,-1,3,232,4,-1,4,232,233,-1,4,233,52,-1,52,233,234,-1,52,234,53,-1,53,234,235,-1,53,235,55,-1,55,235,236,-1,55,236,56,-1,56,236,237,-1,56,237,7,-1,7,237,238,-1,7,238,8,-1,8,238,239,-1,8,239,48,-1,48,239,240,-1,48,240,50,-1,50,240,241,-1,50,241,101,-1,101,241,242,-1,101,242,103,-1,103,242,243,-1,103,243,105,-1,105,243,244,-1,105,244,107,-1,107,244,245,-1,107,245,108,-1,108,245,246,-1,108,246,85,-1,85,246,247,-1,85,247,87,-1,87,247,248,-1,87,248,88,-1,88,248,39,-1,39,248,249,-1,39,249,250,-1,40,39,251,-1,251,39,250,-1,40,251,252,-1,40,252,42,-1,42,252,253,-1,42,253,44,-1,44,253,254,-1,44,254,71,-1,71,254,255,-1,71,255,72,-1,72,255,256,-1,72,256,74,-1,256,257,74,-1,74,257,258,-1,74,258,76,-1,76,258,259,-1,76,259,78,-1,78,259,260,-1,78,260,80,-1,80,260,261,-1,80,261,82,-1,82,261,262,-1,82,262,83,-1,83,262,263,-1,83,263,61,-1,61,263,264,-1,61,264,63,-1,63,264,265,-1,63,265,65,-1,65,265,266,-1,65,266,67,-1,69,67,267,-1,267,67,266,-1,69,267,268,-1,69,268,140,-1,140,268,269,-1,140,269,137,-1,137,269,270,-1,137,270,151,-1,151,270,271,-1,151,271,145,-1,145,271,272,-1,145,272,146,-1,146,272,273,-1,146,273,148,-1,148,273,274,-1,148,274,149,-1,149,274,275,-1,149,275,150,-1,150,275,276,-1,150,276,147,-1,147,276,277,-1,147,277,142,-1,142,277,278,-1,142,278,143,-1,143,278,279,-1,143,279,144,-1,144,279,280,-1,144,280,138,-1,138,280,281,-1,138,281,139,-1,139,281,282,-1,139,282,141,-1,141,282,283,-1,141,283,70,-1,70,283,284,-1,70,284,68,-1,66,68,285,-1,285,68,284,-1,66,285,286,-1,66,286,64,-1,64,286,287,-1,64,287,62,-1,62,287,288,-1,62,288,60,-1,60,288,289,-1,60,289,81,-1,81,289,290,-1,81,290,79,-1,79,290,156,-1,79,156,77,-1,23,291,292,-1,23,292,12,-1,12,292,293,-1,12,293,11,-1,11,293,294,-1,11,294,38,-1,38,294,295,-1,38,295,17,-1,17,295,296,-1,17,296,18,-1,18,296,297,-1,18,297,116,-1,116,297,298,-1,116,298,117,-1,117,298,299,-1,117,299,119,-1,119,299,300,-1,119,300,121,-1,121,300,301,-1,121,301,123,-1,123,301,302,-1,123,302,125,-1,125,302,303,-1,125,303,127,-1,127,303,304,-1,127,304,129,-1,129,304,305,-1,129,305,131,-1,131,305,306,-1,131,306,133,-1,133,306,307,-1,133,307,135,-1,135,307,308,-1,135,308,136,-1,136,308,309,-1,136,309,58,-1,58,309,310,-1,58,310,57,-1,57,310,311,-1,57,311,34,-1,34,311,312,-1,34,312,33,-1,33,312,313,-1,33,313,32,-1,32,313,314,-1,32,314,30,-1,30,314,315,-1,30,315,28,-1,28,315,316,-1,28,316,26,-1,26,316,317,-1,26,317,24,-1,24,317,291,-1,24,291,23,-1,
        ]
    }
}
Shape{
    appearance Appearance {
        material  Material 	{
            diffuseColor 0.25098039215686274 0.25098039215686274 0.25098039215686274
            specularColor 0.12549019607843137 0.12549019607843137 0.12549019607843137
            ambientIntensity 0.251
            transparency 0.0
            shininess 0.5
        }
    }
    geometry IndexedFaceSet {
        ccw TRUE
        solid FALSE
        coord DEF co Coordinate {
            point [
                1.2594 0.4921 0.5113, 1.2636 0.4921 0.5097, 1.2557 0.4921 0.4749, 1.2673 0.4921 0.5071, 1.2696 0.4921 0.5046, 1.2517 0.4921 0.5116, 1.2549 0.4921 0.4748, 1.2504 0.4921 0.4754, 1.2549 0.4921 0.5118, 1.2724 0.4921 0.4871, 1.2704 0.4921 0.4832, 1.2679 0.4921 0.4802, 1.2426 0.4921 0.4795, 1.2401 0.4921 0.5045, 1.2433 0.4921 0.5077, 1.2719 0.4921 0.5007, 1.2732 0.4921 0.4962, 1.2733 0.4921 0.4915, 1.2643 0.4921 0.4774, 1.26 0.4921 0.4756, 1.2463 0.4921 0.477, 1.2472 0.4921 0.5102, 1.2375 0.4921 0.4871, 1.2365 0.4921 0.4917, 1.2396 0.4921 0.483, 1.2367 0.4921 0.4963, 1.2379 0.4921 0.5006
            ]
        }
        coordIndex [
            0,1,2,-1,2,1,3,-1,2,3,4,-1,5,6,7,-1,6,5,2,-1,2,5,8,-1,2,8,0,-1,9,10,4,-1,4,10,11,-1,12,13,14,-1,15,16,4,-1,4,16,17,-1,4,17,9,-1,11,18,4,-1,4,18,19,-1,4,19,2,-1,7,20,5,-1,5,20,12,-1,5,12,21,-1,21,12,14,-1,22,23,24,-1,24,23,25,-1,24,25,12,-1,12,25,26,-1,12,26,13,-1,
        ]
    }
}
Shape{
    appearance Appearance {
        material  Material 	{
            diffuseColor 1.0 1.0 0.5019607843137255
            specularColor 0.5019607843137255 0.5019607843137255 0.25098039215686274
            ambientIntensity 0.9432
            transparency 0.0
            shininess 0.5
        }
    }
    geometry IndexedFaceSet {
        ccw TRUE
        solid FALSE
        coord DEF co Coordinate {
            point [
                -1.5 0.374 0.2756, -1.3819 0.4921 0.2756, -0.5 0.374 0.2756, -0.6181 0.4921 0.2756
            ]
        }
        coordIndex [
            0,1,2,-1,2,1,3,-1,
        ]
    }
}
Shape{
    appearance Appearance {
        material  Material 	{
            diffuseColor 0.25098039215686274 0.25098039215686274 0.25098039215686274
            specularColor 0.12549019607843137 0.12549019607843137 0.12549019607843137
            ambientIntensity 0.251
            transparency 0.0
            shininess 0.5
        }
    }
    geometry IndexedFaceSet {
        ccw TRUE
        solid FALSE
        coord DEF co Coordinate {
            point [
                -1.5 -0.374 0.3937, -1.5 -0.374 1.2598, -1.5 0.374 0.3937, -1.5 0.374 1.2598, -0.6181 -0.4921 1.2598, -1.3819 -0.4921 1.2598, -0.6181 -0.4921 0.2756, -1.3819 -0.4921 0.2756, -0.5 0.374 0.3937, -0.5 0.374 1.2598, -0.5 -0.374 0.3937, -0.5 -0.374 1.2598, -1.3819 0.4921 1.2598, -0.6181 0.4921 1.2598, -1.3819 0.4921 0.2756, -0.6181 0.4921 0.2756, -1.126 0.126 1.2598, -0.874 0.126 1.2598, -0.874 -0.126 1.2598, -1.126 -0.126 1.2598, -0.5 -0.374 0.2756, -1.5 -0.374 0.2756, -1.5 0.374 0.2756, -0.5 0.374 0.2756, -0.874 0.126 0.3937, -0.874 -0.126 0.3937, -1.126 -0.126 0.3937, -1.126 0.126 0.3937
            ]
        }
        coordIndex [
            0,1,2,-1,2,1,3,-1,4,5,6,-1,6,5,7,-1,8,9,10,-1,10,9,11,-1,12,13,14,-1,14,13,15,-1,12,16,13,-1,13,16,17,-1,13,17,9,-1,9,17,18,-1,9,18,11,-1,12,3,16,-1,16,3,1,-1,16,1,19,-1,19,1,5,-1,19,5,18,-1,18,5,4,-1,18,4,11,-1,20,6,21,-1,21,6,7,-1,3,12,2,-1,2,12,14,-1,2,14,22,-1,13,9,15,-1,15,9,8,-1,15,8,23,-1,11,4,10,-1,10,4,6,-1,10,6,20,-1,5,1,7,-1,7,1,0,-1,7,0,21,-1,8,2,23,-1,23,2,22,-1,0,10,21,-1,21,10,20,-1,24,8,25,-1,25,8,10,-1,25,10,26,-1,26,10,0,-1,26,0,27,-1,27,0,2,-1,27,2,24,-1,24,2,8,-1,
        ]
    }
}
Shape{
    appearance Appearance {
        material  Material 	{
            diffuseColor 1.0 1.0 0.5019607843137255
            specularColor 0.5019607843137255 0.5019607843137255 0.25098039215686274
            ambientIntensity 0.9432
            transparency 0.0
            shininess 0.5
        }
    }
    geometry IndexedFaceSet {
        ccw TRUE
        solid FALSE
        coord DEF co Coordinate {
            point [
                -1.126 0.126 0.2638, -0.874 0.126 0.2638, -0.874 0.117 0.1955, -1.126 0.117 0.1955, -0.874 0.0906 0.1319, -1.126 0.0906 0.1319, -0.874 0.0487 0.0773, -1.126 0.0487 0.0773, -0.874 -0.0059 0.0353, -1.126 -0.0059 0.0353, -0.874 -0.0695 0.009, -1.126 -0.0695 0.009, -0.874 -0.1378 0.0, -1.126 -0.1378 0.0, -1.126 -0.8661 0.0, -0.874 -0.8661 0.0, -0.9422 -0.9843 0.0682, -0.9422 -0.9843 0.1838, -1.0578 -0.9843 0.0682, -1.0578 -0.9843 0.1838, -0.874 -0.8661 0.252, -0.874 -0.1378 0.252, -1.126 -0.8661 0.252, -1.126 -0.1378 0.252, -1.126 -0.1347 0.2524, -0.874 -0.1347 0.2524, -1.126 -0.1319 0.2536, -0.874 -0.1319 0.2536, -1.126 -0.1294 0.2554, -0.874 -0.1294 0.2554, -1.126 -0.1276 0.2579, -0.874 -0.1276 0.2579, -1.126 -0.1264 0.2607, -0.874 -0.1264 0.2607, -1.126 -0.126 0.2638, -0.874 -0.126 0.2638, -0.874 -0.126 0.3937, -0.874 0.126 0.3937, -1.126 -0.126 0.3937, -1.126 0.126 0.3937, -1.126 -0.126 3.5039, -1.126 -0.126 1.2598, -0.874 -0.126 3.5039, -0.874 -0.126 1.2598, -0.9422 -0.0578 3.622, -0.9422 0.0578 3.622, -1.0578 -0.0578 3.622, -1.0578 0.0578 3.622, -0.874 0.126 3.5039, -0.874 0.126 1.2598, -1.126 0.126 3.5039, -1.126 0.126 1.2598
            ]
        }
        coordIndex [
            0,1,2,-1,0,2,3,-1,3,2,4,-1,3,4,5,-1,5,4,6,-1,5,6,7,-1,7,6,8,-1,7,8,9,-1,9,8,10,-1,9,10,11,-1,11,10,12,-1,11,12,13,-1,14,13,15,-1,15,13,12,-1,16,17,18,-1,18,17,19,-1,20,21,22,-1,22,21,23,-1,23,21,24,-1,24,21,25,-1,24,25,26,-1,26,25,27,-1,26,27,28,-1,28,27,29,-1,28,29,30,-1,30,29,31,-1,30,31,32,-1,32,31,33,-1,32,33,34,-1,34,33,35,-1,20,15,21,-1,21,15,12,-1,21,12,25,-1,25,12,10,-1,25,10,27,-1,27,10,8,-1,27,8,29,-1,29,8,6,-1,29,6,31,-1,31,6,4,-1,31,4,33,-1,33,4,2,-1,33,2,35,-1,35,2,1,-1,35,1,36,-1,36,1,37,-1,38,39,34,-1,34,39,0,-1,34,0,32,-1,32,0,3,-1,32,3,30,-1,30,3,5,-1,30,5,28,-1,28,5,7,-1,28,7,26,-1,26,7,9,-1,26,9,24,-1,24,9,11,-1,24,11,23,-1,23,11,13,-1,23,13,22,-1,22,13,14,-1,37,1,39,-1,39,1,0,-1,34,35,38,-1,38,35,36,-1,40,41,42,-1,42,41,43,-1,44,45,46,-1,46,45,47,-1,48,49,50,-1,50,49,51,-1,50,51,40,-1,40,51,41,-1,42,43,48,-1,48,43,49,-1,22,19,20,-1,20,19,17,-1,14,18,22,-1,22,18,19,-1,16,15,17,-1,17,15,20,-1,15,16,14,-1,14,16,18,-1,50,47,48,-1,48,47,45,-1,40,46,50,-1,50,46,47,-1,44,42,45,-1,45,42,48,-1,42,44,40,-1,40,44,46,-1,
        ]
    }
}