ISO-10303-21;
HEADER;
FILE_DESCRIPTION(('Open CASCADE Model'),'2;1');
FILE_NAME('Open CASCADE Shape Model','2026-10-08T07:38:38',('Author'),(
    'Open CASCADE'),'Open CASCADE STEP processor 7.9','build123d',
  'Unknown');
FILE_SCHEMA(('AUTOMOTIVE_DESIGN { 1 0 10303 214 1 1 1 1 }'));
ENDSEC;
DATA;
#1 = APPLICATION_PROTOCOL_DEFINITION('international standard',
  'automotive_design',2000,#2);
#2 = APPLICATION_CONTEXT(
  'core data for automotive mechanical design processes');
#3 = SHAPE_DEFINITION_REPRESENTATION(#4,#10);
#4 = PRODUCT_DEFINITION_SHAPE('','',#5);
#5 = PRODUCT_DEFINITION('design','',#6,#9);
#6 = PRODUCT_DEFINITION_FORMATION('','',#7);
#7 = PRODUCT('COMPOUND','COMPOUND','',(#8));
#8 = PRODUCT_CONTEXT('',#2,'mechanical');
#9 = PRODUCT_DEFINITION_CONTEXT('part definition',#2,'design');
#10 = ADVANCED_BREP_SHAPE_REPRESENTATION('',(#11,#15),#515);
#11 = AXIS2_PLACEMENT_3D('',#12,#13,#14);
#12 = CARTESIAN_POINT('',(0.,0.,0.));
#13 = DIRECTION('',(0.,0.,1.));
#14 = DIRECTION('',(1.,0.,-0.));
#15 = MANIFOLD_SOLID_BREP('',#16);
#16 = CLOSED_SHELL('',(#17,#324,#328,#402,#505,#511));
#17 = ADVANCED_FACE('',(#18),#32,.T.);
#18 = FACE_BOUND('',#19,.T.);
#19 = EDGE_LOOP('',(#20,#50,#79,#119,#274,#296,#297));
#20 = ORIENTED_EDGE('',*,*,#21,.T.);
#21 = EDGE_CURVE('',#22,#24,#26,.T.);
#22 = VERTEX_POINT('',#23);
#23 = CARTESIAN_POINT('',(1.,-2.449293598295E-16,0.8));
#24 = VERTEX_POINT('',#25);
#25 = CARTESIAN_POINT('',(1.,-2.449293598295E-16,3.3));
#26 = SEAM_CURVE('',#27,(#31,#43),.PCURVE_S1.);
#27 = LINE('',#28,#29);
#28 = CARTESIAN_POINT('',(1.,-2.449293598295E-16,0.8));
#29 = VECTOR('',#30,1.);
#30 = DIRECTION('',(0.,0.,1.));
#31 = PCURVE('',#32,#37);
#32 = CYLINDRICAL_SURFACE('',#33,1.);
#33 = AXIS2_PLACEMENT_3D('',#34,#35,#36);
#34 = CARTESIAN_POINT('',(0.,0.,0.8));
#35 = DIRECTION('',(0.,0.,1.));
#36 = DIRECTION('',(1.,0.,-0.));
#37 = DEFINITIONAL_REPRESENTATION('',(#38),#42);
#38 = LINE('',#39,#40);
#39 = CARTESIAN_POINT('',(6.28318530718,-0.));
#40 = VECTOR('',#41,1.);
#41 = DIRECTION('',(0.,1.));
#42 = ( GEOMETRIC_REPRESENTATION_CONTEXT(2) 
PARAMETRIC_REPRESENTATION_CONTEXT() REPRESENTATION_CONTEXT('2D SPACE',''
  ) );
#43 = PCURVE('',#32,#44);
#44 = DEFINITIONAL_REPRESENTATION('',(#45),#49);
#45 = LINE('',#46,#47);
#46 = CARTESIAN_POINT('',(0.,-0.));
#47 = VECTOR('',#48,1.);
#48 = DIRECTION('',(0.,1.));
#49 = ( GEOMETRIC_REPRESENTATION_CONTEXT(2) 
PARAMETRIC_REPRESENTATION_CONTEXT() REPRESENTATION_CONTEXT('2D SPACE',''
  ) );
#50 = ORIENTED_EDGE('',*,*,#51,.F.);
#51 = EDGE_CURVE('',#52,#24,#54,.T.);
#52 = VERTEX_POINT('',#53);
#53 = CARTESIAN_POINT('',(0.533853912602,-0.845576726264,3.3));
#54 = SURFACE_CURVE('',#55,(#60,#67),.PCURVE_S1.);
#55 = CIRCLE('',#56,1.);
#56 = AXIS2_PLACEMENT_3D('',#57,#58,#59);
#57 = CARTESIAN_POINT('',(0.,0.,3.3));
#58 = DIRECTION('',(0.,0.,1.));
#59 = DIRECTION('',(1.,0.,-0.));
#60 = PCURVE('',#32,#61);
#61 = DEFINITIONAL_REPRESENTATION('',(#62),#66);
#62 = LINE('',#63,#64);
#63 = CARTESIAN_POINT('',(0.,2.5));
#64 = VECTOR('',#65,1.);
#65 = DIRECTION('',(1.,0.));
#66 = ( GEOMETRIC_REPRESENTATION_CONTEXT(2) 
PARAMETRIC_REPRESENTATION_CONTEXT() REPRESENTATION_CONTEXT('2D SPACE',''
  ) );
#67 = PCURVE('',#68,#73);
#68 = PLANE('',#69);
#69 = AXIS2_PLACEMENT_3D('',#70,#71,#72);
#70 = CARTESIAN_POINT('',(0.,0.,3.3));
#71 = DIRECTION('',(0.,0.,1.));
#72 = DIRECTION('',(1.,0.,-0.));
#73 = DEFINITIONAL_REPRESENTATION('',(#74),#78);
#74 = CIRCLE('',#75,1.);
#75 = AXIS2_PLACEMENT_2D('',#76,#77);
#76 = CARTESIAN_POINT('',(0.,0.));
#77 = DIRECTION('',(1.,0.));
#78 = ( GEOMETRIC_REPRESENTATION_CONTEXT(2) 
PARAMETRIC_REPRESENTATION_CONTEXT() REPRESENTATION_CONTEXT('2D SPACE',''
  ) );
#79 = ORIENTED_EDGE('',*,*,#80,.F.);
#80 = EDGE_CURVE('',#81,#52,#83,.T.);
#81 = VERTEX_POINT('',#82);
#82 = CARTESIAN_POINT('',(0.565,-0.825090904083,3.115));
#83 = SURFACE_CURVE('',#84,(#92,#103),.PCURVE_S1.);
#84 = B_SPLINE_CURVE_WITH_KNOTS('',6,(#85,#86,#87,#88,#89,#90,#91),
  .UNSPECIFIED.,.F.,.F.,(7,7),(0.,1.),.PIECEWISE_BEZIER_KNOTS.);
#85 = CARTESIAN_POINT('',(0.565,-0.825090904083,3.115));
#86 = CARTESIAN_POINT('',(0.565,-0.825090904083,3.146575459575));
#87 = CARTESIAN_POINT('',(0.562882455989,-0.826540931329,3.178110410655)
  );
#88 = CARTESIAN_POINT('',(0.558657569041,-0.829434061856,3.209417199699)
  );
#89 = CARTESIAN_POINT('',(0.552359799152,-0.833686642038,3.240305680733)
  );
#90 = CARTESIAN_POINT('',(0.5440518005,-0.839138315269,3.270572414899));
#91 = CARTESIAN_POINT('',(0.533853080907,-0.845577251353,3.3000024));
#92 = PCURVE('',#32,#93);
#93 = DEFINITIONAL_REPRESENTATION('',(#94),#102);
#94 = B_SPLINE_CURVE_WITH_KNOTS('',6,(#95,#96,#97,#98,#99,#100,#101),
  .UNSPECIFIED.,.F.,.F.,(7,7),(0.,1.),.PIECEWISE_BEZIER_KNOTS.);
#95 = CARTESIAN_POINT('',(5.312822233965,2.315));
#96 = CARTESIAN_POINT('',(5.312822233965,2.346575459575));
#97 = CARTESIAN_POINT('',(5.310255820414,2.378110410655));
#98 = CARTESIAN_POINT('',(5.305135206155,2.409417199699));
#99 = CARTESIAN_POINT('',(5.297536452336,2.440305680733));
#100 = CARTESIAN_POINT('',(5.287601022879,2.470572414899));
#101 = CARTESIAN_POINT('',(5.275539771732,2.5000024));
#102 = ( GEOMETRIC_REPRESENTATION_CONTEXT(2) 
PARAMETRIC_REPRESENTATION_CONTEXT() REPRESENTATION_CONTEXT('2D SPACE',''
  ) );
#103 = PCURVE('',#104,#109);
#104 = CYLINDRICAL_SURFACE('',#105,0.565);
#105 = AXIS2_PLACEMENT_3D('',#106,#107,#108);
#106 = CARTESIAN_POINT('',(0.,0.,3.115));
#107 = DIRECTION('',(0.,-1.,2.22044604925E-16));
#108 = DIRECTION('',(1.,0.,0.));
#109 = DEFINITIONAL_REPRESENTATION('',(#110),#118);
#110 = B_SPLINE_CURVE_WITH_KNOTS('',6,(#111,#112,#113,#114,#115,#116,
    #117),.UNSPECIFIED.,.F.,.F.,(7,7),(0.,1.),.PIECEWISE_BEZIER_KNOTS.);
#111 = CARTESIAN_POINT('',(0.,0.825090904083));
#112 = CARTESIAN_POINT('',(5.588576915969E-02,0.825090904083));
#113 = CARTESIAN_POINT('',(0.111699782234,0.826540931329));
#114 = CARTESIAN_POINT('',(0.167424480386,0.829434061856));
#115 = CARTESIAN_POINT('',(0.223032151968,0.833686642038));
#116 = CARTESIAN_POINT('',(0.278463190286,0.839138315269));
#117 = CARTESIAN_POINT('',(0.33359068913,0.845577251353));
#118 = ( GEOMETRIC_REPRESENTATION_CONTEXT(2) 
PARAMETRIC_REPRESENTATION_CONTEXT() REPRESENTATION_CONTEXT('2D SPACE',''
  ) );
#119 = ORIENTED_EDGE('',*,*,#120,.F.);
#120 = EDGE_CURVE('',#121,#81,#123,.T.);
#121 = VERTEX_POINT('',#122);
#122 = CARTESIAN_POINT('',(-0.533853912602,-0.845576726264,3.3));
#123 = SURFACE_CURVE('',#124,(#172,#223),.PCURVE_S1.);
#124 = B_SPLINE_CURVE_WITH_KNOTS('',6,(#125,#126,#127,#128,#129,#130,
    #131,#132,#133,#134,#135,#136,#137,#138,#139,#140,#141,#142,#143,
    #144,#145,#146,#147,#148,#149,#150,#151,#152,#153,#154,#155,#156,
    #157,#158,#159,#160,#161,#162,#163,#164,#165,#166,#167,#168,#169,
    #170,#171),.UNSPECIFIED.,.F.,.F.,(7,5,5,5,5,5,5,5,5,7),(0.,
    9.480288170308E-02,0.197557970765,0.316887819865,0.429925507588,
    0.547543109639,0.666393208721,0.777584930845,0.897608118301,1.),
  .UNSPECIFIED.);
#125 = CARTESIAN_POINT('',(-0.533853080907,-0.845577251353,3.3000024));
#126 = CARTESIAN_POINT('',(-0.544021208184,-0.839157629651,
    3.270660693765));
#127 = CARTESIAN_POINT('',(-0.552309921676,-0.833719368591,3.24048730504
    ));
#128 = CARTESIAN_POINT('',(-0.558600825556,-0.829472374594,
    3.209695234372));
#129 = CARTESIAN_POINT('',(-0.56283165132,-0.82657571784,3.178486089834)
  );
#130 = CARTESIAN_POINT('',(-0.564968064716,-0.825112772488,3.14704836623
    ));
#131 = CARTESIAN_POINT('',(-0.565034019014,-0.825067608796,
    3.081447097453));
#132 = CARTESIAN_POINT('',(-0.562595548065,-0.826737388537,
    3.047376148664));
#133 = CARTESIAN_POINT('',(-0.557698350928,-0.830091600858,
    3.013587811223));
#134 = CARTESIAN_POINT('',(-0.550387497942,-0.835018088516,
    2.980318253599));
#135 = CARTESIAN_POINT('',(-0.54074530664,-0.841301483934,2.947822976836
    ));
#136 = CARTESIAN_POINT('',(-0.515219122382,-0.857210854496,
    2.879848189208));
#137 = CARTESIAN_POINT('',(-0.49856536402,-0.867221082779,2.844695980537
    ));
#138 = CARTESIAN_POINT('',(-0.479130065398,-0.87831576614,2.811110346924
    ));
#139 = CARTESIAN_POINT('',(-0.457066647692,-0.890074347687,
    2.779301613498));
#140 = CARTESIAN_POINT('',(-0.432554149245,-0.902083163489,
    2.749485654098));
#141 = CARTESIAN_POINT('',(-0.380449372391,-0.925217484169,
    2.695702657986));
#142 = CARTESIAN_POINT('',(-0.353046866696,-0.936374500776,
    2.671468098581));
#143 = CARTESIAN_POINT('',(-0.323750494726,-0.947110460306,
    2.649347686925));
#144 = CARTESIAN_POINT('',(-0.29273537034,-0.957132042142,2.629511113093
    ));
#145 = CARTESIAN_POINT('',(-0.260189613748,-0.966183664652,2.61211509072
    ));
#146 = CARTESIAN_POINT('',(-0.191065764773,-0.982244052481,
    2.581897058382));
#147 = CARTESIAN_POINT('',(-0.154374030706,-0.989156116365,
    2.569287249759));
#148 = CARTESIAN_POINT('',(-0.11656177794,-0.994527367605,2.559685362437
    ));
#149 = CARTESIAN_POINT('',(-7.798345079197E-02,-0.998174367418,
    2.553231651464));
#150 = CARTESIAN_POINT('',(-3.900767155109E-02,-1.,2.55));
#151 = CARTESIAN_POINT('',(3.941642703118E-02,-1.,2.55));
#152 = CARTESIAN_POINT('',(7.879922813653E-02,-0.998135917629,
    2.553299733074));
#153 = CARTESIAN_POINT('',(0.117771866307,-0.994412307936,2.559888972055
    ));
#154 = CARTESIAN_POINT('',(0.155954656793,-0.98893037865,2.56969081445)
  );
#155 = CARTESIAN_POINT('',(0.192982804502,-0.981881076872,2.582559469317
    ));
#156 = CARTESIAN_POINT('',(0.261775871942,-0.965732868511,2.612983756751
    ));
#157 = CARTESIAN_POINT('',(0.293731436566,-0.956793984114,2.630186316986
    ));
#158 = CARTESIAN_POINT('',(0.32420071401,-0.946923665723,2.649745910249)
  );
#159 = CARTESIAN_POINT('',(0.353005090188,-0.936365692712,2.671513175043
    ));
#160 = CARTESIAN_POINT('',(0.379978094652,-0.925399110586,2.695326691077
    ));
#161 = CARTESIAN_POINT('',(0.431938037061,-0.902385588609,2.74873419212)
  );
#162 = CARTESIAN_POINT('',(0.456642513338,-0.89030166563,2.778683693126)
  );
#163 = CARTESIAN_POINT('',(0.478871840926,-0.878464781975,2.810652176047
    ));
#164 = CARTESIAN_POINT('',(0.498443792687,-0.867295686891,2.844420109963
    ));
#165 = CARTESIAN_POINT('',(0.515202368425,-0.857222499655,2.879773586923
    ));
#166 = CARTESIAN_POINT('',(0.540748906488,-0.841298209574,2.947858253228
    ));
#167 = CARTESIAN_POINT('',(0.550355988761,-0.83503813024,2.980238101742)
  );
#168 = CARTESIAN_POINT('',(0.557648464134,-0.830125092449,3.01338691693)
  );
#169 = CARTESIAN_POINT('',(0.562544735658,-0.826772187591,3.047052003682
    ));
#170 = CARTESIAN_POINT('',(0.565,-0.825090904083,3.080999715185));
#171 = CARTESIAN_POINT('',(0.565,-0.825090904083,3.115));
#172 = PCURVE('',#32,#173);
#173 = DEFINITIONAL_REPRESENTATION('',(#174),#222);
#174 = B_SPLINE_CURVE_WITH_KNOTS('',6,(#175,#176,#177,#178,#179,#180,
    #181,#182,#183,#184,#185,#186,#187,#188,#189,#190,#191,#192,#193,
    #194,#195,#196,#197,#198,#199,#200,#201,#202,#203,#204,#205,#206,
    #207,#208,#209,#210,#211,#212,#213,#214,#215,#216,#217,#218,#219,
    #220,#221),.UNSPECIFIED.,.F.,.F.,(7,5,5,5,5,5,5,5,5,7),(0.,
    9.480288170308E-02,0.197557970765,0.316887819865,0.429925507588,
    0.547543109639,0.666393208721,0.777584930845,0.897608118301,1.),
  .UNSPECIFIED.);
#175 = CARTESIAN_POINT('',(4.149238189037,2.5000024));
#176 = CARTESIAN_POINT('',(4.1372131171,2.470660693765));
#177 = CARTESIAN_POINT('',(4.127301154512,2.44048730504));
#178 = CARTESIAN_POINT('',(4.119711218807,2.409695234372));
#179 = CARTESIAN_POINT('',(4.114583713471,2.378486089834));
#180 = CARTESIAN_POINT('',(4.111994431966,2.34704836623));
#181 = CARTESIAN_POINT('',(4.111914496188,2.281447097453));
#182 = CARTESIAN_POINT('',(4.114869853737,2.247376148664));
#183 = CARTESIAN_POINT('',(4.120805749045,2.213587811223));
#184 = CARTESIAN_POINT('',(4.129621007742,2.180318253599));
#185 = CARTESIAN_POINT('',(4.141127446199,2.147822976836));
#186 = CARTESIAN_POINT('',(4.171205580357,2.079848189208));
#187 = CARTESIAN_POINT('',(4.190633751724,2.044695980537));
#188 = CARTESIAN_POINT('',(4.213003761318,2.011110346924));
#189 = CARTESIAN_POINT('',(4.2379856835,1.979301613498));
#190 = CARTESIAN_POINT('',(4.265262344051,1.949485654098));
#191 = CARTESIAN_POINT('',(4.322272032388,1.895702657986));
#192 = CARTESIAN_POINT('',(4.35184452382,1.871468098581));
#193 = CARTESIAN_POINT('',(4.383014967601,1.849347686925));
#194 = CARTESIAN_POINT('',(4.415569511308,1.829511113093));
#195 = CARTESIAN_POINT('',(4.449319206386,1.81211509072));
#196 = CARTESIAN_POINT('',(4.520284286209,1.781897058382));
#197 = CARTESIAN_POINT('',(4.55758842013,1.769287249759));
#198 = CARTESIAN_POINT('',(4.595720187427,1.759685362437));
#199 = CARTESIAN_POINT('',(4.634405655666,1.753231651464));
#200 = CARTESIAN_POINT('',(4.673381308834,1.75));
#201 = CARTESIAN_POINT('',(4.751805407416,1.75));
#202 = CARTESIAN_POINT('',(4.791188072776,1.753299733074));
#203 = CARTESIAN_POINT('',(4.830271266574,1.759888972055));
#204 = CARTESIAN_POINT('',(4.868783677086,1.76969081445));
#205 = CARTESIAN_POINT('',(4.906443029901,1.782559469317));
#206 = CARTESIAN_POINT('',(4.977105967577,1.812983756751));
#207 = CARTESIAN_POINT('',(5.010258546279,1.830186316986));
#208 = CARTESIAN_POINT('',(5.042249230147,1.849745910249));
#209 = CARTESIAN_POINT('',(5.072898003168,1.871513175043));
#210 = CARTESIAN_POINT('',(5.102001482975,1.895326691077));
#211 = CARTESIAN_POINT('',(5.158829801698,1.94873419212));
#212 = CARTESIAN_POINT('',(5.186311463891,1.978683693126));
#213 = CARTESIAN_POINT('',(5.211476190473,2.010652176047));
#214 = CARTESIAN_POINT('',(5.234001595261,2.044420109963));
#215 = CARTESIAN_POINT('',(5.253552002396,2.079773586923));
#216 = CARTESIAN_POINT('',(5.283655301577,2.147858253228));
#217 = CARTESIAN_POINT('',(5.295119626963,2.180238101742));
#218 = CARTESIAN_POINT('',(5.303912130168,2.21338691693));
#219 = CARTESIAN_POINT('',(5.309846520064,2.247052003682));
#220 = CARTESIAN_POINT('',(5.312822233965,2.280999715185));
#221 = CARTESIAN_POINT('',(5.312822233965,2.315));
#222 = ( GEOMETRIC_REPRESENTATION_CONTEXT(2) 
PARAMETRIC_REPRESENTATION_CONTEXT() REPRESENTATION_CONTEXT('2D SPACE',''
  ) );
#223 = PCURVE('',#104,#224);
#224 = DEFINITIONAL_REPRESENTATION('',(#225),#273);
#225 = B_SPLINE_CURVE_WITH_KNOTS('',6,(#226,#227,#228,#229,#230,#231,
    #232,#233,#234,#235,#236,#237,#238,#239,#240,#241,#242,#243,#244,
    #245,#246,#247,#248,#249,#250,#251,#252,#253,#254,#255,#256,#257,
    #258,#259,#260,#261,#262,#263,#264,#265,#266,#267,#268,#269,#270,
    #271,#272),.UNSPECIFIED.,.F.,.F.,(7,5,5,5,5,5,5,5,5,7),(0.,
    9.480288170308E-02,0.197557970765,0.316887819865,0.429925507588,
    0.547543109639,0.666393208721,0.777584930845,0.897608118301,1.),
  .UNSPECIFIED.);
#226 = CARTESIAN_POINT('',(2.808001964459,0.845577251353));
#227 = CARTESIAN_POINT('',(2.862964101579,0.839157629651));
#228 = CARTESIAN_POINT('',(2.918227859171,0.833719368591));
#229 = CARTESIAN_POINT('',(2.973667609331,0.829472374594));
#230 = CARTESIAN_POINT('',(3.029224149557,0.82657571784));
#231 = CARTESIAN_POINT('',(3.084869853172,0.825112772488));
#232 = CARTESIAN_POINT('',(3.200978352167,0.825067608796));
#233 = CARTESIAN_POINT('',(3.261276460633,0.826737388537));
#234 = CARTESIAN_POINT('',(3.321466957268,0.830091600858));
#235 = CARTESIAN_POINT('',(3.381520209458,0.835018088516));
#236 = CARTESIAN_POINT('',(3.441362205239,0.841301483934));
#237 = CARTESIAN_POINT('',(3.569874818212,0.857210854496));
#238 = CARTESIAN_POINT('',(3.638482057446,0.867221082779));
#239 = CARTESIAN_POINT('',(3.706816573067,0.87831576614));
#240 = CARTESIAN_POINT('',(3.774990530066,0.890074347687));
#241 = CARTESIAN_POINT('',(3.84308019168,0.902083163489));
#242 = CARTESIAN_POINT('',(3.975617121924,0.925217484169));
#243 = CARTESIAN_POINT('',(4.040170700682,0.936374500776));
#244 = CARTESIAN_POINT('',(4.104851994638,0.947110460306));
#245 = CARTESIAN_POINT('',(4.169716912983,0.957132042142));
#246 = CARTESIAN_POINT('',(4.234830075709,0.966183664652));
#247 = CARTESIAN_POINT('',(4.368352696692,0.982244052481));
#248 = CARTESIAN_POINT('',(4.436795922843,0.989156116365));
#249 = CARTESIAN_POINT('',(4.505492942085,0.994527367605));
#250 = CARTESIAN_POINT('',(4.574364970287,0.998174367418));
#251 = CARTESIAN_POINT('',(4.643348853746,1.));
#252 = CARTESIAN_POINT('',(4.78215256805,1.));
#253 = CARTESIAN_POINT('',(4.851856859714,0.998135917629));
#254 = CARTESIAN_POINT('',(4.921445563552,0.994412307936));
#255 = CARTESIAN_POINT('',(4.990854515805,0.98893037865));
#256 = CARTESIAN_POINT('',(5.060003167649,0.981881076872));
#257 = CARTESIAN_POINT('',(5.193136793301,0.965732868511));
#258 = CARTESIAN_POINT('',(5.257177483256,0.956793984114));
#259 = CARTESIAN_POINT('',(5.320978860905,0.946923665723));
#260 = CARTESIAN_POINT('',(5.384602630288,0.936365692712));
#261 = CARTESIAN_POINT('',(5.448102378887,0.925399110586));
#262 = CARTESIAN_POINT('',(5.579983908995,0.902385588609));
#263 = CARTESIAN_POINT('',(5.648468039632,0.89030166563));
#264 = CARTESIAN_POINT('',(5.717035754007,0.878464781975));
#265 = CARTESIAN_POINT('',(5.785764710468,0.867295686891));
#266 = CARTESIAN_POINT('',(5.854769104351,0.857222499655));
#267 = CARTESIAN_POINT('',(5.983476448228,0.841298209574));
#268 = CARTESIAN_POINT('',(6.043106479912,0.83503813024));
#269 = CARTESIAN_POINT('',(6.102946554908,0.830125092449));
#270 = CARTESIAN_POINT('',(6.162923450733,0.826772187591));
#271 = CARTESIAN_POINT('',(6.223007811932,0.825090904083));
#272 = CARTESIAN_POINT('',(6.28318530718,0.825090904083));
#273 = ( GEOMETRIC_REPRESENTATION_CONTEXT(2) 
PARAMETRIC_REPRESENTATION_CONTEXT() REPRESENTATION_CONTEXT('2D SPACE',''
  ) );
#274 = ORIENTED_EDGE('',*,*,#275,.F.);
#275 = EDGE_CURVE('',#24,#121,#276,.T.);
#276 = SURFACE_CURVE('',#277,(#282,#289),.PCURVE_S1.);
#277 = CIRCLE('',#278,1.);
#278 = AXIS2_PLACEMENT_3D('',#279,#280,#281);
#279 = CARTESIAN_POINT('',(0.,0.,3.3));
#280 = DIRECTION('',(0.,0.,1.));
#281 = DIRECTION('',(1.,0.,-0.));
#282 = PCURVE('',#32,#283);
#283 = DEFINITIONAL_REPRESENTATION('',(#284),#288);
#284 = LINE('',#285,#286);
#285 = CARTESIAN_POINT('',(0.,2.5));
#286 = VECTOR('',#287,1.);
#287 = DIRECTION('',(1.,0.));
#288 = ( GEOMETRIC_REPRESENTATION_CONTEXT(2) 
PARAMETRIC_REPRESENTATION_CONTEXT() REPRESENTATION_CONTEXT('2D SPACE',''
  ) );
#289 = PCURVE('',#68,#290);
#290 = DEFINITIONAL_REPRESENTATION('',(#291),#295);
#291 = CIRCLE('',#292,1.);
#292 = AXIS2_PLACEMENT_2D('',#293,#294);
#293 = CARTESIAN_POINT('',(0.,0.));
#294 = DIRECTION('',(1.,0.));
#295 = ( GEOMETRIC_REPRESENTATION_CONTEXT(2) 
PARAMETRIC_REPRESENTATION_CONTEXT() REPRESENTATION_CONTEXT('2D SPACE',''
  ) );
#296 = ORIENTED_EDGE('',*,*,#21,.F.);
#297 = ORIENTED_EDGE('',*,*,#298,.T.);
#298 = EDGE_CURVE('',#22,#22,#299,.T.);
#299 = SURFACE_CURVE('',#300,(#305,#312),.PCURVE_S1.);
#300 = CIRCLE('',#301,1.);
#301 = AXIS2_PLACEMENT_3D('',#302,#303,#304);
#302 = CARTESIAN_POINT('',(0.,0.,0.8));
#303 = DIRECTION('',(0.,0.,1.));
#304 = DIRECTION('',(1.,0.,-0.));
#305 = PCURVE('',#32,#306);
#306 = DEFINITIONAL_REPRESENTATION('',(#307),#311);
#307 = LINE('',#308,#309);
#308 = CARTESIAN_POINT('',(0.,0.));
#309 = VECTOR('',#310,1.);
#310 = DIRECTION('',(1.,0.));
#311 = ( GEOMETRIC_REPRESENTATION_CONTEXT(2) 
PARAMETRIC_REPRESENTATION_CONTEXT() REPRESENTATION_CONTEXT('2D SPACE',''
  ) );
#312 = PCURVE('',#313,#318);
#313 = PLANE('',#314);
#314 = AXIS2_PLACEMENT_3D('',#315,#316,#317);
#315 = CARTESIAN_POINT('',(0.,0.,0.8));
#316 = DIRECTION('',(0.,0.,1.));
#317 = DIRECTION('',(1.,0.,-0.));
#318 = DEFINITIONAL_REPRESENTATION('',(#319),#323);
#319 = CIRCLE('',#320,1.);
#320 = AXIS2_PLACEMENT_2D('',#321,#322);
#321 = CARTESIAN_POINT('',(0.,0.));
#322 = DIRECTION('',(1.,0.));
#323 = ( GEOMETRIC_REPRESENTATION_CONTEXT(2) 
PARAMETRIC_REPRESENTATION_CONTEXT() REPRESENTATION_CONTEXT('2D SPACE',''
  ) );
#324 = ADVANCED_FACE('',(#325),#313,.F.);
#325 = FACE_BOUND('',#326,.T.);
#326 = EDGE_LOOP('',(#327));
#327 = ORIENTED_EDGE('',*,*,#298,.F.);
#328 = ADVANCED_FACE('',(#329),#68,.T.);
#329 = FACE_BOUND('',#330,.T.);
#330 = EDGE_LOOP('',(#331,#332,#333,#354,#383));
#331 = ORIENTED_EDGE('',*,*,#51,.T.);
#332 = ORIENTED_EDGE('',*,*,#275,.T.);
#333 = ORIENTED_EDGE('',*,*,#334,.F.);
#334 = EDGE_CURVE('',#335,#121,#337,.T.);
#335 = VERTEX_POINT('',#336);
#336 = CARTESIAN_POINT('',(-0.533853912602,-1.784621829759E-14,3.3));
#337 = SURFACE_CURVE('',#338,(#342,#348),.PCURVE_S1.);
#338 = LINE('',#339,#340);
#339 = CARTESIAN_POINT('',(-0.533853912602,0.,3.3));
#340 = VECTOR('',#341,1.);
#341 = DIRECTION('',(0.,-1.,2.22044604925E-16));
#342 = PCURVE('',#68,#343);
#343 = DEFINITIONAL_REPRESENTATION('',(#344),#347);
#344 = B_SPLINE_CURVE_WITH_KNOTS('',1,(#345,#346),.UNSPECIFIED.,.F.,.F.,
  (2,2),(-2.400000000041E-06,1.2),.PIECEWISE_BEZIER_KNOTS.);
#345 = CARTESIAN_POINT('',(-0.533853912602,2.400000000041E-06));
#346 = CARTESIAN_POINT('',(-0.533853912602,-1.2));
#347 = ( GEOMETRIC_REPRESENTATION_CONTEXT(2) 
PARAMETRIC_REPRESENTATION_CONTEXT() REPRESENTATION_CONTEXT('2D SPACE',''
  ) );
#348 = PCURVE('',#104,#349);
#349 = DEFINITIONAL_REPRESENTATION('',(#350),#353);
#350 = B_SPLINE_CURVE_WITH_KNOTS('',1,(#351,#352),.UNSPECIFIED.,.F.,.F.,
  (2,2),(-2.400000000041E-06,1.2),.PIECEWISE_BEZIER_KNOTS.);
#351 = CARTESIAN_POINT('',(2.808006460075,-2.4E-06));
#352 = CARTESIAN_POINT('',(2.808006460075,1.2));
#353 = ( GEOMETRIC_REPRESENTATION_CONTEXT(2) 
PARAMETRIC_REPRESENTATION_CONTEXT() REPRESENTATION_CONTEXT('2D SPACE',''
  ) );
#354 = ORIENTED_EDGE('',*,*,#355,.F.);
#355 = EDGE_CURVE('',#356,#335,#358,.T.);
#356 = VERTEX_POINT('',#357);
#357 = CARTESIAN_POINT('',(0.533853912602,-1.30756497056E-16,3.3));
#358 = SURFACE_CURVE('',#359,(#364,#371),.PCURVE_S1.);
#359 = CIRCLE('',#360,0.533853912602);
#360 = AXIS2_PLACEMENT_3D('',#361,#362,#363);
#361 = CARTESIAN_POINT('',(0.,0.,3.3));
#362 = DIRECTION('',(0.,0.,1.));
#363 = DIRECTION('',(1.,0.,-0.));
#364 = PCURVE('',#68,#365);
#365 = DEFINITIONAL_REPRESENTATION('',(#366),#370);
#366 = CIRCLE('',#367,0.533853912602);
#367 = AXIS2_PLACEMENT_2D('',#368,#369);
#368 = CARTESIAN_POINT('',(0.,0.));
#369 = DIRECTION('',(1.,0.));
#370 = ( GEOMETRIC_REPRESENTATION_CONTEXT(2) 
PARAMETRIC_REPRESENTATION_CONTEXT() REPRESENTATION_CONTEXT('2D SPACE',''
  ) );
#371 = PCURVE('',#372,#377);
#372 = SPHERICAL_SURFACE('',#373,0.565);
#373 = AXIS2_PLACEMENT_3D('',#374,#375,#376);
#374 = CARTESIAN_POINT('',(0.,0.,3.115));
#375 = DIRECTION('',(0.,0.,1.));
#376 = DIRECTION('',(1.,0.,-0.));
#377 = DEFINITIONAL_REPRESENTATION('',(#378),#382);
#378 = LINE('',#379,#380);
#379 = CARTESIAN_POINT('',(0.,0.333586193515));
#380 = VECTOR('',#381,1.);
#381 = DIRECTION('',(1.,0.));
#382 = ( GEOMETRIC_REPRESENTATION_CONTEXT(2) 
PARAMETRIC_REPRESENTATION_CONTEXT() REPRESENTATION_CONTEXT('2D SPACE',''
  ) );
#383 = ORIENTED_EDGE('',*,*,#384,.T.);
#384 = EDGE_CURVE('',#356,#52,#385,.T.);
#385 = SURFACE_CURVE('',#386,(#390,#396),.PCURVE_S1.);
#386 = LINE('',#387,#388);
#387 = CARTESIAN_POINT('',(0.533853912602,0.,3.3));
#388 = VECTOR('',#389,1.);
#389 = DIRECTION('',(0.,-1.,2.22044604925E-16));
#390 = PCURVE('',#68,#391);
#391 = DEFINITIONAL_REPRESENTATION('',(#392),#395);
#392 = B_SPLINE_CURVE_WITH_KNOTS('',1,(#393,#394),.UNSPECIFIED.,.F.,.F.,
  (2,2),(-2.400000000041E-06,1.2),.PIECEWISE_BEZIER_KNOTS.);
#393 = CARTESIAN_POINT('',(0.533853912602,2.400000000041E-06));
#394 = CARTESIAN_POINT('',(0.533853912602,-1.2));
#395 = ( GEOMETRIC_REPRESENTATION_CONTEXT(2) 
PARAMETRIC_REPRESENTATION_CONTEXT() REPRESENTATION_CONTEXT('2D SPACE',''
  ) );
#396 = PCURVE('',#104,#397);
#397 = DEFINITIONAL_REPRESENTATION('',(#398),#401);
#398 = B_SPLINE_CURVE_WITH_KNOTS('',1,(#399,#400),.UNSPECIFIED.,.F.,.F.,
  (2,2),(-2.400000000041E-06,1.2),.PIECEWISE_BEZIER_KNOTS.);
#399 = CARTESIAN_POINT('',(0.333586193515,-2.4E-06));
#400 = CARTESIAN_POINT('',(0.333586193515,1.2));
#401 = ( GEOMETRIC_REPRESENTATION_CONTEXT(2) 
PARAMETRIC_REPRESENTATION_CONTEXT() REPRESENTATION_CONTEXT('2D SPACE',''
  ) );
#402 = ADVANCED_FACE('',(#403),#104,.T.);
#403 = FACE_BOUND('',#404,.T.);
#404 = EDGE_LOOP('',(#405,#428,#455,#456,#457,#458,#481,#503,#504));
#405 = ORIENTED_EDGE('',*,*,#406,.T.);
#406 = EDGE_CURVE('',#81,#407,#409,.T.);
#407 = VERTEX_POINT('',#408);
#408 = CARTESIAN_POINT('',(0.565,-28.4,3.115));
#409 = SEAM_CURVE('',#410,(#414,#421),.PCURVE_S1.);
#410 = LINE('',#411,#412);
#411 = CARTESIAN_POINT('',(0.565,-3.07276622599E-32,3.115));
#412 = VECTOR('',#413,1.);
#413 = DIRECTION('',(0.,-1.,2.22044604925E-16));
#414 = PCURVE('',#104,#415);
#415 = DEFINITIONAL_REPRESENTATION('',(#416),#420);
#416 = LINE('',#417,#418);
#417 = CARTESIAN_POINT('',(6.28318530718,-0.));
#418 = VECTOR('',#419,1.);
#419 = DIRECTION('',(0.,1.));
#420 = ( GEOMETRIC_REPRESENTATION_CONTEXT(2) 
PARAMETRIC_REPRESENTATION_CONTEXT() REPRESENTATION_CONTEXT('2D SPACE',''
  ) );
#421 = PCURVE('',#104,#422);
#422 = DEFINITIONAL_REPRESENTATION('',(#423),#427);
#423 = LINE('',#424,#425);
#424 = CARTESIAN_POINT('',(0.,-0.));
#425 = VECTOR('',#426,1.);
#426 = DIRECTION('',(0.,1.));
#427 = ( GEOMETRIC_REPRESENTATION_CONTEXT(2) 
PARAMETRIC_REPRESENTATION_CONTEXT() REPRESENTATION_CONTEXT('2D SPACE',''
  ) );
#428 = ORIENTED_EDGE('',*,*,#429,.F.);
#429 = EDGE_CURVE('',#407,#407,#430,.T.);
#430 = SURFACE_CURVE('',#431,(#436,#443),.PCURVE_S1.);
#431 = CIRCLE('',#432,0.565);
#432 = AXIS2_PLACEMENT_3D('',#433,#434,#435);
#433 = CARTESIAN_POINT('',(0.,-28.4,3.115));
#434 = DIRECTION('',(0.,-1.,2.22044604925E-16));
#435 = DIRECTION('',(1.,0.,0.));
#436 = PCURVE('',#104,#437);
#437 = DEFINITIONAL_REPRESENTATION('',(#438),#442);
#438 = LINE('',#439,#440);
#439 = CARTESIAN_POINT('',(0.,28.4));
#440 = VECTOR('',#441,1.);
#441 = DIRECTION('',(1.,0.));
#442 = ( GEOMETRIC_REPRESENTATION_CONTEXT(2) 
PARAMETRIC_REPRESENTATION_CONTEXT() REPRESENTATION_CONTEXT('2D SPACE',''
  ) );
#443 = PCURVE('',#444,#449);
#444 = PLANE('',#445);
#445 = AXIS2_PLACEMENT_3D('',#446,#447,#448);
#446 = CARTESIAN_POINT('',(0.,-28.4,3.115));
#447 = DIRECTION('',(0.,-1.,2.22044604925E-16));
#448 = DIRECTION('',(1.,0.,0.));
#449 = DEFINITIONAL_REPRESENTATION('',(#450),#454);
#450 = CIRCLE('',#451,0.565);
#451 = AXIS2_PLACEMENT_2D('',#452,#453);
#452 = CARTESIAN_POINT('',(0.,0.));
#453 = DIRECTION('',(1.,0.));
#454 = ( GEOMETRIC_REPRESENTATION_CONTEXT(2) 
PARAMETRIC_REPRESENTATION_CONTEXT() REPRESENTATION_CONTEXT('2D SPACE',''
  ) );
#455 = ORIENTED_EDGE('',*,*,#406,.F.);
#456 = ORIENTED_EDGE('',*,*,#80,.T.);
#457 = ORIENTED_EDGE('',*,*,#384,.F.);
#458 = ORIENTED_EDGE('',*,*,#459,.T.);
#459 = EDGE_CURVE('',#356,#460,#462,.T.);
#460 = VERTEX_POINT('',#461);
#461 = CARTESIAN_POINT('',(3.459627207591E-17,-8.473642772039E-33,3.68)
  );
#462 = SURFACE_CURVE('',#463,(#468,#474),.PCURVE_S1.);
#463 = CIRCLE('',#464,0.565);
#464 = AXIS2_PLACEMENT_3D('',#465,#466,#467);
#465 = CARTESIAN_POINT('',(0.,0.,3.115));
#466 = DIRECTION('',(-2.449293598295E-16,-1.,0.));
#467 = DIRECTION('',(1.,-2.449293598295E-16,0.));
#468 = PCURVE('',#104,#469);
#469 = DEFINITIONAL_REPRESENTATION('',(#470),#473);
#470 = B_SPLINE_CURVE_WITH_KNOTS('',1,(#471,#472),.UNSPECIFIED.,.F.,.F.,
  (2,2),(6.616771500695,7.853981633974),.PIECEWISE_BEZIER_KNOTS.);
#471 = CARTESIAN_POINT('',(0.333586193515,0.));
#472 = CARTESIAN_POINT('',(1.570796326795,0.));
#473 = ( GEOMETRIC_REPRESENTATION_CONTEXT(2) 
PARAMETRIC_REPRESENTATION_CONTEXT() REPRESENTATION_CONTEXT('2D SPACE',''
  ) );
#474 = PCURVE('',#372,#475);
#475 = DEFINITIONAL_REPRESENTATION('',(#476),#480);
#476 = LINE('',#477,#478);
#477 = CARTESIAN_POINT('',(0.,-6.28318530718));
#478 = VECTOR('',#479,1.);
#479 = DIRECTION('',(0.,1.));
#480 = ( GEOMETRIC_REPRESENTATION_CONTEXT(2) 
PARAMETRIC_REPRESENTATION_CONTEXT() REPRESENTATION_CONTEXT('2D SPACE',''
  ) );
#481 = ORIENTED_EDGE('',*,*,#482,.T.);
#482 = EDGE_CURVE('',#460,#335,#483,.T.);
#483 = SURFACE_CURVE('',#484,(#489,#496),.PCURVE_S1.);
#484 = CIRCLE('',#485,0.565);
#485 = AXIS2_PLACEMENT_3D('',#486,#487,#488);
#486 = CARTESIAN_POINT('',(0.,0.,3.115));
#487 = DIRECTION('',(0.,-1.,2.22044604925E-16));
#488 = DIRECTION('',(1.,0.,0.));
#489 = PCURVE('',#104,#490);
#490 = DEFINITIONAL_REPRESENTATION('',(#491),#495);
#491 = LINE('',#492,#493);
#492 = CARTESIAN_POINT('',(0.,0.));
#493 = VECTOR('',#494,1.);
#494 = DIRECTION('',(1.,0.));
#495 = ( GEOMETRIC_REPRESENTATION_CONTEXT(2) 
PARAMETRIC_REPRESENTATION_CONTEXT() REPRESENTATION_CONTEXT('2D SPACE',''
  ) );
#496 = PCURVE('',#372,#497);
#497 = DEFINITIONAL_REPRESENTATION('',(#498),#502);
#498 = LINE('',#499,#500);
#499 = CARTESIAN_POINT('',(3.14159265359,3.14159265359));
#500 = VECTOR('',#501,1.);
#501 = DIRECTION('',(0.,-1.));
#502 = ( GEOMETRIC_REPRESENTATION_CONTEXT(2) 
PARAMETRIC_REPRESENTATION_CONTEXT() REPRESENTATION_CONTEXT('2D SPACE',''
  ) );
#503 = ORIENTED_EDGE('',*,*,#334,.T.);
#504 = ORIENTED_EDGE('',*,*,#120,.T.);
#505 = ADVANCED_FACE('',(#506),#372,.T.);
#506 = FACE_BOUND('',#507,.T.);
#507 = EDGE_LOOP('',(#508,#509,#510));
#508 = ORIENTED_EDGE('',*,*,#459,.F.);
#509 = ORIENTED_EDGE('',*,*,#355,.T.);
#510 = ORIENTED_EDGE('',*,*,#482,.F.);
#511 = ADVANCED_FACE('',(#512),#444,.T.);
#512 = FACE_BOUND('',#513,.T.);
#513 = EDGE_LOOP('',(#514));
#514 = ORIENTED_EDGE('',*,*,#429,.T.);
#515 = ( GEOMETRIC_REPRESENTATION_CONTEXT(3) 
GLOBAL_UNCERTAINTY_ASSIGNED_CONTEXT((#519)) GLOBAL_UNIT_ASSIGNED_CONTEXT
((#516,#517,#518)) REPRESENTATION_CONTEXT('Context #1',
  '3D Context with UNIT and UNCERTAINTY') );
#516 = ( LENGTH_UNIT() NAMED_UNIT(*) SI_UNIT(.MILLI.,.METRE.) );
#517 = ( NAMED_UNIT(*) PLANE_ANGLE_UNIT() SI_UNIT($,.RADIAN.) );
#518 = ( NAMED_UNIT(*) SI_UNIT($,.STERADIAN.) SOLID_ANGLE_UNIT() );
#519 = UNCERTAINTY_MEASURE_WITH_UNIT(LENGTH_MEASURE(1.E-07),#516,
  'distance_accuracy_value','confusion accuracy');
#520 = PRODUCT_RELATED_PRODUCT_CATEGORY('part',$,(#7));
ENDSEC;
END-ISO-10303-21;
