<?xml version="1.0" encoding="UTF-8" standalone="no"?>
<!DOCTYPE svg PUBLIC "-//W3C//DTD SVG 1.1//EN"
 "http://www.w3.org/Graphics/SVG/1.1/DTD/svg11.dtd">
<!-- Generated by graphviz version 2.43.0 (0)
 -->
<!-- Title: AutoBattlebotSystem Pages: 1 -->
<svg width="1022pt" height="285pt"
 viewBox="0.00 0.00 1022.00 285.08" xmlns="http://www.w3.org/2000/svg" xmlns:xlink="http://www.w3.org/1999/xlink">
<g id="graph0" class="graph" transform="scale(1 1) rotate(0) translate(18 267.08)">
<title>AutoBattlebotSystem</title>
<polygon fill="white" stroke="transparent" points="-18,18 -18,-267.08 1004,-267.08 1004,18 -18,18"/>
<text text-anchor="middle" x="493" y="-227.48" font-family="Helvetica,sans-Serif" font-size="22.00">Auto Battlebot Closed&#45;Loop Flow</text>
<!-- rgbd_input -->
<g id="node1" class="node">
<title>rgbd_input</title>
<path fill="#f8fafc" stroke="#cbd5e1" stroke-width="1.4" d="M248.5,-208.08C248.5,-208.08 163.5,-208.08 163.5,-208.08 157.5,-208.08 151.5,-202.08 151.5,-196.08 151.5,-196.08 151.5,-184.08 151.5,-184.08 151.5,-178.08 157.5,-172.08 163.5,-172.08 163.5,-172.08 248.5,-172.08 248.5,-172.08 254.5,-172.08 260.5,-178.08 260.5,-184.08 260.5,-184.08 260.5,-196.08 260.5,-196.08 260.5,-202.08 254.5,-208.08 248.5,-208.08"/>
<text text-anchor="middle" x="206" y="-186.68" font-family="Helvetica,sans-Serif" font-size="13.00">RGB&#45;D Input</text>
</g>
<!-- segmentation_keypoints -->
<g id="node2" class="node">
<title>segmentation_keypoints</title>
<path fill="#f8fafc" stroke="#cbd5e1" stroke-width="1.4" d="M512,-208.08C512,-208.08 336,-208.08 336,-208.08 330,-208.08 324,-202.08 324,-196.08 324,-196.08 324,-184.08 324,-184.08 324,-178.08 330,-172.08 336,-172.08 336,-172.08 512,-172.08 512,-172.08 518,-172.08 524,-178.08 524,-184.08 524,-184.08 524,-196.08 524,-196.08 524,-202.08 518,-208.08 512,-208.08"/>
<text text-anchor="middle" x="424" y="-186.68" font-family="Helvetica,sans-Serif" font-size="13.00">Segmentation / Keypoints</text>
</g>
<!-- rgbd_input&#45;&gt;segmentation_keypoints -->
<!-- rgbd_input&#45;&gt;segmentation_keypoints -->
<g id="edge7" class="edge">
<title>rgbd_input&#45;&gt;segmentation_keypoints</title>
<path fill="none" stroke="#475569" stroke-width="1.5" d="M260.5,-200.21C278.45,-202.43 296.4,-203.56 314.35,-203.58"/>
<polygon fill="#475569" stroke="#475569" stroke-width="1.5" points="314.76,-206.73 323.73,-203.5 314.7,-200.43 314.76,-206.73"/>
</g>
<!-- robot_pose_estimation -->
<g id="node3" class="node">
<title>robot_pose_estimation</title>
<path fill="#f8fafc" stroke="#cbd5e1" stroke-width="1.4" d="M752.5,-208.08C752.5,-208.08 599.5,-208.08 599.5,-208.08 593.5,-208.08 587.5,-202.08 587.5,-196.08 587.5,-196.08 587.5,-184.08 587.5,-184.08 587.5,-178.08 593.5,-172.08 599.5,-172.08 599.5,-172.08 752.5,-172.08 752.5,-172.08 758.5,-172.08 764.5,-178.08 764.5,-184.08 764.5,-184.08 764.5,-196.08 764.5,-196.08 764.5,-202.08 758.5,-208.08 752.5,-208.08"/>
<text text-anchor="middle" x="676" y="-186.68" font-family="Helvetica,sans-Serif" font-size="13.00">Robot Pose Estimation</text>
</g>
<!-- segmentation_keypoints&#45;&gt;robot_pose_estimation -->
<!-- segmentation_keypoints&#45;&gt;robot_pose_estimation -->
<g id="edge8" class="edge">
<title>segmentation_keypoints&#45;&gt;robot_pose_estimation</title>
<path fill="none" stroke="#475569" stroke-width="1.5" d="M524.41,-203.03C542.31,-203.81 560.21,-203.77 578.11,-202.91"/>
<polygon fill="#475569" stroke="#475569" stroke-width="1.5" points="578.66,-206.04 587.48,-202.39 578.31,-199.75 578.66,-206.04"/>
</g>
<!-- target_selection -->
<g id="node6" class="node">
<title>target_selection</title>
<path fill="#f8fafc" stroke="#cbd5e1" stroke-width="1.4" d="M778,-42.04C778,-42.04 666,-42.04 666,-42.04 660,-42.04 654,-36.04 654,-30.04 654,-30.04 654,-18.04 654,-18.04 654,-12.04 660,-6.04 666,-6.04 666,-6.04 778,-6.04 778,-6.04 784,-6.04 790,-12.04 790,-18.04 790,-18.04 790,-30.04 790,-30.04 790,-36.04 784,-42.04 778,-42.04"/>
<text text-anchor="middle" x="722" y="-20.64" font-family="Helvetica,sans-Serif" font-size="13.00">Target Selection</text>
</g>
<!-- robot_pose_estimation&#45;&gt;target_selection -->
<g id="edge9" class="edge">
<title>robot_pose_estimation&#45;&gt;target_selection</title>
<path fill="none" stroke="#475569" stroke-width="1.5" d="M680.84,-171.84C688.94,-142.96 705.28,-84.69 714.75,-50.89"/>
<polygon fill="#475569" stroke="#475569" stroke-width="1.5" points="717.84,-51.57 717.23,-42.06 711.77,-49.87 717.84,-51.57"/>
</g>
<!-- row1_pad_right -->
<!-- robot_pose_estimation&#45;&gt;row1_pad_right -->
<!-- transmitter_publisher -->
<g id="node4" class="node">
<title>transmitter_publisher</title>
<path fill="#f8fafc" stroke="#cbd5e1" stroke-width="1.4" d="M368.5,-42.04C368.5,-42.04 215.5,-42.04 215.5,-42.04 209.5,-42.04 203.5,-36.04 203.5,-30.04 203.5,-30.04 203.5,-18.04 203.5,-18.04 203.5,-12.04 209.5,-6.04 215.5,-6.04 215.5,-6.04 368.5,-6.04 368.5,-6.04 374.5,-6.04 380.5,-12.04 380.5,-18.04 380.5,-18.04 380.5,-30.04 380.5,-30.04 380.5,-36.04 374.5,-42.04 368.5,-42.04"/>
<text text-anchor="middle" x="292" y="-20.64" font-family="Helvetica,sans-Serif" font-size="13.00">Transmitter / Publisher</text>
</g>
<!-- pursuit_command -->
<g id="node5" class="node">
<title>pursuit_command</title>
<path fill="#f8fafc" stroke="#cbd5e1" stroke-width="1.4" d="M578,-42.04C578,-42.04 456,-42.04 456,-42.04 450,-42.04 444,-36.04 444,-30.04 444,-30.04 444,-18.04 444,-18.04 444,-12.04 450,-6.04 456,-6.04 456,-6.04 578,-6.04 578,-6.04 584,-6.04 590,-12.04 590,-18.04 590,-18.04 590,-30.04 590,-30.04 590,-36.04 584,-42.04 578,-42.04"/>
<text text-anchor="middle" x="517" y="-20.64" font-family="Helvetica,sans-Serif" font-size="13.00">Pursuit Command</text>
</g>
<!-- transmitter_publisher&#45;&gt;pursuit_command -->
<!-- real_world -->
<g id="node7" class="node">
<title>real_world</title>
<ellipse fill="#e0f2fe" stroke="#7dd3fc" stroke-width="1.4" cx="70" cy="-24.04" rx="70.01" ry="24.08"/>
<text text-anchor="middle" x="70" y="-20.64" font-family="Helvetica,sans-Serif" font-size="13.00">Real World</text>
</g>
<!-- transmitter_publisher&#45;&gt;real_world -->
<g id="edge12" class="edge">
<title>transmitter_publisher&#45;&gt;real_world</title>
<path fill="none" stroke="#475569" stroke-width="1.5" d="M203.42,-41.34C181.23,-42.79 159.04,-42.09 136.84,-39.22"/>
<polygon fill="#475569" stroke="#475569" stroke-width="1.5" points="137.03,-36.06 127.67,-37.91 136.14,-42.3 137.03,-36.06"/>
</g>
<!-- pursuit_command&#45;&gt;transmitter_publisher -->
<g id="edge10" class="edge">
<title>pursuit_command&#45;&gt;transmitter_publisher</title>
<path fill="none" stroke="#475569" stroke-width="1.5" d="M443.83,-35.89C425.93,-37.39 408.03,-37.87 390.13,-37.32"/>
<polygon fill="#475569" stroke="#475569" stroke-width="1.5" points="389.89,-34.16 380.77,-36.94 389.64,-40.45 389.89,-34.16"/>
</g>
<!-- pursuit_command&#45;&gt;target_selection -->
<!-- target_selection&#45;&gt;pursuit_command -->
<g id="edge11" class="edge">
<title>target_selection&#45;&gt;pursuit_command</title>
<path fill="none" stroke="#475569" stroke-width="1.5" d="M653.82,-36.03C635.79,-37.62 617.75,-37.96 599.71,-37.04"/>
<polygon fill="#475569" stroke="#475569" stroke-width="1.5" points="599.46,-33.87 590.28,-36.44 599.06,-40.15 599.46,-33.87"/>
</g>
<!-- real_world&#45;&gt;rgbd_input -->
<g id="edge13" class="edge">
<title>real_world&#45;&gt;rgbd_input</title>
<path fill="none" stroke="#6366f1" stroke-width="1.6" stroke-dasharray="5,2" d="M88.41,-47.24C113.81,-77.88 159.44,-132.91 185.77,-164.67"/>
<polygon fill="#6366f1" stroke="#6366f1" stroke-width="1.6" points="183.54,-166.92 191.71,-171.84 188.39,-162.9 183.54,-166.92"/>
<text text-anchor="middle" x="170" y="-102.48" font-family="Helvetica,sans-Serif" font-size="12.00" fill="#4f46e5">feedback</text>
</g>
<!-- real_world&#45;&gt;transmitter_publisher -->
</g>
</svg>
