# https://github.com/mikedh/trimesh
v 0.00223784 -0.01227993 -0.02081553
v 0.02029905 -0.01227993 -0.01753323
v 0.00223784 -0.01227993 -0.00780127
v 0.00223784 -0.00953428 -0.02081553
v 0.01929654 0.01173508 -0.01771566
v 0.02029905 -0.01227993 -0.00620537
v 0.02029905 0.01173508 -0.01753323
v 0.02029905 -0.01199784 -0.00614217
v 0.02029905 -0.01079662 -0.00614217
v 0.02029905 0.01173508 -0.00615941
v 0.01732510 0.01173508 -0.00665211
v 0.00223784 0.01173508 -0.00921187
v 0.00223784 0.01173508 -0.02081265
v 0.00228911 0.00001201 -0.02080547
v 0.00336766 0.01173508 -0.02061011
f 5 2 1
f 2 5 7
f 8 3 6
f 12 3 11
f 3 10 11
f 9 3 8
f 9 10 3
f 13 15 14
f 13 14 4
f 4 14 15
f 4 15 5
f 4 5 1
f 6 3 1
f 1 2 6
f 11 13 12
f 11 7 5
f 5 15 11
f 11 10 7
f 11 15 13
f 9 6 2
f 2 7 9
f 8 6 9
f 7 10 9
f 4 3 12
f 1 3 4
f 12 13 4

