# https://github.com/mikedh/trimesh
v 0.02508567 -0.04960108 0.00677915
v 0.02508567 -0.05568555 0.00677915
v 0.02870228 -0.04961503 0.00677915
v 0.03244714 0.07115345 -0.00529444
v 0.02580153 0.07115345 -0.00529444
v 0.02030315 0.05535613 -0.00529444
v 0.02030082 -0.05536458 -0.00593941
v 0.02565229 -0.07141309 0.00677915
v 0.02030315 0.04840643 -0.00529444
v 0.03019230 -0.05038257 0.00677915
v 0.04412011 0.07115345 -0.00590847
v 0.02579919 0.07115345 -0.00936181
v 0.02030315 0.05535613 -0.01415745
v 0.02030082 0.01582099 -0.00959980
v 0.02030082 0.01339279 -0.00655106
v 0.02030082 0.01196935 -0.00613933
v 0.02030082 -0.04847071 -0.00593941
v 0.02030082 -0.05536458 -0.01455728
v 0.02565229 -0.07141309 0.00098393
v 0.03126725 -0.07141309 0.00677915
v 0.03088018 -0.05198743 0.00677915
v 0.04412244 0.00941555 -0.00553719
v 0.04412244 0.01582099 -0.00595131
v 0.04412011 0.07115345 -0.01320546
v 0.03129524 -0.07139914 0.00677915
v 0.02579919 0.07115345 -0.00940941
v 0.02030315 0.05534218 -0.01575679
v 0.02030082 0.01582099 -0.01753225
v 0.02030082 -0.05535063 -0.01575917
v 0.03174294 -0.07141309 0.00098393
v 0.02582718 -0.07110607 -0.01095877
v 0.02607668 -0.07110607 -0.01214161
v 0.02932720 -0.07110607 -0.01516894
v 0.03025059 -0.07110607 -0.01545929
v 0.03029956 -0.07110607 -0.01547357
v 0.03129757 -0.07141309 0.00677201
v 0.04412244 -0.00941005 -0.00553719
v 0.04412244 0.01582099 -0.01320546
v 0.03440585 0.07115345 -0.01497140
v 0.04412244 -0.07110607 -0.00591085
v 0.02582251 0.07115345 -0.01096115
v 0.02582484 0.07115345 -0.01099447
v 0.02030315 0.05483979 -0.01703483
v 0.02030315 0.04717837 -0.01752987
v 0.02070422 0.05197897 -0.01745847
v 0.02030082 -0.02438400 -0.01753463
v 0.02030315 0.05356987 -0.01752035
v 0.02030315 0.05238367 -0.01752511
v 0.02030082 -0.05522503 -0.01610188
v 0.03189917 -0.07110607 -0.01542597
v 0.04412244 -0.07110607 -0.01320546
v 0.02030082 -0.05484824 -0.01703721
v 0.02030082 -0.05452728 -0.01718239
v 0.02030082 -0.05357832 -0.01752273
v 0.03195280 0.07115345 -0.01541645
v 0.02030082 -0.02582138 -0.01753463
v 0.02070189 0.01582099 -0.01746085
v 0.02230617 0.05356987 -0.01716811
v 0.02607668 0.07115345 -0.01214161
v 0.02933186 0.07115345 -0.01516894
v 0.02070422 0.05356987 -0.01745371
v 0.03030422 0.07115345 -0.01547595
v 0.03190617 0.07115345 -0.01542359
v 0.02070189 -0.05357832 -0.01745609
v 0.02070189 -0.05197347 -0.01746085
v 0.02030082 -0.04838697 -0.01753225
f 40 37 25
f 25 37 22
f 21 25 11
f 11 25 22
f 16 17 6
f 40 25 36
f 21 11 10
f 10 11 4
f 4 3 10
f 23 11 22
f 1 3 4
f 18 29 19
f 20 36 25
f 47 60 62
f 62 63 47
f 45 46 28
f 30 51 40
f 40 36 30
f 5 1 4
f 6 1 5
f 7 8 2
f 47 28 43
f 28 27 43
f 43 59 60
f 43 60 47
f 13 27 28
f 6 14 15
f 16 6 15
f 24 38 39
f 38 51 39
f 44 45 28
f 32 33 19
f 50 65 51
f 51 30 50
f 7 2 9
f 59 43 42
f 42 27 41
f 42 43 27
f 27 13 26
f 41 27 26
f 66 65 54
f 48 28 47
f 48 44 28
f 45 44 48
f 47 61 48
f 48 61 45
f 45 61 55
f 55 58 45
f 47 63 55
f 55 61 47
f 39 58 55
f 33 32 52
f 19 29 31
f 31 32 19
f 31 52 32
f 54 50 35
f 35 30 19
f 35 50 30
f 54 65 64
f 64 50 54
f 65 50 64
f 6 5 12
f 57 39 46
f 57 58 39
f 46 45 57
f 45 58 57
f 65 66 56
f 51 65 56
f 56 39 51
f 46 39 56
f 54 33 53
f 33 52 53
f 49 31 29
f 52 31 49
f 34 33 54
f 54 35 34
f 19 33 34
f 34 35 19
f 24 11 23
f 23 38 24
f 51 37 40
f 22 37 51
f 51 23 22
f 38 23 51
f 18 8 7
f 18 19 8
f 8 19 30
f 30 20 8
f 36 20 30
f 8 20 2
f 21 10 2
f 2 25 21
f 2 10 3
f 3 1 2
f 2 20 25
f 28 14 13
f 13 14 6
f 9 17 7
f 9 6 17
f 9 2 1
f 9 1 6
f 12 11 24
f 4 11 12
f 60 59 12
f 12 62 60
f 12 5 4
f 63 62 12
f 12 42 41
f 24 39 12
f 41 26 12
f 59 42 12
f 12 55 63
f 39 55 12
f 12 13 6
f 12 26 13
f 7 17 49
f 16 15 49
f 49 17 16
f 49 18 7
f 49 66 54
f 49 14 28
f 28 46 49
f 29 18 49
f 49 15 14
f 46 56 49
f 54 53 49
f 49 56 66
f 49 53 52

