# https://github.com/mikedh/trimesh
v 0.02030082 -0.07909196 0.00677713
v 0.04412776 -0.07437715 -0.01320819
v 0.04412776 -0.07597512 -0.01316184
v 0.04412776 -0.07657634 -0.01284034
v 0.04412776 -0.07720920 -0.01247829
v 0.04412776 -0.07781042 -0.01095767
v 0.04412776 -0.07869642 -0.00816841
v 0.04412776 -0.07951914 -0.00513875
v 0.04412776 -0.08053171 -0.00136182
v 0.04412776 -0.08065829 0.00023991
v 0.04413681 -0.08051589 0.00126524
v 0.04413681 -0.08040514 0.00183873
v 0.04413681 -0.08021528 0.00259180
v 0.04413681 -0.07967735 0.00459613
v 0.03990172 -0.07909196 0.00677713
v 0.02030082 -0.07822178 0.01000085
v 0.02030082 -0.03501327 0.00677713
v 0.11131014 -0.07918689 -0.00385853
v 0.04412776 0.07434490 -0.01320529
v 0.11131014 0.07918628 -0.00385853
v 0.11123774 -0.08008871 -0.00382377
v 0.04791039 -0.07725666 -0.01213651
v 0.04791039 -0.07784206 -0.01095767
v 0.11021517 -0.08037350 -0.00309098
v 0.06550233 -0.07855403 -0.00877666
v 0.11028756 -0.08081650 -0.00135892
v 0.05430828 -0.08067411 0.00023991
v 0.07989079 -0.08068993 0.00023991
v 0.08309426 -0.08068993 0.00023991
v 0.07829811 -0.08040514 0.00183873
v 0.06390964 -0.07988303 0.00381989
v 0.02710593 -0.07822178 0.01000085
v 0.02030082 -0.07782624 0.01143458
v 0.02030082 -0.01901774 0.01137376
v 0.02030987 0.05534329 0.00840203
v 0.11201599 -0.07758892 -0.00295774
v 0.11199789 -0.07918689 -0.00295774
v 0.11202503 0.01678630 -0.00295774
v 0.04412776 0.07518344 -0.01318791
v 0.04412776 0.07595870 -0.01315605
v 0.11123774 0.08008811 -0.00382377
v 0.11199789 0.07918628 -0.00295774
v 0.11202503 0.07758831 -0.00295774
v 0.11272184 -0.08004125 -0.00075067
v 0.11152732 -0.08027857 -0.00295774
v 0.10868583 -0.08057918 0.00024280
v 0.10708409 -0.08061082 0.00024280
v 0.11198884 -0.08035768 -0.00131258
v 0.11272184 -0.08004125 -0.00044655
v 0.11172641 -0.08019946 0.00014722
v 0.11028756 -0.08048425 0.00024280
v 0.09749178 -0.08008871 0.00276269
v 0.05911349 -0.07841163 0.00908269
v 0.03191114 -0.07697188 0.01403267
v 0.03030940 -0.07695606 0.01404716
v 0.02030082 -0.07717756 0.01266556
v 0.02030082 -0.01901774 0.01638167
v 0.02030987 0.05534329 0.01343312
v 0.03208308 0.07140210 0.00813266
v 0.04412776 0.07719277 -0.01247539
v 0.11259515 -0.07758892 -0.00164566
v 0.11257705 -0.07918689 -0.00164566
v 0.04791039 0.07725606 -0.01213361
v 0.11021517 0.08037289 -0.00309098
v 0.11028756 0.08081589 -0.00135892
v 0.11152732 0.08027796 -0.00295774
v 0.11272184 0.08004064 -0.00075357
v 0.04791039 0.07784145 -0.01095477
v 0.11257705 0.07918628 -0.00164566
v 0.11259515 0.07758831 -0.00164566
v 0.11273088 -0.07918689 -0.00084625
v 0.10708409 -0.08027857 0.00134055
v 0.11273088 -0.07918689 -0.00039441
v 0.11190739 -0.07918689 0.00040500
v 0.11110200 -0.07999378 0.00104222
v 0.11028756 -0.08008871 0.00110883
v 0.10868583 -0.08021528 0.00123338
v 0.09908446 -0.08005707 0.00271345
v 0.06162016 -0.07839581 0.00904214
v 0.03350382 -0.07689277 0.01393999
v 0.03191114 -0.07597512 0.01432521
v 0.03030940 -0.07597512 0.01439183
v 0.02030082 -0.07597512 0.01312899
v 0.04631770 0.06562726 0.01198780
v 0.02030987 0.04556560 0.01637878
v 0.02030987 0.05357128 0.01630637
v 0.02030987 0.05452057 0.01600804
v 0.02030987 0.05483700 0.01589797
v 0.02030987 0.05532747 0.01463223
v 0.02030082 -0.04558203 0.01637878
v 0.02070804 -0.04558203 0.01631216
v 0.11110200 -0.07918689 0.00104511
v 0.03208308 0.07140210 0.01438604
v 0.04412776 0.07780981 -0.01095477
v 0.04412776 0.08002482 -0.00320973
v 0.04412776 0.07879074 -0.00775712
v 0.04412776 0.07845849 -0.00884617
v 0.11274898 0.07758831 -0.00084915
v 0.11198884 0.08035707 -0.00131258
v 0.05715883 0.08053111 -0.00136182
v 0.05715883 0.08068932 0.00023991
v 0.05751175 0.08068932 0.00023991
v 0.08309426 0.08067350 0.00023991
v 0.10708409 0.08061022 0.00024280
v 0.10868583 0.08057857 0.00024280
v 0.11028756 0.08048364 0.00024280
v 0.11172641 0.08019886 0.00014722
v 0.11272184 0.08004064 -0.00044655
v 0.11274898 0.07918628 -0.00084915
v 0.10011609 -0.08002543 0.00266711
v 0.11274898 0.07758831 -0.00039441
v 0.11190739 0.07918628 0.00040500
v 0.04150345 -0.07597512 0.01279880
v 0.04423635 -0.07687695 0.01228613
v 0.07285040 -0.07841163 0.00745779
v 0.03455355 -0.07682948 0.01387047
v 0.03350382 -0.07597512 0.01409929
v 0.03191114 -0.07439297 0.01441790
v 0.03030940 -0.07439297 0.01452796
v 0.02030082 -0.05357188 0.01630637
v 0.04412776 0.07597452 0.01235565
v 0.11110200 0.07918628 0.00104511
v 0.02230978 0.05357128 0.01603990
v 0.02070804 0.05357128 0.01626871
v 0.02070804 -0.05357188 0.01626871
v 0.02230978 -0.05357188 0.01603990
v 0.03211928 0.07140210 0.01438025
v 0.04423635 0.07686052 0.01228613
v 0.04412776 0.07687634 0.01229482
v 0.04412776 0.07716113 0.01186615
v 0.04412776 0.07735099 0.01151279
v 0.04412776 0.07782563 0.01041215
v 0.04412776 0.07806295 0.00978073
v 0.04412776 0.07893314 0.00724056
v 0.04412776 0.07910717 0.00663811
v 0.04412776 0.07959764 0.00476122
v 0.05715883 0.08053111 0.00103063
v 0.08070523 0.08053111 0.00103063
v 0.09749178 0.08008811 0.00276269
v 0.10708409 0.08027796 0.00134055
v 0.10868583 0.08021468 0.00123338
v 0.11028756 0.08008811 0.00110883
v 0.11110200 0.07999318 0.00104222
v 0.11274898 0.07918628 -0.00039441
v 0.03475264 -0.07597512 0.01390813
v 0.07285040 0.07842685 0.00745779
v 0.06162016 0.07839521 0.00904503
v 0.06072427 0.07841103 0.00907110
v 0.05911349 0.07842685 0.00908269
v 0.04791944 0.07910717 0.00663811
v 0.05591906 0.07953435 0.00503638
v 0.09908446 0.08005646 0.00271345
v 0.10011609 0.08002482 0.00266711
f 17 2 1
f 17 19 2
f 2 19 20
f 20 18 2
f 26 10 9
f 9 10 1
f 26 9 24
f 40 20 39
f 39 20 19
f 40 39 35
f 19 17 35
f 35 39 19
f 2 18 3
f 1 2 3
f 7 24 8
f 8 24 9
f 1 7 8
f 8 9 1
f 34 35 17
f 21 3 18
f 21 23 5
f 26 24 21
f 71 61 98
f 55 83 56
f 56 33 55
f 27 10 26
f 30 12 11
f 11 29 30
f 10 27 11
f 11 12 1
f 1 10 11
f 30 52 53
f 26 50 51
f 51 50 75
f 30 29 47
f 47 52 30
f 47 29 26
f 118 120 119
f 93 95 59
f 6 23 7
f 5 23 6
f 6 7 1
f 1 5 6
f 22 21 5
f 3 21 22
f 25 21 24
f 23 21 25
f 25 24 7
f 7 23 25
f 44 21 37
f 37 21 18
f 26 21 45
f 45 21 44
f 75 50 49
f 49 50 26
f 30 53 31
f 26 29 28
f 28 27 26
f 29 11 28
f 28 11 27
f 90 120 125
f 125 126 90
f 125 120 118
f 118 126 125
f 118 119 81
f 75 113 114
f 145 113 118
f 116 114 145
f 145 114 113
f 92 113 75
f 122 84 92
f 79 110 116
f 79 53 52
f 142 143 106
f 96 59 95
f 41 20 40
f 40 63 41
f 84 85 57
f 57 92 84
f 122 143 121
f 93 127 121
f 121 84 122
f 121 85 84
f 112 143 122
f 66 41 65
f 143 112 108
f 108 112 144
f 4 22 5
f 3 22 4
f 4 5 1
f 1 3 4
f 44 37 62
f 62 71 44
f 61 71 62
f 36 38 61
f 18 38 36
f 36 37 18
f 26 45 48
f 48 45 44
f 44 49 48
f 48 49 26
f 33 16 32
f 15 31 32
f 32 53 33
f 32 31 53
f 1 12 13
f 13 12 30
f 30 31 13
f 82 81 119
f 82 83 55
f 82 120 83
f 82 119 120
f 75 114 115
f 115 114 116
f 115 110 75
f 116 110 115
f 118 81 117
f 117 145 118
f 117 81 116
f 116 145 117
f 75 110 76
f 110 77 76
f 76 51 75
f 76 77 51
f 51 77 72
f 72 77 110
f 53 79 54
f 54 82 55
f 81 82 54
f 55 33 54
f 33 53 54
f 60 94 68
f 68 41 60
f 60 41 63
f 60 63 40
f 40 35 60
f 35 59 60
f 59 94 60
f 142 106 141
f 68 94 97
f 97 96 68
f 97 94 59
f 59 96 97
f 136 101 95
f 93 135 136
f 136 95 93
f 100 65 95
f 95 101 100
f 100 101 65
f 42 43 20
f 20 41 42
f 65 41 64
f 95 65 64
f 64 96 95
f 68 96 64
f 64 41 68
f 91 57 90
f 90 126 91
f 91 126 118
f 118 113 91
f 113 92 91
f 92 57 91
f 86 57 85
f 86 85 124
f 86 124 93
f 85 121 123
f 123 121 127
f 123 127 93
f 93 124 123
f 124 85 123
f 74 92 75
f 73 111 74
f 74 49 73
f 75 49 74
f 107 106 143
f 143 108 107
f 65 106 107
f 107 108 65
f 99 66 65
f 65 108 99
f 14 15 1
f 1 13 14
f 14 31 15
f 14 13 31
f 51 72 46
f 26 51 46
f 46 47 26
f 52 47 46
f 46 72 52
f 52 72 78
f 78 72 110
f 78 79 52
f 110 79 78
f 80 79 116
f 80 54 79
f 116 81 80
f 81 54 80
f 147 148 129
f 129 146 147
f 147 139 148
f 128 146 129
f 128 129 93
f 93 121 128
f 128 121 143
f 143 146 128
f 131 132 93
f 134 135 93
f 140 141 106
f 101 136 137
f 109 70 69
f 69 70 43
f 43 42 69
f 66 99 67
f 67 99 108
f 41 66 67
f 67 42 41
f 67 69 42
f 109 69 67
f 141 140 153
f 142 141 153
f 153 147 146
f 153 143 142
f 153 146 143
f 129 148 130
f 148 131 130
f 93 129 130
f 130 131 93
f 149 131 148
f 132 131 149
f 135 134 149
f 149 150 135
f 148 139 149
f 93 132 133
f 133 134 93
f 132 149 133
f 133 149 134
f 139 140 105
f 105 104 139
f 105 140 106
f 105 106 65
f 65 104 105
f 151 137 136
f 151 149 139
f 150 149 151
f 151 136 135
f 135 150 151
f 65 101 102
f 103 104 65
f 65 102 103
f 58 57 89
f 57 88 89
f 93 58 89
f 89 88 93
f 57 86 87
f 87 88 57
f 87 86 93
f 93 88 87
f 139 147 152
f 147 153 152
f 152 140 139
f 152 153 140
f 138 151 139
f 137 151 138
f 139 104 138
f 104 103 138
f 138 103 102
f 58 59 35
f 93 59 58
f 43 38 18
f 18 20 43
f 71 73 49
f 44 71 49
f 57 120 90
f 57 17 1
f 57 56 83
f 1 16 57
f 83 120 57
f 57 34 17
f 33 56 57
f 57 16 33
f 57 58 35
f 35 34 57
f 36 62 37
f 61 62 36
f 70 109 98
f 98 61 70
f 38 43 70
f 61 38 70
f 32 16 1
f 1 15 32
f 111 73 71
f 111 71 98
f 98 109 111
f 109 144 111
f 74 112 122
f 122 92 74
f 74 111 144
f 144 112 74
f 67 144 109
f 67 108 144
f 138 102 101
f 101 137 138

