# https://github.com/mikedh/trimesh
v 0.00223784 0.04967543 -0.00730054
v 0.00957051 0.02358576 -0.00730054
v 0.00223784 0.05290457 0.00136401
v 0.00223784 0.05536965 -0.00730054
v 0.01436289 0.02358576 -0.00730054
v 0.01192064 0.02358576 -0.00219369
v 0.00223784 0.05489560 0.00136401
v 0.01506704 0.03600596 0.01135122
v 0.01060148 0.04921811 0.01134481
v 0.01060148 0.04971447 0.01135122
v 0.00223784 0.05537523 -0.00689455
v 0.02471419 0.08056141 0.00098794
v 0.02521927 0.07208421 -0.00528771
v 0.00264785 0.05537523 -0.00730054
v 0.01832336 0.03523075 -0.00730054
v 0.03237367 0.02800840 -0.00528771
v 0.03213302 0.02743396 -0.00528771
v 0.03178837 0.02670336 -0.00528771
v 0.03029688 0.02615123 -0.00528771
v 0.01482638 0.02358576 -0.00455908
v 0.01272284 0.02358576 -0.00177488
v 0.01589300 0.03440534 0.01135122
v 0.01586923 0.03443880 0.01135122
v 0.00223784 0.05537523 -0.00455908
v 0.01060148 0.05536965 0.01135122
v 0.02509152 0.07692514 0.01224225
v 0.02509152 0.07725976 0.01180207
v 0.02509152 0.07743823 0.01153498
v 0.02509152 0.07807402 0.01036617
v 0.02471419 0.07864846 0.00839822
v 0.02471419 0.08041082 0.00184051
v 0.03029688 0.05835898 0.01452858
v 0.02709998 0.08056141 0.00098794
v 0.03258759 0.07208421 -0.00528771
v 0.02029616 0.05537523 -0.00730054
v 0.02029616 0.04869386 -0.00730054
v 0.03115255 0.02710491 0.00136615
v 0.03124763 0.02696549 0.00024008
v 0.03239744 0.02899555 -0.00528771
v 0.03207359 0.05835898 0.01438755
v 0.03138133 0.02681491 -0.00136035
v 0.03151800 0.02672009 -0.00295865
v 0.03029688 0.02626835 -0.00136035
v 0.03029688 0.02617912 -0.00295865
v 0.03029688 0.02613450 -0.00455908
v 0.01503138 0.02358576 -0.00313600
v 0.01429752 0.02358576 -0.00174711
v 0.02869843 0.02669778 0.00323795
v 0.02029616 0.03281586 0.01135122
v 0.01749739 0.03368031 0.01135122
v 0.03029688 0.07439313 0.01452858
v 0.03029688 0.07599376 0.01439182
v 0.02928968 0.07599376 0.01409481
v 0.02939961 0.07688052 0.01396020
v 0.02509152 0.07670763 0.01230208
v 0.02509152 0.07821902 0.01000079
v 0.03029688 0.07695860 0.01404567
v 0.03207359 0.07988100 0.00381915
v 0.03207359 0.08041082 0.00184051
v 0.03207359 0.07843653 0.00919950
v 0.03189830 0.05835898 0.01441960
v 0.03207359 0.08055583 0.00098794
v 0.03240041 0.02960345 -0.00528771
v 0.03207359 0.07822460 0.00991104
v 0.03207359 0.07696976 0.01402216
v 0.03207359 0.07609415 0.01428285
v 0.03207359 0.07599376 0.01429994
v 0.03207359 0.07457160 0.01438328
v 0.03207359 0.07439313 0.01438969
v 0.03207359 0.07119188 0.01438969
v 0.03103371 0.02801398 0.00232983
v 0.02998491 0.02684837 0.00309479
v 0.03043058 0.02672009 0.00187470
v 0.03023449 0.02801398 0.00333624
v 0.03029688 0.02642451 0.00024008
v 0.02869843 0.02623489 0.00184051
v 0.01512052 0.02358576 -0.00213600
v 0.01512052 0.02358576 -0.00233685
v 0.03189830 0.07439313 0.01441960
v 0.03189830 0.07599376 0.01432558
v 0.03189830 0.07697533 0.01403285
v 0.02709998 0.07821902 0.01000079
f 34 40 63
f 40 39 63
f 16 5 15
f 17 5 16
f 16 39 40
f 9 8 32
f 49 72 40
f 4 12 13
f 13 14 4
f 82 81 64
f 37 16 40
f 36 16 15
f 39 16 36
f 36 63 39
f 36 35 34
f 34 63 36
f 10 9 32
f 24 7 12
f 32 49 61
f 61 49 40
f 51 79 80
f 28 7 27
f 26 7 25
f 25 55 26
f 26 27 7
f 34 66 67
f 80 79 67
f 67 66 80
f 34 64 65
f 65 66 34
f 64 81 65
f 65 81 80
f 80 66 65
f 72 49 48
f 72 48 76
f 71 37 40
f 72 37 71
f 9 10 3
f 8 9 3
f 3 6 8
f 2 6 3
f 1 2 3
f 12 7 31
f 7 30 31
f 81 82 56
f 56 31 30
f 11 12 4
f 11 24 12
f 8 6 23
f 6 22 23
f 32 8 23
f 23 22 32
f 50 49 32
f 32 22 50
f 18 5 17
f 18 19 5
f 45 19 18
f 47 76 48
f 73 37 72
f 72 76 73
f 76 75 73
f 40 72 74
f 74 71 40
f 72 71 74
f 34 62 59
f 29 56 30
f 29 7 28
f 29 30 7
f 25 51 52
f 52 53 25
f 52 51 80
f 80 81 52
f 54 55 25
f 25 53 54
f 54 26 55
f 53 52 54
f 27 26 54
f 28 27 54
f 54 29 28
f 68 67 79
f 79 69 68
f 34 67 68
f 68 69 34
f 70 61 40
f 70 40 34
f 34 69 70
f 43 75 76
f 41 73 75
f 41 18 17
f 49 50 21
f 21 48 49
f 21 47 48
f 21 22 6
f 21 50 22
f 5 19 20
f 33 59 62
f 33 62 34
f 34 59 58
f 58 59 31
f 57 52 81
f 57 54 52
f 81 56 57
f 56 29 57
f 29 54 57
f 45 18 44
f 18 43 44
f 76 47 77
f 77 43 76
f 77 44 43
f 45 44 77
f 37 73 38
f 73 41 38
f 16 37 38
f 17 16 38
f 38 41 17
f 42 43 18
f 18 41 42
f 75 43 42
f 42 41 75
f 31 56 60
f 60 58 31
f 60 56 82
f 60 82 64
f 60 64 34
f 34 58 60
f 46 19 45
f 46 20 19
f 45 77 78
f 78 46 45
f 35 14 13
f 34 35 13
f 1 4 36
f 36 2 1
f 36 14 35
f 36 5 2
f 4 14 36
f 15 5 36
f 25 10 51
f 51 10 32
f 32 61 51
f 51 61 79
f 3 10 25
f 25 7 3
f 11 4 1
f 11 3 7
f 7 24 11
f 1 3 11
f 79 61 70
f 70 69 79
f 31 59 33
f 12 31 33
f 34 13 33
f 33 13 12
f 2 5 78
f 78 6 2
f 78 21 6
f 47 21 78
f 5 20 78
f 78 77 47
f 20 46 78

