# https://github.com/mikedh/trimesh
v -0.02184856 -0.05358984 0.00023388
v -0.02182262 -0.05358984 0.00069072
v -0.02182262 -0.04253131 0.00069526
v -0.02184856 -0.05199611 0.00023388
v -0.02179198 -0.05358984 -0.00136619
v -0.02174719 -0.05446802 -0.00136619
v -0.02177076 -0.05452223 0.00023388
v -0.02176369 -0.05451138 0.00069072
v -0.02093858 -0.05496673 0.00069072
v -0.02043879 -0.05511852 0.00069072
v -0.01929778 -0.05537872 0.00069072
v -0.01055393 -0.04253131 0.00069526
v -0.02182262 0.05359117 0.00069526
v -0.02179198 -0.04253131 -0.00136619
v -0.02184384 0.05359117 0.00023615
v -0.02179198 0.05359117 -0.00136392
v -0.02171183 -0.05442465 -0.00229578
v -0.02178727 -0.04253131 -0.00144801
v -0.02172126 -0.05358984 -0.00235942
v -0.02070990 -0.05488000 -0.00456633
v -0.02089614 -0.05496673 -0.00136619
v -0.02089614 -0.05501010 0.00023388
v -0.01929778 -0.05537872 -0.00456633
v -0.01289961 -0.05537872 0.00069072
v -0.01084390 -0.05535704 0.00069072
v -0.01006829 -0.05532451 0.00069072
v -0.00525434 -0.01717258 0.00069072
v -0.01006829 -0.01724847 0.00069526
v -0.02181084 0.05389474 0.00069526
v -0.02176369 0.05450187 0.00069526
v -0.02177076 0.05451271 0.00023615
v -0.02174247 0.05446935 -0.00136392
v -0.02171183 0.05440430 -0.00229350
v -0.02171890 0.05359117 -0.00235714
v -0.02172126 -0.04253131 -0.00235942
v -0.02010168 -0.05440297 -0.00857559
v -0.02025491 -0.05458728 -0.00776420
v -0.02051423 -0.05482580 -0.00616413
v -0.02160809 -0.05358984 -0.00315945
v -0.02134642 -0.05358984 -0.00456633
v -0.02094093 -0.05358984 -0.00616413
v -0.02162224 -0.05199611 -0.00315945
v -0.01929778 -0.05531367 -0.00616413
v -0.01769706 -0.05534620 -0.00936426
v -0.01769706 -0.05537872 -0.00776420
v -0.01006829 -0.05537872 -0.00296626
v 0.00223534 -0.04874360 -0.00944836
v 0.00223534 -0.04558867 -0.00769601
v 0.00223534 -0.04398410 -0.00737327
v -0.00525434 0.01717391 0.00069072
v -0.01006829 0.05530416 0.00069526
v -0.02093858 0.05495723 0.00069526
v -0.02089614 0.05501143 0.00023615
v -0.02089614 0.05495723 -0.00136392
v -0.02070990 0.05488133 -0.00456406
v -0.02051423 0.05481628 -0.00616413
v -0.02025255 0.05458861 -0.00776420
v -0.02010168 0.05439346 -0.00857559
v -0.02094093 0.05359117 -0.00616413
v -0.02134642 0.05359117 -0.00456406
v -0.02160809 0.05359117 -0.00315718
v -0.02162224 0.05198660 -0.00315718
v -0.02162224 -0.04253131 -0.00315945
v -0.02041051 -0.05358984 -0.00776420
v -0.02010403 -0.05358984 -0.00858241
v -0.01972684 -0.05358984 -0.00938245
v -0.01892530 -0.05358984 -0.01089842
v -0.01845144 -0.05358984 -0.01169618
v -0.01878149 -0.05468485 -0.01065296
v -0.01930957 -0.05477158 -0.00920971
v -0.01929778 -0.05507515 -0.00776420
v -0.02136763 -0.05199611 -0.00456633
v -0.02094801 -0.05199611 -0.00616413
v -0.02160103 -0.04253131 -0.00327764
v -0.01609634 -0.05537872 -0.01095752
v -0.01783615 -0.05496673 -0.01109161
v -0.01609634 -0.05524862 -0.01255758
v -0.01449797 -0.05529199 -0.01415765
v -0.01006829 -0.05537872 -0.01575545
v 0.00223534 -0.04874360 -0.02081249
v 0.00223534 -0.03918123 -0.00737327
v 0.00223534 -0.03758750 -0.00742327
v 0.00223534 0.01720644 -0.00957564
v -0.01006829 0.05536921 -0.00259579
v -0.01130125 0.05535837 0.00069526
v 0.00223534 0.02898052 -0.01186437
v -0.01929542 0.05538005 0.00069526
v -0.01929542 0.05538005 -0.00456406
v -0.01929542 0.05531500 -0.00616413
v -0.01930721 0.05477291 -0.00920971
v -0.01929542 0.05507648 -0.00776420
v -0.01878149 0.05468618 -0.01065068
v -0.01845144 0.05359117 -0.01169164
v -0.01892530 0.05359117 -0.01089615
v -0.01972448 0.05359117 -0.00938017
v -0.02010403 0.05359117 -0.00858014
v -0.02041051 0.05359117 -0.00776420
v -0.02094801 0.05198660 -0.00616413
v -0.02136763 0.05198660 -0.00456406
v -0.02038457 -0.04253131 -0.00783465
v -0.02010403 -0.04253131 -0.00858241
v -0.01972684 -0.04253131 -0.00938245
v -0.01845852 -0.05199611 -0.01169618
v -0.01892530 0.03918256 -0.01089842
v -0.01784793 -0.05358984 -0.01255758
v -0.01702754 -0.05455475 -0.01352126
v -0.01737173 -0.05476075 -0.01255758
v -0.02136763 -0.04253131 -0.00456633
v -0.01449797 -0.05537872 -0.01255758
v -0.01606097 -0.05481495 -0.01409401
v -0.01289961 -0.05525946 -0.01575545
v -0.01130125 -0.05537872 -0.01575545
v -0.01445082 -0.05482580 -0.01572363
v -0.01006829 -0.05531367 -0.01735552
v -0.01006829 -0.05489085 -0.01887604
v -0.01006829 -0.05358984 -0.01980335
v 0.00144558 -0.04874360 -0.02095568
v -0.00003962 -0.04558867 -0.02122614
v 0.00223534 0.02898052 -0.02081249
v -0.01006829 0.05536921 -0.01698732
v -0.01609634 0.05538005 -0.00616413
v -0.01769706 0.05538005 0.00069526
v -0.01289961 0.05536921 0.00069526
v -0.01769706 0.05538005 -0.00776420
v -0.01769706 0.05534753 -0.00936426
v -0.01783615 0.05495723 -0.01109161
v -0.01736937 0.05475123 -0.01255531
v -0.01702518 0.05454524 -0.01351672
v -0.01784793 0.05359117 -0.01255531
v -0.01845852 0.05198660 -0.01169164
v -0.01785501 -0.05199611 -0.01255758
v -0.01845852 -0.04253131 -0.01169618
v -0.01845852 0.02638935 -0.01169391
v -0.01709354 -0.05358984 -0.01359854
v -0.01550697 -0.05460896 -0.01516906
v -0.01640988 -0.05358984 -0.01440085
v -0.01561070 -0.05358984 -0.01527588
v -0.01130125 -0.05512936 -0.01735552
v -0.01388267 -0.05457643 -0.01671231
v -0.01275109 -0.05470653 -0.01728733
v -0.01130125 -0.05464148 -0.01841920
v -0.01211929 -0.05440297 -0.01817146
v -0.00922432 -0.04837499 -0.02192844
v -0.00809980 -0.04837499 -0.02247165
v -0.00023765 -0.04874360 -0.02123978
v -0.00086002 -0.04813647 -0.02136706
v -0.00650144 -0.04558867 -0.02239665
v -0.00525434 -0.04398410 -0.02217164
v -0.00003962 -0.02954296 -0.02122614
v -0.00525434 0.02898052 -0.02217164
v -0.01006829 0.05359117 -0.01980108
v -0.01006829 0.05488133 -0.01887604
v -0.01006829 0.05498975 -0.01865330
v -0.01006829 0.05530416 -0.01735552
v -0.01289961 0.05526079 -0.01575545
v -0.01449797 0.05529332 -0.01415538
v -0.01130125 0.05536921 -0.01575545
v -0.01609634 0.05536921 -0.01095524
v -0.01609634 0.05523911 -0.01255531
v -0.01606097 0.05480544 -0.01409401
v -0.01550697 0.05461029 -0.01516906
v -0.01561070 0.05359117 -0.01527588
v -0.01640988 0.05359117 -0.01439857
v -0.01709119 0.05359117 -0.01359854
v -0.01785265 0.05198660 -0.01255531
v -0.01785501 -0.04253131 -0.01255758
v -0.01709354 -0.04253131 -0.01359854
v -0.01703697 -0.04253131 -0.01366672
v -0.01477615 -0.05358984 -0.01607592
v -0.01640988 -0.04253131 -0.01440085
v -0.00922668 -0.02156347 -0.02192844
v -0.00809980 -0.04558867 -0.02252392
v -0.00809980 -0.04719324 -0.02249665
v -0.00650144 -0.02479429 -0.02239665
v -0.00650380 0.01518988 -0.02239665
v -0.00810216 0.01679445 -0.02252165
v -0.00810216 0.01839902 -0.02249892
v -0.00810216 0.01996023 -0.02246710
v -0.01397462 0.05359117 -0.01678731
v -0.01211929 0.05440430 -0.01816919
v -0.00922668 0.01996023 -0.02192844
v -0.01130125 0.05463197 -0.01841920
v -0.01275109 0.05470786 -0.01728733
v -0.01445082 0.05481628 -0.01572363
v -0.01130125 0.05513069 -0.01735552
v -0.01388267 0.05456692 -0.01671231
v -0.01477380 0.05359117 -0.01607592
v -0.00809980 -0.02318972 -0.02252392
f 7 8 1
f 150 151 119
f 119 149 150
f 28 12 27
f 26 49 27
f 27 12 26
f 26 48 49
f 26 46 47
f 47 48 26
f 50 81 82
f 116 80 115
f 116 143 144
f 80 79 114
f 115 80 114
f 173 143 172
f 144 143 173
f 51 86 84
f 8 7 22
f 83 50 82
f 51 50 83
f 83 86 51
f 145 116 144
f 9 3 8
f 8 22 9
f 2 3 1
f 1 8 2
f 8 3 2
f 13 29 15
f 4 13 15
f 16 4 15
f 51 84 85
f 6 7 1
f 5 6 1
f 17 6 5
f 38 17 37
f 12 24 25
f 25 26 12
f 25 24 46
f 46 26 25
f 80 116 117
f 116 145 117
f 117 145 146
f 117 118 80
f 148 118 117
f 112 114 79
f 11 3 10
f 3 9 10
f 10 9 22
f 23 11 10
f 10 22 23
f 30 15 29
f 31 15 30
f 31 30 53
f 93 130 94
f 133 130 165
f 188 181 176
f 147 173 172
f 144 173 147
f 148 117 147
f 147 117 146
f 147 145 144
f 146 145 147
f 123 85 84
f 84 120 121
f 89 125 91
f 56 89 91
f 91 90 56
f 92 90 91
f 156 125 158
f 92 91 126
f 126 91 125
f 132 133 166
f 166 133 165
f 172 143 171
f 104 133 132
f 94 130 104
f 130 133 104
f 143 116 142
f 142 139 143
f 142 116 115
f 140 139 115
f 20 6 17
f 17 38 20
f 94 104 95
f 58 96 97
f 58 95 96
f 94 95 58
f 58 93 94
f 92 93 58
f 88 53 87
f 88 125 89
f 87 53 52
f 52 53 30
f 55 89 56
f 56 33 55
f 175 174 188
f 188 176 175
f 150 174 175
f 175 176 150
f 178 181 151
f 151 150 178
f 122 123 84
f 84 121 122
f 157 156 158
f 120 156 157
f 160 156 184
f 92 126 127
f 159 156 160
f 160 127 159
f 159 127 126
f 125 156 159
f 159 126 125
f 68 67 103
f 164 166 165
f 167 166 164
f 186 180 179
f 151 181 179
f 179 180 151
f 66 67 36
f 37 17 36
f 36 67 68
f 100 64 97
f 115 139 141
f 141 142 115
f 139 142 141
f 137 171 143
f 136 137 106
f 106 134 136
f 78 109 75
f 75 44 78
f 112 109 78
f 23 44 45
f 45 44 75
f 43 44 23
f 43 20 38
f 70 38 37
f 96 95 102
f 102 95 104
f 57 33 56
f 57 58 33
f 56 90 57
f 57 90 92
f 92 58 57
f 124 121 120
f 120 157 124
f 124 157 158
f 158 125 124
f 125 88 124
f 89 55 54
f 54 88 89
f 53 88 54
f 31 53 54
f 17 5 19
f 19 39 17
f 16 35 18
f 18 19 5
f 35 19 18
f 177 176 181
f 181 178 177
f 150 176 177
f 177 178 150
f 154 120 119
f 119 153 154
f 151 180 152
f 119 151 152
f 152 153 119
f 155 184 156
f 155 156 120
f 120 154 155
f 129 164 165
f 165 130 129
f 130 93 129
f 167 164 168
f 168 134 167
f 136 134 168
f 136 168 170
f 160 184 161
f 161 184 186
f 186 179 187
f 187 161 186
f 162 161 187
f 181 162 187
f 187 179 181
f 66 36 65
f 65 36 64
f 64 100 65
f 143 139 169
f 169 137 143
f 131 134 105
f 103 131 105
f 68 103 105
f 105 106 68
f 134 106 105
f 77 78 44
f 114 112 111
f 112 78 111
f 135 106 137
f 135 169 139
f 137 169 135
f 20 43 21
f 6 20 21
f 23 22 21
f 21 43 23
f 21 22 7
f 7 6 21
f 44 43 71
f 71 43 38
f 38 70 71
f 69 106 107
f 37 36 69
f 69 70 37
f 69 36 68
f 68 106 69
f 69 71 70
f 32 55 33
f 32 54 55
f 31 54 32
f 32 15 31
f 16 15 32
f 32 33 16
f 33 60 61
f 34 62 35
f 16 33 34
f 34 35 16
f 33 61 34
f 34 61 62
f 35 62 63
f 63 62 74
f 16 18 14
f 14 18 5
f 14 4 16
f 182 180 186
f 182 152 180
f 153 152 183
f 186 184 183
f 183 184 153
f 183 182 186
f 152 182 183
f 153 184 185
f 184 155 185
f 185 154 153
f 185 155 154
f 164 129 128
f 92 127 128
f 128 93 92
f 128 129 93
f 128 127 160
f 160 161 128
f 128 161 162
f 163 168 164
f 163 170 168
f 162 170 163
f 163 128 162
f 164 128 163
f 96 102 101
f 97 96 101
f 101 100 97
f 101 65 100
f 115 114 138
f 114 111 138
f 78 77 110
f 110 77 107
f 107 106 110
f 106 135 110
f 76 77 44
f 44 71 76
f 71 69 76
f 107 77 76
f 76 69 107
f 41 73 64
f 41 72 73
f 64 36 41
f 41 36 17
f 97 98 59
f 59 58 97
f 33 58 59
f 59 60 33
f 60 59 99
f 99 59 98
f 99 61 60
f 62 61 99
f 74 62 99
f 39 19 42
f 42 72 39
f 74 72 42
f 42 63 74
f 113 111 78
f 78 110 113
f 113 110 135
f 113 135 139
f 139 140 113
f 113 138 111
f 113 140 115
f 115 138 113
f 17 39 40
f 40 41 17
f 39 72 40
f 72 41 40
f 108 99 98
f 108 72 74
f 74 99 108
f 79 80 47
f 47 46 79
f 119 80 118
f 118 149 119
f 118 150 149
f 148 150 118
f 49 81 50
f 27 49 50
f 51 28 50
f 50 28 27
f 3 4 1
f 3 13 4
f 12 3 24
f 24 3 11
f 82 81 83
f 47 80 83
f 83 80 119
f 119 86 83
f 83 48 47
f 83 81 49
f 49 48 83
f 120 86 119
f 120 84 86
f 188 174 147
f 172 188 147
f 147 150 148
f 147 174 150
f 171 188 172
f 171 181 188
f 122 3 12
f 87 52 122
f 122 28 51
f 12 28 122
f 13 3 122
f 122 29 13
f 51 85 122
f 122 30 29
f 85 123 122
f 122 52 30
f 103 67 104
f 103 104 132
f 131 103 132
f 132 166 131
f 181 171 137
f 137 162 181
f 134 131 166
f 134 166 167
f 45 79 46
f 45 24 11
f 45 11 23
f 46 24 45
f 75 109 45
f 45 112 79
f 45 109 112
f 104 67 102
f 102 67 66
f 87 122 124
f 124 88 87
f 124 122 121
f 162 137 170
f 170 137 136
f 64 73 98
f 97 64 98
f 1 4 14
f 14 5 1
f 101 102 66
f 66 65 101
f 35 63 42
f 42 19 35
f 108 98 73
f 73 72 108

