# https://github.com/mikedh/trimesh
v 0.04412109 0.01042616 0.00695105
v 0.05186331 0.00913817 -0.00347889
v 0.05109728 0.00919940 -0.00347889
v 0.04412109 0.00943006 -0.00553750
v 0.03806552 0.00933004 -0.00553750
v 0.03600835 0.00929125 -0.00553750
v 0.03447855 0.00916878 -0.00553750
v 0.03350338 0.00911775 -0.00296057
v 0.03350338 0.00910142 -0.00136161
v 0.03510138 0.00919328 0.00695105
v 0.04412109 -0.01042670 0.00695105
v 0.05483655 0.00559873 0.00421276
v 0.05482745 0.00719903 0.00421276
v 0.05425008 0.00874626 0.00421276
v 0.05269527 0.00927697 0.00421276
v 0.05269527 0.00895854 -0.00347889
v 0.04412109 -0.00943060 -0.00553750
v 0.05349768 0.00874626 -0.00347889
v 0.05403414 0.00848702 -0.00347889
v 0.05449785 0.00719699 -0.00347889
v 0.05458196 0.00559669 -0.00347889
v 0.03350338 0.00903406 -0.00553750
v 0.03350338 0.00908101 -0.00456076
v 0.03215997 0.00855234 -0.00296057
v 0.03220089 0.00853805 -0.00136161
v 0.03350338 0.00903815 0.00023858
v 0.03476268 0.00908509 0.00695105
v 0.03510365 -0.00918769 -0.00553750
v 0.03662891 -0.00929179 -0.00553750
v 0.03830192 -0.00933058 -0.00553750
v 0.05109728 -0.00919994 -0.00347889
v 0.05269527 -0.00927546 0.00421276
v 0.05375455 -0.00895704 0.00421276
v 0.05425008 -0.00874475 0.00421276
v 0.05445239 -0.00824466 0.00421276
v 0.05482745 -0.00719753 0.00421276
v 0.05482973 -0.00681582 0.00421276
v 0.05483427 -0.00559927 0.00421276
v 0.03510138 -0.00919382 0.00695105
v 0.03350338 -0.00910196 -0.00136161
v 0.03350338 -0.00911829 -0.00296057
v 0.03350338 -0.00908155 -0.00456076
v 0.05457969 -0.00559723 -0.00347889
v 0.05449785 -0.00719753 -0.00347889
v 0.05433874 -0.00766496 -0.00347889
v 0.05403414 -0.00848756 -0.00347889
v 0.05269527 -0.00895908 -0.00347889
v 0.03301466 0.00880953 -0.00553750
v 0.03225317 0.00851764 -0.00456076
v 0.03161670 0.00719699 -0.00296057
v 0.03170080 0.00719699 -0.00136161
v 0.03233727 0.00847274 0.00023858
v 0.03362158 0.00862991 0.00695105
v 0.03350338 -0.00903460 -0.00553750
v 0.03362158 -0.00863045 0.00695105
v 0.03350338 -0.00903869 0.00023858
v 0.03220089 -0.00853655 -0.00136161
v 0.03215997 -0.00855492 -0.00296057
v 0.03232591 0.00846661 -0.00553750
v 0.03161442 -0.00719957 -0.00296057
v 0.03180536 0.00719699 -0.00456076
v 0.03247139 0.00835639 0.00183877
v 0.03239865 0.00841762 0.00098550
v 0.03170080 -0.00719957 -0.00136161
v 0.03302603 0.00597839 0.00695105
v 0.03303057 0.00719699 0.00695105
v 0.03268506 0.00803592 0.00434968
v 0.03260550 0.00816860 0.00343773
v 0.03311695 0.00752970 0.00695105
v 0.03225317 -0.00851818 -0.00456076
v 0.03232591 -0.00846715 -0.00553750
v 0.03303057 -0.00719957 0.00695105
v 0.03268506 -0.00803850 0.00434968
v 0.03260550 -0.00817118 0.00343773
v 0.03247139 -0.00835897 0.00183877
v 0.03239865 -0.00842020 0.00098550
v 0.03233727 -0.00847327 0.00023858
v 0.03195084 0.00719699 -0.00553750
v 0.03180536 -0.00719957 -0.00456076
v 0.03215088 -0.00795277 -0.00553750
v 0.03194857 0.00622130 -0.00553750
v 0.03302603 -0.00559927 0.00695105
v 0.03194857 -0.00559723 -0.00553750
v 0.03195084 -0.00719957 -0.00553750
f 12 1 11
f 13 1 12
f 13 14 1
f 1 14 15
f 6 7 1
f 14 13 19
f 60 51 50
f 31 32 11
f 17 31 11
f 1 4 5
f 5 6 1
f 21 13 12
f 21 17 4
f 1 15 2
f 18 15 14
f 14 19 18
f 18 19 4
f 55 72 73
f 61 59 78
f 61 50 59
f 60 50 61
f 49 50 24
f 59 50 49
f 49 48 59
f 1 7 8
f 66 51 65
f 12 11 38
f 38 21 12
f 11 34 35
f 35 36 11
f 35 34 46
f 46 34 33
f 33 34 11
f 11 32 33
f 39 40 11
f 47 17 46
f 31 17 47
f 32 31 47
f 46 33 47
f 47 33 32
f 11 29 30
f 30 17 11
f 20 19 13
f 13 21 20
f 4 19 20
f 20 21 4
f 3 4 1
f 1 2 3
f 3 2 4
f 16 2 15
f 15 18 16
f 4 2 16
f 16 18 4
f 64 73 72
f 64 51 60
f 72 82 64
f 57 64 60
f 9 10 1
f 1 8 9
f 9 8 24
f 48 49 22
f 63 62 53
f 53 52 63
f 51 62 63
f 63 52 51
f 51 66 67
f 11 36 37
f 37 38 11
f 56 39 55
f 40 39 56
f 55 57 56
f 56 57 40
f 28 29 11
f 11 42 28
f 11 40 41
f 41 42 11
f 36 35 45
f 45 44 36
f 45 35 46
f 46 17 45
f 17 44 45
f 81 61 78
f 79 83 84
f 60 61 79
f 10 9 26
f 7 22 23
f 23 8 7
f 24 8 23
f 23 49 24
f 23 22 49
f 53 67 69
f 69 67 66
f 53 62 68
f 68 67 53
f 68 62 51
f 51 67 68
f 21 38 43
f 38 37 43
f 43 37 36
f 36 44 43
f 17 21 43
f 43 44 17
f 55 73 74
f 74 75 55
f 73 64 74
f 64 75 74
f 77 57 55
f 64 57 77
f 71 70 60
f 58 57 60
f 60 70 58
f 40 57 58
f 58 41 40
f 42 41 58
f 27 26 53
f 10 26 27
f 25 52 53
f 53 26 25
f 51 52 25
f 25 9 24
f 25 26 9
f 24 50 25
f 25 50 51
f 55 75 76
f 76 77 55
f 76 75 64
f 64 77 76
f 80 79 84
f 60 79 80
f 80 71 60
f 54 28 42
f 70 71 54
f 42 58 54
f 54 58 70
f 64 82 65
f 65 51 64
f 79 81 83
f 61 81 79
f 27 66 65
f 27 11 1
f 1 10 27
f 65 82 27
f 27 72 55
f 53 69 27
f 27 82 72
f 27 39 11
f 55 39 27
f 27 69 66
f 4 17 54
f 54 30 29
f 78 59 54
f 7 6 54
f 54 5 4
f 54 22 7
f 29 28 54
f 6 5 54
f 59 48 54
f 17 30 54
f 84 83 54
f 48 22 54
f 54 81 78
f 83 81 54
f 54 80 84
f 71 80 54

