# https://github.com/mikedh/trimesh
v -0.02038757 0.01845325 0.00784411
v -0.00869262 0.01845325 0.00784411
v -0.02033186 0.01845325 0.00800003
v -0.02033186 0.04352610 0.00800003
v -0.02038624 0.04352610 0.00784411
v -0.00848437 0.01845325 0.00825078
v -0.00800819 0.04352610 0.00784411
v -0.00789810 0.04352610 0.00802574
v -0.00781852 0.04352610 0.00815849
v -0.01999761 0.01845325 0.00880031
v -0.01999761 0.03759845 0.00880031
v -0.01999761 0.04352610 0.00879989
v -0.00701073 0.01845325 0.01150331
v -0.00722163 0.04352610 0.01034061
v -0.00699349 0.01845325 0.01155219
v -0.01949092 0.01845325 0.00983827
v -0.01949092 0.04352610 0.00983827
v -0.00713409 0.04352610 0.01207012
v -0.00683830 0.01845325 0.01214935
v -0.01879323 0.01845325 0.01113372
v -0.01879323 0.04352610 0.01113372
v -0.00713409 0.04352610 0.01214935
v -0.01815390 0.01845325 0.01214935
v -0.01877731 0.01845325 0.01116027
v -0.01830643 0.04352610 0.01193358
v -0.01815390 0.04352610 0.01214935
v -0.01828123 0.01845325 0.01197067
v -0.01830643 0.01845325 0.01193358
v -0.01825072 0.04352610 0.01201239
f 1 4 5
f 15 13 9
f 2 9 6
f 9 13 6
f 2 7 8
f 8 9 2
f 3 4 1
f 19 15 14
f 14 15 9
f 18 22 19
f 19 14 18
f 11 12 4
f 17 12 11
f 27 29 25
f 25 28 27
f 23 26 27
f 26 29 27
f 24 21 20
f 24 28 25
f 25 21 24
f 7 2 1
f 1 5 7
f 22 23 19
f 22 26 23
f 9 8 21
f 21 5 4
f 22 18 21
f 21 7 5
f 26 22 21
f 21 14 9
f 21 8 7
f 4 12 21
f 21 29 26
f 21 12 17
f 21 18 14
f 25 29 21
f 16 20 21
f 21 17 16
f 11 3 10
f 4 3 11
f 11 10 16
f 16 17 11
f 2 6 24
f 1 2 24
f 19 23 24
f 24 15 19
f 24 3 1
f 13 15 24
f 24 6 13
f 16 10 24
f 24 20 16
f 10 3 24
f 23 27 24
f 24 27 28

