# https://github.com/mikedh/trimesh
v -0.01769764 0.05538005 0.00823751
v -0.01769764 0.05538005 0.00784397
v -0.01929746 0.05537889 0.00343881
v -0.01929746 0.05537193 0.00503875
v -0.01769764 0.05530696 0.00983633
v -0.01609466 0.05537889 0.01143739
v -0.01449485 0.05537889 0.01214935
v 0.00223335 0.05537889 0.01214935
v 0.01059745 0.05537889 0.01135330
v -0.01929746 0.05537889 0.00069526
v 0.01059745 0.05537889 0.00343881
v 0.00469973 0.05537889 0.00136461
v -0.00490232 0.05537889 0.00069526
v -0.02093536 0.05496938 0.00069526
v -0.01929746 0.05528608 0.00663645
v -0.02065603 0.05488353 0.00503875
v -0.01778018 0.05492877 0.01147439
v -0.01609466 0.05527448 0.01214935
v -0.01897686 0.05481624 0.00983633
v 0.00223335 0.04961091 0.01214935
v 0.01059745 0.04971416 0.01135330
v 0.01059745 0.05537425 0.00233780
v 0.01059745 0.05536613 0.00136461
v 0.00223335 0.05468980 0.00069526
v -0.02118930 0.05483133 0.00069526
v -0.02105281 0.05484061 0.00199360
v -0.02045605 0.05479652 0.00663645
v -0.02174796 0.05448330 0.00156306
v -0.01753258 0.05481276 0.01214935
v -0.01869435 0.05463063 0.01096649
v -0.02025290 0.05460743 0.00781146
v -0.00391514 0.04466776 0.01214935
v 0.01054983 0.04922924 0.01135330
v 0.01059745 0.04921880 0.01134545
v 0.01059745 0.04838005 0.00136461
v 0.00223335 0.05337889 0.00069526
v -0.02176066 0.05451114 0.00069526
v -0.02169400 0.05359815 0.00262595
v -0.02154481 0.05359815 0.00343881
v -0.02123374 0.05359815 0.00503875
v -0.02181145 0.05390325 0.00069526
v -0.02182415 0.05359815 0.00069526
v -0.02177018 0.05359815 0.00182542
v -0.01809125 0.05380580 0.01214935
v -0.01830075 0.05359699 0.01193296
v -0.01815156 0.05359699 0.01214935
v -0.01947521 0.05359699 0.00983633
v -0.01878958 0.05359699 0.01113355
v -0.01997992 0.05359699 0.00879923
v -0.02081474 0.05359815 0.00663645
v -0.02032908 0.05359699 0.00799982
v -0.00443254 0.04441022 0.01214935
v -0.00490550 0.04418516 0.01214935
v -0.00579110 0.04391138 0.01214935
v -0.00713380 0.04352855 0.01214935
v -0.00713380 0.04352855 0.01206974
v -0.00722268 0.04352855 0.01033975
v -0.00735918 0.04352855 0.00983633
v -0.00781944 0.04352855 0.00815791
v -0.00800989 0.04352855 0.00784397
v -0.01052071 0.04780929 0.00069526
v -0.02164638 0.04780929 0.00293540
v -0.02156386 0.05199954 0.00343881
v -0.02177336 0.04880233 0.00182654
v -0.02169400 0.04780929 0.00262595
v -0.02124961 0.05199954 0.00503875
v -0.02182732 0.04880233 0.00069526
v -0.01830075 0.04352855 0.01193296
v -0.01824679 0.04352855 0.01201144
v -0.01844676 0.04352855 0.01169751
v -0.01815156 0.04352855 0.01214935
v -0.01999579 0.05199954 0.00879923
v -0.01948791 0.05199954 0.00983633
v -0.01899590 0.04352855 0.01075122
v -0.01878958 0.04352855 0.01113355
v -0.02108455 0.04780929 0.00564756
v -0.02081474 0.04780929 0.00663645
v -0.02032908 0.04352855 0.00799982
v -0.02038304 0.04352855 0.00784397
v -0.02182732 0.04780929 0.00069526
v -0.02156386 0.04780929 0.00343881
v -0.02177336 0.04780929 0.00182654
v -0.02124961 0.04780929 0.00503875
v -0.01999579 0.04352855 0.00879923
v -0.01948791 0.04352855 0.00983633
f 7 8 1
f 1 8 9
f 35 34 53
f 7 1 6
f 55 35 54
f 35 53 54
f 5 6 1
f 1 4 5
f 5 4 15
f 23 12 22
f 22 12 11
f 13 12 23
f 23 24 13
f 11 12 2
f 12 13 2
f 2 13 10
f 56 35 55
f 56 57 35
f 59 60 35
f 35 60 61
f 61 36 35
f 7 6 18
f 6 5 18
f 44 29 30
f 3 4 1
f 31 27 28
f 15 4 16
f 16 27 15
f 16 28 27
f 52 53 34
f 34 32 52
f 20 32 33
f 33 32 34
f 34 21 33
f 21 20 33
f 45 30 48
f 31 51 49
f 35 57 58
f 58 59 35
f 17 30 29
f 29 18 17
f 17 18 5
f 19 27 31
f 31 30 19
f 30 17 19
f 19 17 5
f 15 27 19
f 19 5 15
f 14 3 10
f 4 3 14
f 14 16 4
f 31 28 40
f 41 28 37
f 42 28 41
f 64 42 67
f 79 83 81
f 44 30 46
f 30 45 46
f 74 48 73
f 73 85 74
f 74 75 48
f 73 48 47
f 48 30 47
f 47 30 31
f 31 49 47
f 73 47 72
f 72 47 49
f 72 49 51
f 37 28 25
f 28 16 26
f 16 14 26
f 14 25 26
f 26 25 28
f 43 28 42
f 42 64 43
f 82 80 79
f 66 40 63
f 66 83 76
f 76 83 79
f 79 77 76
f 50 51 31
f 31 40 50
f 50 40 66
f 66 76 50
f 50 76 77
f 71 46 69
f 69 46 45
f 45 68 69
f 48 75 70
f 70 68 45
f 70 45 48
f 28 43 38
f 38 43 64
f 65 82 79
f 78 77 79
f 39 38 63
f 39 63 40
f 39 40 28
f 28 38 39
f 81 63 62
f 63 38 62
f 38 65 62
f 79 81 62
f 62 65 79
f 20 21 9
f 9 8 20
f 36 23 35
f 36 24 23
f 22 34 35
f 9 21 22
f 35 23 22
f 22 21 34
f 22 11 9
f 9 11 2
f 2 1 9
f 61 60 79
f 79 80 61
f 1 2 3
f 3 2 10
f 46 8 7
f 46 71 55
f 46 20 8
f 55 54 46
f 53 52 46
f 46 54 53
f 7 18 46
f 46 29 44
f 46 32 20
f 46 18 29
f 46 52 32
f 25 61 80
f 67 42 25
f 25 80 67
f 25 14 10
f 24 36 25
f 10 13 25
f 25 13 24
f 36 61 25
f 25 41 37
f 42 41 25
f 67 80 82
f 82 64 67
f 63 81 83
f 63 83 66
f 84 85 73
f 73 72 84
f 64 82 65
f 65 38 64
f 55 71 78
f 60 59 78
f 79 60 78
f 78 56 55
f 78 70 75
f 57 56 78
f 78 58 57
f 78 74 85
f 59 58 78
f 71 69 78
f 75 74 78
f 78 69 68
f 68 70 78
f 85 84 78
f 78 84 72
f 78 72 51
f 51 50 78
f 78 50 77

