# https://github.com/mikedh/trimesh
v -0.01814934 -0.05358026 0.01215024
v 0.00223602 -0.01716259 0.01032265
v 0.00223602 -0.05534748 0.01118525
v -0.01753583 -0.05479455 0.01215024
v -0.01720837 -0.05464276 0.01303898
v -0.01691102 -0.05440424 0.01385366
v -0.01752077 -0.05358026 0.01303898
v -0.01814934 0.05359114 0.01215024
v 0.00223602 -0.01240303 0.01032265
v 0.01336968 -0.01724932 0.01032265
v 0.00310172 -0.05536916 0.01118525
v -0.01538663 -0.05535832 0.01215024
v -0.01609425 -0.05526074 0.01215024
v -0.01705405 -0.05501139 0.01215024
v -0.01609425 -0.05513064 0.01303898
v -0.01093015 -0.05470781 0.02066193
v -0.01115975 -0.05358026 0.02089283
v -0.01117858 -0.05198651 0.02090916
v -0.01691478 -0.05358026 0.01386238
v -0.01752077 0.05359114 0.01303898
v -0.01691102 0.05441512 0.01385366
v -0.01808912 0.05379713 0.01215024
v 0.00223602 0.01717346 0.01032482
v 0.01431443 -0.01220787 0.01032265
v 0.01429561 -0.01724932 0.01032265
v 0.02029905 -0.05536916 0.01118525
v 0.00149829 -0.05538001 0.01304007
v -0.00518265 -0.05536916 0.01215024
v 0.00149829 -0.05538001 0.01464003
v -0.00517889 -0.05536916 0.01783668
v -0.00969936 -0.05535832 0.01943663
v -0.00969936 -0.05487044 0.02081658
v -0.00969936 -0.05358026 0.02142324
v -0.00969936 -0.04557900 0.02144720
v -0.00969936 0.04558987 0.02144938
v -0.01117858 0.05199739 0.02090916
v -0.01691478 0.05359114 0.01386238
v -0.01720837 0.05465364 0.01303898
v -0.01115975 0.05359114 0.02089283
v -0.01093015 0.05471869 0.02066193
v -0.01753583 0.05480542 0.01215024
v 0.00223602 0.05535836 0.01135625
v 0.01429561 0.01726020 0.01032482
v 0.01589527 -0.01221872 0.01032265
v 0.01500699 -0.01723848 0.01032265
v 0.02029905 -0.05536916 0.01304007
v 0.00223602 -0.05538001 0.01304007
v 0.01589527 -0.01715174 0.01032265
v 0.01648621 -0.01693491 0.01032265
v 0.01717500 -0.01656629 0.01032265
v 0.01750999 -0.01518937 0.01032265
v 0.02029905 -0.03401078 0.01099138
v 0.00223602 -0.05538001 0.01537629
v -0.00009760 -0.05536916 0.01783668
v -0.00809593 -0.05534748 0.01943663
v -0.00809593 -0.05484876 0.02070004
v -0.00650002 -0.05478370 0.02057261
v -0.00517889 -0.05469697 0.02046043
v -0.00489660 -0.05467529 0.02043538
v -0.00357547 -0.05453434 0.02032429
v -0.00809593 -0.05358026 0.02117165
v -0.00331199 -0.05359110 0.02036786
v -0.00489660 -0.04398525 0.02063797
v -0.00809593 -0.04398525 0.02117709
v 0.00422713 0.03071490 0.01909682
v -0.00489660 0.04397444 0.02063797
v 0.00223602 0.05272379 0.01943228
v -0.00169727 0.05197570 0.02009666
v -0.00331199 0.05358029 0.02036894
v -0.00809593 0.05359114 0.02117165
v -0.00969936 0.05359114 0.02142324
v -0.01609425 0.05514152 0.01303898
v -0.00969936 0.05488131 0.02081658
v -0.00969936 0.05536920 0.01943663
v -0.01609425 0.05527162 0.01215024
v -0.01449835 0.05538004 0.01215024
v 0.02029905 0.05535836 0.01135625
v 0.01589527 0.01715178 0.01032482
v 0.01705079 -0.01243555 0.01032265
v 0.01909083 -0.05536916 0.01464003
v 0.02029905 -0.05533664 0.01464003
v 0.01740460 -0.01358479 0.01032265
v 0.01750999 0.01520025 0.01032482
v 0.00149829 -0.05534748 0.01783668
v 0.00223602 -0.05531496 0.01783668
v -0.00650002 -0.05527159 0.01943663
v -0.00517889 -0.05518485 0.01943554
v 0.00149829 -0.05485960 0.01909029
v 0.01269594 -0.05477286 0.01734874
v 0.00223602 -0.05482707 0.01903147
v 0.01429184 -0.05464276 0.01721368
v 0.01553393 -0.05450182 0.01710913
v 0.00598112 -0.05451266 0.01871780
v 0.01429184 -0.05358026 0.01739230
v 0.00310172 -0.05358026 0.01928415
v 0.00149829 -0.05199736 0.01955644
v 0.02029905 -0.04398525 0.01637940
v 0.02029905 0.00000002 0.01638049
v 0.02029905 0.04518873 0.01638049
v 0.01429561 0.05358029 0.01739448
v 0.01553393 0.05450185 0.01711021
v -0.00357547 0.05452353 0.02032429
v -0.00518265 0.05469701 0.02046152
v -0.00650002 0.05479458 0.02057261
v -0.00809593 0.05485963 0.02070004
v -0.00809593 0.05535836 0.01943663
v 0.01909460 0.05535836 0.01463894
v -0.00518265 0.05536920 0.01783559
v -0.01449835 0.05538004 0.01303898
v -0.01361006 0.05538004 0.01215024
v 0.01732932 0.01594833 0.01032482
v 0.01717500 0.01657716 0.01032482
v 0.02029905 0.05535836 0.01343870
v 0.02029905 -0.05484876 0.01590126
v 0.01269594 -0.05526074 0.01623563
v 0.01110004 -0.05533664 0.01623563
v 0.00310172 -0.05527159 0.01783559
v 0.01110004 -0.05484876 0.01748052
v 0.02029905 -0.05358026 0.01630860
v 0.01574095 -0.05358026 0.01714616
v 0.02029905 -0.04557900 0.01637831
v 0.02029905 0.04558987 0.01637940
v 0.01574095 0.05358029 0.01714725
v 0.02029905 0.05452353 0.01601126
v 0.02029905 0.05484879 0.01590235
v 0.01429561 0.05463195 0.01721586
v 0.02029905 0.05358029 0.01631078
v 0.01269594 0.05476206 0.01734983
v 0.00223602 0.05504394 0.01851413
v -0.00650002 0.05528246 0.01943663
v 0.02029905 0.05533667 0.01463894
v 0.00223602 0.05536920 0.01463894
v 0.02029905 0.05521741 0.01497549
v 0.01269594 0.05524994 0.01623672
f 1 2 3
f 73 106 74
f 52 83 77
f 35 18 34
f 34 18 33
f 34 64 35
f 11 3 2
f 41 42 23
f 73 74 40
f 77 78 43
f 43 42 77
f 23 42 43
f 112 78 77
f 64 34 63
f 35 64 63
f 33 18 17
f 17 16 33
f 73 40 71
f 71 40 39
f 35 70 71
f 107 74 106
f 1 3 4
f 3 11 12
f 12 13 3
f 11 28 12
f 31 13 12
f 23 8 22
f 22 41 23
f 38 41 22
f 76 42 75
f 42 41 75
f 36 18 35
f 35 71 36
f 36 71 39
f 39 40 21
f 21 40 38
f 37 36 21
f 21 36 39
f 20 37 21
f 38 22 21
f 21 8 20
f 21 22 8
f 77 83 111
f 111 112 77
f 78 112 79
f 81 80 46
f 120 119 121
f 32 16 31
f 33 16 32
f 127 101 123
f 124 101 127
f 102 71 70
f 35 63 65
f 98 65 63
f 99 65 98
f 131 107 106
f 106 130 131
f 74 107 108
f 108 107 132
f 101 124 125
f 125 126 101
f 3 13 14
f 14 4 3
f 19 7 6
f 6 7 1
f 16 17 6
f 18 19 6
f 6 17 18
f 31 12 30
f 76 75 109
f 109 75 74
f 109 110 76
f 74 108 109
f 132 110 109
f 109 108 132
f 72 75 41
f 72 41 38
f 38 40 72
f 72 40 74
f 74 75 72
f 44 43 78
f 78 79 44
f 112 111 82
f 82 79 112
f 82 111 83
f 55 32 31
f 56 57 33
f 33 32 56
f 56 55 86
f 32 55 56
f 81 114 115
f 92 114 119
f 119 120 92
f 69 102 70
f 101 102 69
f 69 70 35
f 127 123 122
f 122 123 99
f 35 65 66
f 66 65 99
f 97 98 63
f 63 96 97
f 107 131 113
f 77 110 113
f 132 107 113
f 113 110 132
f 133 131 134
f 134 131 130
f 134 125 133
f 130 125 134
f 31 16 15
f 15 13 31
f 15 14 13
f 1 4 5
f 5 6 1
f 16 6 5
f 5 15 16
f 4 14 5
f 14 15 5
f 31 30 54
f 54 55 31
f 80 55 54
f 23 43 24
f 43 44 24
f 83 52 51
f 51 82 83
f 51 52 26
f 62 63 34
f 62 96 63
f 84 80 81
f 84 55 80
f 87 56 86
f 100 123 101
f 101 69 100
f 99 123 100
f 100 66 99
f 73 71 105
f 71 104 105
f 105 106 73
f 105 130 106
f 105 104 125
f 71 102 103
f 103 104 71
f 101 126 103
f 103 102 101
f 126 125 128
f 125 104 128
f 128 103 126
f 104 103 128
f 121 97 94
f 94 120 121
f 94 97 96
f 94 92 120
f 94 62 92
f 23 24 9
f 9 8 23
f 61 34 33
f 61 62 34
f 81 115 116
f 116 84 81
f 117 87 86
f 114 92 91
f 91 89 114
f 91 59 89
f 33 57 58
f 58 59 33
f 57 89 58
f 89 59 58
f 68 69 35
f 35 66 67
f 66 100 67
f 67 68 35
f 67 100 69
f 69 68 67
f 129 125 130
f 130 105 129
f 129 105 125
f 96 62 95
f 95 94 96
f 62 94 95
f 80 54 53
f 53 46 80
f 53 54 30
f 50 51 26
f 62 61 60
f 60 91 92
f 59 91 60
f 33 59 60
f 60 61 33
f 84 116 85
f 55 84 85
f 85 116 115
f 115 117 85
f 86 55 85
f 85 117 86
f 87 117 88
f 56 87 88
f 88 117 115
f 57 56 88
f 29 30 12
f 29 53 30
f 45 48 26
f 26 25 45
f 10 11 2
f 26 48 49
f 49 50 26
f 92 62 93
f 93 60 92
f 62 60 93
f 118 115 114
f 118 88 115
f 114 89 118
f 27 29 12
f 27 12 28
f 27 28 11
f 90 118 89
f 88 118 90
f 90 89 57
f 57 88 90
f 20 8 7
f 7 8 1
f 7 37 20
f 19 37 7
f 77 42 110
f 110 42 76
f 36 37 19
f 36 19 18
f 26 52 113
f 113 124 127
f 121 119 113
f 113 52 77
f 127 122 113
f 113 114 81
f 113 46 26
f 133 125 113
f 81 46 113
f 119 114 113
f 113 97 121
f 99 98 113
f 113 131 133
f 113 125 124
f 113 122 99
f 98 97 113
f 1 8 9
f 9 2 1
f 26 46 53
f 53 47 26
f 26 11 10
f 10 25 26
f 49 44 79
f 2 9 49
f 79 82 49
f 49 24 44
f 82 51 49
f 49 9 24
f 48 45 49
f 51 50 49
f 49 10 2
f 49 45 25
f 25 10 49
f 47 53 27
f 53 29 27
f 26 47 27
f 27 11 26

