# https://github.com/mikedh/trimesh
v 0.02029752 -0.03403197 0.01118111
v 0.01740541 -0.01360010 0.01031984
v 0.01705206 -0.01245928 0.01031984
v 0.01589700 -0.01223486 0.01031984
v 0.01431436 -0.01221615 0.01031984
v 0.01753606 -0.03403197 0.01118111
v 0.02029752 -0.04500534 0.01118111
v 0.02508108 -0.04961070 0.00677769
v 0.02030049 -0.01228161 -0.00620396
v -0.00525340 -0.00798016 0.00068931
v 0.00224114 -0.01241720 0.01031984
v 0.01749746 -0.03404133 0.01118111
v 0.01465880 -0.04500534 0.01118111
v 0.02508108 -0.05569350 0.00677455
v 0.02508108 -0.05100867 0.00677769
v 0.02508108 -0.04954056 0.00343597
v 0.02030049 -0.01228161 -0.01752884
v -0.00444278 -0.00793341 -0.00957073
v 0.02508108 -0.04952186 0.00183558
v -0.00525340 -0.01041142 -0.00809875
v -0.00525340 -0.01718152 0.00068931
v 0.00224114 -0.01718152 0.01031984
v 0.01524672 -0.03600035 0.01118111
v 0.01532392 -0.03574788 0.01118111
v 0.01586137 -0.03459771 0.01118111
v 0.01592669 -0.03448550 0.01118111
v 0.00224114 -0.05536622 -0.00692429
v 0.02029752 -0.05537090 0.00677769
v 0.00224114 -0.05537090 -0.01182569
v 0.02508108 -0.05569350 0.00098371
v 0.01909495 -0.01228161 -0.01774807
v 0.02508108 -0.04953121 0.00098371
v 0.02030049 -0.01792492 -0.01752884
v 0.02029752 -0.03406003 -0.01753197
v 0.01928498 -0.02339524 -0.01771676
v 0.00224114 -0.01228161 -0.02081105
v 0.00224114 -0.03406003 -0.02081419
v -0.00444278 -0.01734516 -0.00957073
v -0.00525340 -0.01727036 -0.00809875
v 0.00224114 -0.05537090 -0.01822099
v 0.00224114 -0.05536154 -0.01895698
v 0.01109859 -0.05536622 -0.01735972
v 0.01909495 -0.05537090 -0.01575933
v 0.02029752 -0.05535220 -0.01575933
v 0.02029752 -0.05523063 -0.01610070
v 0.02029752 -0.05486127 -0.01703714
v 0.02029752 -0.05454334 -0.01718434
v 0.02029752 -0.05359421 -0.01752258
v 0.02029752 -0.04839507 -0.01753197
v 0.00224114 -0.05199052 -0.02081419
v 0.00224114 -0.05272924 -0.02081105
v 0.00224114 -0.05359421 -0.02079853
v 0.00224114 -0.05416929 -0.02059182
v 0.00224114 -0.05487062 -0.02027237
v 0.00224114 -0.05509036 -0.01969923
v 0.00310521 -0.05534752 -0.01895698
v 0.01269608 -0.05531011 -0.01735972
v 0.01429654 -0.05519790 -0.01735972
v 0.01269608 -0.05482386 -0.01853418
v 0.01429654 -0.05470230 -0.01839011
v 0.01589700 -0.05452463 -0.01824604
v 0.01674326 -0.05440774 -0.01816775
v 0.00630316 -0.05359421 -0.02007506
v 0.00470567 -0.05359421 -0.02036319
v 0.00310521 -0.05359421 -0.02065133
v 0.00741665 -0.05448723 -0.01981511
v 0.00630316 -0.05462281 -0.01991534
v 0.00470567 -0.05476775 -0.02006253
v 0.00310521 -0.05485659 -0.02020347
v 0.00470567 -0.05525868 -0.01895698
f 9 18 10
f 18 9 17
f 8 9 2
f 9 3 2
f 37 18 36
f 21 39 27
f 10 18 20
f 1 2 3
f 8 2 1
f 28 13 27
f 27 14 28
f 28 14 13
f 39 38 52
f 18 17 31
f 31 36 18
f 13 11 22
f 27 13 22
f 22 21 27
f 10 11 5
f 13 14 7
f 39 41 40
f 39 54 55
f 55 41 39
f 35 31 17
f 37 36 35
f 36 31 35
f 16 9 8
f 19 17 9
f 19 32 17
f 9 16 19
f 4 1 3
f 4 5 1
f 10 5 4
f 4 9 10
f 4 3 9
f 23 11 13
f 6 5 11
f 1 5 6
f 15 7 14
f 37 35 50
f 50 35 49
f 30 40 41
f 48 49 30
f 49 33 30
f 27 39 29
f 39 40 29
f 29 14 27
f 34 35 17
f 49 35 34
f 24 25 11
f 11 23 24
f 11 25 26
f 48 62 63
f 63 49 48
f 63 50 49
f 47 62 48
f 48 30 47
f 12 6 11
f 11 26 12
f 53 54 39
f 39 52 53
f 52 66 67
f 67 53 52
f 68 53 67
f 62 47 46
f 30 45 46
f 46 47 30
f 65 66 52
f 62 66 65
f 42 30 41
f 42 43 30
f 44 45 30
f 30 43 44
f 43 42 44
f 54 53 69
f 69 53 68
f 68 59 69
f 58 46 45
f 58 59 46
f 70 69 58
f 58 69 59
f 50 63 64
f 64 63 62
f 62 65 64
f 46 59 60
f 68 67 60
f 60 59 68
f 56 44 42
f 56 42 41
f 41 55 56
f 56 69 70
f 56 55 54
f 54 69 56
f 50 64 51
f 51 64 65
f 51 65 52
f 38 50 51
f 51 52 38
f 62 46 61
f 46 60 61
f 61 60 67
f 61 66 62
f 61 67 66
f 57 56 70
f 44 56 57
f 70 58 57
f 45 44 57
f 57 58 45
f 39 21 20
f 20 21 10
f 39 20 38
f 38 20 18
f 10 21 22
f 22 11 10
f 1 7 15
f 8 1 15
f 50 38 18
f 50 18 37
f 8 15 30
f 32 19 30
f 30 16 8
f 30 19 16
f 30 15 14
f 17 32 30
f 30 33 17
f 29 30 14
f 40 30 29
f 17 33 34
f 34 33 49
f 12 23 13
f 13 7 12
f 12 7 1
f 1 6 12
f 25 24 12
f 12 24 23
f 12 26 25

