# https://github.com/mikedh/trimesh
v -0.00891139 0.07358754 -0.01976890
v -0.00891139 0.07394256 -0.01976890
v -0.00883712 0.07358754 -0.01976890
v 0.03030403 0.07115545 -0.01547316
v -0.00821112 0.07320012 -0.01905046
v -0.00954801 0.07321043 -0.01899835
v -0.01128809 0.07335479 -0.01841764
v -0.01210507 0.07358460 -0.01816824
v -0.01128809 0.07440364 -0.01866705
v -0.00954801 0.07444636 -0.01950461
v -0.00821112 0.07444636 -0.01960139
v -0.00883712 0.07394256 -0.01976890
v 0.03195922 0.07115545 -0.01541732
v 0.03190617 0.07115545 -0.01542104
v 0.05714791 0.06582578 -0.00320757
v 0.04784274 0.06582578 -0.00320757
v -0.00968594 0.07263444 -0.01735673
v -0.01128809 0.07286572 -0.01735673
v -0.01274169 0.07328850 -0.01728973
v -0.01386637 0.07342255 -0.01671274
v -0.01211569 0.07440364 -0.01817568
v -0.01396186 0.07440364 -0.01678719
v -0.01291145 0.07440364 -0.01758753
v -0.01210507 0.07522268 -0.01816824
v -0.01128809 0.07542892 -0.01840647
v -0.00968594 0.07562336 -0.01878989
v -0.00808379 0.07562336 -0.01884945
v 0.03190617 0.07693736 -0.01510463
v 0.03313696 0.07686961 -0.01502646
v 0.03190617 0.07599606 -0.01533915
v 0.03190617 0.07440069 -0.01542104
v 0.04278166 0.07599606 -0.01344812
v 0.04411855 0.07115545 -0.01320244
v 0.08654887 0.06564754 0.00102862
v 0.06794913 0.06564754 0.00102862
v 0.05765720 0.06564754 0.00476227
v 0.04807616 0.06582578 -0.00136121
v -0.01927759 0.07262855 0.00503402
v -0.01927759 0.07262413 0.00343707
v -0.01927759 0.07262413 0.00068988
v -0.01928820 0.07262561 -0.00456627
v -0.01928820 0.07268158 -0.00616694
v -0.01768605 0.07264918 -0.00936083
v -0.01448177 0.07270810 -0.01415539
v -0.01287962 0.07273314 -0.01575606
v -0.01443932 0.07317213 -0.01572628
v -0.01548974 0.07338867 -0.01517163
v -0.01560645 0.07440364 -0.01527959
v -0.01475763 0.07440364 -0.01607620
v -0.01386637 0.07547310 -0.01671274
v -0.01531997 0.07681510 -0.01498179
v -0.00968594 0.07625974 -0.01735673
v -0.00649226 0.07625974 -0.01735673
v -0.00524025 0.07625238 -0.01735673
v 0.05714791 0.08054351 -0.00136121
v 0.05714791 0.08004855 -0.00320757
v 0.03989568 0.07754281 -0.01255845
v 0.03989568 0.07712592 -0.01365658
v -0.01005730 0.07634665 -0.01703288
v -0.01128809 0.07663686 -0.01594963
v -0.01768605 0.07850621 -0.00896997
v -0.01928820 0.07968617 -0.00456627
v -0.01928820 0.08054351 -0.00136494
v 0.04148721 0.07701102 -0.01351513
v 0.04261189 0.07689023 -0.01341834
v 0.03420859 0.07651753 -0.01492967
v 0.03359320 0.07599016 -0.01506740
v 0.03434652 0.07545395 -0.01496690
v 0.03989568 0.07599606 -0.01396555
v 0.04411855 0.07599606 -0.01316149
v 0.04411855 0.07523152 -0.01319127
v 0.04411855 0.07440069 -0.01320244
v 0.08654887 0.07937093 0.00102862
v 0.08654887 0.06564754 0.00476227
v 0.04845813 0.06582578 -0.00037476
v -0.01127747 0.07311762 0.01763835
v -0.01127747 0.07262708 0.01623125
v -0.01768605 0.07269631 0.00983230
v -0.01927759 0.07271841 0.00663841
v -0.02064631 0.07311910 0.00503402
v -0.02087973 0.07298799 0.00022829
v -0.02042350 0.07288340 0.00068988
v -0.01928820 0.07262561 0.00068988
v -0.02087973 0.07303071 -0.00136494
v -0.02069936 0.07311320 -0.00456627
v -0.02050837 0.07317213 -0.00616694
v -0.01928820 0.07292023 -0.00776389
v -0.01782398 0.07303660 -0.01109179
v -0.01608391 0.07274787 -0.01255473
v -0.01605208 0.07318244 -0.01409584
v -0.01700700 0.07344170 -0.01351885
v -0.01545790 0.07600195 -0.01513441
v -0.01639161 0.07440364 -0.01440108
v -0.01706005 0.07600195 -0.01357469
v -0.01626428 0.07600195 -0.01437130
v -0.01448177 0.07683572 -0.01506368
v -0.01698578 0.07689759 -0.01348163
v -0.01878951 0.07846939 -0.00883596
v -0.01287962 0.07684898 -0.01513813
v -0.00968594 0.08069671 0.00022829
v 0.04411855 0.08069524 0.00023201
v 0.05714791 0.08069377 0.00023573
v 0.08070263 0.08054204 0.00102862
v 0.08240027 0.08050079 0.00102862
v 0.08308993 0.08048312 0.00102862
v -0.01448177 0.07710088 -0.01415539
v -0.01928820 0.07923687 -0.00616694
v -0.02048715 0.08010747 -0.00257847
v -0.02096461 0.08025773 -0.00139099
v -0.02087973 0.08043745 0.00022829
v -0.01928820 0.08069377 0.00022829
v -0.01005730 0.08069671 0.00022829
v 0.08434194 0.08025036 0.00102862
v 0.08654887 0.07970827 0.00183640
v 0.08654887 0.07887744 0.00476227
v 0.04411855 0.07141619 0.01235615
v 0.03211837 0.07141619 0.01438490
v 0.03207593 0.07141619 0.01438862
v -0.01287962 0.07262413 0.01463058
v -0.01608391 0.07262413 0.01143297
v -0.00968594 0.07311468 0.01760485
v -0.01127747 0.07440364 0.01826001
v -0.01287962 0.07335331 0.01732939
v -0.01287962 0.07286425 0.01623125
v -0.01448177 0.07280974 0.01463058
v -0.01608391 0.07272578 0.01214396
v -0.01608391 0.07285541 0.01302991
v -0.01776033 0.07307343 0.01147019
v -0.01895928 0.07318391 0.00983230
v -0.02044471 0.07320600 0.00663841
v -0.02173916 0.07351536 0.00156094
v -0.02103888 0.07315887 0.00199275
v -0.02093279 0.07303366 0.00068988
v -0.02176039 0.07349032 0.00068988
v -0.02176039 0.07347559 0.00022829
v -0.02172855 0.07351978 -0.00136494
v -0.02169672 0.07357428 -0.00229556
v -0.02024312 0.07340782 -0.00776389
v -0.01929881 0.07322663 -0.00921194
v -0.01876829 0.07331059 -0.01064509
v -0.01735714 0.07323694 -0.01255473
v -0.01843938 0.07440364 -0.01169483
v -0.01783460 0.07440364 -0.01255473
v -0.01708127 0.07440364 -0.01360447
v -0.01781338 0.07600195 -0.01255473
v -0.01843938 0.07600195 -0.01169483
v -0.01876829 0.07721725 -0.01064509
v -0.02027495 0.07858429 -0.00736930
v -0.01929881 0.07868151 -0.00784578
v 0.03274438 0.08056561 0.00098395
v 0.05714791 0.08055677 0.00102862
v 0.05714791 0.08066431 0.00040697
v 0.07910048 0.08055529 0.00102862
v 0.07829411 0.08041240 0.00183640
v 0.07989625 0.08038884 0.00183640
v 0.08308993 0.08031371 0.00166889
v 0.08654887 0.07968470 0.00343335
v -0.02173916 0.08006770 -0.00087357
v -0.02174977 0.08008833 0.00022829
v -0.02172855 0.08004708 0.00121102
v -0.02086912 0.08019586 0.00178056
v -0.01976566 0.08054646 0.00068988
v -0.01927759 0.08061569 0.00068988
v 0.00470154 0.08041683 0.00183640
v 0.03207593 0.08056561 0.00098395
v 0.08654887 0.07969795 0.00318766
v 0.08654887 0.07901738 0.00471388
v 0.03453751 0.07684161 0.01387120
v 0.04411855 0.07689759 0.01229286
v 0.04411855 0.07681657 0.01230403
v 0.04411855 0.07599753 0.01235615
v 0.03207593 0.07440069 0.01438862
v -0.00968594 0.07440364 0.01818928
v -0.01127747 0.07576183 0.01764580
v -0.01287962 0.07548342 0.01732939
v -0.01287962 0.07440364 0.01762718
v -0.00968594 0.07576920 0.01761602
v -0.01368600 0.07359343 0.01703531
v -0.01433322 0.07335331 0.01610841
v -0.01595659 0.07334743 0.01448168
v -0.01718738 0.07334448 0.01302991
v -0.01751629 0.07318980 0.01214396
v -0.01868342 0.07337100 0.01096021
v -0.02024312 0.07339309 0.00781099
v -0.02168612 0.07440216 0.00262557
v -0.02176039 0.07440216 0.00182523
v -0.02181343 0.07440216 0.00068988
v -0.02183465 0.07440364 0.00022829
v -0.02121926 0.07440216 0.00503402
v -0.02153757 0.07440216 0.00343707
v -0.02178161 0.07440364 -0.00136494
v -0.02170733 0.07440364 -0.00235884
v -0.02159062 0.07440364 -0.00315917
v -0.02133597 0.07440364 -0.00456627
v -0.02093279 0.07440364 -0.00616694
v -0.02009457 0.07359490 -0.00857539
v -0.01891684 0.07440364 -0.01089450
v -0.01891684 0.07600195 -0.01089450
v -0.02009457 0.07683867 -0.00857539
v -0.02031739 0.07746179 -0.00784578
v -0.02091157 0.07759879 -0.00616694
v 0.04411855 0.08041683 0.00183640
v 0.07669196 0.08041535 0.00183640
v 0.06869184 0.07987325 0.00381676
v 0.07029399 0.07986588 0.00380187
v 0.07829411 0.08009717 0.00282658
v 0.03988506 0.07870066 0.00823535
v -0.00009429 0.07677975 0.01538253
v 0.00150786 0.07677385 0.01538253
v 0.07989625 0.08007212 0.00279680
v 0.08654887 0.07912639 0.00453148
v 0.07860180 0.07938271 0.00476227
v 0.08016151 0.07934146 0.00476227
v -0.02169672 0.07855483 -0.00229556
v -0.02176039 0.07913228 -0.00139099
v -0.02182405 0.07919710 0.00022829
v -0.02135719 0.07759879 -0.00456627
v -0.02174977 0.07919710 0.00156094
v -0.02124048 0.07759731 0.00503402
v -0.02076302 0.07759731 0.00663841
v -0.02020068 0.07852095 0.00768070
v -0.02033861 0.08006623 0.00288986
v -0.01927759 0.08041535 0.00183640
v 0.04411855 0.08010158 0.00301643
v -0.01927759 0.08010011 0.00301643
v 0.03207593 0.07696977 0.01402010
v 0.03348709 0.07691233 0.01394192
v 0.03207593 0.07609917 0.01428067
v 0.03207593 0.07599753 0.01429928
v 0.03348709 0.07599753 0.01409827
v 0.03473910 0.07599753 0.01390842
v 0.04148721 0.07599753 0.01279540
v 0.03207593 0.07457746 0.01438490
v -0.00968594 0.07655288 0.01623125
v -0.01127747 0.07654552 0.01623125
v -0.01287962 0.07678269 0.01538253
v -0.01448177 0.07655730 0.01527457
v -0.01576561 0.07693148 0.01418761
v -0.01368600 0.07521532 0.01703531
v -0.01369661 0.07440364 0.01703903
v -0.00808379 0.07652195 0.01623125
v -0.01449237 0.07440364 0.01632431
v -0.01537303 0.07440364 0.01552026
v -0.01534119 0.07352272 0.01549420
v -0.01689029 0.07358460 0.01384514
v -0.01828023 0.07440364 0.01192434
v -0.01877891 0.07440364 0.01112400
v -0.01946857 0.07440364 0.00983230
v -0.01996726 0.07440364 0.00879745
v -0.02031739 0.07440364 0.00800084
v -0.02080546 0.07440216 0.00663841
v -0.02154818 0.07600048 0.00343707
v -0.02168612 0.07759731 0.00262557
v -0.02182405 0.07759731 0.00068988
v -0.02176039 0.07759731 0.00182523
v -0.02184526 0.07759879 0.00022829
v -0.02124048 0.07600048 0.00503402
v -0.02178161 0.07759879 -0.00136494
v -0.02170733 0.07759879 -0.00235884
v -0.02161184 0.07600195 -0.00315917
v -0.02135719 0.07600195 -0.00456627
v -0.02093279 0.07600195 -0.00616694
v -0.02040228 0.07440364 -0.00776389
v -0.02009457 0.07440364 -0.00858283
v -0.01971261 0.07440364 -0.00937945
v -0.01971261 0.07600195 -0.00937945
v -0.02009457 0.07600195 -0.00858283
v -0.02040228 0.07600195 -0.00776389
v 0.06869184 0.08010011 0.00301643
v 0.03988506 0.07844140 0.00911758
v 0.03669139 0.07870214 0.00823535
v 0.00150786 0.07699923 0.01458591
v -0.00168582 0.07678269 0.01538253
v -0.02161184 0.07759879 -0.00315917
v -0.02154818 0.07759731 0.00343707
v -0.02080546 0.07600048 0.00663841
v -0.02031739 0.07600048 0.00800084
v -0.02031739 0.07759731 0.00784077
v -0.02027495 0.07783006 0.00784077
v -0.01868342 0.07711414 0.01096021
v -0.01726165 0.07707436 0.01273956
v -0.01857731 0.07842667 0.00914364
v -0.01918209 0.07859165 0.00822419
v -0.01927759 0.07909251 0.00663841
v -0.01927759 0.07955801 0.00503402
v -0.01287962 0.07699923 0.01458591
v -0.01768605 0.07844140 0.00920320
v -0.00328797 0.07678417 0.01538253
v -0.01127747 0.07678417 0.01538253
v -0.01608391 0.07784332 0.01143297
v -0.01448177 0.07699923 0.01447424
v -0.01683723 0.07649691 0.01380791
v -0.01534119 0.07542302 0.01549420
v -0.01690090 0.07440364 0.01385631
v -0.01689029 0.07543333 0.01384514
v -0.01750568 0.07440364 0.01302991
v -0.01877891 0.07600048 0.01112400
v -0.01826962 0.07600048 0.01192434
v -0.01947918 0.07600048 0.00983230
v -0.01997786 0.07600048 0.00879745
v -0.02028556 0.07759731 0.00790033
v -0.01811047 0.07599606 0.01214396
v -0.01735714 0.07597985 0.01317881
f 34 15 13
f 16 36 37
f 34 13 33
f 98 148 149
f 149 148 108
f 108 148 158
f 201 158 148
f 15 16 4
f 36 16 35
f 37 36 75
f 36 77 75
f 38 16 37
f 37 75 38
f 36 74 76
f 76 77 36
f 122 123 76
f 32 33 13
f 3 4 1
f 97 148 98
f 98 51 97
f 112 111 163
f 161 160 222
f 108 62 107
f 98 149 107
f 107 149 108
f 56 57 28
f 223 161 222
f 157 113 105
f 105 113 65
f 105 57 56
f 55 105 56
f 56 28 55
f 172 173 117
f 167 168 115
f 122 173 177
f 166 113 157
f 166 114 113
f 302 298 295
f 280 279 301
f 108 158 109
f 159 158 216
f 216 160 159
f 256 254 216
f 158 201 217
f 268 201 199
f 14 13 15
f 15 4 14
f 14 3 13
f 4 3 14
f 16 38 39
f 176 123 122
f 16 45 17
f 18 17 45
f 31 32 13
f 65 113 73
f 113 114 73
f 148 97 147
f 147 97 146
f 147 199 148
f 146 198 147
f 147 198 199
f 95 48 94
f 94 97 95
f 92 48 95
f 95 97 92
f 92 97 51
f 51 50 92
f 49 50 22
f 48 92 49
f 49 92 50
f 160 219 220
f 163 111 162
f 162 223 163
f 161 223 162
f 99 96 106
f 62 28 61
f 99 106 61
f 61 107 62
f 61 106 96
f 98 107 61
f 61 51 98
f 61 96 51
f 29 28 58
f 58 28 57
f 57 105 58
f 30 31 12
f 13 3 12
f 12 31 13
f 212 206 226
f 157 105 156
f 155 156 105
f 157 156 155
f 172 117 171
f 121 173 122
f 122 76 121
f 157 212 213
f 213 212 226
f 227 167 226
f 168 167 227
f 226 177 227
f 227 177 173
f 226 209 234
f 221 279 280
f 221 220 279
f 160 220 221
f 222 160 221
f 283 221 282
f 186 255 254
f 254 187 186
f 261 195 194
f 195 137 194
f 256 258 191
f 108 109 63
f 63 62 108
f 111 112 63
f 63 28 62
f 63 55 28
f 63 112 100
f 100 55 63
f 159 160 110
f 110 158 159
f 110 109 158
f 111 63 110
f 110 63 109
f 110 162 111
f 160 161 110
f 161 162 110
f 158 217 214
f 262 217 201
f 262 201 268
f 200 201 148
f 148 199 200
f 200 199 201
f 196 137 195
f 41 16 40
f 16 39 40
f 81 39 38
f 119 75 77
f 119 120 75
f 78 38 75
f 75 120 78
f 174 234 235
f 177 234 174
f 122 177 174
f 1 4 5
f 5 4 16
f 6 7 1
f 18 7 6
f 17 18 6
f 1 5 6
f 16 17 6
f 6 5 16
f 1 7 8
f 46 18 45
f 46 90 47
f 70 32 65
f 65 73 70
f 146 97 145
f 97 94 145
f 144 146 145
f 145 94 144
f 144 94 93
f 93 94 48
f 20 47 48
f 48 49 20
f 20 49 22
f 22 8 20
f 20 46 47
f 20 8 7
f 23 8 22
f 21 8 23
f 24 50 51
f 51 25 24
f 21 23 24
f 24 25 10
f 22 50 24
f 24 23 22
f 278 301 279
f 279 220 278
f 255 253 218
f 160 216 218
f 253 275 218
f 254 255 218
f 218 216 254
f 218 275 219
f 218 219 160
f 53 28 54
f 54 27 53
f 28 27 54
f 10 25 26
f 26 25 51
f 65 29 64
f 29 58 64
f 64 105 65
f 64 58 105
f 1 10 2
f 11 27 28
f 11 28 29
f 11 29 30
f 30 12 11
f 10 26 11
f 11 26 27
f 12 2 11
f 11 2 10
f 103 102 153
f 55 102 103
f 153 151 203
f 157 155 210
f 210 155 206
f 210 212 157
f 206 212 210
f 116 117 74
f 116 171 117
f 170 171 115
f 168 231 170
f 118 121 76
f 118 76 74
f 74 117 118
f 118 117 173
f 173 121 118
f 233 173 172
f 233 229 173
f 157 213 211
f 226 167 211
f 211 213 226
f 228 229 168
f 168 227 228
f 173 229 228
f 228 227 173
f 241 177 226
f 226 234 241
f 241 234 177
f 295 293 292
f 280 298 292
f 298 302 292
f 193 194 137
f 256 191 188
f 87 86 139
f 158 214 215
f 215 216 158
f 215 258 256
f 256 216 215
f 258 215 259
f 259 215 214
f 139 86 138
f 138 86 137
f 137 196 138
f 263 196 195
f 199 198 266
f 82 83 39
f 39 81 82
f 41 83 82
f 82 81 41
f 137 86 85
f 120 119 125
f 125 119 77
f 175 174 237
f 175 176 122
f 122 174 175
f 43 87 88
f 47 90 91
f 144 93 91
f 48 47 91
f 91 93 48
f 43 88 89
f 32 31 69
f 31 68 69
f 65 32 69
f 33 32 72
f 18 46 19
f 46 20 19
f 19 7 18
f 19 20 7
f 9 24 10
f 21 24 9
f 9 8 21
f 9 10 1
f 1 8 9
f 60 61 28
f 28 59 60
f 99 61 60
f 60 59 99
f 52 28 53
f 52 59 28
f 53 27 52
f 27 26 52
f 52 26 51
f 51 96 52
f 52 96 99
f 99 59 52
f 150 151 101
f 100 150 101
f 101 55 100
f 101 102 55
f 226 206 205
f 270 209 226
f 270 204 209
f 226 205 270
f 270 205 204
f 104 155 105
f 104 103 155
f 105 55 104
f 55 103 104
f 153 203 154
f 154 103 153
f 155 103 154
f 206 155 154
f 154 205 206
f 204 205 154
f 209 204 154
f 168 229 230
f 230 231 168
f 229 233 230
f 230 233 231
f 115 168 169
f 169 170 115
f 168 170 169
f 171 170 232
f 232 170 231
f 231 233 232
f 172 171 232
f 232 233 172
f 284 285 222
f 282 285 284
f 283 282 284
f 222 221 284
f 284 221 283
f 281 282 221
f 281 221 280
f 280 292 281
f 303 302 295
f 295 292 303
f 303 292 302
f 236 174 235
f 237 174 236
f 235 234 236
f 136 191 137
f 136 188 191
f 135 188 136
f 137 85 136
f 86 87 42
f 42 85 86
f 42 87 43
f 42 16 41
f 42 43 16
f 192 193 137
f 137 191 192
f 274 214 217
f 274 259 214
f 197 142 196
f 196 263 264
f 124 125 77
f 77 76 124
f 124 76 123
f 301 278 299
f 276 220 219
f 239 292 293
f 240 176 239
f 176 175 239
f 144 91 143
f 143 91 142
f 143 142 146
f 143 146 144
f 141 91 90
f 90 89 141
f 141 89 88
f 44 45 16
f 16 43 44
f 43 89 44
f 44 46 45
f 90 46 44
f 44 89 90
f 65 69 66
f 66 29 65
f 30 29 66
f 66 69 68
f 32 70 71
f 71 72 32
f 73 72 71
f 71 70 73
f 102 101 152
f 152 101 151
f 153 102 152
f 152 151 153
f 207 154 203
f 202 224 203
f 202 151 150
f 202 203 151
f 238 291 282
f 282 281 238
f 237 236 238
f 238 236 291
f 238 281 292
f 238 175 237
f 292 239 238
f 238 239 175
f 282 291 290
f 291 236 290
f 85 42 84
f 84 136 85
f 41 81 84
f 84 42 41
f 84 81 135
f 135 136 84
f 193 192 260
f 265 197 196
f 196 264 265
f 268 199 267
f 199 266 267
f 120 125 126
f 125 127 126
f 126 78 120
f 126 127 78
f 190 257 252
f 190 189 257
f 300 299 278
f 280 301 297
f 301 299 297
f 297 298 280
f 257 189 251
f 277 278 220
f 220 276 277
f 277 300 278
f 250 300 277
f 140 141 88
f 140 87 139
f 140 88 87
f 139 138 140
f 140 138 196
f 91 141 140
f 196 142 140
f 142 91 140
f 30 66 67
f 67 66 68
f 67 31 30
f 67 68 31
f 209 154 208
f 154 207 208
f 207 272 208
f 208 234 209
f 224 202 164
f 164 165 112
f 164 112 163
f 163 223 164
f 271 272 207
f 286 290 236
f 286 271 224
f 272 271 286
f 78 127 128
f 185 190 252
f 269 207 203
f 269 271 207
f 203 224 269
f 224 271 269
f 273 208 272
f 272 288 273
f 234 208 273
f 273 288 234
f 289 236 234
f 289 286 236
f 234 288 289
f 224 164 225
f 225 286 224
f 225 164 223
f 225 223 222
f 222 285 225
f 38 78 79
f 129 128 183
f 78 128 129
f 129 79 78
f 130 79 129
f 133 132 131
f 190 185 131
f 189 190 131
f 131 185 186
f 131 186 187
f 187 188 131
f 183 248 184
f 250 251 184
f 184 129 183
f 130 129 184
f 184 251 189
f 189 131 184
f 184 131 130
f 180 127 125
f 178 176 240
f 123 176 178
f 125 124 179
f 179 180 125
f 244 180 179
f 179 124 123
f 123 178 179
f 179 178 244
f 295 298 296
f 295 296 294
f 243 239 293
f 244 178 243
f 243 293 295
f 295 294 243
f 290 286 287
f 286 225 287
f 287 225 285
f 287 285 282
f 282 290 287
f 38 79 80
f 80 81 38
f 80 133 81
f 80 132 133
f 80 79 130
f 80 131 132
f 130 131 80
f 134 188 135
f 134 131 188
f 133 131 134
f 135 81 134
f 81 133 134
f 250 184 249
f 249 184 248
f 249 300 250
f 299 300 249
f 249 248 299
f 127 180 181
f 247 297 299
f 299 248 247
f 247 248 183
f 240 239 242
f 239 243 242
f 242 178 240
f 242 243 178
f 183 128 182
f 182 181 183
f 182 128 127
f 127 181 182
f 183 181 245
f 245 294 296
f 244 243 245
f 245 243 294
f 245 180 244
f 245 181 180
f 298 297 246
f 297 247 246
f 246 296 298
f 246 245 296
f 246 247 183
f 183 245 246
f 34 74 35
f 35 74 36
f 35 15 34
f 35 16 15
f 261 217 262
f 262 195 261
f 83 40 39
f 41 40 83
f 275 257 219
f 252 257 275
f 2 12 3
f 2 3 1
f 165 150 100
f 100 112 165
f 74 115 116
f 115 171 116
f 211 74 34
f 211 166 157
f 211 115 74
f 34 73 211
f 211 167 115
f 114 166 211
f 211 73 114
f 188 187 254
f 188 254 256
f 195 262 263
f 263 262 268
f 72 73 34
f 34 33 72
f 258 259 192
f 192 191 258
f 146 142 197
f 197 198 146
f 194 193 260
f 261 194 260
f 260 217 261
f 260 274 217
f 260 192 259
f 259 274 260
f 198 197 265
f 265 266 198
f 267 263 268
f 267 264 263
f 266 265 267
f 267 265 264
f 219 257 251
f 251 276 219
f 276 251 277
f 277 251 250
f 150 165 164
f 164 202 150
f 252 275 185
f 185 275 253
f 185 253 255
f 255 186 185
f 272 286 289
f 289 288 272

