# https://github.com/mikedh/trimesh
v -0.02182607 -0.04808874 0.00069526
v -0.01046627 -0.04808874 0.00069526
v -0.02177190 -0.04808874 0.00182766
v -0.02182607 0.02044526 0.00069526
v -0.01004231 -0.04808874 0.00146328
v 0.00223607 -0.01717757 0.00069526
v -0.02173892 -0.04808874 0.00218308
v -0.02177190 -0.00078798 0.00182766
v -0.02177190 0.04780817 0.00182654
v -0.02182372 0.04780817 0.00069526
v -0.00667182 -0.04808874 0.00784397
v 0.00223607 -0.01717757 0.00784397
v 0.00223372 -0.01725266 0.01214935
v 0.00223607 -0.01241839 0.00069526
v -0.02169653 -0.04808874 0.00262819
v -0.02169653 -0.03919931 0.00262819
v -0.02169653 0.01931883 0.00262707
v -0.02169417 0.04780817 0.00262707
v -0.01052751 0.04780817 0.00069526
v -0.02038460 -0.04808874 0.00784397
v -0.00805205 -0.04240964 0.01214935
v 0.00223607 -0.01241839 0.00784397
v 0.00223372 -0.01230575 0.01214935
v -0.00693798 0.04780817 0.00784397
v -0.02156463 -0.04808874 0.00343994
v -0.02162116 0.01931883 0.00309909
v -0.02156463 0.04780817 0.00343994
v -0.02081563 -0.04808874 0.00663757
v -0.01815174 -0.04240964 0.01214935
v -0.01830249 -0.04240964 0.01193296
v -0.01879004 -0.04240964 0.01113243
v -0.01948722 -0.04240964 0.00983633
v -0.01999597 -0.04240964 0.00879923
v -0.02033043 -0.04240964 0.00799870
v -0.00693327 0.00361449 0.01214935
v -0.02038460 0.04780817 0.00784397
v -0.02125137 -0.04808874 0.00503763
v -0.02124902 0.04780817 0.00503763
v -0.02125137 0.01039186 0.00503763
v -0.02081563 0.04780817 0.00663757
v -0.01815174 0.00361449 0.01214935
v -0.01826009 0.00361449 0.01199462
v -0.01830249 0.00361449 0.01193296
v -0.01841789 0.00361449 0.01174460
v -0.01879004 -0.02013445 0.01113243
v -0.01885363 -0.02013445 0.01102143
v -0.01948722 0.00361449 0.00983633
v -0.01960734 0.00361449 0.00959303
v -0.01999597 -0.02013445 0.00879923
v -0.02007370 0.00361449 0.00861087
v -0.02033514 -0.02013445 0.00798524
v -0.02032808 0.00361449 0.00799982
v -0.01999362 0.00361449 0.00879923
v -0.01895491 0.00361449 0.01082746
v -0.01878768 0.00361449 0.01113243
f 6 13 11
f 9 10 4
f 21 11 13
f 5 2 6
f 6 11 5
f 12 13 6
f 14 19 24
f 23 22 14
f 24 23 14
f 35 23 24
f 28 20 34
f 34 40 28
f 51 36 40
f 51 40 34
f 38 27 39
f 40 38 39
f 48 47 36
f 36 53 48
f 48 32 47
f 36 51 52
f 29 41 42
f 41 36 42
f 36 43 42
f 29 42 30
f 30 42 43
f 30 20 29
f 34 20 33
f 20 32 33
f 32 48 33
f 47 32 46
f 45 55 46
f 3 7 8
f 8 7 9
f 9 4 8
f 17 18 9
f 9 7 17
f 27 18 17
f 50 53 36
f 36 52 50
f 50 52 51
f 50 51 34
f 44 55 45
f 44 30 43
f 44 43 36
f 36 55 44
f 49 48 53
f 49 33 48
f 53 50 49
f 34 33 49
f 49 50 34
f 47 46 54
f 54 46 55
f 36 47 54
f 54 55 36
f 31 46 32
f 31 32 20
f 20 30 31
f 45 46 31
f 31 44 45
f 30 44 31
f 16 7 15
f 16 17 7
f 27 17 26
f 17 16 26
f 15 25 26
f 26 25 27
f 26 16 15
f 21 20 11
f 29 20 21
f 22 23 13
f 13 12 22
f 14 2 1
f 1 4 14
f 14 4 10
f 6 2 14
f 10 19 14
f 14 22 12
f 14 12 6
f 29 21 35
f 35 21 13
f 13 23 35
f 35 41 29
f 41 35 36
f 36 35 24
f 18 19 10
f 18 10 9
f 24 19 18
f 18 36 24
f 40 36 18
f 18 38 40
f 18 27 38
f 1 2 25
f 25 5 11
f 11 20 25
f 2 5 25
f 20 28 25
f 25 28 37
f 15 7 25
f 25 3 1
f 25 7 3
f 39 25 37
f 27 25 39
f 37 28 39
f 39 28 40
f 8 4 1
f 1 3 8

