# https://github.com/mikedh/trimesh
v 0.00223876 0.01173612 -0.02081551
v 0.00223876 0.01360195 -0.02081551
v 0.02029507 0.01173612 -0.01753064
v -0.00501324 0.00558962 -0.00956693
v -0.00525219 0.00558962 -0.00956693
v -0.02038142 0.00362414 0.00784159
v 0.00223876 0.02358367 -0.02081228
v 0.00469989 0.02358367 -0.02036699
v 0.02029507 0.02358367 -0.01753064
v -0.02038142 0.01845312 0.00784159
v 0.02029507 0.01173612 -0.00615622
v -0.00692879 0.00362414 0.01214935
v -0.00763766 0.00362414 0.00784159
v -0.02032567 0.00362414 0.00799647
v 0.00223876 0.02358367 -0.01186118
v 0.02029507 0.02358367 -0.00997028
v -0.02032567 0.01845312 0.00799647
v 0.02029507 0.01178301 -0.00614976
v 0.01751136 0.01520012 0.01031976
v 0.01747950 0.01458469 0.01031976
v 0.01740383 0.01360195 0.01031976
v 0.01704940 0.01245901 0.01031976
v 0.00223079 0.01224214 0.01214935
v -0.01814728 0.00362414 0.01214935
v -0.01999512 0.00362414 0.00879672
v 0.01191207 0.02358172 -0.00219695
v 0.01037485 0.02358367 -0.00614976
v -0.01999512 0.01845312 0.00879672
v -0.01948537 0.01845312 0.00983574
v -0.01878845 0.01845312 0.01113291
v -0.01830260 0.01845312 0.01192993
v -0.01814728 0.01845312 0.01214935
v 0.02029507 0.01341634 -0.00654989
v 0.01455242 0.02358367 -0.00615944
v 0.01511394 0.02358172 -0.00213887
v 0.01717285 0.01657947 0.01031976
v 0.01733215 0.01594841 0.01031976
v 0.02029507 0.01200378 -0.00613363
v 0.00223079 0.01717732 0.01214935
v -0.01825878 0.00362414 0.01199446
v -0.01948537 0.00362414 0.00983574
v 0.01271253 0.02358172 -0.00177747
v 0.01429356 0.02358172 -0.00174843
v 0.01453648 0.02358367 -0.00614976
v -0.01878845 0.00362414 0.01113291
v -0.01830260 0.00362414 0.01192993
v -0.00683719 0.01845312 0.01214935
v 0.01589449 0.01715973 0.01031976
f 4 1 3
f 6 1 5
f 1 4 5
f 13 4 3
f 3 12 13
f 7 2 10
f 12 22 23
f 8 9 2
f 8 2 7
f 11 12 3
f 11 22 12
f 21 23 22
f 22 11 21
f 16 19 33
f 16 37 19
f 36 37 16
f 16 35 36
f 33 19 38
f 39 37 36
f 23 19 39
f 19 37 39
f 36 35 48
f 47 39 48
f 48 39 36
f 29 30 15
f 15 28 29
f 15 17 28
f 7 10 15
f 10 17 15
f 20 19 23
f 23 21 20
f 20 11 19
f 20 21 11
f 19 11 18
f 18 38 19
f 47 48 43
f 43 48 35
f 32 47 43
f 43 42 32
f 35 44 43
f 43 44 27
f 43 27 42
f 32 15 31
f 31 15 30
f 27 15 26
f 42 27 26
f 32 42 26
f 26 15 32
f 35 16 34
f 34 44 35
f 40 24 32
f 40 31 46
f 32 31 40
f 1 2 9
f 3 1 9
f 13 5 4
f 6 5 13
f 10 2 1
f 10 1 6
f 39 24 12
f 32 24 39
f 12 23 39
f 39 47 32
f 29 28 25
f 25 41 29
f 3 9 18
f 18 11 3
f 9 16 18
f 18 16 33
f 33 38 18
f 29 41 45
f 45 30 29
f 46 31 45
f 45 31 30
f 14 10 6
f 14 17 10
f 14 25 28
f 28 17 14
f 9 8 34
f 34 8 7
f 34 16 9
f 7 15 34
f 34 15 27
f 27 44 34
f 6 13 40
f 40 13 12
f 12 24 40
f 40 14 6
f 40 45 41
f 41 25 40
f 46 45 40
f 25 14 40

