# https://github.com/mikedh/trimesh
v -0.00810103 -0.05199810 -0.02252233
v -0.00810103 -0.05359877 -0.02250876
v -0.00922137 -0.05359877 -0.02192841
v -0.00922137 -0.04838457 -0.02192841
v -0.00810103 -0.04838457 -0.02247142
v -0.00649858 -0.05359877 -0.02238318
v -0.00911577 -0.05466372 -0.02173835
v -0.00649858 -0.05487827 -0.02186392
v -0.00810103 -0.05484056 -0.02192162
v -0.02176094 -0.05451158 0.00069507
v -0.02182522 -0.05359747 0.00069507
v -0.02182522 -0.04809070 0.00069507
v -0.02038347 -0.04241229 0.00784254
v -0.00839489 -0.04241229 0.00784254
v 0.01992588 -0.04501419 0.00136366
v 0.01897542 -0.04662266 -0.00692075
v 0.00222999 -0.04874995 -0.02081183
v 0.00144942 -0.04874995 -0.02095097
v -0.00022191 -0.04874995 -0.02123606
v -0.00083718 -0.05199940 -0.02136842
v -0.00170039 -0.05359877 -0.02152454
v -0.00086014 -0.05441146 -0.02136503
v -0.00170039 -0.05452719 -0.02144308
v -0.00329826 -0.05470923 -0.02158563
v -0.00524967 -0.05455319 -0.02187750
v -0.00810103 -0.05531777 -0.02055729
v -0.01006622 -0.05531517 -0.01735688
v -0.02093446 -0.05496929 0.00069507
v -0.00524967 -0.05483666 -0.02176211
v -0.00524967 -0.05521765 -0.02084916
v -0.00649858 -0.05536848 -0.02055729
v -0.02174716 -0.05448168 0.00156390
v -0.02177012 -0.05359747 0.00182522
v -0.02177012 -0.04809070 0.00182522
v -0.02169207 -0.04809070 0.00262618
v -0.02156350 -0.04809070 0.00343731
v -0.02124668 -0.04809070 0.00503582
v -0.02105384 -0.04809070 0.00574853
v -0.02081048 -0.04809070 0.00663433
v -0.02032837 -0.04241229 0.00799866
v -0.00824337 -0.04241229 0.00825320
v 0.01999016 -0.04501419 0.00158426
v 0.02508220 -0.04961985 -0.00593314
v 0.00222999 -0.05199940 -0.02081183
v -0.00083718 -0.05359877 -0.02136842
v 0.00222999 -0.05273407 -0.02080843
v 0.00222999 -0.05359877 -0.02079825
v 0.00222999 -0.05417871 -0.02059123
v 0.00222999 -0.05487567 -0.02027220
v -0.00489612 -0.05482496 -0.02173156
v -0.00969890 -0.05536718 -0.01735688
v -0.01929068 -0.05537758 0.00069507
v -0.02043856 -0.05511753 0.00069507
v -0.02104925 -0.05484056 0.00199152
v -0.01929068 -0.05537238 0.00503582
v -0.02065437 -0.05488347 0.00503582
v -0.00489612 -0.05531517 -0.02055729
v -0.01006622 -0.05537758 -0.01575837
v 0.00222999 -0.05536588 -0.01895878
v 0.00149993 -0.05537758 -0.01895878
v 0.02508220 -0.05569486 -0.00593314
v -0.02045234 -0.05479505 0.00663433
v -0.02025031 -0.05460650 0.00781200
v -0.02123291 -0.05359747 0.00503582
v -0.02154054 -0.05359747 0.00343731
v -0.02169207 -0.05359747 0.00262618
v -0.02156350 -0.05199940 0.00343731
v -0.02124668 -0.05199940 0.00503582
v -0.02081048 -0.05359747 0.00663433
v -0.02032378 -0.05359617 0.00799866
v -0.01999319 -0.05199940 0.00879621
v -0.01999319 -0.04241229 0.00879621
v -0.00793114 -0.04241229 0.00983474
v 0.02022892 -0.04501419 0.00292484
v 0.02029780 -0.04501419 0.00333889
v 0.02508220 -0.04954184 0.00098355
v 0.00222999 -0.05510062 -0.01969864
v -0.00329826 -0.05519944 -0.02055729
v -0.01929068 -0.05537758 0.00343731
v -0.01769740 -0.05537758 0.00823623
v -0.01769740 -0.05530477 0.00983474
v -0.01929068 -0.05528526 0.00663433
v 0.02508220 -0.05569486 0.00098355
v -0.01897386 -0.05481455 0.00983474
v -0.01947434 -0.05359617 0.00983474
v -0.01997941 -0.05359617 0.00879621
v -0.01869377 -0.05462991 0.01096489
v -0.01948811 -0.05199940 0.00983474
v -0.01948811 -0.04241229 0.00983474
v -0.00793114 -0.04241229 0.00985510
v 0.02029780 -0.04501419 0.01118210
v -0.01609035 -0.05537758 0.01143664
v -0.01704999 -0.05502130 0.01214935
v -0.01777546 -0.05492768 0.01147397
v -0.01609035 -0.05527616 0.01214935
v 0.02029780 -0.05537758 0.01118210
v 0.00223458 -0.05537238 0.01214935
v -0.00258656 -0.05537888 0.01214935
v -0.00419361 -0.05537888 0.01214935
v -0.01538325 -0.05537758 0.01214935
v -0.01879019 -0.05359617 0.01113119
v -0.01814737 -0.05359617 0.01214935
v -0.01830349 -0.05359617 0.01193214
v -0.01752751 -0.05481195 0.01214935
v -0.01879019 -0.04241229 0.01113119
v -0.00805053 -0.04241229 0.01214935
v 0.00223458 -0.04961075 0.01214935
v -0.00391812 -0.04466831 0.01214935
v -0.01814737 -0.04241229 0.01214935
v -0.01830349 -0.04241229 0.01193214
f 4 12 13
f 13 12 34
f 75 76 43
f 91 76 75
f 43 17 16
f 16 15 43
f 108 107 91
f 96 97 83
f 35 36 13
f 13 34 35
f 43 15 42
f 15 16 5
f 5 14 15
f 5 16 17
f 13 14 5
f 5 4 13
f 17 18 5
f 5 18 19
f 1 4 5
f 61 49 48
f 48 47 61
f 49 22 48
f 22 47 48
f 92 83 100
f 100 95 92
f 13 36 37
f 19 18 6
f 6 18 17
f 1 5 6
f 6 5 19
f 74 75 43
f 43 42 74
f 91 90 106
f 106 108 91
f 15 14 41
f 41 42 15
f 104 94 93
f 46 44 61
f 61 47 46
f 46 47 22
f 77 49 61
f 61 59 77
f 60 59 61
f 61 52 58
f 58 52 51
f 3 4 1
f 3 10 11
f 98 83 97
f 40 69 70
f 40 39 69
f 13 39 40
f 72 40 71
f 71 40 70
f 104 102 87
f 87 102 103
f 87 94 104
f 87 84 94
f 101 87 103
f 85 87 101
f 1 6 2
f 2 3 1
f 22 6 21
f 73 74 42
f 42 41 73
f 75 74 73
f 80 79 83
f 80 83 92
f 52 79 53
f 27 53 28
f 51 52 27
f 52 53 27
f 10 28 32
f 11 10 32
f 84 87 63
f 70 69 63
f 63 87 85
f 99 100 83
f 83 98 99
f 38 37 68
f 68 69 38
f 69 39 38
f 13 37 38
f 38 39 13
f 88 71 85
f 85 101 88
f 86 71 70
f 85 71 86
f 70 63 86
f 86 63 85
f 7 2 9
f 3 2 7
f 10 3 7
f 7 28 10
f 7 27 28
f 49 50 24
f 8 2 6
f 9 2 8
f 44 46 45
f 45 46 22
f 22 21 45
f 51 27 26
f 26 7 9
f 27 7 26
f 64 69 68
f 64 63 69
f 32 63 64
f 68 67 64
f 11 32 33
f 33 32 66
f 23 6 22
f 23 24 6
f 23 22 49
f 49 24 23
f 6 24 25
f 25 24 50
f 25 8 6
f 78 77 59
f 59 57 78
f 49 77 78
f 78 50 49
f 78 57 50
f 59 60 31
f 31 57 59
f 31 60 61
f 31 30 57
f 51 26 31
f 8 30 31
f 61 58 31
f 31 58 51
f 9 8 31
f 31 26 9
f 20 45 21
f 20 6 17
f 20 21 6
f 79 80 55
f 55 53 79
f 28 53 55
f 81 80 92
f 92 95 81
f 81 55 80
f 82 55 81
f 95 93 81
f 81 93 94
f 94 84 81
f 84 82 81
f 28 55 56
f 56 55 82
f 66 32 65
f 32 64 65
f 67 66 65
f 65 64 67
f 29 25 50
f 8 25 29
f 29 30 8
f 50 57 29
f 57 30 29
f 54 32 28
f 28 56 54
f 54 56 32
f 62 63 32
f 32 56 62
f 62 56 82
f 84 63 62
f 62 82 84
f 91 107 97
f 96 91 97
f 83 91 96
f 83 76 91
f 83 61 43
f 43 76 83
f 43 61 44
f 44 17 43
f 68 37 67
f 67 37 36
f 61 83 79
f 79 52 61
f 12 4 3
f 11 12 3
f 66 67 36
f 36 35 66
f 110 102 109
f 103 102 110
f 101 110 105
f 103 110 101
f 13 40 73
f 73 14 13
f 73 41 14
f 109 106 73
f 73 72 89
f 89 105 73
f 73 106 90
f 73 110 109
f 73 40 72
f 105 110 73
f 91 75 73
f 73 90 91
f 99 97 107
f 104 93 99
f 99 102 104
f 107 108 99
f 99 106 109
f 95 100 99
f 109 102 99
f 108 106 99
f 99 93 95
f 99 98 97
f 89 72 88
f 72 71 88
f 88 105 89
f 88 101 105
f 33 12 11
f 33 34 12
f 33 66 35
f 33 35 34
f 17 44 20
f 44 45 20

