# https://github.com/mikedh/trimesh
v -0.01006577 0.01996836 -0.01983480
v -0.00922151 0.01996836 -0.02192599
v -0.01006577 0.01996836 -0.00609430
v -0.01006577 0.05199348 -0.01983480
v -0.00922151 0.04845092 -0.02193054
v -0.00919773 0.01996836 -0.02193963
v -0.00525289 0.01996836 -0.01062218
v 0.02030082 0.02358717 -0.00997437
v 0.01436128 0.02358717 -0.00730355
v -0.01006577 0.04846479 0.00069526
v -0.01006577 0.05308536 -0.01981434
v -0.00922151 0.05359490 -0.02193054
v -0.00809781 0.04559123 -0.02252607
v -0.00809781 0.02320588 -0.02252380
v -0.00809781 0.01996836 -0.02246697
v -0.00525289 0.01996836 -0.02044852
v 0.02030082 0.02358717 -0.01753221
v 0.02030082 0.04869356 -0.00730355
v 0.01832692 0.03523047 -0.00730355
v 0.00223545 0.05337306 0.00069526
v -0.01006577 0.05531419 0.00069526
v -0.01006577 0.05359490 -0.01980070
v -0.00809781 0.05359490 -0.02251016
v -0.00809781 0.05199348 -0.02252380
v -0.00911449 0.05465906 -0.02173960
v -0.00649848 0.04559123 -0.02239651
v -0.00649848 0.02480731 -0.02239651
v -0.00806214 0.01996836 -0.02245561
v -0.00649848 0.02320588 -0.02234650
v 0.00223842 0.02358717 -0.02081448
v -0.00674224 0.01996836 -0.02189644
v 0.00310349 0.05199694 -0.02065764
v 0.02030082 0.04719612 -0.01753221
v 0.02030082 0.05537658 -0.00730355
v 0.00223545 0.05468332 0.00069526
v -0.00695628 0.05536271 0.00069526
v -0.01006577 0.05536965 -0.00259382
v -0.01006577 0.05489476 -0.01888012
v -0.00649848 0.05359490 -0.02238287
v -0.00809781 0.05483930 -0.02192599
v -0.00649848 0.05487397 -0.02186689
v -0.01006577 0.05499875 -0.01865509
v -0.01006577 0.05531072 -0.01735946
v -0.00809781 0.05531419 -0.02055762
v -0.00489617 0.04399326 -0.02210784
v -0.00524992 0.03156312 -0.02217375
v -0.00524992 0.05359490 -0.02216011
v -0.00083540 0.05359490 -0.02136910
v -0.00524992 0.02898766 -0.02217375
v -0.00525289 0.02480731 -0.02217148
v 0.00470283 0.05359837 -0.02036669
v 0.02030082 0.05239557 -0.01752767
v 0.02030082 0.05537658 -0.01415903
v 0.01909686 0.05538005 -0.01575924
v 0.00264272 0.05537658 -0.00730355
v -0.00489617 0.05537311 0.00069526
v -0.00649848 0.05536618 0.00069526
v -0.01006577 0.05537311 -0.00296660
v -0.00525289 0.05483237 -0.02176460
v -0.00489617 0.05482198 -0.02173278
v -0.00329980 0.05470412 -0.02158731
v -0.00170046 0.05452388 -0.02144411
v -0.00085621 0.05440948 -0.02136228
v -0.00649848 0.05536271 -0.02055762
v -0.00489617 0.05531072 -0.02055762
v -0.01006577 0.05536618 -0.01699123
v 0.01674542 0.05441295 -0.01816866
v 0.00629919 0.05359837 -0.02007574
v 0.02030082 0.05359837 -0.01752312
v 0.02030082 0.05535579 -0.01575924
v 0.01749752 0.05538005 -0.01575924
v 0.01110018 0.05536618 -0.01736174
v 0.00150118 0.05537311 -0.01895513
v 0.00949787 0.05537658 -0.01736174
v 0.00223842 0.05537658 -0.01256108
v -0.00525289 0.05537311 0.00069526
v -0.01006577 0.05537311 -0.01575697
v -0.00329980 0.05519633 -0.02055762
v 0.00310349 0.05486010 -0.02020530
v 0.01269654 0.05482544 -0.01853689
v 0.00470283 0.05477344 -0.02006210
v 0.01429885 0.05470759 -0.01839142
v 0.00629919 0.05462786 -0.01991663
v 0.00741100 0.05449268 -0.01981661
v 0.00310349 0.05534885 -0.01895968
v -0.00649848 0.05537311 -0.01895513
v 0.01269654 0.05531419 -0.01736174
v 0.00470283 0.05526219 -0.01895968
v 0.01589819 0.05452734 -0.01824595
v 0.02030082 0.05486357 -0.01703896
v 0.01429885 0.05519980 -0.01736174
v 0.00223842 0.05537658 -0.01736174
f 9 3 8
f 10 3 9
f 10 9 20
f 8 3 7
f 19 9 8
f 19 20 9
f 1 5 2
f 17 16 31
f 54 34 53
f 53 70 54
f 90 69 67
f 54 70 72
f 54 73 74
f 67 51 63
f 25 22 38
f 25 23 12
f 12 22 25
f 12 11 22
f 4 11 12
f 56 35 34
f 20 19 18
f 18 19 8
f 6 5 14
f 6 2 5
f 14 15 6
f 28 15 17
f 17 31 28
f 27 15 14
f 27 29 15
f 33 51 52
f 67 69 52
f 48 63 51
f 32 33 17
f 32 51 33
f 45 48 32
f 32 48 51
f 39 60 61
f 25 38 42
f 25 44 40
f 40 23 25
f 24 12 23
f 24 23 39
f 26 48 45
f 26 24 39
f 81 61 60
f 82 61 81
f 85 72 70
f 70 90 91
f 79 88 91
f 68 51 67
f 67 52 68
f 68 52 51
f 30 32 17
f 29 27 30
f 17 15 30
f 15 29 30
f 62 63 39
f 39 61 62
f 43 44 25
f 25 42 43
f 66 44 43
f 23 40 41
f 39 23 41
f 77 86 66
f 21 36 37
f 37 36 58
f 76 55 58
f 47 26 39
f 48 26 47
f 39 63 47
f 63 48 47
f 13 27 14
f 24 26 13
f 13 26 27
f 5 12 13
f 14 5 13
f 12 24 13
f 87 85 70
f 70 91 87
f 87 91 88
f 72 85 64
f 64 73 54
f 54 72 64
f 64 86 73
f 64 44 66
f 66 86 64
f 64 40 44
f 64 41 40
f 80 91 90
f 79 91 80
f 90 82 80
f 82 81 80
f 60 79 80
f 80 81 60
f 50 30 27
f 45 32 46
f 46 26 45
f 89 90 67
f 89 82 90
f 83 61 82
f 83 62 61
f 82 89 83
f 59 60 39
f 39 41 59
f 59 41 60
f 58 55 75
f 75 55 71
f 58 36 57
f 57 76 58
f 78 79 60
f 78 88 79
f 32 30 49
f 49 46 32
f 30 50 49
f 49 50 27
f 62 83 84
f 84 83 89
f 84 89 67
f 67 63 84
f 63 62 84
f 92 75 71
f 86 77 92
f 41 64 65
f 60 41 65
f 65 78 60
f 65 64 85
f 88 78 65
f 65 87 88
f 85 87 65
f 7 17 8
f 7 16 17
f 1 4 12
f 12 5 1
f 18 35 20
f 34 35 18
f 28 3 1
f 16 7 28
f 28 7 3
f 1 2 28
f 28 31 16
f 28 6 15
f 2 6 28
f 69 90 52
f 8 17 52
f 17 33 52
f 52 53 34
f 34 18 52
f 70 53 52
f 52 90 70
f 52 18 8
f 54 71 55
f 55 34 54
f 1 3 37
f 37 3 10
f 10 21 37
f 37 4 1
f 22 11 37
f 37 38 22
f 37 11 4
f 37 77 66
f 66 43 37
f 37 42 38
f 37 43 42
f 58 77 37
f 34 55 76
f 76 56 34
f 57 21 10
f 10 20 57
f 20 35 57
f 35 56 57
f 57 36 21
f 56 76 57
f 26 46 49
f 27 26 49
f 92 77 58
f 58 75 92
f 92 71 54
f 54 74 92
f 92 74 73
f 73 86 92

