# https://github.com/mikedh/trimesh
v -0.00891378 -0.07394221 -0.01976888
v -0.00891378 -0.07358680 -0.01976888
v -0.00884275 -0.07394221 -0.01976888
v -0.00822290 -0.07444578 -0.01960509
v -0.00954655 -0.07444578 -0.01950458
v -0.01006309 -0.07443265 -0.01925888
v -0.01128988 -0.07440170 -0.01866699
v -0.01210990 -0.07358399 -0.01816816
v -0.01128988 -0.07335236 -0.01841385
v -0.00954655 -0.07320889 -0.01899830
v -0.00822290 -0.07320138 -0.01905042
v 0.03028550 -0.07111677 -0.01547300
v -0.00884275 -0.07358680 -0.01976888
v 0.03188679 -0.07440170 -0.01542088
v 0.03188679 -0.07599869 -0.01533526
v -0.00809377 -0.07562452 -0.01884940
v -0.00968860 -0.07562452 -0.01879356
v 0.03313296 -0.07687173 -0.01502256
v 0.03188679 -0.07694019 -0.01510074
v -0.01128988 -0.07542666 -0.01840641
v -0.01210990 -0.07522036 -0.01816816
v -0.01211635 -0.07440170 -0.01817561
v -0.01291055 -0.07440170 -0.01759116
v -0.01396301 -0.07440170 -0.01678707
v -0.01387261 -0.07342082 -0.01671262
v -0.01128988 -0.07286286 -0.01735291
v -0.01006309 -0.07310761 -0.01851436
v -0.01273621 -0.07328672 -0.01728963
v -0.00968860 -0.07263311 -0.01735663
v 0.02931053 -0.07111677 -0.01516402
v 0.03188679 -0.07111677 -0.01542088
v 0.04411599 -0.07440170 -0.01320593
v 0.04148161 -0.07599869 -0.01368242
v 0.03434038 -0.07545385 -0.01496300
v 0.03359785 -0.07599025 -0.01506723
v 0.03420479 -0.07651914 -0.01492950
v -0.00524631 -0.07625188 -0.01735663
v -0.00649248 -0.07625938 -0.01735663
v -0.00968860 -0.07625938 -0.01735663
v -0.01531893 -0.07681359 -0.01498161
v 0.04260509 -0.07689143 -0.01341440
v 0.04148161 -0.07701239 -0.01351863
v 0.03988678 -0.07712774 -0.01365636
v 0.03988678 -0.07754410 -0.01255447
v 0.04411599 -0.07883069 -0.00775976
v 0.04411599 -0.07968873 -0.00456577
v 0.04411599 -0.08040892 -0.00187805
v 0.04411599 -0.08054583 -0.00136433
v 0.02029036 -0.08054583 -0.00136433
v -0.01928987 -0.08054301 -0.00136433
v -0.01928987 -0.07968685 -0.00456577
v -0.01768858 -0.07850716 -0.00896589
v -0.01387261 -0.07547355 -0.01671262
v -0.01477010 -0.07440170 -0.01607606
v -0.01549326 -0.07338800 -0.01517147
v -0.01443435 -0.07316856 -0.01572241
v -0.01289117 -0.07273064 -0.01575591
v -0.01449246 -0.07270813 -0.01415519
v -0.01128988 -0.07262279 -0.01575591
v 0.02605629 -0.07111677 -0.01214127
v 0.04411599 -0.07111677 -0.01320221
v 0.04356716 -0.07599869 -0.01327666
v 0.04277297 -0.07599869 -0.01344790
v 0.04411599 -0.07599869 -0.01315754
v 0.03988678 -0.07599869 -0.01396534
v -0.01289117 -0.07684923 -0.01513796
v -0.01449246 -0.07683610 -0.01505979
v -0.01878624 -0.07846966 -0.00883187
v -0.01699770 -0.07689893 -0.01348140
v 0.04411599 -0.07659885 -0.01283739
v 0.04411599 -0.07723839 -0.01247630
v 0.04148161 -0.07746158 -0.01255447
v 0.04411599 -0.07784324 -0.01095376
v 0.04308290 -0.07789575 -0.01095376
v 0.04411599 -0.07850810 -0.00885048
v 0.04411599 -0.07871441 -0.00817297
v 0.04411599 -0.08064242 -0.00034434
v 0.04308290 -0.08069680 0.00023267
v -0.00809377 -0.08069587 0.00023267
v -0.01928987 -0.08069306 0.00023267
v -0.02088470 -0.08043799 0.00023267
v -0.02096864 -0.08026076 -0.00139039
v -0.02047792 -0.08010790 -0.00257790
v -0.01928987 -0.07923486 -0.00616649
v -0.01449246 -0.07710054 -0.01415519
v -0.01546744 -0.07599869 -0.01513052
v -0.01626808 -0.07599869 -0.01437110
v -0.01560303 -0.07440170 -0.01527570
v -0.01701707 -0.07344051 -0.01351863
v -0.01605501 -0.07317982 -0.01409563
v -0.01608083 -0.07274658 -0.01255447
v -0.01768858 -0.07264717 -0.00935676
v -0.01608083 -0.07262279 -0.01095376
v -0.01289117 -0.07262279 -0.01415519
v 0.02581094 -0.07111677 -0.01095376
v -0.01928987 -0.07261998 -0.00456577
v 0.04411599 -0.07111677 -0.00590963
v -0.01930278 -0.07868346 -0.00784166
v -0.02027131 -0.07858500 -0.00736517
v -0.01877333 -0.07721870 -0.01064850
v -0.01844403 -0.07599869 -0.01169455
v -0.01782417 -0.07599869 -0.01255447
v -0.01706873 -0.07599869 -0.01357075
v 0.04411599 -0.07759380 -0.01159032
v 0.04411599 -0.08069680 0.00023267
v -0.00604050 -0.08061710 0.00069427
v -0.01928987 -0.08061616 0.00069427
v -0.02087825 -0.08019605 0.00178127
v -0.02089116 -0.08036578 0.00069427
v -0.02173055 -0.08004788 0.00121171
v -0.02174346 -0.08007133 0.00069427
v -0.02175637 -0.08009009 0.00023267
v -0.02173700 -0.08007039 -0.00087295
v -0.01640368 -0.07440170 -0.01440089
v -0.01707519 -0.07440170 -0.01360053
v -0.01783709 -0.07440170 -0.01255447
v -0.01844403 -0.07440170 -0.01169455
v -0.01877333 -0.07330923 -0.01064850
v -0.01736574 -0.07323702 -0.01255447
v -0.01783063 -0.07303353 -0.01109149
v -0.01928987 -0.07291725 -0.00775976
v -0.01928987 -0.07267812 -0.00616649
v 0.02579157 -0.07111677 -0.00935676
v -0.02088470 -0.07302790 -0.00136433
v -0.02088470 -0.07298570 0.00023267
v -0.01928987 -0.07261998 0.00343783
v 0.04411599 -0.07162784 0.00677328
v 0.03153812 -0.07111677 0.00097719
v -0.02092344 -0.07759849 -0.00616649
v -0.02032296 -0.07746439 -0.00784166
v -0.02009051 -0.07684079 -0.00857501
v -0.01891538 -0.07599869 -0.01089419
v 0.04411599 -0.08041736 0.00183339
v 0.02029036 -0.08041829 0.00183711
v -0.00489764 -0.08061710 0.00069427
v -0.01928987 -0.08041829 0.00183711
v -0.02034233 -0.08006663 0.00289061
v -0.02124628 -0.07759849 0.00503855
v -0.02175637 -0.07919828 0.00156164
v -0.02180802 -0.07919828 0.00069427
v -0.02021319 -0.07852216 0.00767787
v -0.02078139 -0.07759849 0.00663555
v -0.02182094 -0.07919922 0.00023267
v -0.02175637 -0.07913358 -0.00139039
v -0.02170472 -0.07855499 -0.00229498
v -0.02134959 -0.07759849 -0.00456577
v -0.01891538 -0.07440170 -0.01089419
v -0.02009051 -0.07359243 -0.00857501
v -0.01930278 -0.07322577 -0.00920785
v -0.02023902 -0.07340769 -0.00775976
v -0.02051021 -0.07316762 -0.00616649
v -0.02070391 -0.07311324 -0.00456577
v 0.02579157 -0.07111677 0.00097719
v -0.02173700 -0.07351740 -0.00136433
v -0.02176283 -0.07347427 0.00023267
v -0.02118817 -0.07316762 0.00069427
v -0.02093635 -0.07303165 0.00069427
v -0.02065225 -0.07311699 0.00503855
v -0.01928987 -0.07262561 0.00503855
v 0.01269070 -0.07322202 0.01414032
v 0.02029036 -0.07313668 0.01269222
v 0.02029036 -0.07345833 0.01283368
v 0.02029036 -0.07440170 0.01315383
v 0.04411599 -0.07908388 0.00677328
v 0.03128631 -0.07141310 0.00677328
v -0.00810022 -0.07264436 0.01623242
v -0.00649893 -0.07271751 0.01623242
v -0.00810022 -0.07313574 0.01749066
v -0.00649893 -0.07320795 0.01735664
v 0.00310234 -0.07321451 0.01574848
v -0.02093635 -0.07599869 -0.00616649
v -0.02040044 -0.07599869 -0.00775976
v -0.02009697 -0.07599869 -0.00857873
v -0.01970956 -0.07599869 -0.00937537
v 0.04411599 -0.07988753 0.00381381
v 0.02029036 -0.07988753 0.00381753
v 0.00223713 -0.07893478 0.00737262
v -0.01769504 -0.07870221 0.00823999
v -0.01928987 -0.08010134 0.00301718
v -0.01928987 -0.07955744 0.00503855
v -0.01928987 -0.07909513 0.00663555
v -0.02155621 -0.07759849 0.00343783
v -0.02080722 -0.07600244 0.00663555
v -0.02124628 -0.07600244 0.00503855
v -0.02169180 -0.07759849 0.00262630
v -0.02176929 -0.07759849 0.00182594
v -0.02181448 -0.07873879 0.00069427
v -0.02184677 -0.07759849 0.00023267
v -0.02027776 -0.07783386 0.00784539
v -0.02032296 -0.07759849 0.00784539
v -0.01989681 -0.07854467 0.00784539
v -0.01858608 -0.07842839 0.00914458
v -0.01727534 -0.07707522 0.01274434
v -0.01868939 -0.07711554 0.01096493
v -0.02038107 -0.07618343 0.00784539
v -0.02178220 -0.07759849 -0.00136433
v -0.02170472 -0.07759849 -0.00235826
v -0.02161432 -0.07759849 -0.00315862
v -0.02134959 -0.07599869 -0.00456577
v -0.01970956 -0.07440170 -0.00937537
v -0.02009697 -0.07440170 -0.00857873
v -0.02040044 -0.07440170 -0.00775976
v -0.02092990 -0.07440170 -0.00616649
v -0.02170472 -0.07357273 -0.00229498
v 0.02564306 -0.07141310 0.00677328
v -0.01769504 -0.07262092 0.00823999
v -0.01608729 -0.07262092 0.01143770
v -0.01448601 -0.07262092 0.01303842
v -0.01289117 -0.07262092 0.01463170
v -0.01129634 -0.07262467 0.01623242
v -0.02184677 -0.07440170 0.00023267
v -0.02175637 -0.07348834 0.00069427
v -0.02105258 -0.07315731 0.00199346
v -0.02174346 -0.07351647 0.00156164
v -0.02044564 -0.07320420 0.00663555
v -0.01928987 -0.07271470 0.00663555
v -0.01769504 -0.07269219 0.00983698
v 0.01429199 -0.07335611 0.01400258
v -0.00489764 -0.07333079 0.01722263
v 0.00470363 -0.07334299 0.01561447
v 0.01549296 -0.07349209 0.01390207
v 0.01429199 -0.07440170 0.01417382
v 0.02029036 -0.07600056 0.01312777
v 0.04411599 -0.07913077 0.00663555
v 0.01538319 -0.07685017 0.01387973
v 0.01429199 -0.07692143 0.01395046
v 0.01269070 -0.07698332 0.01403980
v 0.00310234 -0.07675545 0.01537250
v 0.00150105 -0.07677608 0.01538739
v -0.00969506 -0.07262092 0.01623242
v -0.00969506 -0.07311136 0.01760606
v -0.00969506 -0.07440264 0.01819051
v 0.02029036 -0.07870315 0.00823627
v -0.01608729 -0.07784511 0.01143770
v -0.01769504 -0.07844246 0.00920042
v -0.01918656 -0.07859344 0.00822510
v -0.02155621 -0.07600244 0.00343783
v -0.02080722 -0.07440264 0.00663555
v -0.02122691 -0.07440264 0.00503855
v -0.02154330 -0.07440264 0.00343783
v -0.02169180 -0.07440264 0.00262630
v -0.02176929 -0.07440264 0.00182594
v -0.02182739 -0.07759849 0.00069427
v -0.02029713 -0.07759755 0.00790123
v -0.01998721 -0.07599869 0.00880210
v -0.01448601 -0.07700020 0.01447907
v -0.01577736 -0.07693175 0.01419243
v -0.01684274 -0.07649945 0.01381272
v -0.01828261 -0.07599869 0.01193281
v -0.01878624 -0.07599869 0.01113245
v -0.02032296 -0.07599869 0.00800174
v -0.02038107 -0.07440170 0.00784539
v -0.02178220 -0.07440170 -0.00136433
v -0.02170472 -0.07440170 -0.00235826
v -0.02161432 -0.07599869 -0.00315862
v -0.02133668 -0.07440170 -0.00456577
v -0.02160141 -0.07440170 -0.00315862
v -0.01609375 -0.07285348 0.01303842
v -0.01448601 -0.07280659 0.01463170
v -0.01129634 -0.07311418 0.01764328
v -0.01289117 -0.07286286 0.01623242
v -0.02182739 -0.07713899 0.00069427
v -0.02024548 -0.07339175 0.00781189
v -0.01897349 -0.07318263 0.00983698
v -0.01777252 -0.07307010 0.01147493
v 0.00594334 -0.07348084 0.01551023
v -0.00361274 -0.07347333 0.01711467
v -0.00649893 -0.07440264 0.01768423
v 0.00616287 -0.07440170 0.01554746
v 0.01561564 -0.07600056 0.01391696
v 0.01110233 -0.07741562 0.01303470
v 0.01909586 -0.07784511 0.01143398
v -0.00810022 -0.07440264 0.01794854
v -0.00361274 -0.07538259 0.01711467
v -0.00489764 -0.07555044 0.01722263
v -0.00649893 -0.07567141 0.01735664
v -0.00810022 -0.07573799 0.01749438
v -0.00969506 -0.07576894 0.01762095
v -0.00810022 -0.07652383 0.01623242
v -0.00969506 -0.07655477 0.01623242
v -0.00010024 -0.07678077 0.01538739
v -0.01129634 -0.07440264 0.01826124
v 0.00150105 -0.07700020 0.01458703
v -0.01289117 -0.07700020 0.01458703
v -0.01289117 -0.07678452 0.01538739
v -0.02025839 -0.07355960 0.00784539
v -0.01948358 -0.07599869 0.00983698
v -0.01998075 -0.07440170 0.00880210
v -0.02032296 -0.07440170 0.00800174
v -0.01448601 -0.07655759 0.01527571
v -0.01289117 -0.07548574 0.01733431
v -0.01369827 -0.07521473 0.01704022
v -0.01535767 -0.07542479 0.01549534
v -0.01690085 -0.07543417 0.01384995
v -0.01737220 -0.07597900 0.01317988
v -0.01829552 -0.07440170 0.01193281
v -0.01751425 -0.07440264 0.01303842
v -0.01878624 -0.07440170 0.01113245
v -0.01720432 -0.07334392 0.01303842
v -0.01596461 -0.07334767 0.01448652
v -0.01433749 -0.07335330 0.01611330
v -0.01289117 -0.07335330 0.01733431
v -0.01868939 -0.07337018 0.01096493
v -0.00169507 -0.07678452 0.01538739
v -0.01129634 -0.07576144 0.01764701
v -0.01129634 -0.07654727 0.01623242
v -0.01129634 -0.07678546 0.01538739
v -0.00330281 -0.07678546 0.01538739
v -0.01289117 -0.07440264 0.01763212
v -0.01946420 -0.07440170 0.00983698
v -0.01370473 -0.07440264 0.01704394
v -0.01449892 -0.07440264 0.01632921
v -0.01538350 -0.07440264 0.01552885
v -0.01618415 -0.07440264 0.01465776
v -0.01690731 -0.07440264 0.01385740
v -0.01690085 -0.07358305 0.01384995
v -0.01535767 -0.07352116 0.01549534
v -0.01369827 -0.07359430 0.01704022
f 224 164 229
f 79 80 50
f 50 19 49
f 49 19 48
f 49 79 50
f 78 79 49
f 92 60 93
f 93 58 92
f 161 127 160
f 33 14 32
f 42 71 43
f 42 41 71
f 92 58 91
f 57 58 29
f 117 118 89
f 148 118 117
f 233 177 176
f 43 71 72
f 16 39 17
f 17 4 16
f 16 4 19
f 52 39 19
f 50 80 81
f 253 211 204
f 241 214 242
f 242 214 211
f 210 205 153
f 291 305 282
f 195 183 142
f 29 58 59
f 31 61 32
f 32 14 31
f 170 160 127
f 219 160 170
f 164 127 163
f 161 160 218
f 71 41 70
f 41 64 70
f 63 33 32
f 41 33 63
f 14 33 34
f 65 33 41
f 41 36 65
f 65 34 33
f 90 91 58
f 101 117 116
f 89 115 116
f 116 117 89
f 148 117 147
f 306 305 285
f 285 280 306
f 306 280 305
f 175 233 176
f 224 233 175
f 229 164 228
f 164 227 228
f 228 280 229
f 228 279 280
f 225 274 275
f 104 72 71
f 73 72 104
f 44 19 43
f 43 72 44
f 44 72 73
f 37 16 19
f 51 19 50
f 51 52 19
f 17 39 40
f 115 103 102
f 101 116 102
f 102 116 115
f 102 69 101
f 102 103 69
f 137 141 110
f 110 141 142
f 185 139 182
f 186 139 185
f 286 238 252
f 252 289 286
f 286 289 288
f 154 155 124
f 204 211 154
f 211 155 154
f 240 214 241
f 240 239 214
f 241 237 240
f 184 240 237
f 239 240 184
f 238 239 184
f 262 242 211
f 127 167 168
f 309 291 282
f 150 148 204
f 204 151 150
f 151 149 150
f 150 118 148
f 150 149 118
f 195 142 190
f 142 141 190
f 297 294 315
f 297 249 294
f 297 296 249
f 94 93 60
f 60 59 94
f 58 93 94
f 94 59 58
f 29 59 30
f 30 59 60
f 219 267 220
f 220 160 219
f 220 218 160
f 161 218 221
f 32 64 62
f 62 63 32
f 62 64 41
f 41 63 62
f 19 4 18
f 4 15 18
f 18 15 36
f 18 36 41
f 41 42 18
f 43 19 18
f 18 42 43
f 35 15 14
f 36 15 35
f 14 34 35
f 35 65 36
f 34 65 35
f 58 57 56
f 56 90 58
f 91 90 119
f 89 118 119
f 119 90 89
f 121 151 122
f 121 149 151
f 121 122 92
f 118 149 121
f 204 148 203
f 101 69 100
f 131 172 173
f 131 132 101
f 101 100 131
f 272 233 224
f 272 283 233
f 133 175 134
f 134 175 176
f 176 177 134
f 177 136 134
f 134 105 133
f 106 79 78
f 180 137 179
f 137 136 179
f 78 49 77
f 77 49 48
f 77 105 78
f 225 277 226
f 277 228 226
f 226 228 227
f 164 225 226
f 226 227 164
f 278 228 277
f 282 305 278
f 279 228 278
f 305 280 278
f 280 279 278
f 276 277 225
f 225 275 276
f 39 16 38
f 16 37 38
f 19 39 38
f 38 37 19
f 50 81 82
f 82 81 113
f 99 100 69
f 130 131 99
f 99 131 100
f 3 15 4
f 14 15 3
f 137 110 108
f 108 136 137
f 113 81 112
f 138 110 142
f 182 139 138
f 139 110 138
f 138 142 183
f 144 113 143
f 113 112 143
f 188 196 143
f 143 196 144
f 152 154 124
f 124 122 152
f 122 151 152
f 152 151 204
f 204 154 152
f 214 156 212
f 212 156 155
f 211 214 212
f 212 155 211
f 188 187 243
f 243 187 186
f 96 122 124
f 96 95 60
f 96 123 95
f 96 60 92
f 92 122 96
f 127 165 166
f 166 167 127
f 166 168 167
f 205 210 230
f 230 165 205
f 230 166 165
f 127 97 128
f 128 165 127
f 214 239 263
f 263 238 286
f 263 239 238
f 286 288 263
f 311 309 318
f 219 170 169
f 169 170 127
f 127 168 169
f 294 248 293
f 294 249 295
f 295 248 294
f 249 248 295
f 194 248 249
f 235 192 180
f 181 137 180
f 180 192 181
f 181 141 137
f 12 31 13
f 29 30 12
f 223 270 225
f 223 225 164
f 164 163 223
f 232 267 219
f 219 169 232
f 232 275 274
f 232 169 168
f 232 276 275
f 277 276 232
f 282 278 232
f 232 278 277
f 163 221 222
f 222 223 163
f 218 220 266
f 266 221 218
f 266 220 267
f 267 268 266
f 268 221 266
f 161 221 162
f 162 221 163
f 162 127 161
f 162 163 127
f 91 119 120
f 120 119 118
f 92 91 120
f 120 121 92
f 118 121 120
f 148 201 202
f 202 203 148
f 204 203 256
f 172 131 129
f 129 131 130
f 130 99 129
f 129 99 113
f 148 147 200
f 200 201 148
f 307 280 285
f 307 308 280
f 280 308 304
f 304 308 283
f 79 106 107
f 107 106 136
f 80 79 107
f 107 108 80
f 136 108 107
f 105 134 135
f 75 76 44
f 19 44 45
f 44 76 45
f 39 52 66
f 52 85 66
f 52 40 67
f 67 85 52
f 67 66 85
f 67 40 39
f 39 66 67
f 109 110 81
f 109 108 110
f 109 81 80
f 80 108 109
f 81 110 111
f 111 112 81
f 110 112 111
f 140 187 188
f 188 143 140
f 140 139 186
f 186 187 140
f 140 110 139
f 140 112 110
f 140 143 112
f 125 96 124
f 124 155 125
f 155 156 125
f 156 157 125
f 159 125 158
f 158 125 157
f 316 317 300
f 296 297 316
f 316 297 315
f 159 217 206
f 153 159 206
f 282 232 231
f 231 232 168
f 168 166 231
f 166 230 231
f 292 293 248
f 292 247 291
f 248 247 292
f 292 309 311
f 291 309 292
f 189 190 141
f 141 194 189
f 305 291 290
f 291 247 290
f 285 305 290
f 290 247 285
f 285 247 246
f 246 247 192
f 141 192 193
f 192 247 193
f 193 247 248
f 193 194 141
f 248 194 193
f 178 179 136
f 178 136 177
f 180 179 178
f 178 235 180
f 236 181 192
f 298 287 250
f 250 296 298
f 249 296 250
f 250 194 249
f 310 287 298
f 288 287 310
f 245 287 288
f 289 251 245
f 245 288 289
f 245 251 195
f 195 190 245
f 294 293 313
f 317 316 313
f 293 292 313
f 318 317 313
f 273 268 267
f 267 232 273
f 273 232 274
f 273 274 225
f 225 270 273
f 270 268 273
f 269 221 268
f 269 222 221
f 223 222 269
f 269 268 270
f 270 223 269
f 26 56 57
f 26 57 29
f 172 129 171
f 171 202 172
f 203 202 171
f 132 131 174
f 174 131 173
f 229 280 281
f 280 304 281
f 283 272 271
f 271 304 283
f 271 281 304
f 229 281 271
f 271 224 229
f 271 272 224
f 73 75 74
f 74 44 73
f 74 75 44
f 19 45 46
f 52 51 84
f 68 98 99
f 69 40 68
f 68 99 69
f 68 40 52
f 52 84 68
f 68 84 98
f 114 103 115
f 114 88 103
f 114 115 89
f 89 88 114
f 53 40 69
f 53 21 40
f 24 21 53
f 17 40 20
f 40 21 20
f 1 3 4
f 126 125 159
f 96 125 126
f 126 159 153
f 214 263 215
f 215 158 214
f 213 156 214
f 214 158 213
f 213 157 156
f 213 158 157
f 303 310 298
f 298 296 303
f 296 316 303
f 303 263 288
f 288 310 303
f 207 206 217
f 153 206 207
f 260 230 210
f 260 231 230
f 282 231 260
f 282 260 302
f 302 309 282
f 302 318 309
f 192 235 234
f 234 246 192
f 285 246 234
f 235 178 234
f 234 178 177
f 177 233 234
f 233 283 234
f 191 192 141
f 191 236 192
f 141 181 191
f 181 236 191
f 244 250 287
f 244 245 190
f 287 245 244
f 194 250 244
f 190 189 244
f 244 189 194
f 315 294 314
f 294 313 314
f 314 316 315
f 314 313 316
f 311 318 312
f 318 313 312
f 312 292 311
f 312 313 292
f 27 26 29
f 9 26 27
f 28 26 9
f 9 25 28
f 56 26 28
f 28 25 56
f 8 25 9
f 24 25 8
f 55 88 89
f 89 90 55
f 90 56 55
f 56 25 55
f 54 25 24
f 24 53 54
f 88 55 54
f 54 55 25
f 254 253 204
f 204 256 257
f 257 254 204
f 197 198 145
f 196 197 145
f 144 196 145
f 145 113 144
f 146 171 129
f 146 145 198
f 146 129 113
f 113 145 146
f 48 19 47
f 19 46 47
f 99 98 83
f 98 84 83
f 83 82 113
f 113 99 83
f 83 84 51
f 83 51 50
f 50 82 83
f 159 158 216
f 158 215 216
f 216 217 159
f 264 215 263
f 263 303 264
f 217 216 264
f 264 216 215
f 258 207 217
f 259 207 258
f 300 259 258
f 209 259 210
f 209 210 153
f 300 317 301
f 301 259 300
f 301 317 318
f 318 302 301
f 284 234 283
f 284 307 285
f 285 234 284
f 9 27 10
f 10 27 29
f 29 12 10
f 10 12 11
f 5 20 21
f 17 20 5
f 5 4 17
f 5 1 4
f 23 21 24
f 24 8 23
f 86 53 69
f 86 54 53
f 254 257 255
f 217 264 265
f 265 258 217
f 265 264 303
f 208 207 259
f 259 209 208
f 153 207 208
f 208 209 153
f 259 301 261
f 261 301 302
f 210 259 261
f 261 260 210
f 261 302 260
f 2 10 11
f 2 12 13
f 11 12 2
f 9 10 2
f 2 8 9
f 2 7 8
f 1 5 2
f 22 7 21
f 8 7 22
f 21 23 22
f 22 23 8
f 88 54 87
f 54 86 87
f 103 88 87
f 69 103 87
f 87 86 69
f 171 146 199
f 199 256 203
f 203 171 199
f 300 258 299
f 258 265 299
f 299 316 300
f 299 303 316
f 299 265 303
f 6 2 5
f 7 2 6
f 6 5 21
f 21 7 6
f 188 211 253
f 253 196 188
f 182 237 185
f 185 237 241
f 185 242 186
f 241 242 185
f 238 183 252
f 252 183 195
f 132 147 117
f 132 117 101
f 13 31 3
f 3 31 14
f 138 237 182
f 138 184 237
f 138 183 238
f 238 184 138
f 251 252 195
f 289 252 251
f 243 211 188
f 243 262 211
f 186 242 243
f 242 262 243
f 153 205 128
f 205 165 128
f 12 97 61
f 12 123 153
f 60 95 12
f 61 31 12
f 12 30 60
f 95 123 12
f 153 128 12
f 12 128 97
f 202 201 173
f 173 172 202
f 135 106 78
f 78 105 135
f 135 134 136
f 136 106 135
f 147 132 174
f 174 200 147
f 173 201 174
f 201 200 174
f 153 123 126
f 123 96 126
f 196 253 254
f 254 197 196
f 164 224 47
f 32 61 47
f 47 104 71
f 47 127 164
f 47 64 32
f 47 77 48
f 224 175 47
f 47 97 127
f 71 70 47
f 61 97 47
f 47 70 64
f 47 175 133
f 133 105 47
f 73 104 47
f 105 77 47
f 47 75 73
f 76 75 47
f 47 45 76
f 47 46 45
f 308 307 284
f 283 308 284
f 197 254 255
f 255 198 197
f 13 3 2
f 3 1 2
f 199 255 257
f 199 257 256
f 198 255 199
f 199 146 198

